%TF.GenerationSoftware,KiCad,Pcbnew,7.0.5*%
%TF.CreationDate,2024-09-11T17:05:46+02:00*%
%TF.ProjectId,ModuleController,4d6f6475-6c65-4436-9f6e-74726f6c6c65,rev?*%
%TF.SameCoordinates,Original*%
%TF.FileFunction,Legend,Top*%
%TF.FilePolarity,Positive*%
%FSLAX46Y46*%
G04 Gerber Fmt 4.6, Leading zero omitted, Abs format (unit mm)*
G04 Created by KiCad (PCBNEW 7.0.5) date 2024-09-11 17:05:46*
%MOMM*%
%LPD*%
G01*
G04 APERTURE LIST*
%ADD10C,0.300000*%
%ADD11C,0.187500*%
%ADD12C,0.150000*%
%ADD13C,0.010000*%
%ADD14C,0.120000*%
G04 APERTURE END LIST*
D10*
X134857400Y-94512917D02*
X134928828Y-94298632D01*
X134928828Y-94298632D02*
X134928828Y-93941489D01*
X134928828Y-93941489D02*
X134857400Y-93798632D01*
X134857400Y-93798632D02*
X134785971Y-93727203D01*
X134785971Y-93727203D02*
X134643114Y-93655774D01*
X134643114Y-93655774D02*
X134500257Y-93655774D01*
X134500257Y-93655774D02*
X134357400Y-93727203D01*
X134357400Y-93727203D02*
X134285971Y-93798632D01*
X134285971Y-93798632D02*
X134214542Y-93941489D01*
X134214542Y-93941489D02*
X134143114Y-94227203D01*
X134143114Y-94227203D02*
X134071685Y-94370060D01*
X134071685Y-94370060D02*
X134000257Y-94441489D01*
X134000257Y-94441489D02*
X133857400Y-94512917D01*
X133857400Y-94512917D02*
X133714542Y-94512917D01*
X133714542Y-94512917D02*
X133571685Y-94441489D01*
X133571685Y-94441489D02*
X133500257Y-94370060D01*
X133500257Y-94370060D02*
X133428828Y-94227203D01*
X133428828Y-94227203D02*
X133428828Y-93870060D01*
X133428828Y-93870060D02*
X133500257Y-93655774D01*
X133928828Y-93012918D02*
X135428828Y-93012918D01*
X134000257Y-93012918D02*
X133928828Y-92870061D01*
X133928828Y-92870061D02*
X133928828Y-92584346D01*
X133928828Y-92584346D02*
X134000257Y-92441489D01*
X134000257Y-92441489D02*
X134071685Y-92370061D01*
X134071685Y-92370061D02*
X134214542Y-92298632D01*
X134214542Y-92298632D02*
X134643114Y-92298632D01*
X134643114Y-92298632D02*
X134785971Y-92370061D01*
X134785971Y-92370061D02*
X134857400Y-92441489D01*
X134857400Y-92441489D02*
X134928828Y-92584346D01*
X134928828Y-92584346D02*
X134928828Y-92870061D01*
X134928828Y-92870061D02*
X134857400Y-93012918D01*
X134928828Y-91441489D02*
X134857400Y-91584346D01*
X134857400Y-91584346D02*
X134714542Y-91655775D01*
X134714542Y-91655775D02*
X133428828Y-91655775D01*
X134928828Y-90870061D02*
X133928828Y-90870061D01*
X133428828Y-90870061D02*
X133500257Y-90941489D01*
X133500257Y-90941489D02*
X133571685Y-90870061D01*
X133571685Y-90870061D02*
X133500257Y-90798632D01*
X133500257Y-90798632D02*
X133428828Y-90870061D01*
X133428828Y-90870061D02*
X133571685Y-90870061D01*
X133928828Y-90370060D02*
X133928828Y-89798632D01*
X133428828Y-90155775D02*
X134714542Y-90155775D01*
X134714542Y-90155775D02*
X134857400Y-90084346D01*
X134857400Y-90084346D02*
X134928828Y-89941489D01*
X134928828Y-89941489D02*
X134928828Y-89798632D01*
X134143114Y-88798632D02*
X134143114Y-89298632D01*
X134928828Y-89298632D02*
X133428828Y-89298632D01*
X133428828Y-89298632D02*
X133428828Y-88584346D01*
X134928828Y-87798632D02*
X134857400Y-87941489D01*
X134857400Y-87941489D02*
X134714542Y-88012918D01*
X134714542Y-88012918D02*
X133428828Y-88012918D01*
X134928828Y-86584347D02*
X134143114Y-86584347D01*
X134143114Y-86584347D02*
X134000257Y-86655775D01*
X134000257Y-86655775D02*
X133928828Y-86798632D01*
X133928828Y-86798632D02*
X133928828Y-87084347D01*
X133928828Y-87084347D02*
X134000257Y-87227204D01*
X134857400Y-86584347D02*
X134928828Y-86727204D01*
X134928828Y-86727204D02*
X134928828Y-87084347D01*
X134928828Y-87084347D02*
X134857400Y-87227204D01*
X134857400Y-87227204D02*
X134714542Y-87298632D01*
X134714542Y-87298632D02*
X134571685Y-87298632D01*
X134571685Y-87298632D02*
X134428828Y-87227204D01*
X134428828Y-87227204D02*
X134357400Y-87084347D01*
X134357400Y-87084347D02*
X134357400Y-86727204D01*
X134357400Y-86727204D02*
X134285971Y-86584347D01*
X133928828Y-85870061D02*
X135428828Y-85870061D01*
X134000257Y-85870061D02*
X133928828Y-85727204D01*
X133928828Y-85727204D02*
X133928828Y-85441489D01*
X133928828Y-85441489D02*
X134000257Y-85298632D01*
X134000257Y-85298632D02*
X134071685Y-85227204D01*
X134071685Y-85227204D02*
X134214542Y-85155775D01*
X134214542Y-85155775D02*
X134643114Y-85155775D01*
X134643114Y-85155775D02*
X134785971Y-85227204D01*
X134785971Y-85227204D02*
X134857400Y-85298632D01*
X134857400Y-85298632D02*
X134928828Y-85441489D01*
X134928828Y-85441489D02*
X134928828Y-85727204D01*
X134928828Y-85727204D02*
X134857400Y-85870061D01*
X134785971Y-82512918D02*
X134857400Y-82584346D01*
X134857400Y-82584346D02*
X134928828Y-82798632D01*
X134928828Y-82798632D02*
X134928828Y-82941489D01*
X134928828Y-82941489D02*
X134857400Y-83155775D01*
X134857400Y-83155775D02*
X134714542Y-83298632D01*
X134714542Y-83298632D02*
X134571685Y-83370061D01*
X134571685Y-83370061D02*
X134285971Y-83441489D01*
X134285971Y-83441489D02*
X134071685Y-83441489D01*
X134071685Y-83441489D02*
X133785971Y-83370061D01*
X133785971Y-83370061D02*
X133643114Y-83298632D01*
X133643114Y-83298632D02*
X133500257Y-83155775D01*
X133500257Y-83155775D02*
X133428828Y-82941489D01*
X133428828Y-82941489D02*
X133428828Y-82798632D01*
X133428828Y-82798632D02*
X133500257Y-82584346D01*
X133500257Y-82584346D02*
X133571685Y-82512918D01*
X134928828Y-81655775D02*
X134857400Y-81798632D01*
X134857400Y-81798632D02*
X134785971Y-81870061D01*
X134785971Y-81870061D02*
X134643114Y-81941489D01*
X134643114Y-81941489D02*
X134214542Y-81941489D01*
X134214542Y-81941489D02*
X134071685Y-81870061D01*
X134071685Y-81870061D02*
X134000257Y-81798632D01*
X134000257Y-81798632D02*
X133928828Y-81655775D01*
X133928828Y-81655775D02*
X133928828Y-81441489D01*
X133928828Y-81441489D02*
X134000257Y-81298632D01*
X134000257Y-81298632D02*
X134071685Y-81227204D01*
X134071685Y-81227204D02*
X134214542Y-81155775D01*
X134214542Y-81155775D02*
X134643114Y-81155775D01*
X134643114Y-81155775D02*
X134785971Y-81227204D01*
X134785971Y-81227204D02*
X134857400Y-81298632D01*
X134857400Y-81298632D02*
X134928828Y-81441489D01*
X134928828Y-81441489D02*
X134928828Y-81655775D01*
X133928828Y-80512918D02*
X134928828Y-80512918D01*
X134071685Y-80512918D02*
X134000257Y-80441489D01*
X134000257Y-80441489D02*
X133928828Y-80298632D01*
X133928828Y-80298632D02*
X133928828Y-80084346D01*
X133928828Y-80084346D02*
X134000257Y-79941489D01*
X134000257Y-79941489D02*
X134143114Y-79870061D01*
X134143114Y-79870061D02*
X134928828Y-79870061D01*
X133928828Y-79370060D02*
X133928828Y-78798632D01*
X133428828Y-79155775D02*
X134714542Y-79155775D01*
X134714542Y-79155775D02*
X134857400Y-79084346D01*
X134857400Y-79084346D02*
X134928828Y-78941489D01*
X134928828Y-78941489D02*
X134928828Y-78798632D01*
X134928828Y-78298632D02*
X133928828Y-78298632D01*
X134214542Y-78298632D02*
X134071685Y-78227203D01*
X134071685Y-78227203D02*
X134000257Y-78155775D01*
X134000257Y-78155775D02*
X133928828Y-78012917D01*
X133928828Y-78012917D02*
X133928828Y-77870060D01*
X134928828Y-77155775D02*
X134857400Y-77298632D01*
X134857400Y-77298632D02*
X134785971Y-77370061D01*
X134785971Y-77370061D02*
X134643114Y-77441489D01*
X134643114Y-77441489D02*
X134214542Y-77441489D01*
X134214542Y-77441489D02*
X134071685Y-77370061D01*
X134071685Y-77370061D02*
X134000257Y-77298632D01*
X134000257Y-77298632D02*
X133928828Y-77155775D01*
X133928828Y-77155775D02*
X133928828Y-76941489D01*
X133928828Y-76941489D02*
X134000257Y-76798632D01*
X134000257Y-76798632D02*
X134071685Y-76727204D01*
X134071685Y-76727204D02*
X134214542Y-76655775D01*
X134214542Y-76655775D02*
X134643114Y-76655775D01*
X134643114Y-76655775D02*
X134785971Y-76727204D01*
X134785971Y-76727204D02*
X134857400Y-76798632D01*
X134857400Y-76798632D02*
X134928828Y-76941489D01*
X134928828Y-76941489D02*
X134928828Y-77155775D01*
X134928828Y-75798632D02*
X134857400Y-75941489D01*
X134857400Y-75941489D02*
X134714542Y-76012918D01*
X134714542Y-76012918D02*
X133428828Y-76012918D01*
X134928828Y-75012918D02*
X134857400Y-75155775D01*
X134857400Y-75155775D02*
X134714542Y-75227204D01*
X134714542Y-75227204D02*
X133428828Y-75227204D01*
X134857400Y-73870061D02*
X134928828Y-74012918D01*
X134928828Y-74012918D02*
X134928828Y-74298633D01*
X134928828Y-74298633D02*
X134857400Y-74441490D01*
X134857400Y-74441490D02*
X134714542Y-74512918D01*
X134714542Y-74512918D02*
X134143114Y-74512918D01*
X134143114Y-74512918D02*
X134000257Y-74441490D01*
X134000257Y-74441490D02*
X133928828Y-74298633D01*
X133928828Y-74298633D02*
X133928828Y-74012918D01*
X133928828Y-74012918D02*
X134000257Y-73870061D01*
X134000257Y-73870061D02*
X134143114Y-73798633D01*
X134143114Y-73798633D02*
X134285971Y-73798633D01*
X134285971Y-73798633D02*
X134428828Y-74512918D01*
X134928828Y-73155776D02*
X133928828Y-73155776D01*
X134214542Y-73155776D02*
X134071685Y-73084347D01*
X134071685Y-73084347D02*
X134000257Y-73012919D01*
X134000257Y-73012919D02*
X133928828Y-72870061D01*
X133928828Y-72870061D02*
X133928828Y-72727204D01*
X133428828Y-71298633D02*
X134928828Y-70798633D01*
X134928828Y-70798633D02*
X133428828Y-70298633D01*
X134928828Y-69012919D02*
X134928828Y-69870062D01*
X134928828Y-69441491D02*
X133428828Y-69441491D01*
X133428828Y-69441491D02*
X133643114Y-69584348D01*
X133643114Y-69584348D02*
X133785971Y-69727205D01*
X133785971Y-69727205D02*
X133857400Y-69870062D01*
D11*
X136107202Y-94729787D02*
X136773869Y-94539311D01*
X136773869Y-94539311D02*
X136297678Y-94348835D01*
X136297678Y-94348835D02*
X136773869Y-94158359D01*
X136773869Y-94158359D02*
X136107202Y-93967883D01*
X136107202Y-93682168D02*
X136773869Y-93491692D01*
X136773869Y-93491692D02*
X136297678Y-93301216D01*
X136297678Y-93301216D02*
X136773869Y-93110740D01*
X136773869Y-93110740D02*
X136107202Y-92920264D01*
X136107202Y-92634549D02*
X136773869Y-92444073D01*
X136773869Y-92444073D02*
X136297678Y-92253597D01*
X136297678Y-92253597D02*
X136773869Y-92063121D01*
X136773869Y-92063121D02*
X136107202Y-91872645D01*
X136678630Y-91491692D02*
X136726250Y-91444073D01*
X136726250Y-91444073D02*
X136773869Y-91491692D01*
X136773869Y-91491692D02*
X136726250Y-91539311D01*
X136726250Y-91539311D02*
X136678630Y-91491692D01*
X136678630Y-91491692D02*
X136773869Y-91491692D01*
X136773869Y-90586931D02*
X135773869Y-90586931D01*
X136726250Y-90586931D02*
X136773869Y-90682169D01*
X136773869Y-90682169D02*
X136773869Y-90872645D01*
X136773869Y-90872645D02*
X136726250Y-90967883D01*
X136726250Y-90967883D02*
X136678630Y-91015502D01*
X136678630Y-91015502D02*
X136583392Y-91063121D01*
X136583392Y-91063121D02*
X136297678Y-91063121D01*
X136297678Y-91063121D02*
X136202440Y-91015502D01*
X136202440Y-91015502D02*
X136154821Y-90967883D01*
X136154821Y-90967883D02*
X136107202Y-90872645D01*
X136107202Y-90872645D02*
X136107202Y-90682169D01*
X136107202Y-90682169D02*
X136154821Y-90586931D01*
X136726250Y-89729788D02*
X136773869Y-89825026D01*
X136773869Y-89825026D02*
X136773869Y-90015502D01*
X136773869Y-90015502D02*
X136726250Y-90110740D01*
X136726250Y-90110740D02*
X136631011Y-90158359D01*
X136631011Y-90158359D02*
X136250059Y-90158359D01*
X136250059Y-90158359D02*
X136154821Y-90110740D01*
X136154821Y-90110740D02*
X136107202Y-90015502D01*
X136107202Y-90015502D02*
X136107202Y-89825026D01*
X136107202Y-89825026D02*
X136154821Y-89729788D01*
X136154821Y-89729788D02*
X136250059Y-89682169D01*
X136250059Y-89682169D02*
X136345297Y-89682169D01*
X136345297Y-89682169D02*
X136440535Y-90158359D01*
X136107202Y-89253597D02*
X136773869Y-89253597D01*
X136202440Y-89253597D02*
X136154821Y-89205978D01*
X136154821Y-89205978D02*
X136107202Y-89110740D01*
X136107202Y-89110740D02*
X136107202Y-88967883D01*
X136107202Y-88967883D02*
X136154821Y-88872645D01*
X136154821Y-88872645D02*
X136250059Y-88825026D01*
X136250059Y-88825026D02*
X136773869Y-88825026D01*
X136107202Y-88348835D02*
X136773869Y-88348835D01*
X136202440Y-88348835D02*
X136154821Y-88301216D01*
X136154821Y-88301216D02*
X136107202Y-88205978D01*
X136107202Y-88205978D02*
X136107202Y-88063121D01*
X136107202Y-88063121D02*
X136154821Y-87967883D01*
X136154821Y-87967883D02*
X136250059Y-87920264D01*
X136250059Y-87920264D02*
X136773869Y-87920264D01*
X136773869Y-87444073D02*
X136107202Y-87444073D01*
X135773869Y-87444073D02*
X135821488Y-87491692D01*
X135821488Y-87491692D02*
X135869107Y-87444073D01*
X135869107Y-87444073D02*
X135821488Y-87396454D01*
X135821488Y-87396454D02*
X135773869Y-87444073D01*
X135773869Y-87444073D02*
X135869107Y-87444073D01*
X136726250Y-87015502D02*
X136773869Y-86920264D01*
X136773869Y-86920264D02*
X136773869Y-86729788D01*
X136773869Y-86729788D02*
X136726250Y-86634550D01*
X136726250Y-86634550D02*
X136631011Y-86586931D01*
X136631011Y-86586931D02*
X136583392Y-86586931D01*
X136583392Y-86586931D02*
X136488154Y-86634550D01*
X136488154Y-86634550D02*
X136440535Y-86729788D01*
X136440535Y-86729788D02*
X136440535Y-86872645D01*
X136440535Y-86872645D02*
X136392916Y-86967883D01*
X136392916Y-86967883D02*
X136297678Y-87015502D01*
X136297678Y-87015502D02*
X136250059Y-87015502D01*
X136250059Y-87015502D02*
X136154821Y-86967883D01*
X136154821Y-86967883D02*
X136107202Y-86872645D01*
X136107202Y-86872645D02*
X136107202Y-86729788D01*
X136107202Y-86729788D02*
X136154821Y-86634550D01*
X136107202Y-85729788D02*
X136916726Y-85729788D01*
X136916726Y-85729788D02*
X137011964Y-85777407D01*
X137011964Y-85777407D02*
X137059583Y-85825026D01*
X137059583Y-85825026D02*
X137107202Y-85920264D01*
X137107202Y-85920264D02*
X137107202Y-86063121D01*
X137107202Y-86063121D02*
X137059583Y-86158359D01*
X136726250Y-85729788D02*
X136773869Y-85825026D01*
X136773869Y-85825026D02*
X136773869Y-86015502D01*
X136773869Y-86015502D02*
X136726250Y-86110740D01*
X136726250Y-86110740D02*
X136678630Y-86158359D01*
X136678630Y-86158359D02*
X136583392Y-86205978D01*
X136583392Y-86205978D02*
X136297678Y-86205978D01*
X136297678Y-86205978D02*
X136202440Y-86158359D01*
X136202440Y-86158359D02*
X136154821Y-86110740D01*
X136154821Y-86110740D02*
X136107202Y-86015502D01*
X136107202Y-86015502D02*
X136107202Y-85825026D01*
X136107202Y-85825026D02*
X136154821Y-85729788D01*
X136107202Y-84825026D02*
X136773869Y-84825026D01*
X136107202Y-85253597D02*
X136631011Y-85253597D01*
X136631011Y-85253597D02*
X136726250Y-85205978D01*
X136726250Y-85205978D02*
X136773869Y-85110740D01*
X136773869Y-85110740D02*
X136773869Y-84967883D01*
X136773869Y-84967883D02*
X136726250Y-84872645D01*
X136726250Y-84872645D02*
X136678630Y-84825026D01*
X136107202Y-84348835D02*
X136773869Y-84348835D01*
X136202440Y-84348835D02*
X136154821Y-84301216D01*
X136154821Y-84301216D02*
X136107202Y-84205978D01*
X136107202Y-84205978D02*
X136107202Y-84063121D01*
X136107202Y-84063121D02*
X136154821Y-83967883D01*
X136154821Y-83967883D02*
X136250059Y-83920264D01*
X136250059Y-83920264D02*
X136773869Y-83920264D01*
X136773869Y-83444073D02*
X136107202Y-83444073D01*
X135773869Y-83444073D02*
X135821488Y-83491692D01*
X135821488Y-83491692D02*
X135869107Y-83444073D01*
X135869107Y-83444073D02*
X135821488Y-83396454D01*
X135821488Y-83396454D02*
X135773869Y-83444073D01*
X135773869Y-83444073D02*
X135869107Y-83444073D01*
X136773869Y-82539312D02*
X136250059Y-82539312D01*
X136250059Y-82539312D02*
X136154821Y-82586931D01*
X136154821Y-82586931D02*
X136107202Y-82682169D01*
X136107202Y-82682169D02*
X136107202Y-82872645D01*
X136107202Y-82872645D02*
X136154821Y-82967883D01*
X136726250Y-82539312D02*
X136773869Y-82634550D01*
X136773869Y-82634550D02*
X136773869Y-82872645D01*
X136773869Y-82872645D02*
X136726250Y-82967883D01*
X136726250Y-82967883D02*
X136631011Y-83015502D01*
X136631011Y-83015502D02*
X136535773Y-83015502D01*
X136535773Y-83015502D02*
X136440535Y-82967883D01*
X136440535Y-82967883D02*
X136392916Y-82872645D01*
X136392916Y-82872645D02*
X136392916Y-82634550D01*
X136392916Y-82634550D02*
X136345297Y-82539312D01*
X136678630Y-82063121D02*
X136726250Y-82015502D01*
X136726250Y-82015502D02*
X136773869Y-82063121D01*
X136773869Y-82063121D02*
X136726250Y-82110740D01*
X136726250Y-82110740D02*
X136678630Y-82063121D01*
X136678630Y-82063121D02*
X136773869Y-82063121D01*
X136773869Y-81158360D02*
X135773869Y-81158360D01*
X136726250Y-81158360D02*
X136773869Y-81253598D01*
X136773869Y-81253598D02*
X136773869Y-81444074D01*
X136773869Y-81444074D02*
X136726250Y-81539312D01*
X136726250Y-81539312D02*
X136678630Y-81586931D01*
X136678630Y-81586931D02*
X136583392Y-81634550D01*
X136583392Y-81634550D02*
X136297678Y-81634550D01*
X136297678Y-81634550D02*
X136202440Y-81586931D01*
X136202440Y-81586931D02*
X136154821Y-81539312D01*
X136154821Y-81539312D02*
X136107202Y-81444074D01*
X136107202Y-81444074D02*
X136107202Y-81253598D01*
X136107202Y-81253598D02*
X136154821Y-81158360D01*
X136726250Y-80301217D02*
X136773869Y-80396455D01*
X136773869Y-80396455D02*
X136773869Y-80586931D01*
X136773869Y-80586931D02*
X136726250Y-80682169D01*
X136726250Y-80682169D02*
X136631011Y-80729788D01*
X136631011Y-80729788D02*
X136250059Y-80729788D01*
X136250059Y-80729788D02*
X136154821Y-80682169D01*
X136154821Y-80682169D02*
X136107202Y-80586931D01*
X136107202Y-80586931D02*
X136107202Y-80396455D01*
X136107202Y-80396455D02*
X136154821Y-80301217D01*
X136154821Y-80301217D02*
X136250059Y-80253598D01*
X136250059Y-80253598D02*
X136345297Y-80253598D01*
X136345297Y-80253598D02*
X136440535Y-80729788D01*
X136392916Y-79063121D02*
X136392916Y-78301217D01*
X135869107Y-77110740D02*
X135821488Y-77063121D01*
X135821488Y-77063121D02*
X135773869Y-76967883D01*
X135773869Y-76967883D02*
X135773869Y-76729788D01*
X135773869Y-76729788D02*
X135821488Y-76634550D01*
X135821488Y-76634550D02*
X135869107Y-76586931D01*
X135869107Y-76586931D02*
X135964345Y-76539312D01*
X135964345Y-76539312D02*
X136059583Y-76539312D01*
X136059583Y-76539312D02*
X136202440Y-76586931D01*
X136202440Y-76586931D02*
X136773869Y-77158359D01*
X136773869Y-77158359D02*
X136773869Y-76539312D01*
X135773869Y-75920264D02*
X135773869Y-75825026D01*
X135773869Y-75825026D02*
X135821488Y-75729788D01*
X135821488Y-75729788D02*
X135869107Y-75682169D01*
X135869107Y-75682169D02*
X135964345Y-75634550D01*
X135964345Y-75634550D02*
X136154821Y-75586931D01*
X136154821Y-75586931D02*
X136392916Y-75586931D01*
X136392916Y-75586931D02*
X136583392Y-75634550D01*
X136583392Y-75634550D02*
X136678630Y-75682169D01*
X136678630Y-75682169D02*
X136726250Y-75729788D01*
X136726250Y-75729788D02*
X136773869Y-75825026D01*
X136773869Y-75825026D02*
X136773869Y-75920264D01*
X136773869Y-75920264D02*
X136726250Y-76015502D01*
X136726250Y-76015502D02*
X136678630Y-76063121D01*
X136678630Y-76063121D02*
X136583392Y-76110740D01*
X136583392Y-76110740D02*
X136392916Y-76158359D01*
X136392916Y-76158359D02*
X136154821Y-76158359D01*
X136154821Y-76158359D02*
X135964345Y-76110740D01*
X135964345Y-76110740D02*
X135869107Y-76063121D01*
X135869107Y-76063121D02*
X135821488Y-76015502D01*
X135821488Y-76015502D02*
X135773869Y-75920264D01*
X135869107Y-75205978D02*
X135821488Y-75158359D01*
X135821488Y-75158359D02*
X135773869Y-75063121D01*
X135773869Y-75063121D02*
X135773869Y-74825026D01*
X135773869Y-74825026D02*
X135821488Y-74729788D01*
X135821488Y-74729788D02*
X135869107Y-74682169D01*
X135869107Y-74682169D02*
X135964345Y-74634550D01*
X135964345Y-74634550D02*
X136059583Y-74634550D01*
X136059583Y-74634550D02*
X136202440Y-74682169D01*
X136202440Y-74682169D02*
X136773869Y-75253597D01*
X136773869Y-75253597D02*
X136773869Y-74634550D01*
X136107202Y-73777407D02*
X136773869Y-73777407D01*
X135726250Y-74015502D02*
X136440535Y-74253597D01*
X136440535Y-74253597D02*
X136440535Y-73634550D01*
D12*
%TO.C,R3*%
X139533333Y-94180819D02*
X139200000Y-93704628D01*
X138961905Y-94180819D02*
X138961905Y-93180819D01*
X138961905Y-93180819D02*
X139342857Y-93180819D01*
X139342857Y-93180819D02*
X139438095Y-93228438D01*
X139438095Y-93228438D02*
X139485714Y-93276057D01*
X139485714Y-93276057D02*
X139533333Y-93371295D01*
X139533333Y-93371295D02*
X139533333Y-93514152D01*
X139533333Y-93514152D02*
X139485714Y-93609390D01*
X139485714Y-93609390D02*
X139438095Y-93657009D01*
X139438095Y-93657009D02*
X139342857Y-93704628D01*
X139342857Y-93704628D02*
X138961905Y-93704628D01*
X139866667Y-93180819D02*
X140485714Y-93180819D01*
X140485714Y-93180819D02*
X140152381Y-93561771D01*
X140152381Y-93561771D02*
X140295238Y-93561771D01*
X140295238Y-93561771D02*
X140390476Y-93609390D01*
X140390476Y-93609390D02*
X140438095Y-93657009D01*
X140438095Y-93657009D02*
X140485714Y-93752247D01*
X140485714Y-93752247D02*
X140485714Y-93990342D01*
X140485714Y-93990342D02*
X140438095Y-94085580D01*
X140438095Y-94085580D02*
X140390476Y-94133200D01*
X140390476Y-94133200D02*
X140295238Y-94180819D01*
X140295238Y-94180819D02*
X140009524Y-94180819D01*
X140009524Y-94180819D02*
X139914286Y-94133200D01*
X139914286Y-94133200D02*
X139866667Y-94085580D01*
%TO.C,R2*%
X139533333Y-87322819D02*
X139200000Y-86846628D01*
X138961905Y-87322819D02*
X138961905Y-86322819D01*
X138961905Y-86322819D02*
X139342857Y-86322819D01*
X139342857Y-86322819D02*
X139438095Y-86370438D01*
X139438095Y-86370438D02*
X139485714Y-86418057D01*
X139485714Y-86418057D02*
X139533333Y-86513295D01*
X139533333Y-86513295D02*
X139533333Y-86656152D01*
X139533333Y-86656152D02*
X139485714Y-86751390D01*
X139485714Y-86751390D02*
X139438095Y-86799009D01*
X139438095Y-86799009D02*
X139342857Y-86846628D01*
X139342857Y-86846628D02*
X138961905Y-86846628D01*
X139914286Y-86418057D02*
X139961905Y-86370438D01*
X139961905Y-86370438D02*
X140057143Y-86322819D01*
X140057143Y-86322819D02*
X140295238Y-86322819D01*
X140295238Y-86322819D02*
X140390476Y-86370438D01*
X140390476Y-86370438D02*
X140438095Y-86418057D01*
X140438095Y-86418057D02*
X140485714Y-86513295D01*
X140485714Y-86513295D02*
X140485714Y-86608533D01*
X140485714Y-86608533D02*
X140438095Y-86751390D01*
X140438095Y-86751390D02*
X139866667Y-87322819D01*
X139866667Y-87322819D02*
X140485714Y-87322819D01*
%TO.C,F1*%
X143176666Y-84513009D02*
X142843333Y-84513009D01*
X142843333Y-85036819D02*
X142843333Y-84036819D01*
X142843333Y-84036819D02*
X143319523Y-84036819D01*
X144224285Y-85036819D02*
X143652857Y-85036819D01*
X143938571Y-85036819D02*
X143938571Y-84036819D01*
X143938571Y-84036819D02*
X143843333Y-84179676D01*
X143843333Y-84179676D02*
X143748095Y-84274914D01*
X143748095Y-84274914D02*
X143652857Y-84322533D01*
%TO.C,C6*%
X118263333Y-109325580D02*
X118215714Y-109373200D01*
X118215714Y-109373200D02*
X118072857Y-109420819D01*
X118072857Y-109420819D02*
X117977619Y-109420819D01*
X117977619Y-109420819D02*
X117834762Y-109373200D01*
X117834762Y-109373200D02*
X117739524Y-109277961D01*
X117739524Y-109277961D02*
X117691905Y-109182723D01*
X117691905Y-109182723D02*
X117644286Y-108992247D01*
X117644286Y-108992247D02*
X117644286Y-108849390D01*
X117644286Y-108849390D02*
X117691905Y-108658914D01*
X117691905Y-108658914D02*
X117739524Y-108563676D01*
X117739524Y-108563676D02*
X117834762Y-108468438D01*
X117834762Y-108468438D02*
X117977619Y-108420819D01*
X117977619Y-108420819D02*
X118072857Y-108420819D01*
X118072857Y-108420819D02*
X118215714Y-108468438D01*
X118215714Y-108468438D02*
X118263333Y-108516057D01*
X119120476Y-108420819D02*
X118930000Y-108420819D01*
X118930000Y-108420819D02*
X118834762Y-108468438D01*
X118834762Y-108468438D02*
X118787143Y-108516057D01*
X118787143Y-108516057D02*
X118691905Y-108658914D01*
X118691905Y-108658914D02*
X118644286Y-108849390D01*
X118644286Y-108849390D02*
X118644286Y-109230342D01*
X118644286Y-109230342D02*
X118691905Y-109325580D01*
X118691905Y-109325580D02*
X118739524Y-109373200D01*
X118739524Y-109373200D02*
X118834762Y-109420819D01*
X118834762Y-109420819D02*
X119025238Y-109420819D01*
X119025238Y-109420819D02*
X119120476Y-109373200D01*
X119120476Y-109373200D02*
X119168095Y-109325580D01*
X119168095Y-109325580D02*
X119215714Y-109230342D01*
X119215714Y-109230342D02*
X119215714Y-108992247D01*
X119215714Y-108992247D02*
X119168095Y-108897009D01*
X119168095Y-108897009D02*
X119120476Y-108849390D01*
X119120476Y-108849390D02*
X119025238Y-108801771D01*
X119025238Y-108801771D02*
X118834762Y-108801771D01*
X118834762Y-108801771D02*
X118739524Y-108849390D01*
X118739524Y-108849390D02*
X118691905Y-108897009D01*
X118691905Y-108897009D02*
X118644286Y-108992247D01*
%TO.C,R1*%
X132317833Y-123770819D02*
X131984500Y-123294628D01*
X131746405Y-123770819D02*
X131746405Y-122770819D01*
X131746405Y-122770819D02*
X132127357Y-122770819D01*
X132127357Y-122770819D02*
X132222595Y-122818438D01*
X132222595Y-122818438D02*
X132270214Y-122866057D01*
X132270214Y-122866057D02*
X132317833Y-122961295D01*
X132317833Y-122961295D02*
X132317833Y-123104152D01*
X132317833Y-123104152D02*
X132270214Y-123199390D01*
X132270214Y-123199390D02*
X132222595Y-123247009D01*
X132222595Y-123247009D02*
X132127357Y-123294628D01*
X132127357Y-123294628D02*
X131746405Y-123294628D01*
X133270214Y-123770819D02*
X132698786Y-123770819D01*
X132984500Y-123770819D02*
X132984500Y-122770819D01*
X132984500Y-122770819D02*
X132889262Y-122913676D01*
X132889262Y-122913676D02*
X132794024Y-123008914D01*
X132794024Y-123008914D02*
X132698786Y-123056533D01*
%TO.C,U4*%
X125076095Y-99390819D02*
X125076095Y-100200342D01*
X125076095Y-100200342D02*
X125123714Y-100295580D01*
X125123714Y-100295580D02*
X125171333Y-100343200D01*
X125171333Y-100343200D02*
X125266571Y-100390819D01*
X125266571Y-100390819D02*
X125457047Y-100390819D01*
X125457047Y-100390819D02*
X125552285Y-100343200D01*
X125552285Y-100343200D02*
X125599904Y-100295580D01*
X125599904Y-100295580D02*
X125647523Y-100200342D01*
X125647523Y-100200342D02*
X125647523Y-99390819D01*
X126552285Y-99724152D02*
X126552285Y-100390819D01*
X126314190Y-99343200D02*
X126076095Y-100057485D01*
X126076095Y-100057485D02*
X126695142Y-100057485D01*
%TO.C,U2*%
X97536095Y-71336819D02*
X97536095Y-72146342D01*
X97536095Y-72146342D02*
X97583714Y-72241580D01*
X97583714Y-72241580D02*
X97631333Y-72289200D01*
X97631333Y-72289200D02*
X97726571Y-72336819D01*
X97726571Y-72336819D02*
X97917047Y-72336819D01*
X97917047Y-72336819D02*
X98012285Y-72289200D01*
X98012285Y-72289200D02*
X98059904Y-72241580D01*
X98059904Y-72241580D02*
X98107523Y-72146342D01*
X98107523Y-72146342D02*
X98107523Y-71336819D01*
X98536095Y-71432057D02*
X98583714Y-71384438D01*
X98583714Y-71384438D02*
X98678952Y-71336819D01*
X98678952Y-71336819D02*
X98917047Y-71336819D01*
X98917047Y-71336819D02*
X99012285Y-71384438D01*
X99012285Y-71384438D02*
X99059904Y-71432057D01*
X99059904Y-71432057D02*
X99107523Y-71527295D01*
X99107523Y-71527295D02*
X99107523Y-71622533D01*
X99107523Y-71622533D02*
X99059904Y-71765390D01*
X99059904Y-71765390D02*
X98488476Y-72336819D01*
X98488476Y-72336819D02*
X99107523Y-72336819D01*
%TO.C,TP9*%
X110706819Y-120387904D02*
X110706819Y-119816476D01*
X111706819Y-120102190D02*
X110706819Y-120102190D01*
X111706819Y-119483142D02*
X110706819Y-119483142D01*
X110706819Y-119483142D02*
X110706819Y-119102190D01*
X110706819Y-119102190D02*
X110754438Y-119006952D01*
X110754438Y-119006952D02*
X110802057Y-118959333D01*
X110802057Y-118959333D02*
X110897295Y-118911714D01*
X110897295Y-118911714D02*
X111040152Y-118911714D01*
X111040152Y-118911714D02*
X111135390Y-118959333D01*
X111135390Y-118959333D02*
X111183009Y-119006952D01*
X111183009Y-119006952D02*
X111230628Y-119102190D01*
X111230628Y-119102190D02*
X111230628Y-119483142D01*
X111706819Y-118435523D02*
X111706819Y-118245047D01*
X111706819Y-118245047D02*
X111659200Y-118149809D01*
X111659200Y-118149809D02*
X111611580Y-118102190D01*
X111611580Y-118102190D02*
X111468723Y-118006952D01*
X111468723Y-118006952D02*
X111278247Y-117959333D01*
X111278247Y-117959333D02*
X110897295Y-117959333D01*
X110897295Y-117959333D02*
X110802057Y-118006952D01*
X110802057Y-118006952D02*
X110754438Y-118054571D01*
X110754438Y-118054571D02*
X110706819Y-118149809D01*
X110706819Y-118149809D02*
X110706819Y-118340285D01*
X110706819Y-118340285D02*
X110754438Y-118435523D01*
X110754438Y-118435523D02*
X110802057Y-118483142D01*
X110802057Y-118483142D02*
X110897295Y-118530761D01*
X110897295Y-118530761D02*
X111135390Y-118530761D01*
X111135390Y-118530761D02*
X111230628Y-118483142D01*
X111230628Y-118483142D02*
X111278247Y-118435523D01*
X111278247Y-118435523D02*
X111325866Y-118340285D01*
X111325866Y-118340285D02*
X111325866Y-118149809D01*
X111325866Y-118149809D02*
X111278247Y-118054571D01*
X111278247Y-118054571D02*
X111230628Y-118006952D01*
X111230628Y-118006952D02*
X111135390Y-117959333D01*
%TO.C,TP8*%
X106656819Y-120387904D02*
X106656819Y-119816476D01*
X107656819Y-120102190D02*
X106656819Y-120102190D01*
X107656819Y-119483142D02*
X106656819Y-119483142D01*
X106656819Y-119483142D02*
X106656819Y-119102190D01*
X106656819Y-119102190D02*
X106704438Y-119006952D01*
X106704438Y-119006952D02*
X106752057Y-118959333D01*
X106752057Y-118959333D02*
X106847295Y-118911714D01*
X106847295Y-118911714D02*
X106990152Y-118911714D01*
X106990152Y-118911714D02*
X107085390Y-118959333D01*
X107085390Y-118959333D02*
X107133009Y-119006952D01*
X107133009Y-119006952D02*
X107180628Y-119102190D01*
X107180628Y-119102190D02*
X107180628Y-119483142D01*
X107085390Y-118340285D02*
X107037771Y-118435523D01*
X107037771Y-118435523D02*
X106990152Y-118483142D01*
X106990152Y-118483142D02*
X106894914Y-118530761D01*
X106894914Y-118530761D02*
X106847295Y-118530761D01*
X106847295Y-118530761D02*
X106752057Y-118483142D01*
X106752057Y-118483142D02*
X106704438Y-118435523D01*
X106704438Y-118435523D02*
X106656819Y-118340285D01*
X106656819Y-118340285D02*
X106656819Y-118149809D01*
X106656819Y-118149809D02*
X106704438Y-118054571D01*
X106704438Y-118054571D02*
X106752057Y-118006952D01*
X106752057Y-118006952D02*
X106847295Y-117959333D01*
X106847295Y-117959333D02*
X106894914Y-117959333D01*
X106894914Y-117959333D02*
X106990152Y-118006952D01*
X106990152Y-118006952D02*
X107037771Y-118054571D01*
X107037771Y-118054571D02*
X107085390Y-118149809D01*
X107085390Y-118149809D02*
X107085390Y-118340285D01*
X107085390Y-118340285D02*
X107133009Y-118435523D01*
X107133009Y-118435523D02*
X107180628Y-118483142D01*
X107180628Y-118483142D02*
X107275866Y-118530761D01*
X107275866Y-118530761D02*
X107466342Y-118530761D01*
X107466342Y-118530761D02*
X107561580Y-118483142D01*
X107561580Y-118483142D02*
X107609200Y-118435523D01*
X107609200Y-118435523D02*
X107656819Y-118340285D01*
X107656819Y-118340285D02*
X107656819Y-118149809D01*
X107656819Y-118149809D02*
X107609200Y-118054571D01*
X107609200Y-118054571D02*
X107561580Y-118006952D01*
X107561580Y-118006952D02*
X107466342Y-117959333D01*
X107466342Y-117959333D02*
X107275866Y-117959333D01*
X107275866Y-117959333D02*
X107180628Y-118006952D01*
X107180628Y-118006952D02*
X107133009Y-118054571D01*
X107133009Y-118054571D02*
X107085390Y-118149809D01*
%TO.C,TP7*%
X102606819Y-120387904D02*
X102606819Y-119816476D01*
X103606819Y-120102190D02*
X102606819Y-120102190D01*
X103606819Y-119483142D02*
X102606819Y-119483142D01*
X102606819Y-119483142D02*
X102606819Y-119102190D01*
X102606819Y-119102190D02*
X102654438Y-119006952D01*
X102654438Y-119006952D02*
X102702057Y-118959333D01*
X102702057Y-118959333D02*
X102797295Y-118911714D01*
X102797295Y-118911714D02*
X102940152Y-118911714D01*
X102940152Y-118911714D02*
X103035390Y-118959333D01*
X103035390Y-118959333D02*
X103083009Y-119006952D01*
X103083009Y-119006952D02*
X103130628Y-119102190D01*
X103130628Y-119102190D02*
X103130628Y-119483142D01*
X102606819Y-118578380D02*
X102606819Y-117911714D01*
X102606819Y-117911714D02*
X103606819Y-118340285D01*
%TO.C,C5*%
X132675333Y-109579580D02*
X132627714Y-109627200D01*
X132627714Y-109627200D02*
X132484857Y-109674819D01*
X132484857Y-109674819D02*
X132389619Y-109674819D01*
X132389619Y-109674819D02*
X132246762Y-109627200D01*
X132246762Y-109627200D02*
X132151524Y-109531961D01*
X132151524Y-109531961D02*
X132103905Y-109436723D01*
X132103905Y-109436723D02*
X132056286Y-109246247D01*
X132056286Y-109246247D02*
X132056286Y-109103390D01*
X132056286Y-109103390D02*
X132103905Y-108912914D01*
X132103905Y-108912914D02*
X132151524Y-108817676D01*
X132151524Y-108817676D02*
X132246762Y-108722438D01*
X132246762Y-108722438D02*
X132389619Y-108674819D01*
X132389619Y-108674819D02*
X132484857Y-108674819D01*
X132484857Y-108674819D02*
X132627714Y-108722438D01*
X132627714Y-108722438D02*
X132675333Y-108770057D01*
X133580095Y-108674819D02*
X133103905Y-108674819D01*
X133103905Y-108674819D02*
X133056286Y-109151009D01*
X133056286Y-109151009D02*
X133103905Y-109103390D01*
X133103905Y-109103390D02*
X133199143Y-109055771D01*
X133199143Y-109055771D02*
X133437238Y-109055771D01*
X133437238Y-109055771D02*
X133532476Y-109103390D01*
X133532476Y-109103390D02*
X133580095Y-109151009D01*
X133580095Y-109151009D02*
X133627714Y-109246247D01*
X133627714Y-109246247D02*
X133627714Y-109484342D01*
X133627714Y-109484342D02*
X133580095Y-109579580D01*
X133580095Y-109579580D02*
X133532476Y-109627200D01*
X133532476Y-109627200D02*
X133437238Y-109674819D01*
X133437238Y-109674819D02*
X133199143Y-109674819D01*
X133199143Y-109674819D02*
X133103905Y-109627200D01*
X133103905Y-109627200D02*
X133056286Y-109579580D01*
%TO.C,J1*%
X134836819Y-46561333D02*
X135551104Y-46561333D01*
X135551104Y-46561333D02*
X135693961Y-46608952D01*
X135693961Y-46608952D02*
X135789200Y-46704190D01*
X135789200Y-46704190D02*
X135836819Y-46847047D01*
X135836819Y-46847047D02*
X135836819Y-46942285D01*
X135836819Y-45561333D02*
X135836819Y-46132761D01*
X135836819Y-45847047D02*
X134836819Y-45847047D01*
X134836819Y-45847047D02*
X134979676Y-45942285D01*
X134979676Y-45942285D02*
X135074914Y-46037523D01*
X135074914Y-46037523D02*
X135122533Y-46132761D01*
%TO.C,C2*%
X142581333Y-94633580D02*
X142533714Y-94681200D01*
X142533714Y-94681200D02*
X142390857Y-94728819D01*
X142390857Y-94728819D02*
X142295619Y-94728819D01*
X142295619Y-94728819D02*
X142152762Y-94681200D01*
X142152762Y-94681200D02*
X142057524Y-94585961D01*
X142057524Y-94585961D02*
X142009905Y-94490723D01*
X142009905Y-94490723D02*
X141962286Y-94300247D01*
X141962286Y-94300247D02*
X141962286Y-94157390D01*
X141962286Y-94157390D02*
X142009905Y-93966914D01*
X142009905Y-93966914D02*
X142057524Y-93871676D01*
X142057524Y-93871676D02*
X142152762Y-93776438D01*
X142152762Y-93776438D02*
X142295619Y-93728819D01*
X142295619Y-93728819D02*
X142390857Y-93728819D01*
X142390857Y-93728819D02*
X142533714Y-93776438D01*
X142533714Y-93776438D02*
X142581333Y-93824057D01*
X142962286Y-93824057D02*
X143009905Y-93776438D01*
X143009905Y-93776438D02*
X143105143Y-93728819D01*
X143105143Y-93728819D02*
X143343238Y-93728819D01*
X143343238Y-93728819D02*
X143438476Y-93776438D01*
X143438476Y-93776438D02*
X143486095Y-93824057D01*
X143486095Y-93824057D02*
X143533714Y-93919295D01*
X143533714Y-93919295D02*
X143533714Y-94014533D01*
X143533714Y-94014533D02*
X143486095Y-94157390D01*
X143486095Y-94157390D02*
X142914667Y-94728819D01*
X142914667Y-94728819D02*
X143533714Y-94728819D01*
%TO.C,C3*%
X132675333Y-116691580D02*
X132627714Y-116739200D01*
X132627714Y-116739200D02*
X132484857Y-116786819D01*
X132484857Y-116786819D02*
X132389619Y-116786819D01*
X132389619Y-116786819D02*
X132246762Y-116739200D01*
X132246762Y-116739200D02*
X132151524Y-116643961D01*
X132151524Y-116643961D02*
X132103905Y-116548723D01*
X132103905Y-116548723D02*
X132056286Y-116358247D01*
X132056286Y-116358247D02*
X132056286Y-116215390D01*
X132056286Y-116215390D02*
X132103905Y-116024914D01*
X132103905Y-116024914D02*
X132151524Y-115929676D01*
X132151524Y-115929676D02*
X132246762Y-115834438D01*
X132246762Y-115834438D02*
X132389619Y-115786819D01*
X132389619Y-115786819D02*
X132484857Y-115786819D01*
X132484857Y-115786819D02*
X132627714Y-115834438D01*
X132627714Y-115834438D02*
X132675333Y-115882057D01*
X133008667Y-115786819D02*
X133627714Y-115786819D01*
X133627714Y-115786819D02*
X133294381Y-116167771D01*
X133294381Y-116167771D02*
X133437238Y-116167771D01*
X133437238Y-116167771D02*
X133532476Y-116215390D01*
X133532476Y-116215390D02*
X133580095Y-116263009D01*
X133580095Y-116263009D02*
X133627714Y-116358247D01*
X133627714Y-116358247D02*
X133627714Y-116596342D01*
X133627714Y-116596342D02*
X133580095Y-116691580D01*
X133580095Y-116691580D02*
X133532476Y-116739200D01*
X133532476Y-116739200D02*
X133437238Y-116786819D01*
X133437238Y-116786819D02*
X133151524Y-116786819D01*
X133151524Y-116786819D02*
X133056286Y-116739200D01*
X133056286Y-116739200D02*
X133008667Y-116691580D01*
%TO.C,Y1*%
X121687809Y-110753628D02*
X121687809Y-111229819D01*
X121354476Y-110229819D02*
X121687809Y-110753628D01*
X121687809Y-110753628D02*
X122021142Y-110229819D01*
X122878285Y-111229819D02*
X122306857Y-111229819D01*
X122592571Y-111229819D02*
X122592571Y-110229819D01*
X122592571Y-110229819D02*
X122497333Y-110372676D01*
X122497333Y-110372676D02*
X122402095Y-110467914D01*
X122402095Y-110467914D02*
X122306857Y-110515533D01*
%TO.C,C1*%
X139787333Y-62501959D02*
X139739714Y-62549579D01*
X139739714Y-62549579D02*
X139596857Y-62597198D01*
X139596857Y-62597198D02*
X139501619Y-62597198D01*
X139501619Y-62597198D02*
X139358762Y-62549579D01*
X139358762Y-62549579D02*
X139263524Y-62454340D01*
X139263524Y-62454340D02*
X139215905Y-62359102D01*
X139215905Y-62359102D02*
X139168286Y-62168626D01*
X139168286Y-62168626D02*
X139168286Y-62025769D01*
X139168286Y-62025769D02*
X139215905Y-61835293D01*
X139215905Y-61835293D02*
X139263524Y-61740055D01*
X139263524Y-61740055D02*
X139358762Y-61644817D01*
X139358762Y-61644817D02*
X139501619Y-61597198D01*
X139501619Y-61597198D02*
X139596857Y-61597198D01*
X139596857Y-61597198D02*
X139739714Y-61644817D01*
X139739714Y-61644817D02*
X139787333Y-61692436D01*
X140739714Y-62597198D02*
X140168286Y-62597198D01*
X140454000Y-62597198D02*
X140454000Y-61597198D01*
X140454000Y-61597198D02*
X140358762Y-61740055D01*
X140358762Y-61740055D02*
X140263524Y-61835293D01*
X140263524Y-61835293D02*
X140168286Y-61882912D01*
%TO.C,C4*%
X132675333Y-114405580D02*
X132627714Y-114453200D01*
X132627714Y-114453200D02*
X132484857Y-114500819D01*
X132484857Y-114500819D02*
X132389619Y-114500819D01*
X132389619Y-114500819D02*
X132246762Y-114453200D01*
X132246762Y-114453200D02*
X132151524Y-114357961D01*
X132151524Y-114357961D02*
X132103905Y-114262723D01*
X132103905Y-114262723D02*
X132056286Y-114072247D01*
X132056286Y-114072247D02*
X132056286Y-113929390D01*
X132056286Y-113929390D02*
X132103905Y-113738914D01*
X132103905Y-113738914D02*
X132151524Y-113643676D01*
X132151524Y-113643676D02*
X132246762Y-113548438D01*
X132246762Y-113548438D02*
X132389619Y-113500819D01*
X132389619Y-113500819D02*
X132484857Y-113500819D01*
X132484857Y-113500819D02*
X132627714Y-113548438D01*
X132627714Y-113548438D02*
X132675333Y-113596057D01*
X133532476Y-113834152D02*
X133532476Y-114500819D01*
X133294381Y-113453200D02*
X133056286Y-114167485D01*
X133056286Y-114167485D02*
X133675333Y-114167485D01*
%TO.C,U1*%
X123302819Y-61975904D02*
X124112342Y-61975904D01*
X124112342Y-61975904D02*
X124207580Y-61928285D01*
X124207580Y-61928285D02*
X124255200Y-61880666D01*
X124255200Y-61880666D02*
X124302819Y-61785428D01*
X124302819Y-61785428D02*
X124302819Y-61594952D01*
X124302819Y-61594952D02*
X124255200Y-61499714D01*
X124255200Y-61499714D02*
X124207580Y-61452095D01*
X124207580Y-61452095D02*
X124112342Y-61404476D01*
X124112342Y-61404476D02*
X123302819Y-61404476D01*
X124302819Y-60404476D02*
X124302819Y-60975904D01*
X124302819Y-60690190D02*
X123302819Y-60690190D01*
X123302819Y-60690190D02*
X123445676Y-60785428D01*
X123445676Y-60785428D02*
X123540914Y-60880666D01*
X123540914Y-60880666D02*
X123588533Y-60975904D01*
%TO.C,U3*%
X138694095Y-113720819D02*
X138694095Y-114530342D01*
X138694095Y-114530342D02*
X138741714Y-114625580D01*
X138741714Y-114625580D02*
X138789333Y-114673200D01*
X138789333Y-114673200D02*
X138884571Y-114720819D01*
X138884571Y-114720819D02*
X139075047Y-114720819D01*
X139075047Y-114720819D02*
X139170285Y-114673200D01*
X139170285Y-114673200D02*
X139217904Y-114625580D01*
X139217904Y-114625580D02*
X139265523Y-114530342D01*
X139265523Y-114530342D02*
X139265523Y-113720819D01*
X139646476Y-113720819D02*
X140265523Y-113720819D01*
X140265523Y-113720819D02*
X139932190Y-114101771D01*
X139932190Y-114101771D02*
X140075047Y-114101771D01*
X140075047Y-114101771D02*
X140170285Y-114149390D01*
X140170285Y-114149390D02*
X140217904Y-114197009D01*
X140217904Y-114197009D02*
X140265523Y-114292247D01*
X140265523Y-114292247D02*
X140265523Y-114530342D01*
X140265523Y-114530342D02*
X140217904Y-114625580D01*
X140217904Y-114625580D02*
X140170285Y-114673200D01*
X140170285Y-114673200D02*
X140075047Y-114720819D01*
X140075047Y-114720819D02*
X139789333Y-114720819D01*
X139789333Y-114720819D02*
X139694095Y-114673200D01*
X139694095Y-114673200D02*
X139646476Y-114625580D01*
%TO.C,REF\u002A\u002A*%
D13*
X141117965Y-79199499D02*
X141145882Y-79236886D01*
X141180725Y-79293765D01*
X141219754Y-79365688D01*
X141256843Y-79440985D01*
X141301817Y-79543440D01*
X141342226Y-79651183D01*
X141378969Y-79767927D01*
X141412942Y-79897382D01*
X141445044Y-80043260D01*
X141476173Y-80209274D01*
X141507227Y-80399134D01*
X141536145Y-80595531D01*
X141561800Y-80766166D01*
X141587198Y-80909455D01*
X141613602Y-81028992D01*
X141642273Y-81128370D01*
X141674473Y-81211182D01*
X141711465Y-81281022D01*
X141754512Y-81341482D01*
X141804875Y-81396155D01*
X141823583Y-81413786D01*
X141867139Y-81452000D01*
X141902682Y-81480268D01*
X141923583Y-81493382D01*
X141925297Y-81493732D01*
X141935806Y-81498320D01*
X141935924Y-81514242D01*
X141924254Y-81544734D01*
X141899396Y-81593032D01*
X141859952Y-81662373D01*
X141831587Y-81710561D01*
X141787247Y-81782417D01*
X141749279Y-81838258D01*
X141720416Y-81874333D01*
X141703388Y-81886887D01*
X141703264Y-81886879D01*
X141687037Y-81879094D01*
X141646400Y-81857108D01*
X141583567Y-81822197D01*
X141500752Y-81775637D01*
X141400172Y-81718705D01*
X141284040Y-81652677D01*
X141154571Y-81578828D01*
X141013980Y-81498436D01*
X140864482Y-81412776D01*
X140708292Y-81323124D01*
X140547624Y-81230757D01*
X140384693Y-81136951D01*
X140221713Y-81042982D01*
X140060900Y-80950126D01*
X139904468Y-80859660D01*
X139754633Y-80772859D01*
X139613608Y-80691000D01*
X139483609Y-80615359D01*
X139366849Y-80547213D01*
X139265545Y-80487837D01*
X139181911Y-80438507D01*
X139118162Y-80400500D01*
X139076511Y-80375093D01*
X139059175Y-80363560D01*
X139058805Y-80363077D01*
X139071835Y-80353957D01*
X139109245Y-80330935D01*
X139168514Y-80295466D01*
X139247118Y-80249004D01*
X139342538Y-80193004D01*
X139452250Y-80128919D01*
X139573734Y-80058204D01*
X139704468Y-79982313D01*
X139841930Y-79902701D01*
X139983598Y-79820822D01*
X140126951Y-79738130D01*
X140269467Y-79656079D01*
X140408624Y-79576124D01*
X140541901Y-79499719D01*
X140666776Y-79428318D01*
X140780727Y-79363376D01*
X140881233Y-79306347D01*
X140965772Y-79258685D01*
X141031822Y-79221845D01*
X141076862Y-79197280D01*
X141098370Y-79186446D01*
X141099714Y-79186049D01*
X141117965Y-79199499D01*
G36*
X141117965Y-79199499D02*
G01*
X141145882Y-79236886D01*
X141180725Y-79293765D01*
X141219754Y-79365688D01*
X141256843Y-79440985D01*
X141301817Y-79543440D01*
X141342226Y-79651183D01*
X141378969Y-79767927D01*
X141412942Y-79897382D01*
X141445044Y-80043260D01*
X141476173Y-80209274D01*
X141507227Y-80399134D01*
X141536145Y-80595531D01*
X141561800Y-80766166D01*
X141587198Y-80909455D01*
X141613602Y-81028992D01*
X141642273Y-81128370D01*
X141674473Y-81211182D01*
X141711465Y-81281022D01*
X141754512Y-81341482D01*
X141804875Y-81396155D01*
X141823583Y-81413786D01*
X141867139Y-81452000D01*
X141902682Y-81480268D01*
X141923583Y-81493382D01*
X141925297Y-81493732D01*
X141935806Y-81498320D01*
X141935924Y-81514242D01*
X141924254Y-81544734D01*
X141899396Y-81593032D01*
X141859952Y-81662373D01*
X141831587Y-81710561D01*
X141787247Y-81782417D01*
X141749279Y-81838258D01*
X141720416Y-81874333D01*
X141703388Y-81886887D01*
X141703264Y-81886879D01*
X141687037Y-81879094D01*
X141646400Y-81857108D01*
X141583567Y-81822197D01*
X141500752Y-81775637D01*
X141400172Y-81718705D01*
X141284040Y-81652677D01*
X141154571Y-81578828D01*
X141013980Y-81498436D01*
X140864482Y-81412776D01*
X140708292Y-81323124D01*
X140547624Y-81230757D01*
X140384693Y-81136951D01*
X140221713Y-81042982D01*
X140060900Y-80950126D01*
X139904468Y-80859660D01*
X139754633Y-80772859D01*
X139613608Y-80691000D01*
X139483609Y-80615359D01*
X139366849Y-80547213D01*
X139265545Y-80487837D01*
X139181911Y-80438507D01*
X139118162Y-80400500D01*
X139076511Y-80375093D01*
X139059175Y-80363560D01*
X139058805Y-80363077D01*
X139071835Y-80353957D01*
X139109245Y-80330935D01*
X139168514Y-80295466D01*
X139247118Y-80249004D01*
X139342538Y-80193004D01*
X139452250Y-80128919D01*
X139573734Y-80058204D01*
X139704468Y-79982313D01*
X139841930Y-79902701D01*
X139983598Y-79820822D01*
X140126951Y-79738130D01*
X140269467Y-79656079D01*
X140408624Y-79576124D01*
X140541901Y-79499719D01*
X140666776Y-79428318D01*
X140780727Y-79363376D01*
X140881233Y-79306347D01*
X140965772Y-79258685D01*
X141031822Y-79221845D01*
X141076862Y-79197280D01*
X141098370Y-79186446D01*
X141099714Y-79186049D01*
X141117965Y-79199499D01*
G37*
X144378242Y-77297364D02*
X144356203Y-77336059D01*
X144320971Y-77397513D01*
X144273711Y-77479702D01*
X144215589Y-77580604D01*
X144147771Y-77698195D01*
X144071424Y-77830454D01*
X143987714Y-77975358D01*
X143897806Y-78130883D01*
X143802867Y-78295008D01*
X143766732Y-78357451D01*
X143670083Y-78524513D01*
X143577938Y-78683926D01*
X143491475Y-78833645D01*
X143411871Y-78971624D01*
X143340305Y-79095815D01*
X143277955Y-79204173D01*
X143225998Y-79294652D01*
X143185613Y-79365204D01*
X143157978Y-79413785D01*
X143144272Y-79438346D01*
X143142974Y-79440915D01*
X143131220Y-79433431D01*
X143099795Y-79407386D01*
X143051594Y-79365441D01*
X142989510Y-79310254D01*
X142916439Y-79244483D01*
X142835276Y-79170788D01*
X142748916Y-79091827D01*
X142660253Y-79010260D01*
X142572182Y-78928746D01*
X142487599Y-78849943D01*
X142409397Y-78776510D01*
X142340472Y-78711107D01*
X142283719Y-78656392D01*
X142242032Y-78615023D01*
X142228363Y-78600836D01*
X142184201Y-78553820D01*
X142220619Y-78530472D01*
X142239693Y-78519092D01*
X142283421Y-78493512D01*
X142349619Y-78454998D01*
X142436102Y-78404814D01*
X142540685Y-78344225D01*
X142661183Y-78274497D01*
X142795412Y-78196893D01*
X142941187Y-78112680D01*
X143096323Y-78023121D01*
X143256000Y-77931002D01*
X143419117Y-77836924D01*
X143575709Y-77746598D01*
X143723506Y-77661335D01*
X143860240Y-77582443D01*
X143983642Y-77511231D01*
X144091444Y-77449009D01*
X144181377Y-77397087D01*
X144251173Y-77356772D01*
X144298564Y-77329376D01*
X144320786Y-77316493D01*
X144358330Y-77295493D01*
X144381831Y-77284075D01*
X144385920Y-77283449D01*
X144378242Y-77297364D01*
G36*
X144378242Y-77297364D02*
G01*
X144356203Y-77336059D01*
X144320971Y-77397513D01*
X144273711Y-77479702D01*
X144215589Y-77580604D01*
X144147771Y-77698195D01*
X144071424Y-77830454D01*
X143987714Y-77975358D01*
X143897806Y-78130883D01*
X143802867Y-78295008D01*
X143766732Y-78357451D01*
X143670083Y-78524513D01*
X143577938Y-78683926D01*
X143491475Y-78833645D01*
X143411871Y-78971624D01*
X143340305Y-79095815D01*
X143277955Y-79204173D01*
X143225998Y-79294652D01*
X143185613Y-79365204D01*
X143157978Y-79413785D01*
X143144272Y-79438346D01*
X143142974Y-79440915D01*
X143131220Y-79433431D01*
X143099795Y-79407386D01*
X143051594Y-79365441D01*
X142989510Y-79310254D01*
X142916439Y-79244483D01*
X142835276Y-79170788D01*
X142748916Y-79091827D01*
X142660253Y-79010260D01*
X142572182Y-78928746D01*
X142487599Y-78849943D01*
X142409397Y-78776510D01*
X142340472Y-78711107D01*
X142283719Y-78656392D01*
X142242032Y-78615023D01*
X142228363Y-78600836D01*
X142184201Y-78553820D01*
X142220619Y-78530472D01*
X142239693Y-78519092D01*
X142283421Y-78493512D01*
X142349619Y-78454998D01*
X142436102Y-78404814D01*
X142540685Y-78344225D01*
X142661183Y-78274497D01*
X142795412Y-78196893D01*
X142941187Y-78112680D01*
X143096323Y-78023121D01*
X143256000Y-77931002D01*
X143419117Y-77836924D01*
X143575709Y-77746598D01*
X143723506Y-77661335D01*
X143860240Y-77582443D01*
X143983642Y-77511231D01*
X144091444Y-77449009D01*
X144181377Y-77397087D01*
X144251173Y-77356772D01*
X144298564Y-77329376D01*
X144320786Y-77316493D01*
X144358330Y-77295493D01*
X144381831Y-77284075D01*
X144385920Y-77283449D01*
X144378242Y-77297364D01*
G37*
X144932280Y-77597598D02*
X144933559Y-77640896D01*
X144934796Y-77712286D01*
X144935983Y-77810327D01*
X144937115Y-77933578D01*
X144938186Y-78080597D01*
X144939189Y-78249943D01*
X144940119Y-78440174D01*
X144940968Y-78649849D01*
X144941732Y-78877527D01*
X144942403Y-79121765D01*
X144942976Y-79381123D01*
X144943444Y-79654159D01*
X144943802Y-79939432D01*
X144944042Y-80235500D01*
X144944159Y-80540921D01*
X144944171Y-80669076D01*
X144944171Y-83769030D01*
X144560847Y-83547947D01*
X144479680Y-83501144D01*
X144375166Y-83440898D01*
X144250801Y-83369222D01*
X144110082Y-83288131D01*
X143956503Y-83199638D01*
X143793562Y-83105760D01*
X143624754Y-83008509D01*
X143453575Y-82909900D01*
X143283521Y-82811947D01*
X143240512Y-82787175D01*
X143083857Y-82696848D01*
X142934803Y-82610711D01*
X142795568Y-82530058D01*
X142668371Y-82456184D01*
X142555432Y-82390383D01*
X142458968Y-82333950D01*
X142381200Y-82288179D01*
X142324346Y-82254365D01*
X142290625Y-82233802D01*
X142282040Y-82228047D01*
X142275189Y-82215942D01*
X142277158Y-82195906D01*
X142289736Y-82163381D01*
X142314712Y-82113807D01*
X142353876Y-82042626D01*
X142356988Y-82037084D01*
X142394476Y-81971526D01*
X142427319Y-81916202D01*
X142452205Y-81876545D01*
X142465820Y-81857988D01*
X142466487Y-81857469D01*
X142485390Y-81861952D01*
X142527605Y-81882514D01*
X142590832Y-81917817D01*
X142672772Y-81966520D01*
X142771122Y-82027282D01*
X142883585Y-82098764D01*
X142911165Y-82116555D01*
X142987699Y-82162907D01*
X143053556Y-82196658D01*
X143102782Y-82214847D01*
X143112507Y-82216714D01*
X143155312Y-82215885D01*
X143223209Y-82206606D01*
X143311843Y-82190032D01*
X143416859Y-82167320D01*
X143533902Y-82139627D01*
X143658616Y-82108110D01*
X143786645Y-82073925D01*
X143913634Y-82038229D01*
X144035228Y-82002179D01*
X144147072Y-81966932D01*
X144244810Y-81933644D01*
X144324087Y-81903472D01*
X144371122Y-81882439D01*
X144421225Y-81857663D01*
X144469168Y-81834270D01*
X144471793Y-81833003D01*
X144520220Y-81794301D01*
X144552828Y-81737816D01*
X144568454Y-81672061D01*
X144565937Y-81605549D01*
X144544114Y-81546795D01*
X144515382Y-81513742D01*
X144436583Y-81466141D01*
X144338378Y-81431261D01*
X144230779Y-81412123D01*
X144169780Y-81409412D01*
X144055935Y-81420330D01*
X143961660Y-81452376D01*
X143882379Y-81507274D01*
X143864733Y-81524393D01*
X143815235Y-81575339D01*
X143465362Y-81578837D01*
X143115489Y-81582336D01*
X142980531Y-81493182D01*
X142919445Y-81451346D01*
X142864493Y-81411055D01*
X142823336Y-81378057D01*
X142808192Y-81363874D01*
X142770810Y-81323719D01*
X142800098Y-81269335D01*
X142821084Y-81234961D01*
X142837378Y-81216154D01*
X142840307Y-81214951D01*
X142852728Y-81202097D01*
X142861977Y-81180104D01*
X142870313Y-81158850D01*
X142886149Y-81126306D01*
X142911033Y-81079678D01*
X142946509Y-81016171D01*
X142994123Y-80932992D01*
X143055422Y-80827347D01*
X143088932Y-80769938D01*
X143129071Y-80702406D01*
X143157659Y-80658115D01*
X143178039Y-80633145D01*
X143193553Y-80623577D01*
X143207546Y-80625492D01*
X143210796Y-80627089D01*
X143231266Y-80642624D01*
X143269665Y-80675864D01*
X143321696Y-80722938D01*
X143383066Y-80779972D01*
X143435090Y-80829300D01*
X143558567Y-80942970D01*
X143665591Y-81031895D01*
X143757240Y-81096866D01*
X143834588Y-81138679D01*
X143873866Y-81152783D01*
X143908249Y-81158608D01*
X143966899Y-81164625D01*
X144043117Y-81170304D01*
X144130202Y-81175116D01*
X144185268Y-81177381D01*
X144280464Y-81180541D01*
X144350062Y-81181931D01*
X144399409Y-81181142D01*
X144433854Y-81177765D01*
X144458743Y-81171392D01*
X144479425Y-81161613D01*
X144492053Y-81153933D01*
X144540726Y-81109579D01*
X144574645Y-81052426D01*
X144589438Y-80992292D01*
X144584086Y-80947227D01*
X144560930Y-80906424D01*
X144519462Y-80855276D01*
X144466912Y-80800958D01*
X144410516Y-80750643D01*
X144357505Y-80711506D01*
X144331889Y-80697095D01*
X144296814Y-80675509D01*
X144243389Y-80636247D01*
X144175789Y-80582898D01*
X144098190Y-80519048D01*
X144014768Y-80448285D01*
X143929698Y-80374196D01*
X143847155Y-80300368D01*
X143771316Y-80230389D01*
X143706356Y-80167845D01*
X143658669Y-80118740D01*
X143611032Y-80064221D01*
X143575908Y-80018358D01*
X143556949Y-79986189D01*
X143554864Y-79975511D01*
X143563274Y-79959147D01*
X143585846Y-79918329D01*
X143621224Y-79855414D01*
X143668054Y-79772756D01*
X143724981Y-79672711D01*
X143790649Y-79557634D01*
X143863703Y-79429881D01*
X143942788Y-79291806D01*
X144026548Y-79145766D01*
X144113629Y-78994116D01*
X144202676Y-78839210D01*
X144292332Y-78683405D01*
X144381243Y-78529056D01*
X144468054Y-78378518D01*
X144551409Y-78234146D01*
X144629954Y-78098296D01*
X144702333Y-77973323D01*
X144767190Y-77861583D01*
X144823171Y-77765430D01*
X144868920Y-77687221D01*
X144903083Y-77629311D01*
X144924304Y-77594054D01*
X144930963Y-77583835D01*
X144932280Y-77597598D01*
G36*
X144932280Y-77597598D02*
G01*
X144933559Y-77640896D01*
X144934796Y-77712286D01*
X144935983Y-77810327D01*
X144937115Y-77933578D01*
X144938186Y-78080597D01*
X144939189Y-78249943D01*
X144940119Y-78440174D01*
X144940968Y-78649849D01*
X144941732Y-78877527D01*
X144942403Y-79121765D01*
X144942976Y-79381123D01*
X144943444Y-79654159D01*
X144943802Y-79939432D01*
X144944042Y-80235500D01*
X144944159Y-80540921D01*
X144944171Y-80669076D01*
X144944171Y-83769030D01*
X144560847Y-83547947D01*
X144479680Y-83501144D01*
X144375166Y-83440898D01*
X144250801Y-83369222D01*
X144110082Y-83288131D01*
X143956503Y-83199638D01*
X143793562Y-83105760D01*
X143624754Y-83008509D01*
X143453575Y-82909900D01*
X143283521Y-82811947D01*
X143240512Y-82787175D01*
X143083857Y-82696848D01*
X142934803Y-82610711D01*
X142795568Y-82530058D01*
X142668371Y-82456184D01*
X142555432Y-82390383D01*
X142458968Y-82333950D01*
X142381200Y-82288179D01*
X142324346Y-82254365D01*
X142290625Y-82233802D01*
X142282040Y-82228047D01*
X142275189Y-82215942D01*
X142277158Y-82195906D01*
X142289736Y-82163381D01*
X142314712Y-82113807D01*
X142353876Y-82042626D01*
X142356988Y-82037084D01*
X142394476Y-81971526D01*
X142427319Y-81916202D01*
X142452205Y-81876545D01*
X142465820Y-81857988D01*
X142466487Y-81857469D01*
X142485390Y-81861952D01*
X142527605Y-81882514D01*
X142590832Y-81917817D01*
X142672772Y-81966520D01*
X142771122Y-82027282D01*
X142883585Y-82098764D01*
X142911165Y-82116555D01*
X142987699Y-82162907D01*
X143053556Y-82196658D01*
X143102782Y-82214847D01*
X143112507Y-82216714D01*
X143155312Y-82215885D01*
X143223209Y-82206606D01*
X143311843Y-82190032D01*
X143416859Y-82167320D01*
X143533902Y-82139627D01*
X143658616Y-82108110D01*
X143786645Y-82073925D01*
X143913634Y-82038229D01*
X144035228Y-82002179D01*
X144147072Y-81966932D01*
X144244810Y-81933644D01*
X144324087Y-81903472D01*
X144371122Y-81882439D01*
X144421225Y-81857663D01*
X144469168Y-81834270D01*
X144471793Y-81833003D01*
X144520220Y-81794301D01*
X144552828Y-81737816D01*
X144568454Y-81672061D01*
X144565937Y-81605549D01*
X144544114Y-81546795D01*
X144515382Y-81513742D01*
X144436583Y-81466141D01*
X144338378Y-81431261D01*
X144230779Y-81412123D01*
X144169780Y-81409412D01*
X144055935Y-81420330D01*
X143961660Y-81452376D01*
X143882379Y-81507274D01*
X143864733Y-81524393D01*
X143815235Y-81575339D01*
X143465362Y-81578837D01*
X143115489Y-81582336D01*
X142980531Y-81493182D01*
X142919445Y-81451346D01*
X142864493Y-81411055D01*
X142823336Y-81378057D01*
X142808192Y-81363874D01*
X142770810Y-81323719D01*
X142800098Y-81269335D01*
X142821084Y-81234961D01*
X142837378Y-81216154D01*
X142840307Y-81214951D01*
X142852728Y-81202097D01*
X142861977Y-81180104D01*
X142870313Y-81158850D01*
X142886149Y-81126306D01*
X142911033Y-81079678D01*
X142946509Y-81016171D01*
X142994123Y-80932992D01*
X143055422Y-80827347D01*
X143088932Y-80769938D01*
X143129071Y-80702406D01*
X143157659Y-80658115D01*
X143178039Y-80633145D01*
X143193553Y-80623577D01*
X143207546Y-80625492D01*
X143210796Y-80627089D01*
X143231266Y-80642624D01*
X143269665Y-80675864D01*
X143321696Y-80722938D01*
X143383066Y-80779972D01*
X143435090Y-80829300D01*
X143558567Y-80942970D01*
X143665591Y-81031895D01*
X143757240Y-81096866D01*
X143834588Y-81138679D01*
X143873866Y-81152783D01*
X143908249Y-81158608D01*
X143966899Y-81164625D01*
X144043117Y-81170304D01*
X144130202Y-81175116D01*
X144185268Y-81177381D01*
X144280464Y-81180541D01*
X144350062Y-81181931D01*
X144399409Y-81181142D01*
X144433854Y-81177765D01*
X144458743Y-81171392D01*
X144479425Y-81161613D01*
X144492053Y-81153933D01*
X144540726Y-81109579D01*
X144574645Y-81052426D01*
X144589438Y-80992292D01*
X144584086Y-80947227D01*
X144560930Y-80906424D01*
X144519462Y-80855276D01*
X144466912Y-80800958D01*
X144410516Y-80750643D01*
X144357505Y-80711506D01*
X144331889Y-80697095D01*
X144296814Y-80675509D01*
X144243389Y-80636247D01*
X144175789Y-80582898D01*
X144098190Y-80519048D01*
X144014768Y-80448285D01*
X143929698Y-80374196D01*
X143847155Y-80300368D01*
X143771316Y-80230389D01*
X143706356Y-80167845D01*
X143658669Y-80118740D01*
X143611032Y-80064221D01*
X143575908Y-80018358D01*
X143556949Y-79986189D01*
X143554864Y-79975511D01*
X143563274Y-79959147D01*
X143585846Y-79918329D01*
X143621224Y-79855414D01*
X143668054Y-79772756D01*
X143724981Y-79672711D01*
X143790649Y-79557634D01*
X143863703Y-79429881D01*
X143942788Y-79291806D01*
X144026548Y-79145766D01*
X144113629Y-78994116D01*
X144202676Y-78839210D01*
X144292332Y-78683405D01*
X144381243Y-78529056D01*
X144468054Y-78378518D01*
X144551409Y-78234146D01*
X144629954Y-78098296D01*
X144702333Y-77973323D01*
X144767190Y-77861583D01*
X144823171Y-77765430D01*
X144868920Y-77687221D01*
X144903083Y-77629311D01*
X144924304Y-77594054D01*
X144930963Y-77583835D01*
X144932280Y-77597598D01*
G37*
D14*
%TO.C,R3*%
X139322436Y-90959000D02*
X139776564Y-90959000D01*
X139322436Y-92429000D02*
X139776564Y-92429000D01*
%TO.C,R2*%
X139322436Y-88009000D02*
X139776564Y-88009000D01*
X139322436Y-89479000D02*
X139776564Y-89479000D01*
%TO.C,F1*%
X142140000Y-93238000D02*
X144880000Y-93238000D01*
X144880000Y-93238000D02*
X144880000Y-85498000D01*
X142140000Y-85498000D02*
X144880000Y-85498000D01*
X142140000Y-93238000D02*
X142140000Y-85498000D01*
%TO.C,C6*%
X118168748Y-107923000D02*
X118691252Y-107923000D01*
X118168748Y-106453000D02*
X118691252Y-106453000D01*
%TO.C,R1*%
X132711564Y-122401000D02*
X132257436Y-122401000D01*
X132711564Y-120931000D02*
X132257436Y-120931000D01*
D12*
%TO.C,U4*%
X122213000Y-109611000D02*
X122538000Y-109611000D01*
X122213000Y-102361000D02*
X122213000Y-102586000D01*
X122213000Y-102361000D02*
X122538000Y-102361000D01*
X129463000Y-102361000D02*
X129138000Y-102361000D01*
X129463000Y-102361000D02*
X129463000Y-102686000D01*
X129463000Y-109611000D02*
X129463000Y-109286000D01*
X129463000Y-109611000D02*
X129138000Y-109611000D01*
X122213000Y-109611000D02*
X122213000Y-109286000D01*
X122213000Y-102586000D02*
X120788000Y-102586000D01*
D14*
%TO.C,U2*%
X93925000Y-73420000D02*
X96075000Y-73420000D01*
X96075000Y-70200000D02*
X96075000Y-71110000D01*
X93500000Y-70200000D02*
X96075000Y-70200000D01*
X96075000Y-72510000D02*
X96075000Y-73420000D01*
%TO.C,TP9*%
X112452000Y-122428000D02*
G75*
G03*
X112452000Y-122428000I-1200000J0D01*
G01*
%TO.C,TP8*%
X108402000Y-122428000D02*
G75*
G03*
X108402000Y-122428000I-1200000J0D01*
G01*
%TO.C,TP7*%
X104352000Y-122428000D02*
G75*
G03*
X104352000Y-122428000I-1200000J0D01*
G01*
%TO.C,C5*%
X132107000Y-106418748D02*
X132107000Y-106941252D01*
X133577000Y-106418748D02*
X133577000Y-106941252D01*
%TO.C,J1*%
X136698000Y-61328000D02*
X142668000Y-61328000D01*
X142668000Y-61328000D02*
X142668000Y-46208000D01*
X140408000Y-61318000D02*
X140408000Y-60568000D01*
X141908000Y-61318000D02*
X142658000Y-61318000D01*
X142658000Y-61318000D02*
X142658000Y-59518000D01*
X137458000Y-60568000D02*
X137458000Y-53768000D01*
X140408000Y-60568000D02*
X137458000Y-60568000D01*
X141908000Y-59518000D02*
X141908000Y-61318000D01*
X142658000Y-59518000D02*
X141908000Y-59518000D01*
X141908000Y-58018000D02*
X142658000Y-58018000D01*
X142658000Y-58018000D02*
X142658000Y-49518000D01*
X141908000Y-49518000D02*
X141908000Y-58018000D01*
X142658000Y-49518000D02*
X141908000Y-49518000D01*
X141908000Y-48018000D02*
X142658000Y-48018000D01*
X142658000Y-48018000D02*
X142658000Y-46218000D01*
X142958000Y-47168000D02*
X142958000Y-45918000D01*
X137458000Y-46968000D02*
X137458000Y-53768000D01*
X140408000Y-46968000D02*
X137458000Y-46968000D01*
X140408000Y-46218000D02*
X140408000Y-46968000D01*
X141908000Y-46218000D02*
X141908000Y-48018000D01*
X142658000Y-46218000D02*
X141908000Y-46218000D01*
X136698000Y-46208000D02*
X136698000Y-61328000D01*
X142668000Y-46208000D02*
X136698000Y-46208000D01*
X142958000Y-45918000D02*
X141708000Y-45918000D01*
%TO.C,C2*%
X145368000Y-97810000D02*
G75*
G03*
X145368000Y-97810000I-2620000J0D01*
G01*
X142464000Y-95209000D02*
X143032000Y-95209000D01*
X142230000Y-95249000D02*
X143266000Y-95249000D01*
X142071000Y-95289000D02*
X143425000Y-95289000D01*
X141943000Y-95329000D02*
X143553000Y-95329000D01*
X141833000Y-95369000D02*
X143663000Y-95369000D01*
X141737000Y-95409000D02*
X143759000Y-95409000D01*
X141650000Y-95449000D02*
X143846000Y-95449000D01*
X141570000Y-95489000D02*
X143926000Y-95489000D01*
X143788000Y-95529000D02*
X143999000Y-95529000D01*
X141497000Y-95529000D02*
X141708000Y-95529000D01*
X143788000Y-95569000D02*
X144067000Y-95569000D01*
X141429000Y-95569000D02*
X141708000Y-95569000D01*
X143788000Y-95609000D02*
X144131000Y-95609000D01*
X141365000Y-95609000D02*
X141708000Y-95609000D01*
X143788000Y-95649000D02*
X144191000Y-95649000D01*
X141305000Y-95649000D02*
X141708000Y-95649000D01*
X143788000Y-95689000D02*
X144248000Y-95689000D01*
X141248000Y-95689000D02*
X141708000Y-95689000D01*
X143788000Y-95729000D02*
X144302000Y-95729000D01*
X141194000Y-95729000D02*
X141708000Y-95729000D01*
X143788000Y-95769000D02*
X144353000Y-95769000D01*
X141143000Y-95769000D02*
X141708000Y-95769000D01*
X143788000Y-95809000D02*
X144401000Y-95809000D01*
X141095000Y-95809000D02*
X141708000Y-95809000D01*
X143788000Y-95849000D02*
X144447000Y-95849000D01*
X141049000Y-95849000D02*
X141708000Y-95849000D01*
X143788000Y-95889000D02*
X144491000Y-95889000D01*
X141005000Y-95889000D02*
X141708000Y-95889000D01*
X143788000Y-95929000D02*
X144533000Y-95929000D01*
X140963000Y-95929000D02*
X141708000Y-95929000D01*
X143788000Y-95969000D02*
X144574000Y-95969000D01*
X140922000Y-95969000D02*
X141708000Y-95969000D01*
X143788000Y-96009000D02*
X144612000Y-96009000D01*
X140884000Y-96009000D02*
X141708000Y-96009000D01*
X143788000Y-96049000D02*
X144649000Y-96049000D01*
X140847000Y-96049000D02*
X141708000Y-96049000D01*
X143788000Y-96089000D02*
X144685000Y-96089000D01*
X140811000Y-96089000D02*
X141708000Y-96089000D01*
X143788000Y-96129000D02*
X144719000Y-96129000D01*
X140777000Y-96129000D02*
X141708000Y-96129000D01*
X143788000Y-96169000D02*
X144752000Y-96169000D01*
X140744000Y-96169000D02*
X141708000Y-96169000D01*
X143788000Y-96209000D02*
X144783000Y-96209000D01*
X140713000Y-96209000D02*
X141708000Y-96209000D01*
X143788000Y-96249000D02*
X144813000Y-96249000D01*
X140683000Y-96249000D02*
X141708000Y-96249000D01*
X143788000Y-96289000D02*
X144843000Y-96289000D01*
X140653000Y-96289000D02*
X141708000Y-96289000D01*
X143788000Y-96329000D02*
X144870000Y-96329000D01*
X140626000Y-96329000D02*
X141708000Y-96329000D01*
X143788000Y-96369000D02*
X144897000Y-96369000D01*
X140599000Y-96369000D02*
X141708000Y-96369000D01*
X143788000Y-96409000D02*
X144923000Y-96409000D01*
X140573000Y-96409000D02*
X141708000Y-96409000D01*
X143788000Y-96449000D02*
X144948000Y-96449000D01*
X140548000Y-96449000D02*
X141708000Y-96449000D01*
X143788000Y-96489000D02*
X144972000Y-96489000D01*
X140524000Y-96489000D02*
X141708000Y-96489000D01*
X143788000Y-96529000D02*
X144995000Y-96529000D01*
X140501000Y-96529000D02*
X141708000Y-96529000D01*
X143788000Y-96569000D02*
X145016000Y-96569000D01*
X140480000Y-96569000D02*
X141708000Y-96569000D01*
X143788000Y-96609000D02*
X145038000Y-96609000D01*
X140458000Y-96609000D02*
X141708000Y-96609000D01*
X143788000Y-96649000D02*
X145058000Y-96649000D01*
X140438000Y-96649000D02*
X141708000Y-96649000D01*
X143788000Y-96689000D02*
X145077000Y-96689000D01*
X140419000Y-96689000D02*
X141708000Y-96689000D01*
X143788000Y-96729000D02*
X145096000Y-96729000D01*
X140400000Y-96729000D02*
X141708000Y-96729000D01*
X143788000Y-96769000D02*
X145113000Y-96769000D01*
X140383000Y-96769000D02*
X141708000Y-96769000D01*
X143788000Y-96809000D02*
X145130000Y-96809000D01*
X140366000Y-96809000D02*
X141708000Y-96809000D01*
X143788000Y-96849000D02*
X145146000Y-96849000D01*
X140350000Y-96849000D02*
X141708000Y-96849000D01*
X143788000Y-96889000D02*
X145162000Y-96889000D01*
X140334000Y-96889000D02*
X141708000Y-96889000D01*
X143788000Y-96929000D02*
X145176000Y-96929000D01*
X140320000Y-96929000D02*
X141708000Y-96929000D01*
X143788000Y-96969000D02*
X145190000Y-96969000D01*
X140306000Y-96969000D02*
X141708000Y-96969000D01*
X143788000Y-97009000D02*
X145203000Y-97009000D01*
X140293000Y-97009000D02*
X141708000Y-97009000D01*
X143788000Y-97049000D02*
X145216000Y-97049000D01*
X140280000Y-97049000D02*
X141708000Y-97049000D01*
X143788000Y-97089000D02*
X145228000Y-97089000D01*
X140268000Y-97089000D02*
X141708000Y-97089000D01*
X143788000Y-97130000D02*
X145239000Y-97130000D01*
X140257000Y-97130000D02*
X141708000Y-97130000D01*
X143788000Y-97170000D02*
X145249000Y-97170000D01*
X140247000Y-97170000D02*
X141708000Y-97170000D01*
X143788000Y-97210000D02*
X145259000Y-97210000D01*
X140237000Y-97210000D02*
X141708000Y-97210000D01*
X143788000Y-97250000D02*
X145268000Y-97250000D01*
X140228000Y-97250000D02*
X141708000Y-97250000D01*
X143788000Y-97290000D02*
X145276000Y-97290000D01*
X140220000Y-97290000D02*
X141708000Y-97290000D01*
X143788000Y-97330000D02*
X145284000Y-97330000D01*
X140212000Y-97330000D02*
X141708000Y-97330000D01*
X143788000Y-97370000D02*
X145291000Y-97370000D01*
X140205000Y-97370000D02*
X141708000Y-97370000D01*
X143788000Y-97410000D02*
X145298000Y-97410000D01*
X140198000Y-97410000D02*
X141708000Y-97410000D01*
X143788000Y-97450000D02*
X145304000Y-97450000D01*
X140192000Y-97450000D02*
X141708000Y-97450000D01*
X143788000Y-97490000D02*
X145309000Y-97490000D01*
X140187000Y-97490000D02*
X141708000Y-97490000D01*
X143788000Y-97530000D02*
X145313000Y-97530000D01*
X140183000Y-97530000D02*
X141708000Y-97530000D01*
X143788000Y-97570000D02*
X145317000Y-97570000D01*
X140179000Y-97570000D02*
X141708000Y-97570000D01*
X140175000Y-97610000D02*
X145321000Y-97610000D01*
X140172000Y-97650000D02*
X145324000Y-97650000D01*
X140170000Y-97690000D02*
X145326000Y-97690000D01*
X140169000Y-97730000D02*
X145327000Y-97730000D01*
X140168000Y-97770000D02*
X145328000Y-97770000D01*
X140168000Y-97810000D02*
X145328000Y-97810000D01*
X141023000Y-100364775D02*
X141523000Y-100364775D01*
X141273000Y-100614775D02*
X141273000Y-100114775D01*
%TO.C,C3*%
X130309252Y-115597000D02*
X129786748Y-115597000D01*
X130309252Y-117067000D02*
X129786748Y-117067000D01*
%TO.C,Y1*%
X125289000Y-116825000D02*
G75*
G03*
X125289000Y-111775000I0J2525000D01*
G01*
X119039000Y-111775000D02*
G75*
G03*
X119039000Y-116825000I0J-2525000D01*
G01*
X119039000Y-116825000D02*
X125289000Y-116825000D01*
X119039000Y-111775000D02*
X125289000Y-111775000D01*
%TO.C,C1*%
X143224000Y-66274000D02*
G75*
G03*
X143224000Y-66274000I-3270000J0D01*
G01*
X140356000Y-69515000D02*
X139552000Y-69515000D01*
X140587000Y-69475000D02*
X139321000Y-69475000D01*
X140756000Y-69435000D02*
X139152000Y-69435000D01*
X140894000Y-69395000D02*
X139014000Y-69395000D01*
X141013000Y-69355000D02*
X138895000Y-69355000D01*
X141119000Y-69315000D02*
X138789000Y-69315000D01*
X141216000Y-69275000D02*
X138692000Y-69275000D01*
X141304000Y-69235000D02*
X138604000Y-69235000D01*
X141386000Y-69195000D02*
X138522000Y-69195000D01*
X141463000Y-69155000D02*
X138445000Y-69155000D01*
X141535000Y-69115000D02*
X138373000Y-69115000D01*
X141604000Y-69075000D02*
X138304000Y-69075000D01*
X141668000Y-69035000D02*
X138240000Y-69035000D01*
X141730000Y-68995000D02*
X138178000Y-68995000D01*
X141788000Y-68955000D02*
X138120000Y-68955000D01*
X141844000Y-68915000D02*
X138064000Y-68915000D01*
X141898000Y-68875000D02*
X138010000Y-68875000D01*
X141949000Y-68835000D02*
X137959000Y-68835000D01*
X141998000Y-68795000D02*
X137910000Y-68795000D01*
X142046000Y-68755000D02*
X137862000Y-68755000D01*
X142091000Y-68715000D02*
X137817000Y-68715000D01*
X142136000Y-68675000D02*
X137772000Y-68675000D01*
X142178000Y-68635000D02*
X137730000Y-68635000D01*
X142219000Y-68595000D02*
X137689000Y-68595000D01*
X138914000Y-68555000D02*
X137649000Y-68555000D01*
X142259000Y-68555000D02*
X140994000Y-68555000D01*
X138914000Y-68515000D02*
X137611000Y-68515000D01*
X142297000Y-68515000D02*
X140994000Y-68515000D01*
X138914000Y-68475000D02*
X137574000Y-68475000D01*
X142334000Y-68475000D02*
X140994000Y-68475000D01*
X138914000Y-68435000D02*
X137538000Y-68435000D01*
X142370000Y-68435000D02*
X140994000Y-68435000D01*
X138914000Y-68395000D02*
X137504000Y-68395000D01*
X142404000Y-68395000D02*
X140994000Y-68395000D01*
X138914000Y-68355000D02*
X137470000Y-68355000D01*
X142438000Y-68355000D02*
X140994000Y-68355000D01*
X138914000Y-68315000D02*
X137438000Y-68315000D01*
X142470000Y-68315000D02*
X140994000Y-68315000D01*
X138914000Y-68275000D02*
X137406000Y-68275000D01*
X142502000Y-68275000D02*
X140994000Y-68275000D01*
X138914000Y-68235000D02*
X137376000Y-68235000D01*
X142532000Y-68235000D02*
X140994000Y-68235000D01*
X138914000Y-68195000D02*
X137347000Y-68195000D01*
X142561000Y-68195000D02*
X140994000Y-68195000D01*
X138914000Y-68155000D02*
X137318000Y-68155000D01*
X142590000Y-68155000D02*
X140994000Y-68155000D01*
X138914000Y-68115000D02*
X137290000Y-68115000D01*
X142618000Y-68115000D02*
X140994000Y-68115000D01*
X138914000Y-68075000D02*
X137264000Y-68075000D01*
X142644000Y-68075000D02*
X140994000Y-68075000D01*
X138914000Y-68035000D02*
X137238000Y-68035000D01*
X142670000Y-68035000D02*
X140994000Y-68035000D01*
X138914000Y-67995000D02*
X137212000Y-67995000D01*
X142696000Y-67995000D02*
X140994000Y-67995000D01*
X138914000Y-67955000D02*
X137188000Y-67955000D01*
X142720000Y-67955000D02*
X140994000Y-67955000D01*
X138914000Y-67915000D02*
X137164000Y-67915000D01*
X142744000Y-67915000D02*
X140994000Y-67915000D01*
X138914000Y-67875000D02*
X137142000Y-67875000D01*
X142766000Y-67875000D02*
X140994000Y-67875000D01*
X138914000Y-67835000D02*
X137120000Y-67835000D01*
X142788000Y-67835000D02*
X140994000Y-67835000D01*
X138914000Y-67795000D02*
X137098000Y-67795000D01*
X142810000Y-67795000D02*
X140994000Y-67795000D01*
X138914000Y-67755000D02*
X137078000Y-67755000D01*
X142830000Y-67755000D02*
X140994000Y-67755000D01*
X138914000Y-67715000D02*
X137058000Y-67715000D01*
X142850000Y-67715000D02*
X140994000Y-67715000D01*
X138914000Y-67675000D02*
X137038000Y-67675000D01*
X142870000Y-67675000D02*
X140994000Y-67675000D01*
X138914000Y-67635000D02*
X137020000Y-67635000D01*
X142888000Y-67635000D02*
X140994000Y-67635000D01*
X138914000Y-67595000D02*
X137002000Y-67595000D01*
X142906000Y-67595000D02*
X140994000Y-67595000D01*
X138914000Y-67555000D02*
X136984000Y-67555000D01*
X142924000Y-67555000D02*
X140994000Y-67555000D01*
X138914000Y-67515000D02*
X136968000Y-67515000D01*
X142940000Y-67515000D02*
X140994000Y-67515000D01*
X138914000Y-67475000D02*
X136952000Y-67475000D01*
X142956000Y-67475000D02*
X140994000Y-67475000D01*
X138914000Y-67435000D02*
X136936000Y-67435000D01*
X142972000Y-67435000D02*
X140994000Y-67435000D01*
X138914000Y-67395000D02*
X136921000Y-67395000D01*
X142987000Y-67395000D02*
X140994000Y-67395000D01*
X138914000Y-67355000D02*
X136907000Y-67355000D01*
X143001000Y-67355000D02*
X140994000Y-67355000D01*
X138914000Y-67315000D02*
X136893000Y-67315000D01*
X143015000Y-67315000D02*
X140994000Y-67315000D01*
X138914000Y-67275000D02*
X136880000Y-67275000D01*
X143028000Y-67275000D02*
X140994000Y-67275000D01*
X138914000Y-67235000D02*
X136868000Y-67235000D01*
X143040000Y-67235000D02*
X140994000Y-67235000D01*
X138914000Y-67195000D02*
X136856000Y-67195000D01*
X143052000Y-67195000D02*
X140994000Y-67195000D01*
X138914000Y-67155000D02*
X136844000Y-67155000D01*
X143064000Y-67155000D02*
X140994000Y-67155000D01*
X138914000Y-67115000D02*
X136833000Y-67115000D01*
X143075000Y-67115000D02*
X140994000Y-67115000D01*
X138914000Y-67075000D02*
X136823000Y-67075000D01*
X143085000Y-67075000D02*
X140994000Y-67075000D01*
X138914000Y-67035000D02*
X136813000Y-67035000D01*
X143095000Y-67035000D02*
X140994000Y-67035000D01*
X138914000Y-66995000D02*
X136804000Y-66995000D01*
X143104000Y-66995000D02*
X140994000Y-66995000D01*
X138914000Y-66954000D02*
X136795000Y-66954000D01*
X143113000Y-66954000D02*
X140994000Y-66954000D01*
X138914000Y-66914000D02*
X136787000Y-66914000D01*
X143121000Y-66914000D02*
X140994000Y-66914000D01*
X138914000Y-66874000D02*
X136779000Y-66874000D01*
X143129000Y-66874000D02*
X140994000Y-66874000D01*
X138914000Y-66834000D02*
X136772000Y-66834000D01*
X143136000Y-66834000D02*
X140994000Y-66834000D01*
X138914000Y-66794000D02*
X136765000Y-66794000D01*
X143143000Y-66794000D02*
X140994000Y-66794000D01*
X138914000Y-66754000D02*
X136759000Y-66754000D01*
X143149000Y-66754000D02*
X140994000Y-66754000D01*
X138914000Y-66714000D02*
X136753000Y-66714000D01*
X143155000Y-66714000D02*
X140994000Y-66714000D01*
X138914000Y-66674000D02*
X136748000Y-66674000D01*
X143160000Y-66674000D02*
X140994000Y-66674000D01*
X138914000Y-66634000D02*
X136743000Y-66634000D01*
X143165000Y-66634000D02*
X140994000Y-66634000D01*
X138914000Y-66594000D02*
X136739000Y-66594000D01*
X143169000Y-66594000D02*
X140994000Y-66594000D01*
X138914000Y-66554000D02*
X136736000Y-66554000D01*
X143172000Y-66554000D02*
X140994000Y-66554000D01*
X138914000Y-66514000D02*
X136732000Y-66514000D01*
X143176000Y-66514000D02*
X140994000Y-66514000D01*
X143178000Y-66474000D02*
X136730000Y-66474000D01*
X143181000Y-66434000D02*
X136727000Y-66434000D01*
X143182000Y-66394000D02*
X136726000Y-66394000D01*
X143184000Y-66354000D02*
X136724000Y-66354000D01*
X143184000Y-66314000D02*
X136724000Y-66314000D01*
X143184000Y-66274000D02*
X136724000Y-66274000D01*
X142108000Y-63088759D02*
X141478000Y-63088759D01*
X141793000Y-62773759D02*
X141793000Y-63403759D01*
%TO.C,C4*%
X130309252Y-113311000D02*
X129786748Y-113311000D01*
X130309252Y-114781000D02*
X129786748Y-114781000D01*
D12*
%TO.C,U1*%
X135323000Y-58439000D02*
X134968000Y-58439000D01*
X124773000Y-58439000D02*
X125128000Y-58439000D01*
X135323000Y-63989000D02*
X135323000Y-58439000D01*
X135323000Y-63989000D02*
X134968000Y-63989000D01*
X125048000Y-63989000D02*
X125048000Y-65514000D01*
X124773000Y-63989000D02*
X124773000Y-58439000D01*
X124773000Y-63989000D02*
X125048000Y-63989000D01*
D14*
%TO.C,U3*%
X138456000Y-115266000D02*
G75*
G03*
X140456000Y-115266000I1000000J0D01*
G01*
X142106000Y-125546000D02*
X142106000Y-115266000D01*
X142106000Y-115266000D02*
X140456000Y-115266000D01*
X138456000Y-115266000D02*
X136806000Y-115266000D01*
X136806000Y-125546000D02*
X142106000Y-125546000D01*
X136806000Y-115266000D02*
X136806000Y-125546000D01*
%TD*%
M02*
