%TF.GenerationSoftware,KiCad,Pcbnew,7.0.5*%
%TF.CreationDate,2024-09-11T17:05:49+02:00*%
%TF.ProjectId,ModuleController,4d6f6475-6c65-4436-9f6e-74726f6c6c65,rev?*%
%TF.SameCoordinates,Original*%
%TF.FileFunction,Drillmap*%
%TF.FilePolarity,Positive*%
%FSLAX45Y45*%
G04 Gerber Fmt 4.5, Leading zero omitted, Abs format (unit mm)*
G04 Created by KiCad (PCBNEW 7.0.5) date 2024-09-11 17:05:49*
%MOMM*%
%LPD*%
G01*
G04 APERTURE LIST*
%ADD10C,0.100000*%
%ADD11C,0.200000*%
%ADD12C,0.320000*%
G04 APERTURE END LIST*
D10*
X8636000Y-6540500D02*
X10160000Y-3683000D01*
X14319000Y-4762500D02*
X14636500Y-4762500D01*
X14319000Y-6032500D02*
X14319000Y-4762500D01*
X14636000Y-6032500D02*
X14319000Y-6032500D01*
X14636000Y-3683000D02*
X14636500Y-4762500D01*
X14636000Y-12683000D02*
X14636500Y-12192000D01*
X14636500Y-9906000D02*
X14636000Y-6032500D01*
X8636000Y-12683000D02*
X14636000Y-12683000D01*
X10160000Y-3683000D02*
X14636000Y-3683000D01*
X8636000Y-12683000D02*
X8636000Y-6540500D01*
D11*
D12*
X8857000Y-12095500D02*
X9177000Y-12415500D01*
X9177000Y-12095500D02*
X8857000Y-12415500D01*
X11968500Y-12095500D02*
X12288500Y-12415500D01*
X12288500Y-12095500D02*
X11968500Y-12415500D01*
X12095500Y-3904000D02*
X12415500Y-4224000D01*
X12415500Y-3904000D02*
X12095500Y-4224000D01*
D11*
X8891777Y-12999484D02*
X8891777Y-12799484D01*
X8891777Y-12799484D02*
X8939396Y-12799484D01*
X8939396Y-12799484D02*
X8967967Y-12809008D01*
X8967967Y-12809008D02*
X8987015Y-12828055D01*
X8987015Y-12828055D02*
X8996539Y-12847103D01*
X8996539Y-12847103D02*
X9006063Y-12885198D01*
X9006063Y-12885198D02*
X9006063Y-12913769D01*
X9006063Y-12913769D02*
X8996539Y-12951865D01*
X8996539Y-12951865D02*
X8987015Y-12970912D01*
X8987015Y-12970912D02*
X8967967Y-12989960D01*
X8967967Y-12989960D02*
X8939396Y-12999484D01*
X8939396Y-12999484D02*
X8891777Y-12999484D01*
X9091777Y-12999484D02*
X9091777Y-12866150D01*
X9091777Y-12904246D02*
X9101301Y-12885198D01*
X9101301Y-12885198D02*
X9110824Y-12875674D01*
X9110824Y-12875674D02*
X9129872Y-12866150D01*
X9129872Y-12866150D02*
X9148920Y-12866150D01*
X9215586Y-12999484D02*
X9215586Y-12866150D01*
X9215586Y-12799484D02*
X9206063Y-12809008D01*
X9206063Y-12809008D02*
X9215586Y-12818531D01*
X9215586Y-12818531D02*
X9225110Y-12809008D01*
X9225110Y-12809008D02*
X9215586Y-12799484D01*
X9215586Y-12799484D02*
X9215586Y-12818531D01*
X9339396Y-12999484D02*
X9320348Y-12989960D01*
X9320348Y-12989960D02*
X9310824Y-12970912D01*
X9310824Y-12970912D02*
X9310824Y-12799484D01*
X9444158Y-12999484D02*
X9425110Y-12989960D01*
X9425110Y-12989960D02*
X9415586Y-12970912D01*
X9415586Y-12970912D02*
X9415586Y-12799484D01*
X9672729Y-12999484D02*
X9672729Y-12799484D01*
X9672729Y-12799484D02*
X9739396Y-12942341D01*
X9739396Y-12942341D02*
X9806063Y-12799484D01*
X9806063Y-12799484D02*
X9806063Y-12999484D01*
X9987015Y-12999484D02*
X9987015Y-12894722D01*
X9987015Y-12894722D02*
X9977491Y-12875674D01*
X9977491Y-12875674D02*
X9958444Y-12866150D01*
X9958444Y-12866150D02*
X9920348Y-12866150D01*
X9920348Y-12866150D02*
X9901301Y-12875674D01*
X9987015Y-12989960D02*
X9967967Y-12999484D01*
X9967967Y-12999484D02*
X9920348Y-12999484D01*
X9920348Y-12999484D02*
X9901301Y-12989960D01*
X9901301Y-12989960D02*
X9891777Y-12970912D01*
X9891777Y-12970912D02*
X9891777Y-12951865D01*
X9891777Y-12951865D02*
X9901301Y-12932817D01*
X9901301Y-12932817D02*
X9920348Y-12923293D01*
X9920348Y-12923293D02*
X9967967Y-12923293D01*
X9967967Y-12923293D02*
X9987015Y-12913769D01*
X10082253Y-12866150D02*
X10082253Y-13066150D01*
X10082253Y-12875674D02*
X10101301Y-12866150D01*
X10101301Y-12866150D02*
X10139396Y-12866150D01*
X10139396Y-12866150D02*
X10158444Y-12875674D01*
X10158444Y-12875674D02*
X10167967Y-12885198D01*
X10167967Y-12885198D02*
X10177491Y-12904246D01*
X10177491Y-12904246D02*
X10177491Y-12961388D01*
X10177491Y-12961388D02*
X10167967Y-12980436D01*
X10167967Y-12980436D02*
X10158444Y-12989960D01*
X10158444Y-12989960D02*
X10139396Y-12999484D01*
X10139396Y-12999484D02*
X10101301Y-12999484D01*
X10101301Y-12999484D02*
X10082253Y-12989960D01*
X10263205Y-12980436D02*
X10272729Y-12989960D01*
X10272729Y-12989960D02*
X10263205Y-12999484D01*
X10263205Y-12999484D02*
X10253682Y-12989960D01*
X10253682Y-12989960D02*
X10263205Y-12980436D01*
X10263205Y-12980436D02*
X10263205Y-12999484D01*
X10263205Y-12875674D02*
X10272729Y-12885198D01*
X10272729Y-12885198D02*
X10263205Y-12894722D01*
X10263205Y-12894722D02*
X10253682Y-12885198D01*
X10253682Y-12885198D02*
X10263205Y-12875674D01*
X10263205Y-12875674D02*
X10263205Y-12894722D01*
X8431000Y-13228000D02*
X8631000Y-13428000D01*
X8631000Y-13228000D02*
X8431000Y-13428000D01*
X8872729Y-13219484D02*
X8996539Y-13219484D01*
X8996539Y-13219484D02*
X8929872Y-13295674D01*
X8929872Y-13295674D02*
X8958444Y-13295674D01*
X8958444Y-13295674D02*
X8977491Y-13305198D01*
X8977491Y-13305198D02*
X8987015Y-13314722D01*
X8987015Y-13314722D02*
X8996539Y-13333769D01*
X8996539Y-13333769D02*
X8996539Y-13381388D01*
X8996539Y-13381388D02*
X8987015Y-13400436D01*
X8987015Y-13400436D02*
X8977491Y-13409960D01*
X8977491Y-13409960D02*
X8958444Y-13419484D01*
X8958444Y-13419484D02*
X8901301Y-13419484D01*
X8901301Y-13419484D02*
X8882253Y-13409960D01*
X8882253Y-13409960D02*
X8872729Y-13400436D01*
X9082253Y-13400436D02*
X9091777Y-13409960D01*
X9091777Y-13409960D02*
X9082253Y-13419484D01*
X9082253Y-13419484D02*
X9072729Y-13409960D01*
X9072729Y-13409960D02*
X9082253Y-13400436D01*
X9082253Y-13400436D02*
X9082253Y-13419484D01*
X9167967Y-13238531D02*
X9177491Y-13229008D01*
X9177491Y-13229008D02*
X9196539Y-13219484D01*
X9196539Y-13219484D02*
X9244158Y-13219484D01*
X9244158Y-13219484D02*
X9263205Y-13229008D01*
X9263205Y-13229008D02*
X9272729Y-13238531D01*
X9272729Y-13238531D02*
X9282253Y-13257579D01*
X9282253Y-13257579D02*
X9282253Y-13276627D01*
X9282253Y-13276627D02*
X9272729Y-13305198D01*
X9272729Y-13305198D02*
X9158444Y-13419484D01*
X9158444Y-13419484D02*
X9282253Y-13419484D01*
X9406063Y-13219484D02*
X9425110Y-13219484D01*
X9425110Y-13219484D02*
X9444158Y-13229008D01*
X9444158Y-13229008D02*
X9453682Y-13238531D01*
X9453682Y-13238531D02*
X9463205Y-13257579D01*
X9463205Y-13257579D02*
X9472729Y-13295674D01*
X9472729Y-13295674D02*
X9472729Y-13343293D01*
X9472729Y-13343293D02*
X9463205Y-13381388D01*
X9463205Y-13381388D02*
X9453682Y-13400436D01*
X9453682Y-13400436D02*
X9444158Y-13409960D01*
X9444158Y-13409960D02*
X9425110Y-13419484D01*
X9425110Y-13419484D02*
X9406063Y-13419484D01*
X9406063Y-13419484D02*
X9387015Y-13409960D01*
X9387015Y-13409960D02*
X9377491Y-13400436D01*
X9377491Y-13400436D02*
X9367967Y-13381388D01*
X9367967Y-13381388D02*
X9358444Y-13343293D01*
X9358444Y-13343293D02*
X9358444Y-13295674D01*
X9358444Y-13295674D02*
X9367967Y-13257579D01*
X9367967Y-13257579D02*
X9377491Y-13238531D01*
X9377491Y-13238531D02*
X9387015Y-13229008D01*
X9387015Y-13229008D02*
X9406063Y-13219484D01*
X9596539Y-13219484D02*
X9615586Y-13219484D01*
X9615586Y-13219484D02*
X9634634Y-13229008D01*
X9634634Y-13229008D02*
X9644158Y-13238531D01*
X9644158Y-13238531D02*
X9653682Y-13257579D01*
X9653682Y-13257579D02*
X9663205Y-13295674D01*
X9663205Y-13295674D02*
X9663205Y-13343293D01*
X9663205Y-13343293D02*
X9653682Y-13381388D01*
X9653682Y-13381388D02*
X9644158Y-13400436D01*
X9644158Y-13400436D02*
X9634634Y-13409960D01*
X9634634Y-13409960D02*
X9615586Y-13419484D01*
X9615586Y-13419484D02*
X9596539Y-13419484D01*
X9596539Y-13419484D02*
X9577491Y-13409960D01*
X9577491Y-13409960D02*
X9567967Y-13400436D01*
X9567967Y-13400436D02*
X9558444Y-13381388D01*
X9558444Y-13381388D02*
X9548920Y-13343293D01*
X9548920Y-13343293D02*
X9548920Y-13295674D01*
X9548920Y-13295674D02*
X9558444Y-13257579D01*
X9558444Y-13257579D02*
X9567967Y-13238531D01*
X9567967Y-13238531D02*
X9577491Y-13229008D01*
X9577491Y-13229008D02*
X9596539Y-13219484D01*
X9748920Y-13419484D02*
X9748920Y-13286150D01*
X9748920Y-13305198D02*
X9758444Y-13295674D01*
X9758444Y-13295674D02*
X9777491Y-13286150D01*
X9777491Y-13286150D02*
X9806063Y-13286150D01*
X9806063Y-13286150D02*
X9825110Y-13295674D01*
X9825110Y-13295674D02*
X9834634Y-13314722D01*
X9834634Y-13314722D02*
X9834634Y-13419484D01*
X9834634Y-13314722D02*
X9844158Y-13295674D01*
X9844158Y-13295674D02*
X9863205Y-13286150D01*
X9863205Y-13286150D02*
X9891777Y-13286150D01*
X9891777Y-13286150D02*
X9910825Y-13295674D01*
X9910825Y-13295674D02*
X9920348Y-13314722D01*
X9920348Y-13314722D02*
X9920348Y-13419484D01*
X10015586Y-13419484D02*
X10015586Y-13286150D01*
X10015586Y-13305198D02*
X10025110Y-13295674D01*
X10025110Y-13295674D02*
X10044158Y-13286150D01*
X10044158Y-13286150D02*
X10072729Y-13286150D01*
X10072729Y-13286150D02*
X10091777Y-13295674D01*
X10091777Y-13295674D02*
X10101301Y-13314722D01*
X10101301Y-13314722D02*
X10101301Y-13419484D01*
X10101301Y-13314722D02*
X10110825Y-13295674D01*
X10110825Y-13295674D02*
X10129872Y-13286150D01*
X10129872Y-13286150D02*
X10158444Y-13286150D01*
X10158444Y-13286150D02*
X10177491Y-13295674D01*
X10177491Y-13295674D02*
X10187015Y-13314722D01*
X10187015Y-13314722D02*
X10187015Y-13419484D01*
X10577491Y-13209960D02*
X10406063Y-13467103D01*
X10834634Y-13219484D02*
X10853682Y-13219484D01*
X10853682Y-13219484D02*
X10872729Y-13229008D01*
X10872729Y-13229008D02*
X10882253Y-13238531D01*
X10882253Y-13238531D02*
X10891777Y-13257579D01*
X10891777Y-13257579D02*
X10901301Y-13295674D01*
X10901301Y-13295674D02*
X10901301Y-13343293D01*
X10901301Y-13343293D02*
X10891777Y-13381388D01*
X10891777Y-13381388D02*
X10882253Y-13400436D01*
X10882253Y-13400436D02*
X10872729Y-13409960D01*
X10872729Y-13409960D02*
X10853682Y-13419484D01*
X10853682Y-13419484D02*
X10834634Y-13419484D01*
X10834634Y-13419484D02*
X10815587Y-13409960D01*
X10815587Y-13409960D02*
X10806063Y-13400436D01*
X10806063Y-13400436D02*
X10796539Y-13381388D01*
X10796539Y-13381388D02*
X10787015Y-13343293D01*
X10787015Y-13343293D02*
X10787015Y-13295674D01*
X10787015Y-13295674D02*
X10796539Y-13257579D01*
X10796539Y-13257579D02*
X10806063Y-13238531D01*
X10806063Y-13238531D02*
X10815587Y-13229008D01*
X10815587Y-13229008D02*
X10834634Y-13219484D01*
X10987015Y-13400436D02*
X10996539Y-13409960D01*
X10996539Y-13409960D02*
X10987015Y-13419484D01*
X10987015Y-13419484D02*
X10977491Y-13409960D01*
X10977491Y-13409960D02*
X10987015Y-13400436D01*
X10987015Y-13400436D02*
X10987015Y-13419484D01*
X11187015Y-13419484D02*
X11072729Y-13419484D01*
X11129872Y-13419484D02*
X11129872Y-13219484D01*
X11129872Y-13219484D02*
X11110825Y-13248055D01*
X11110825Y-13248055D02*
X11091777Y-13267103D01*
X11091777Y-13267103D02*
X11072729Y-13276627D01*
X11263206Y-13238531D02*
X11272729Y-13229008D01*
X11272729Y-13229008D02*
X11291777Y-13219484D01*
X11291777Y-13219484D02*
X11339396Y-13219484D01*
X11339396Y-13219484D02*
X11358444Y-13229008D01*
X11358444Y-13229008D02*
X11367967Y-13238531D01*
X11367967Y-13238531D02*
X11377491Y-13257579D01*
X11377491Y-13257579D02*
X11377491Y-13276627D01*
X11377491Y-13276627D02*
X11367967Y-13305198D01*
X11367967Y-13305198D02*
X11253682Y-13419484D01*
X11253682Y-13419484D02*
X11377491Y-13419484D01*
X11548920Y-13219484D02*
X11510825Y-13219484D01*
X11510825Y-13219484D02*
X11491777Y-13229008D01*
X11491777Y-13229008D02*
X11482253Y-13238531D01*
X11482253Y-13238531D02*
X11463206Y-13267103D01*
X11463206Y-13267103D02*
X11453682Y-13305198D01*
X11453682Y-13305198D02*
X11453682Y-13381388D01*
X11453682Y-13381388D02*
X11463206Y-13400436D01*
X11463206Y-13400436D02*
X11472729Y-13409960D01*
X11472729Y-13409960D02*
X11491777Y-13419484D01*
X11491777Y-13419484D02*
X11529872Y-13419484D01*
X11529872Y-13419484D02*
X11548920Y-13409960D01*
X11548920Y-13409960D02*
X11558444Y-13400436D01*
X11558444Y-13400436D02*
X11567967Y-13381388D01*
X11567967Y-13381388D02*
X11567967Y-13333769D01*
X11567967Y-13333769D02*
X11558444Y-13314722D01*
X11558444Y-13314722D02*
X11548920Y-13305198D01*
X11548920Y-13305198D02*
X11529872Y-13295674D01*
X11529872Y-13295674D02*
X11491777Y-13295674D01*
X11491777Y-13295674D02*
X11472729Y-13305198D01*
X11472729Y-13305198D02*
X11463206Y-13314722D01*
X11463206Y-13314722D02*
X11453682Y-13333769D01*
X11691777Y-13219484D02*
X11710825Y-13219484D01*
X11710825Y-13219484D02*
X11729872Y-13229008D01*
X11729872Y-13229008D02*
X11739396Y-13238531D01*
X11739396Y-13238531D02*
X11748920Y-13257579D01*
X11748920Y-13257579D02*
X11758444Y-13295674D01*
X11758444Y-13295674D02*
X11758444Y-13343293D01*
X11758444Y-13343293D02*
X11748920Y-13381388D01*
X11748920Y-13381388D02*
X11739396Y-13400436D01*
X11739396Y-13400436D02*
X11729872Y-13409960D01*
X11729872Y-13409960D02*
X11710825Y-13419484D01*
X11710825Y-13419484D02*
X11691777Y-13419484D01*
X11691777Y-13419484D02*
X11672729Y-13409960D01*
X11672729Y-13409960D02*
X11663206Y-13400436D01*
X11663206Y-13400436D02*
X11653682Y-13381388D01*
X11653682Y-13381388D02*
X11644158Y-13343293D01*
X11644158Y-13343293D02*
X11644158Y-13295674D01*
X11644158Y-13295674D02*
X11653682Y-13257579D01*
X11653682Y-13257579D02*
X11663206Y-13238531D01*
X11663206Y-13238531D02*
X11672729Y-13229008D01*
X11672729Y-13229008D02*
X11691777Y-13219484D01*
X11834634Y-13219484D02*
X11834634Y-13257579D01*
X11910825Y-13219484D02*
X11910825Y-13257579D01*
X12206063Y-13495674D02*
X12196539Y-13486150D01*
X12196539Y-13486150D02*
X12177491Y-13457579D01*
X12177491Y-13457579D02*
X12167968Y-13438531D01*
X12167968Y-13438531D02*
X12158444Y-13409960D01*
X12158444Y-13409960D02*
X12148920Y-13362341D01*
X12148920Y-13362341D02*
X12148920Y-13324246D01*
X12148920Y-13324246D02*
X12158444Y-13276627D01*
X12158444Y-13276627D02*
X12167968Y-13248055D01*
X12167968Y-13248055D02*
X12177491Y-13229008D01*
X12177491Y-13229008D02*
X12196539Y-13200436D01*
X12196539Y-13200436D02*
X12206063Y-13190912D01*
X12263206Y-13219484D02*
X12387015Y-13219484D01*
X12387015Y-13219484D02*
X12320348Y-13295674D01*
X12320348Y-13295674D02*
X12348920Y-13295674D01*
X12348920Y-13295674D02*
X12367968Y-13305198D01*
X12367968Y-13305198D02*
X12377491Y-13314722D01*
X12377491Y-13314722D02*
X12387015Y-13333769D01*
X12387015Y-13333769D02*
X12387015Y-13381388D01*
X12387015Y-13381388D02*
X12377491Y-13400436D01*
X12377491Y-13400436D02*
X12367968Y-13409960D01*
X12367968Y-13409960D02*
X12348920Y-13419484D01*
X12348920Y-13419484D02*
X12291777Y-13419484D01*
X12291777Y-13419484D02*
X12272729Y-13409960D01*
X12272729Y-13409960D02*
X12263206Y-13400436D01*
X12625110Y-13419484D02*
X12625110Y-13219484D01*
X12710825Y-13419484D02*
X12710825Y-13314722D01*
X12710825Y-13314722D02*
X12701301Y-13295674D01*
X12701301Y-13295674D02*
X12682253Y-13286150D01*
X12682253Y-13286150D02*
X12653682Y-13286150D01*
X12653682Y-13286150D02*
X12634634Y-13295674D01*
X12634634Y-13295674D02*
X12625110Y-13305198D01*
X12834634Y-13419484D02*
X12815587Y-13409960D01*
X12815587Y-13409960D02*
X12806063Y-13400436D01*
X12806063Y-13400436D02*
X12796539Y-13381388D01*
X12796539Y-13381388D02*
X12796539Y-13324246D01*
X12796539Y-13324246D02*
X12806063Y-13305198D01*
X12806063Y-13305198D02*
X12815587Y-13295674D01*
X12815587Y-13295674D02*
X12834634Y-13286150D01*
X12834634Y-13286150D02*
X12863206Y-13286150D01*
X12863206Y-13286150D02*
X12882253Y-13295674D01*
X12882253Y-13295674D02*
X12891777Y-13305198D01*
X12891777Y-13305198D02*
X12901301Y-13324246D01*
X12901301Y-13324246D02*
X12901301Y-13381388D01*
X12901301Y-13381388D02*
X12891777Y-13400436D01*
X12891777Y-13400436D02*
X12882253Y-13409960D01*
X12882253Y-13409960D02*
X12863206Y-13419484D01*
X12863206Y-13419484D02*
X12834634Y-13419484D01*
X13015587Y-13419484D02*
X12996539Y-13409960D01*
X12996539Y-13409960D02*
X12987015Y-13390912D01*
X12987015Y-13390912D02*
X12987015Y-13219484D01*
X13167968Y-13409960D02*
X13148920Y-13419484D01*
X13148920Y-13419484D02*
X13110825Y-13419484D01*
X13110825Y-13419484D02*
X13091777Y-13409960D01*
X13091777Y-13409960D02*
X13082253Y-13390912D01*
X13082253Y-13390912D02*
X13082253Y-13314722D01*
X13082253Y-13314722D02*
X13091777Y-13295674D01*
X13091777Y-13295674D02*
X13110825Y-13286150D01*
X13110825Y-13286150D02*
X13148920Y-13286150D01*
X13148920Y-13286150D02*
X13167968Y-13295674D01*
X13167968Y-13295674D02*
X13177491Y-13314722D01*
X13177491Y-13314722D02*
X13177491Y-13333769D01*
X13177491Y-13333769D02*
X13082253Y-13352817D01*
X13253682Y-13409960D02*
X13272730Y-13419484D01*
X13272730Y-13419484D02*
X13310825Y-13419484D01*
X13310825Y-13419484D02*
X13329872Y-13409960D01*
X13329872Y-13409960D02*
X13339396Y-13390912D01*
X13339396Y-13390912D02*
X13339396Y-13381388D01*
X13339396Y-13381388D02*
X13329872Y-13362341D01*
X13329872Y-13362341D02*
X13310825Y-13352817D01*
X13310825Y-13352817D02*
X13282253Y-13352817D01*
X13282253Y-13352817D02*
X13263206Y-13343293D01*
X13263206Y-13343293D02*
X13253682Y-13324246D01*
X13253682Y-13324246D02*
X13253682Y-13314722D01*
X13253682Y-13314722D02*
X13263206Y-13295674D01*
X13263206Y-13295674D02*
X13282253Y-13286150D01*
X13282253Y-13286150D02*
X13310825Y-13286150D01*
X13310825Y-13286150D02*
X13329872Y-13295674D01*
X13406063Y-13495674D02*
X13415587Y-13486150D01*
X13415587Y-13486150D02*
X13434634Y-13457579D01*
X13434634Y-13457579D02*
X13444158Y-13438531D01*
X13444158Y-13438531D02*
X13453682Y-13409960D01*
X13453682Y-13409960D02*
X13463206Y-13362341D01*
X13463206Y-13362341D02*
X13463206Y-13324246D01*
X13463206Y-13324246D02*
X13453682Y-13276627D01*
X13453682Y-13276627D02*
X13444158Y-13248055D01*
X13444158Y-13248055D02*
X13434634Y-13229008D01*
X13434634Y-13229008D02*
X13415587Y-13200436D01*
X13415587Y-13200436D02*
X13406063Y-13190912D01*
X13767968Y-13495674D02*
X13758444Y-13486150D01*
X13758444Y-13486150D02*
X13739396Y-13457579D01*
X13739396Y-13457579D02*
X13729872Y-13438531D01*
X13729872Y-13438531D02*
X13720349Y-13409960D01*
X13720349Y-13409960D02*
X13710825Y-13362341D01*
X13710825Y-13362341D02*
X13710825Y-13324246D01*
X13710825Y-13324246D02*
X13720349Y-13276627D01*
X13720349Y-13276627D02*
X13729872Y-13248055D01*
X13729872Y-13248055D02*
X13739396Y-13229008D01*
X13739396Y-13229008D02*
X13758444Y-13200436D01*
X13758444Y-13200436D02*
X13767968Y-13190912D01*
X13844158Y-13286150D02*
X13844158Y-13419484D01*
X13844158Y-13305198D02*
X13853682Y-13295674D01*
X13853682Y-13295674D02*
X13872730Y-13286150D01*
X13872730Y-13286150D02*
X13901301Y-13286150D01*
X13901301Y-13286150D02*
X13920349Y-13295674D01*
X13920349Y-13295674D02*
X13929872Y-13314722D01*
X13929872Y-13314722D02*
X13929872Y-13419484D01*
X14053682Y-13419484D02*
X14034634Y-13409960D01*
X14034634Y-13409960D02*
X14025111Y-13400436D01*
X14025111Y-13400436D02*
X14015587Y-13381388D01*
X14015587Y-13381388D02*
X14015587Y-13324246D01*
X14015587Y-13324246D02*
X14025111Y-13305198D01*
X14025111Y-13305198D02*
X14034634Y-13295674D01*
X14034634Y-13295674D02*
X14053682Y-13286150D01*
X14053682Y-13286150D02*
X14082253Y-13286150D01*
X14082253Y-13286150D02*
X14101301Y-13295674D01*
X14101301Y-13295674D02*
X14110825Y-13305198D01*
X14110825Y-13305198D02*
X14120349Y-13324246D01*
X14120349Y-13324246D02*
X14120349Y-13381388D01*
X14120349Y-13381388D02*
X14110825Y-13400436D01*
X14110825Y-13400436D02*
X14101301Y-13409960D01*
X14101301Y-13409960D02*
X14082253Y-13419484D01*
X14082253Y-13419484D02*
X14053682Y-13419484D01*
X14177492Y-13286150D02*
X14253682Y-13286150D01*
X14206063Y-13219484D02*
X14206063Y-13390912D01*
X14206063Y-13390912D02*
X14215587Y-13409960D01*
X14215587Y-13409960D02*
X14234634Y-13419484D01*
X14234634Y-13419484D02*
X14253682Y-13419484D01*
X14472730Y-13286150D02*
X14472730Y-13486150D01*
X14472730Y-13295674D02*
X14491777Y-13286150D01*
X14491777Y-13286150D02*
X14529873Y-13286150D01*
X14529873Y-13286150D02*
X14548920Y-13295674D01*
X14548920Y-13295674D02*
X14558444Y-13305198D01*
X14558444Y-13305198D02*
X14567968Y-13324246D01*
X14567968Y-13324246D02*
X14567968Y-13381388D01*
X14567968Y-13381388D02*
X14558444Y-13400436D01*
X14558444Y-13400436D02*
X14548920Y-13409960D01*
X14548920Y-13409960D02*
X14529873Y-13419484D01*
X14529873Y-13419484D02*
X14491777Y-13419484D01*
X14491777Y-13419484D02*
X14472730Y-13409960D01*
X14682253Y-13419484D02*
X14663206Y-13409960D01*
X14663206Y-13409960D02*
X14653682Y-13390912D01*
X14653682Y-13390912D02*
X14653682Y-13219484D01*
X14844158Y-13419484D02*
X14844158Y-13314722D01*
X14844158Y-13314722D02*
X14834634Y-13295674D01*
X14834634Y-13295674D02*
X14815587Y-13286150D01*
X14815587Y-13286150D02*
X14777492Y-13286150D01*
X14777492Y-13286150D02*
X14758444Y-13295674D01*
X14844158Y-13409960D02*
X14825111Y-13419484D01*
X14825111Y-13419484D02*
X14777492Y-13419484D01*
X14777492Y-13419484D02*
X14758444Y-13409960D01*
X14758444Y-13409960D02*
X14748920Y-13390912D01*
X14748920Y-13390912D02*
X14748920Y-13371865D01*
X14748920Y-13371865D02*
X14758444Y-13352817D01*
X14758444Y-13352817D02*
X14777492Y-13343293D01*
X14777492Y-13343293D02*
X14825111Y-13343293D01*
X14825111Y-13343293D02*
X14844158Y-13333769D01*
X14910825Y-13286150D02*
X14987015Y-13286150D01*
X14939396Y-13219484D02*
X14939396Y-13390912D01*
X14939396Y-13390912D02*
X14948920Y-13409960D01*
X14948920Y-13409960D02*
X14967968Y-13419484D01*
X14967968Y-13419484D02*
X14987015Y-13419484D01*
X15129873Y-13409960D02*
X15110825Y-13419484D01*
X15110825Y-13419484D02*
X15072730Y-13419484D01*
X15072730Y-13419484D02*
X15053682Y-13409960D01*
X15053682Y-13409960D02*
X15044158Y-13390912D01*
X15044158Y-13390912D02*
X15044158Y-13314722D01*
X15044158Y-13314722D02*
X15053682Y-13295674D01*
X15053682Y-13295674D02*
X15072730Y-13286150D01*
X15072730Y-13286150D02*
X15110825Y-13286150D01*
X15110825Y-13286150D02*
X15129873Y-13295674D01*
X15129873Y-13295674D02*
X15139396Y-13314722D01*
X15139396Y-13314722D02*
X15139396Y-13333769D01*
X15139396Y-13333769D02*
X15044158Y-13352817D01*
X15310825Y-13419484D02*
X15310825Y-13219484D01*
X15310825Y-13409960D02*
X15291777Y-13419484D01*
X15291777Y-13419484D02*
X15253682Y-13419484D01*
X15253682Y-13419484D02*
X15234634Y-13409960D01*
X15234634Y-13409960D02*
X15225111Y-13400436D01*
X15225111Y-13400436D02*
X15215587Y-13381388D01*
X15215587Y-13381388D02*
X15215587Y-13324246D01*
X15215587Y-13324246D02*
X15225111Y-13305198D01*
X15225111Y-13305198D02*
X15234634Y-13295674D01*
X15234634Y-13295674D02*
X15253682Y-13286150D01*
X15253682Y-13286150D02*
X15291777Y-13286150D01*
X15291777Y-13286150D02*
X15310825Y-13295674D01*
X15387015Y-13495674D02*
X15396539Y-13486150D01*
X15396539Y-13486150D02*
X15415587Y-13457579D01*
X15415587Y-13457579D02*
X15425111Y-13438531D01*
X15425111Y-13438531D02*
X15434634Y-13409960D01*
X15434634Y-13409960D02*
X15444158Y-13362341D01*
X15444158Y-13362341D02*
X15444158Y-13324246D01*
X15444158Y-13324246D02*
X15434634Y-13276627D01*
X15434634Y-13276627D02*
X15425111Y-13248055D01*
X15425111Y-13248055D02*
X15415587Y-13229008D01*
X15415587Y-13229008D02*
X15396539Y-13200436D01*
X15396539Y-13200436D02*
X15387015Y-13190912D01*
M02*
