M48
; DRILL file {KiCad 7.0.5} date Wed Sep 11 17:05:49 2024
; FORMAT={-:-/ absolute / inch / decimal}
; #@! TF.CreationDate,2024-09-11T17:05:49+02:00
; #@! TF.GenerationSoftware,Kicad,Pcbnew,7.0.5
; #@! TF.FileFunction,Plated,1,2,PTH
FMAT,2
INCH
; #@! TA.AperFunction,Plated,PTH,ViaDrill
T1C0.0157
; #@! TA.AperFunction,Plated,PTH,ComponentDrill
T2C0.0315
; #@! TA.AperFunction,Plated,PTH,ComponentDrill
T3C0.0374
; #@! TA.AperFunction,Plated,PTH,ComponentDrill
T4C0.0394
%
G90
G05
T1
X3.76Y-2.74
X3.79Y-4.03
X4.06Y-3.98
X4.22Y-3.98
X4.38Y-3.873
X4.69Y-4.04
X4.87Y-4.1599
X4.87Y-4.22
X4.8727Y-4.2824
X4.91Y-4.27
X4.94Y-2.93
X4.94Y-4.18
X4.9622Y-3.9015
X4.9727Y-2.9585
X4.99Y-3.93
X4.9953Y-3.873
X5.0055Y-2.9803
X5.01Y-3.8
X5.0306Y-3.0107
X5.0363Y-4.236
X5.0549Y-4.3977
X5.09Y-4.38
X5.0933Y-3.0286
X5.1093Y-2.9926
X5.1415Y-2.97
X5.15Y-4.3994
X5.17Y-2.94
X5.22Y-4.06
X5.24Y-3.8
X5.26Y-4.09
X5.3Y-3.94
X5.3Y-4.15
X5.3Y-4.23
X5.3362Y-3.8955
X5.3398Y-3.9395
X5.39Y-3.62
X5.4132Y-4.69
X5.43Y-4.15
X5.44Y-3.92
X5.49Y-3.85
X5.49Y-4.02
X5.54Y-4.49
X5.55Y-4.2
X5.57Y-4.66
X5.6Y-4.3817
X5.6415Y-4.364
X5.67Y-4.2
X5.67Y-4.2715
X5.69Y-4.4
X5.69Y-4.49
X5.6914Y-4.6694
X5.6982Y-4.5673
X5.7186Y-4.3672
X5.72Y-4.6
X5.7261Y-4.3285
T2
X4.7135Y-4.5
X4.9057Y-4.5
X5.3404Y-4.5904
X5.3404Y-4.6904
X5.3404Y-4.7904
X5.3404Y-4.8904
X5.51Y-2.56
X5.51Y-2.6584
X5.62Y-3.8016
X5.62Y-3.9
X5.6404Y-4.5904
X5.6404Y-4.6904
X5.6404Y-4.7904
X5.6404Y-4.8904
T3
X5.52Y-1.92
X5.52Y-2.0184
X5.52Y-2.1169
X5.52Y-2.2153
X5.52Y-2.3137
T4
X5.65Y-3.42
X5.65Y-3.6169
T0
M30
