%TF.GenerationSoftware,KiCad,Pcbnew,7.0.5*%
%TF.CreationDate,2024-09-11T17:05:46+02:00*%
%TF.ProjectId,ModuleController,4d6f6475-6c65-4436-9f6e-74726f6c6c65,rev?*%
%TF.SameCoordinates,Original*%
%TF.FileFunction,Paste,Top*%
%TF.FilePolarity,Positive*%
%FSLAX46Y46*%
G04 Gerber Fmt 4.6, Leading zero omitted, Abs format (unit mm)*
G04 Created by KiCad (PCBNEW 7.0.5) date 2024-09-11 17:05:46*
%MOMM*%
%LPD*%
G01*
G04 APERTURE LIST*
G04 Aperture macros list*
%AMRoundRect*
0 Rectangle with rounded corners*
0 $1 Rounding radius*
0 $2 $3 $4 $5 $6 $7 $8 $9 X,Y pos of 4 corners*
0 Add a 4 corners polygon primitive as box body*
4,1,4,$2,$3,$4,$5,$6,$7,$8,$9,$2,$3,0*
0 Add four circle primitives for the rounded corners*
1,1,$1+$1,$2,$3*
1,1,$1+$1,$4,$5*
1,1,$1+$1,$6,$7*
1,1,$1+$1,$8,$9*
0 Add four rect primitives between the rounded corners*
20,1,$1+$1,$2,$3,$4,$5,0*
20,1,$1+$1,$4,$5,$6,$7,0*
20,1,$1+$1,$6,$7,$8,$9,0*
20,1,$1+$1,$8,$9,$2,$3,0*%
G04 Aperture macros list end*
%ADD10RoundRect,0.250000X-0.262500X-0.450000X0.262500X-0.450000X0.262500X0.450000X-0.262500X0.450000X0*%
%ADD11RoundRect,0.250000X-0.250000X-0.475000X0.250000X-0.475000X0.250000X0.475000X-0.250000X0.475000X0*%
%ADD12RoundRect,0.250000X0.262500X0.450000X-0.262500X0.450000X-0.262500X-0.450000X0.262500X-0.450000X0*%
%ADD13R,1.600000X0.550000*%
%ADD14R,0.550000X1.600000*%
%ADD15R,1.000000X0.700000*%
%ADD16RoundRect,0.250000X-0.475000X0.250000X-0.475000X-0.250000X0.475000X-0.250000X0.475000X0.250000X0*%
%ADD17RoundRect,0.250000X0.250000X0.475000X-0.250000X0.475000X-0.250000X-0.475000X0.250000X-0.475000X0*%
%ADD18R,0.600000X1.500000*%
G04 APERTURE END LIST*
D10*
%TO.C,R3*%
X138637000Y-91694000D03*
X140462000Y-91694000D03*
%TD*%
%TO.C,R2*%
X138637000Y-88744000D03*
X140462000Y-88744000D03*
%TD*%
D11*
%TO.C,C6*%
X117480000Y-107188000D03*
X119380000Y-107188000D03*
%TD*%
D12*
%TO.C,R1*%
X133397000Y-121666000D03*
X131572000Y-121666000D03*
%TD*%
D13*
%TO.C,U4*%
X121588000Y-103186000D03*
X121588000Y-103986000D03*
X121588000Y-104786000D03*
X121588000Y-105586000D03*
X121588000Y-106386000D03*
X121588000Y-107186000D03*
X121588000Y-107986000D03*
X121588000Y-108786000D03*
D14*
X123038000Y-110236000D03*
X123838000Y-110236000D03*
X124638000Y-110236000D03*
X125438000Y-110236000D03*
X126238000Y-110236000D03*
X127038000Y-110236000D03*
X127838000Y-110236000D03*
X128638000Y-110236000D03*
D13*
X130088000Y-108786000D03*
X130088000Y-107986000D03*
X130088000Y-107186000D03*
X130088000Y-106386000D03*
X130088000Y-105586000D03*
X130088000Y-104786000D03*
X130088000Y-103986000D03*
X130088000Y-103186000D03*
D14*
X128638000Y-101736000D03*
X127838000Y-101736000D03*
X127038000Y-101736000D03*
X126238000Y-101736000D03*
X125438000Y-101736000D03*
X124638000Y-101736000D03*
X123838000Y-101736000D03*
X123038000Y-101736000D03*
%TD*%
D15*
%TO.C,U2*%
X93800000Y-70860000D03*
X93800000Y-72760000D03*
X96200000Y-71810000D03*
%TD*%
D16*
%TO.C,C5*%
X132842000Y-105730000D03*
X132842000Y-107630000D03*
%TD*%
D17*
%TO.C,C3*%
X129098000Y-116332000D03*
X130998000Y-116332000D03*
%TD*%
%TO.C,C4*%
X129098000Y-114046000D03*
X130998000Y-114046000D03*
%TD*%
D18*
%TO.C,U1*%
X125603000Y-57664000D03*
X126873000Y-57664000D03*
X128143000Y-57664000D03*
X129413000Y-57664000D03*
X130683000Y-57664000D03*
X131953000Y-57664000D03*
X133223000Y-57664000D03*
X134493000Y-57664000D03*
X134493000Y-64764000D03*
X133223000Y-64764000D03*
X131953000Y-64764000D03*
X130683000Y-64764000D03*
X129413000Y-64764000D03*
X128143000Y-64764000D03*
X126873000Y-64764000D03*
X125603000Y-64764000D03*
%TD*%
M02*
