M48
; DRILL file {KiCad 9.0.4-9.0.4-0~ubuntu22.04.1} date 2025-10-10T14:12:52+0200
; FORMAT={-:-/ absolute / inch / decimal}
; #@! TF.CreationDate,2025-10-10T14:12:52+02:00
; #@! TF.GenerationSoftware,Kicad,Pcbnew,9.0.4-9.0.4-0~ubuntu22.04.1
; #@! TF.FileFunction,Plated,1,2,PTH
FMAT,2
INCH
; #@! TA.AperFunction,Plated,PTH,ViaDrill
T1C0.0157
; #@! TA.AperFunction,Plated,PTH,ComponentDrill
T2C0.0374
; #@! TA.AperFunction,Plated,PTH,ComponentDrill
T3C0.0433
; #@! TA.AperFunction,Plated,PTH,ComponentDrill
T4C0.0551
; #@! TA.AperFunction,Plated,PTH,ComponentDrill
T5C0.1063
; #@! TA.AperFunction,Plated,PTH,ComponentDrill
T6C0.1299
%
G90
G05
T1
X2.15Y-3.9
X2.15Y-4.5
X2.25Y-4.8
X2.25Y-4.9
X3.75Y-4.2
X3.85Y-4.5
X3.85Y-4.6
X3.85Y-4.7
X4.15Y-4.2
X4.15Y-4.4655
X4.17Y-4.16
X4.17Y-4.6581
X5.75Y-3.7
X5.75Y-4.6581
X6.1Y-4.5
X6.1Y-4.6
X6.1Y-4.7
X8.24Y-4.51
X8.24Y-4.61
X8.24Y-4.72
X8.45Y-4.5
X8.46Y-4.01
X8.75Y-3.95
X8.75Y-4.6
X8.9177Y-4.8225
X8.9215Y-3.8373
X8.95Y-4.8
X8.9608Y-3.87
T2
X1.8685Y-4.2118
X1.8685Y-4.3118
X1.8685Y-4.4118
X1.8685Y-4.5118
X1.8685Y-4.6118
X1.8685Y-4.7118
X1.8685Y-4.8118
X1.8685Y-4.9118
X2.0685Y-4.2118
X2.0685Y-4.3118
X2.0685Y-4.4118
X2.0685Y-4.5118
X2.0685Y-4.6118
X2.0685Y-4.7118
X2.0685Y-4.8118
X2.0685Y-4.9118
X4.0339Y-4.2118
X4.0339Y-4.3118
X4.0339Y-4.4118
X4.0339Y-4.5118
X4.0339Y-4.6118
X4.0339Y-4.7118
X4.0339Y-4.8118
X4.0339Y-4.9118
X4.2339Y-4.2118
X4.2339Y-4.3118
X4.2339Y-4.4118
X4.2339Y-4.5118
X4.2339Y-4.6118
X4.2339Y-4.7118
X4.2339Y-4.8118
X4.2339Y-4.9118
X6.1992Y-4.2118
X6.1992Y-4.3118
X6.1992Y-4.4118
X6.1992Y-4.5118
X6.1992Y-4.6118
X6.1992Y-4.7118
X6.1992Y-4.8118
X6.1992Y-4.9118
X6.3992Y-4.2118
X6.3992Y-4.3118
X6.3992Y-4.4118
X6.3992Y-4.5118
X6.3992Y-4.6118
X6.3992Y-4.7118
X6.3992Y-4.8118
X6.3992Y-4.9118
X8.3646Y-4.2118
X8.3646Y-4.3118
X8.3646Y-4.4118
X8.3646Y-4.5118
X8.3646Y-4.6118
X8.3646Y-4.7118
X8.3646Y-4.8118
X8.3646Y-4.9118
X8.5646Y-4.2118
X8.5646Y-4.3118
X8.5646Y-4.4118
X8.5646Y-4.5118
X8.5646Y-4.6118
X8.5646Y-4.7118
X8.5646Y-4.8118
X8.5646Y-4.9118
T3
X5.6299Y-3.6795
X5.6299Y-3.7795
X5.6299Y-3.8795
T4
X2.402Y-3.8552
X2.602Y-3.8552
X2.802Y-3.8552
X3.1496Y-3.8583
X3.3496Y-3.8583
X3.5496Y-3.8583
X3.65Y-5.25
X3.65Y-5.45
X6.8Y-5.25
X6.8Y-5.45
X6.8504Y-3.8583
X7.0504Y-3.8583
X7.2504Y-3.8583
X7.5984Y-3.8583
X7.7984Y-3.8583
X7.9984Y-3.8583
T5
X1.5748Y-3.622
X1.5748Y-5.5118
X4.5669Y-3.622
X4.5669Y-5.5118
X5.9Y-3.62
X5.9Y-5.54
X8.8583Y-3.622
X8.8583Y-5.5118
T6
X1.9685Y-3.6118
X1.9685Y-5.5118
X4.1339Y-3.6118
X4.1339Y-5.5118
X6.2992Y-3.6118
X6.2992Y-5.5118
X8.4646Y-3.6118
X8.4646Y-5.5118
M30
