%TF.GenerationSoftware,KiCad,Pcbnew,9.0.4-9.0.4-0~ubuntu22.04.1*%
%TF.CreationDate,2025-10-10T14:12:54+02:00*%
%TF.ProjectId,splitflap-backplane,73706c69-7466-46c6-9170-2d6261636b70,rev?*%
%TF.SameCoordinates,Original*%
%TF.FileFunction,Copper,L2,Bot*%
%TF.FilePolarity,Positive*%
%FSLAX46Y46*%
G04 Gerber Fmt 4.6, Leading zero omitted, Abs format (unit mm)*
G04 Created by KiCad (PCBNEW 9.0.4-9.0.4-0~ubuntu22.04.1) date 2025-10-10 14:12:54*
%MOMM*%
%LPD*%
G01*
G04 APERTURE LIST*
G04 Aperture macros list*
%AMRoundRect*
0 Rectangle with rounded corners*
0 $1 Rounding radius*
0 $2 $3 $4 $5 $6 $7 $8 $9 X,Y pos of 4 corners*
0 Add a 4 corners polygon primitive as box body*
4,1,4,$2,$3,$4,$5,$6,$7,$8,$9,$2,$3,0*
0 Add four circle primitives for the rounded corners*
1,1,$1+$1,$2,$3*
1,1,$1+$1,$4,$5*
1,1,$1+$1,$6,$7*
1,1,$1+$1,$8,$9*
0 Add four rect primitives between the rounded corners*
20,1,$1+$1,$2,$3,$4,$5,0*
20,1,$1+$1,$4,$5,$6,$7,0*
20,1,$1+$1,$6,$7,$8,$9,0*
20,1,$1+$1,$8,$9,$2,$3,0*%
G04 Aperture macros list end*
%TA.AperFunction,ComponentPad*%
%ADD10C,7.620000*%
%TD*%
%TA.AperFunction,ComponentPad*%
%ADD11O,1.950000X1.700000*%
%TD*%
%TA.AperFunction,ComponentPad*%
%ADD12RoundRect,0.249999X1.550001X-0.790001X1.550001X0.790001X-1.550001X0.790001X-1.550001X-0.790001X0*%
%TD*%
%TA.AperFunction,ComponentPad*%
%ADD13O,3.600000X2.080000*%
%TD*%
%TA.AperFunction,ComponentPad*%
%ADD14RoundRect,0.249999X-1.550001X0.790001X-1.550001X-0.790001X1.550001X-0.790001X1.550001X0.790001X0*%
%TD*%
%TA.AperFunction,ComponentPad*%
%ADD15C,4.700000*%
%TD*%
%TA.AperFunction,ComponentPad*%
%ADD16RoundRect,0.249999X0.790001X1.550001X-0.790001X1.550001X-0.790001X-1.550001X0.790001X-1.550001X0*%
%TD*%
%TA.AperFunction,ComponentPad*%
%ADD17O,2.080000X3.600000*%
%TD*%
%TA.AperFunction,ComponentPad*%
%ADD18R,2.000000X1.905000*%
%TD*%
%TA.AperFunction,ComponentPad*%
%ADD19O,2.000000X1.905000*%
%TD*%
%TA.AperFunction,ViaPad*%
%ADD20C,0.800000*%
%TD*%
%TA.AperFunction,Conductor*%
%ADD21C,0.250000*%
%TD*%
G04 APERTURE END LIST*
D10*
%TO.P,JM1,*%
%TO.N,*%
X50000000Y-91740000D03*
X50000000Y-140000000D03*
D11*
%TO.P,JM1,1,Pin_1*%
%TO.N,/BUS_HIGH*%
X52540000Y-124760000D03*
%TO.P,JM1,2,Pin_2*%
%TO.N,/BUS_LOW*%
X52540000Y-122220000D03*
%TO.P,JM1,3,Pin_3*%
%TO.N,GND*%
X52540000Y-119680000D03*
%TO.P,JM1,4,Pin_4*%
%TO.N,/BUS_DETC_CHAIN_1*%
X52540000Y-117140000D03*
%TO.P,JM1,5,Pin_5*%
%TO.N,/BUS_DETC_IN*%
X52540000Y-114600000D03*
%TO.P,JM1,6,Pin_6*%
%TO.N,GND*%
X52540000Y-112060000D03*
%TO.P,JM1,7,Pin_7*%
X52540000Y-106980000D03*
X52540000Y-109520000D03*
%TO.P,JM1,9,Pin_9*%
%TO.N,unconnected-(JM1-Pin_9-Pad9)*%
X47460000Y-124760000D03*
%TO.P,JM1,10,Pin_10*%
%TO.N,unconnected-(JM1-Pin_10-Pad10)*%
X47460000Y-122220000D03*
%TO.P,JM1,11,Pin_11*%
%TO.N,unconnected-(JM1-Pin_11-Pad11)*%
X47460000Y-119680000D03*
%TO.P,JM1,12,Pin_12*%
%TO.N,+5V*%
X47460000Y-117140000D03*
%TO.P,JM1,13,Pin_13*%
%TO.N,/BUS_RESET*%
X47460000Y-114600000D03*
%TO.P,JM1,14,Pin_14*%
%TO.N,GND*%
X47460000Y-112060000D03*
%TO.P,JM1,15,Pin_15*%
%TO.N,+12V*%
X47460000Y-106980000D03*
X47460000Y-109520000D03*
%TD*%
D10*
%TO.P,JM2,*%
%TO.N,*%
X105000000Y-91740000D03*
X105000000Y-140000000D03*
D11*
%TO.P,JM2,1,Pin_1*%
%TO.N,/BUS_HIGH*%
X107540000Y-124760000D03*
%TO.P,JM2,2,Pin_2*%
%TO.N,/BUS_LOW*%
X107540000Y-122220000D03*
%TO.P,JM2,3,Pin_3*%
%TO.N,GND*%
X107540000Y-119680000D03*
%TO.P,JM2,4,Pin_4*%
%TO.N,/BUS_DETC_CHAIN_2*%
X107540000Y-117140000D03*
%TO.P,JM2,5,Pin_5*%
%TO.N,/BUS_DETC_CHAIN_1*%
X107540000Y-114600000D03*
%TO.P,JM2,6,Pin_6*%
%TO.N,GND*%
X107540000Y-112060000D03*
%TO.P,JM2,7,Pin_7*%
X107540000Y-106980000D03*
X107540000Y-109520000D03*
%TO.P,JM2,9,Pin_9*%
%TO.N,unconnected-(JM2-Pin_9-Pad9)*%
X102460000Y-124760000D03*
%TO.P,JM2,10,Pin_10*%
%TO.N,unconnected-(JM2-Pin_10-Pad10)*%
X102460000Y-122220000D03*
%TO.P,JM2,11,Pin_11*%
%TO.N,unconnected-(JM2-Pin_11-Pad11)*%
X102460000Y-119680000D03*
%TO.P,JM2,12,Pin_12*%
%TO.N,+5V*%
X102460000Y-117140000D03*
%TO.P,JM2,13,Pin_13*%
%TO.N,/BUS_RESET*%
X102460000Y-114600000D03*
%TO.P,JM2,14,Pin_14*%
%TO.N,GND*%
X102460000Y-112060000D03*
%TO.P,JM2,15,Pin_15*%
%TO.N,+12V*%
X102460000Y-106980000D03*
X102460000Y-109520000D03*
%TD*%
D10*
%TO.P,JM4,*%
%TO.N,*%
X215000000Y-91740000D03*
X215000000Y-140000000D03*
D11*
%TO.P,JM4,1,Pin_1*%
%TO.N,/BUS_HIGH*%
X217540000Y-124760000D03*
%TO.P,JM4,2,Pin_2*%
%TO.N,/BUS_LOW*%
X217540000Y-122220000D03*
%TO.P,JM4,3,Pin_3*%
%TO.N,GND*%
X217540000Y-119680000D03*
%TO.P,JM4,4,Pin_4*%
%TO.N,/BUS_DETC_OUT*%
X217540000Y-117140000D03*
%TO.P,JM4,5,Pin_5*%
%TO.N,/BUS_DETC_CHAIN_3*%
X217540000Y-114600000D03*
%TO.P,JM4,6,Pin_6*%
%TO.N,GND*%
X217540000Y-112060000D03*
%TO.P,JM4,7,Pin_7*%
X217540000Y-106980000D03*
X217540000Y-109520000D03*
%TO.P,JM4,9,Pin_9*%
%TO.N,unconnected-(JM4-Pin_9-Pad9)*%
X212460000Y-124760000D03*
%TO.P,JM4,10,Pin_10*%
%TO.N,unconnected-(JM4-Pin_10-Pad10)*%
X212460000Y-122220000D03*
%TO.P,JM4,11,Pin_11*%
%TO.N,unconnected-(JM4-Pin_11-Pad11)*%
X212460000Y-119680000D03*
%TO.P,JM4,12,Pin_12*%
%TO.N,+5V*%
X212460000Y-117140000D03*
%TO.P,JM4,13,Pin_13*%
%TO.N,/BUS_RESET*%
X212460000Y-114600000D03*
%TO.P,JM4,14,Pin_14*%
%TO.N,GND*%
X212460000Y-112060000D03*
%TO.P,JM4,15,Pin_15*%
%TO.N,+12V*%
X212460000Y-106980000D03*
X212460000Y-109520000D03*
%TD*%
D10*
%TO.P,JM3,*%
%TO.N,*%
X160000000Y-91740000D03*
X160000000Y-140000000D03*
D11*
%TO.P,JM3,1,Pin_1*%
%TO.N,/BUS_HIGH*%
X162540000Y-124760000D03*
%TO.P,JM3,2,Pin_2*%
%TO.N,/BUS_LOW*%
X162540000Y-122220000D03*
%TO.P,JM3,3,Pin_3*%
%TO.N,GND*%
X162540000Y-119680000D03*
%TO.P,JM3,4,Pin_4*%
%TO.N,/BUS_DETC_CHAIN_3*%
X162540000Y-117140000D03*
%TO.P,JM3,5,Pin_5*%
%TO.N,/BUS_DETC_CHAIN_2*%
X162540000Y-114600000D03*
%TO.P,JM3,6,Pin_6*%
%TO.N,GND*%
X162540000Y-112060000D03*
%TO.P,JM3,7,Pin_7*%
X162540000Y-106980000D03*
X162540000Y-109520000D03*
%TO.P,JM3,9,Pin_9*%
%TO.N,unconnected-(JM3-Pin_9-Pad9)*%
X157460000Y-124760000D03*
%TO.P,JM3,10,Pin_10*%
%TO.N,unconnected-(JM3-Pin_10-Pad10)*%
X157460000Y-122220000D03*
%TO.P,JM3,11,Pin_11*%
%TO.N,unconnected-(JM3-Pin_11-Pad11)*%
X157460000Y-119680000D03*
%TO.P,JM3,12,Pin_12*%
%TO.N,+5V*%
X157460000Y-117140000D03*
%TO.P,JM3,13,Pin_13*%
%TO.N,/BUS_RESET*%
X157460000Y-114600000D03*
%TO.P,JM3,14,Pin_14*%
%TO.N,GND*%
X157460000Y-112060000D03*
%TO.P,JM3,15,Pin_15*%
%TO.N,+12V*%
X157460000Y-106980000D03*
X157460000Y-109520000D03*
%TD*%
D12*
%TO.P,J2,1,Pin_1*%
%TO.N,+12V*%
X172720000Y-138430000D03*
D13*
%TO.P,J2,2,Pin_2*%
%TO.N,GND*%
X172720000Y-133350000D03*
%TD*%
D14*
%TO.P,J1,1,Pin_1*%
%TO.N,+12V*%
X92710000Y-133350000D03*
D13*
%TO.P,J1,2,Pin_2*%
%TO.N,GND*%
X92710000Y-138430000D03*
%TD*%
D15*
%TO.P,H8,1,1*%
%TO.N,GND*%
X225000000Y-140000000D03*
%TD*%
%TO.P,H3,1,1*%
%TO.N,GND*%
X116000000Y-92000000D03*
%TD*%
D16*
%TO.P,J8,1,Pin_1*%
%TO.N,/BUS_DETC_OUT*%
X203160000Y-98000000D03*
D17*
%TO.P,J8,2,Pin_2*%
%TO.N,/BUS_RESET*%
X198080000Y-98000000D03*
%TO.P,J8,3,Pin_3*%
%TO.N,GND*%
X193000000Y-98000000D03*
%TD*%
D16*
%TO.P,J5,1,Pin_1*%
%TO.N,/BUS_HIGH*%
X71170000Y-97921500D03*
D17*
%TO.P,J5,2,Pin_2*%
%TO.N,/BUS_LOW*%
X66090000Y-97921500D03*
%TO.P,J5,3,Pin_3*%
%TO.N,GND*%
X61010000Y-97921500D03*
%TD*%
D15*
%TO.P,H5,1,1*%
%TO.N,GND*%
X149860000Y-91948000D03*
%TD*%
D16*
%TO.P,J6,1,Pin_1*%
%TO.N,/BUS_HIGH*%
X184160000Y-98000000D03*
D17*
%TO.P,J6,2,Pin_2*%
%TO.N,/BUS_LOW*%
X179080000Y-98000000D03*
%TO.P,J6,3,Pin_3*%
%TO.N,GND*%
X174000000Y-98000000D03*
%TD*%
D16*
%TO.P,J7,1,Pin_1*%
%TO.N,/BUS_DETC_IN*%
X90160000Y-98000000D03*
D17*
%TO.P,J7,2,Pin_2*%
%TO.N,/BUS_RESET_IN*%
X85080000Y-98000000D03*
%TO.P,J7,3,Pin_3*%
%TO.N,GND*%
X80000000Y-98000000D03*
%TD*%
D15*
%TO.P,H7,1,1*%
%TO.N,GND*%
X225000000Y-92000000D03*
%TD*%
D18*
%TO.P,U1,1,IN*%
%TO.N,+12V*%
X143000000Y-98540000D03*
D19*
%TO.P,U1,2,GND*%
%TO.N,GND*%
X143000000Y-96000000D03*
%TO.P,U1,3,OUT*%
%TO.N,+5V*%
X143000000Y-93460000D03*
%TD*%
D15*
%TO.P,H1,1,1*%
%TO.N,GND*%
X40000000Y-140000000D03*
%TD*%
%TO.P,H2,1,1*%
%TO.N,GND*%
X40000000Y-92000000D03*
%TD*%
%TO.P,H4,1,1*%
%TO.N,GND*%
X116000000Y-140000000D03*
%TD*%
%TO.P,H6,1,1*%
%TO.N,GND*%
X149860000Y-140716000D03*
%TD*%
D20*
%TO.N,+12V*%
X209296000Y-119888000D03*
X209296000Y-117094000D03*
X209296000Y-114554000D03*
%TO.N,/BUS_HIGH*%
X227604000Y-98298000D03*
%TO.N,/BUS_LOW*%
X226605000Y-97468686D03*
X226508687Y-122490483D03*
%TO.N,/BUS_RESET*%
X214630000Y-114300000D03*
X214884000Y-101854000D03*
X105410000Y-113424000D03*
%TO.N,+5V*%
X105918000Y-105664000D03*
X105918000Y-118316000D03*
%TO.N,GND*%
X95250000Y-106680000D03*
%TO.N,/BUS_RESET*%
X105410000Y-106680000D03*
%TO.N,+12V*%
X154940000Y-119380000D03*
X154940000Y-116840000D03*
X154940000Y-114300000D03*
X97790000Y-119380000D03*
X97790000Y-116840000D03*
X97790000Y-114300000D03*
%TO.N,+5V*%
X146050000Y-93980000D03*
X146050000Y-118316000D03*
%TO.N,/BUS_HIGH*%
X227330000Y-121920000D03*
%TO.N,/BUS_DETC_OUT*%
X222250000Y-116840000D03*
X222250000Y-100330000D03*
%TO.N,/BUS_DETC_IN*%
X54610000Y-114300000D03*
X54610000Y-99060000D03*
%TO.N,/BUS_HIGH*%
X57150000Y-124460000D03*
%TO.N,/BUS_LOW*%
X57150000Y-121920000D03*
%TD*%
D21*
%TO.N,/BUS_RESET*%
X105410000Y-113424000D02*
X105410000Y-106680000D01*
%TO.N,+12V*%
X209296000Y-117094000D02*
X209296000Y-119888000D01*
X209296000Y-114554000D02*
X209296000Y-117094000D01*
%TO.N,/BUS_HIGH*%
X227604000Y-98298000D02*
X227584000Y-98298000D01*
X227584000Y-98298000D02*
X227330000Y-98552000D01*
X227330000Y-98552000D02*
X227330000Y-121920000D01*
%TO.N,/BUS_LOW*%
X226879000Y-121344280D02*
X226879000Y-98298000D01*
X226879000Y-97742686D02*
X226605000Y-97468686D01*
X226879000Y-98298000D02*
X226879000Y-97742686D01*
X226508687Y-121714593D02*
X226879000Y-121344280D01*
X226508687Y-122490483D02*
X226508687Y-121714593D01*
%TO.N,/BUS_RESET*%
X214884000Y-114046000D02*
X214630000Y-114300000D01*
X214884000Y-101854000D02*
X214884000Y-114046000D01*
%TO.N,+5V*%
X105918000Y-105664000D02*
X106136000Y-105882000D01*
X106136000Y-105882000D02*
X106136000Y-118098000D01*
X106136000Y-118098000D02*
X105918000Y-118316000D01*
%TO.N,+12V*%
X154940000Y-116840000D02*
X154940000Y-119380000D01*
X154940000Y-114300000D02*
X154940000Y-116840000D01*
X97790000Y-116840000D02*
X97790000Y-119380000D01*
X97790000Y-114300000D02*
X97790000Y-116840000D01*
%TO.N,+5V*%
X146050000Y-93980000D02*
X146050000Y-118316000D01*
%TO.N,/BUS_DETC_OUT*%
X222250000Y-100330000D02*
X222250000Y-116840000D01*
%TO.N,/BUS_DETC_IN*%
X54610000Y-99060000D02*
X54610000Y-114300000D01*
%TO.N,/BUS_HIGH*%
X71170000Y-110440000D02*
X57150000Y-124460000D01*
X71170000Y-97921500D02*
X71170000Y-110440000D01*
%TO.N,/BUS_LOW*%
X66090000Y-112980000D02*
X57150000Y-121920000D01*
X66090000Y-97921500D02*
X66090000Y-112980000D01*
%TD*%
%TA.AperFunction,Conductor*%
%TO.N,GND*%
G36*
X52790000Y-111655854D02*
G01*
X52723343Y-111617370D01*
X52602535Y-111585000D01*
X52477465Y-111585000D01*
X52356657Y-111617370D01*
X52290000Y-111655854D01*
X52290000Y-109924145D01*
X52356657Y-109962630D01*
X52477465Y-109995000D01*
X52602535Y-109995000D01*
X52723343Y-109962630D01*
X52790000Y-109924145D01*
X52790000Y-111655854D01*
G37*
%TD.AperFunction*%
%TA.AperFunction,Conductor*%
G36*
X52790000Y-109115854D02*
G01*
X52723343Y-109077370D01*
X52602535Y-109045000D01*
X52477465Y-109045000D01*
X52356657Y-109077370D01*
X52290000Y-109115854D01*
X52290000Y-107384145D01*
X52356657Y-107422630D01*
X52477465Y-107455000D01*
X52602535Y-107455000D01*
X52723343Y-107422630D01*
X52790000Y-107384145D01*
X52790000Y-109115854D01*
G37*
%TD.AperFunction*%
%TA.AperFunction,Conductor*%
G36*
X107790000Y-111655854D02*
G01*
X107723343Y-111617370D01*
X107602535Y-111585000D01*
X107477465Y-111585000D01*
X107356657Y-111617370D01*
X107290000Y-111655854D01*
X107290000Y-109924145D01*
X107356657Y-109962630D01*
X107477465Y-109995000D01*
X107602535Y-109995000D01*
X107723343Y-109962630D01*
X107790000Y-109924145D01*
X107790000Y-111655854D01*
G37*
%TD.AperFunction*%
%TA.AperFunction,Conductor*%
G36*
X107790000Y-109115854D02*
G01*
X107723343Y-109077370D01*
X107602535Y-109045000D01*
X107477465Y-109045000D01*
X107356657Y-109077370D01*
X107290000Y-109115854D01*
X107290000Y-107384145D01*
X107356657Y-107422630D01*
X107477465Y-107455000D01*
X107602535Y-107455000D01*
X107723343Y-107422630D01*
X107790000Y-107384145D01*
X107790000Y-109115854D01*
G37*
%TD.AperFunction*%
%TA.AperFunction,Conductor*%
G36*
X162790000Y-111655854D02*
G01*
X162723343Y-111617370D01*
X162602535Y-111585000D01*
X162477465Y-111585000D01*
X162356657Y-111617370D01*
X162290000Y-111655854D01*
X162290000Y-109924145D01*
X162356657Y-109962630D01*
X162477465Y-109995000D01*
X162602535Y-109995000D01*
X162723343Y-109962630D01*
X162790000Y-109924145D01*
X162790000Y-111655854D01*
G37*
%TD.AperFunction*%
%TA.AperFunction,Conductor*%
G36*
X162790000Y-109115854D02*
G01*
X162723343Y-109077370D01*
X162602535Y-109045000D01*
X162477465Y-109045000D01*
X162356657Y-109077370D01*
X162290000Y-109115854D01*
X162290000Y-107384145D01*
X162356657Y-107422630D01*
X162477465Y-107455000D01*
X162602535Y-107455000D01*
X162723343Y-107422630D01*
X162790000Y-107384145D01*
X162790000Y-109115854D01*
G37*
%TD.AperFunction*%
%TA.AperFunction,Conductor*%
G36*
X217790000Y-111655854D02*
G01*
X217723343Y-111617370D01*
X217602535Y-111585000D01*
X217477465Y-111585000D01*
X217356657Y-111617370D01*
X217290000Y-111655854D01*
X217290000Y-109924145D01*
X217356657Y-109962630D01*
X217477465Y-109995000D01*
X217602535Y-109995000D01*
X217723343Y-109962630D01*
X217790000Y-109924145D01*
X217790000Y-111655854D01*
G37*
%TD.AperFunction*%
%TA.AperFunction,Conductor*%
G36*
X217790000Y-109115854D02*
G01*
X217723343Y-109077370D01*
X217602535Y-109045000D01*
X217477465Y-109045000D01*
X217356657Y-109077370D01*
X217290000Y-109115854D01*
X217290000Y-107384145D01*
X217356657Y-107422630D01*
X217477465Y-107455000D01*
X217602535Y-107455000D01*
X217723343Y-107422630D01*
X217790000Y-107384145D01*
X217790000Y-109115854D01*
G37*
%TD.AperFunction*%
%TA.AperFunction,Conductor*%
G36*
X233942539Y-87020185D02*
G01*
X233988294Y-87072989D01*
X233999500Y-87124500D01*
X233999500Y-143875500D01*
X233979815Y-143942539D01*
X233927011Y-143988294D01*
X233875500Y-143999500D01*
X217156438Y-143999500D01*
X217089399Y-143979815D01*
X217043644Y-143927011D01*
X217033700Y-143857853D01*
X217062725Y-143794297D01*
X217094438Y-143768113D01*
X217318237Y-143638903D01*
X217626566Y-143423008D01*
X217914906Y-143181062D01*
X218181062Y-142914906D01*
X218423008Y-142626566D01*
X218638903Y-142318237D01*
X218827103Y-141992264D01*
X218986177Y-141651129D01*
X219114914Y-141297427D01*
X219212334Y-140933852D01*
X219277695Y-140563169D01*
X219310500Y-140188201D01*
X219310500Y-139811799D01*
X219277695Y-139436831D01*
X219212334Y-139066148D01*
X219114914Y-138702573D01*
X218986177Y-138348871D01*
X218928796Y-138225818D01*
X218869392Y-138098426D01*
X218827103Y-138007736D01*
X218638903Y-137681763D01*
X218423008Y-137373434D01*
X218423007Y-137373433D01*
X218423003Y-137373427D01*
X218181059Y-137085091D01*
X217914908Y-136818940D01*
X217626572Y-136576996D01*
X217318243Y-136361101D01*
X217318240Y-136361099D01*
X217318237Y-136361097D01*
X217221394Y-136305185D01*
X216992270Y-136172900D01*
X216992254Y-136172892D01*
X216651146Y-136013830D01*
X216651138Y-136013827D01*
X216651136Y-136013826D01*
X216651129Y-136013823D01*
X216297427Y-135885086D01*
X216066931Y-135823324D01*
X215933853Y-135787666D01*
X215933842Y-135787664D01*
X215563173Y-135722305D01*
X215188204Y-135689500D01*
X215188201Y-135689500D01*
X214811799Y-135689500D01*
X214811795Y-135689500D01*
X214436828Y-135722305D01*
X214436824Y-135722305D01*
X214066157Y-135787664D01*
X214066146Y-135787666D01*
X213871306Y-135839873D01*
X213702573Y-135885086D01*
X213702570Y-135885087D01*
X213702569Y-135885087D01*
X213505003Y-135956995D01*
X213348871Y-136013823D01*
X213348867Y-136013824D01*
X213348861Y-136013827D01*
X213348853Y-136013830D01*
X213007745Y-136172892D01*
X213007729Y-136172900D01*
X212681771Y-136361092D01*
X212681756Y-136361101D01*
X212373427Y-136576996D01*
X212085091Y-136818940D01*
X211818940Y-137085091D01*
X211576996Y-137373427D01*
X211361101Y-137681756D01*
X211361092Y-137681771D01*
X211172900Y-138007729D01*
X211172892Y-138007745D01*
X211013830Y-138348853D01*
X211013827Y-138348861D01*
X210893302Y-138680000D01*
X210885086Y-138702573D01*
X210839873Y-138871306D01*
X210787666Y-139066146D01*
X210787664Y-139066157D01*
X210722305Y-139436824D01*
X210722305Y-139436828D01*
X210689500Y-139811795D01*
X210689500Y-140188204D01*
X210722305Y-140563171D01*
X210722305Y-140563175D01*
X210787664Y-140933842D01*
X210787666Y-140933852D01*
X210885086Y-141297427D01*
X211013823Y-141651129D01*
X211013826Y-141651136D01*
X211013827Y-141651138D01*
X211013830Y-141651146D01*
X211172892Y-141992254D01*
X211172900Y-141992270D01*
X211361092Y-142318228D01*
X211361101Y-142318243D01*
X211576996Y-142626572D01*
X211761539Y-142846501D01*
X211818938Y-142914906D01*
X212085094Y-143181062D01*
X212187700Y-143267159D01*
X212373427Y-143423003D01*
X212373433Y-143423007D01*
X212373434Y-143423008D01*
X212681763Y-143638903D01*
X212905562Y-143768113D01*
X212953778Y-143818680D01*
X212967001Y-143887287D01*
X212941033Y-143952152D01*
X212884118Y-143992680D01*
X212843562Y-143999500D01*
X162156438Y-143999500D01*
X162089399Y-143979815D01*
X162043644Y-143927011D01*
X162033700Y-143857853D01*
X162062725Y-143794297D01*
X162094438Y-143768113D01*
X162318237Y-143638903D01*
X162626566Y-143423008D01*
X162914906Y-143181062D01*
X163181062Y-142914906D01*
X163423008Y-142626566D01*
X163638903Y-142318237D01*
X163827103Y-141992264D01*
X163986177Y-141651129D01*
X164114914Y-141297427D01*
X164212334Y-140933852D01*
X164277695Y-140563169D01*
X164310500Y-140188201D01*
X164310500Y-139811799D01*
X164277695Y-139436831D01*
X164212334Y-139066148D01*
X164114914Y-138702573D01*
X163986177Y-138348871D01*
X163928796Y-138225818D01*
X163869392Y-138098426D01*
X163827103Y-138007736D01*
X163638903Y-137681763D01*
X163574637Y-137589982D01*
X170419500Y-137589982D01*
X170419500Y-139270017D01*
X170430000Y-139372796D01*
X170430001Y-139372798D01*
X170485186Y-139539335D01*
X170577288Y-139688656D01*
X170701344Y-139812712D01*
X170850665Y-139904814D01*
X171017202Y-139959999D01*
X171119990Y-139970500D01*
X171119995Y-139970500D01*
X174320005Y-139970500D01*
X174320010Y-139970500D01*
X174422798Y-139959999D01*
X174589335Y-139904814D01*
X174738656Y-139812712D01*
X174862712Y-139688656D01*
X174954814Y-139539335D01*
X175009999Y-139372798D01*
X175020500Y-139270010D01*
X175020500Y-137589990D01*
X175009999Y-137487202D01*
X174954814Y-137320665D01*
X174862712Y-137171344D01*
X174738656Y-137047288D01*
X174589335Y-136955186D01*
X174422798Y-136900001D01*
X174422796Y-136900000D01*
X174320017Y-136889500D01*
X174320010Y-136889500D01*
X171119990Y-136889500D01*
X171119982Y-136889500D01*
X171017203Y-136900000D01*
X171017202Y-136900001D01*
X170934669Y-136927349D01*
X170850667Y-136955185D01*
X170850662Y-136955187D01*
X170701342Y-137047289D01*
X170577289Y-137171342D01*
X170485187Y-137320662D01*
X170485186Y-137320665D01*
X170430001Y-137487202D01*
X170430001Y-137487203D01*
X170430000Y-137487203D01*
X170419500Y-137589982D01*
X163574637Y-137589982D01*
X163423008Y-137373434D01*
X163423007Y-137373433D01*
X163423003Y-137373427D01*
X163181059Y-137085091D01*
X162914908Y-136818940D01*
X162626572Y-136576996D01*
X162318243Y-136361101D01*
X162318240Y-136361099D01*
X162318237Y-136361097D01*
X162221394Y-136305185D01*
X161992270Y-136172900D01*
X161992254Y-136172892D01*
X161651146Y-136013830D01*
X161651138Y-136013827D01*
X161651136Y-136013826D01*
X161651129Y-136013823D01*
X161297427Y-135885086D01*
X161066931Y-135823324D01*
X160933853Y-135787666D01*
X160933842Y-135787664D01*
X160563173Y-135722305D01*
X160188204Y-135689500D01*
X160188201Y-135689500D01*
X159811799Y-135689500D01*
X159811795Y-135689500D01*
X159436828Y-135722305D01*
X159436824Y-135722305D01*
X159066157Y-135787664D01*
X159066146Y-135787666D01*
X158871306Y-135839873D01*
X158702573Y-135885086D01*
X158702570Y-135885087D01*
X158702569Y-135885087D01*
X158505003Y-135956995D01*
X158348871Y-136013823D01*
X158348867Y-136013824D01*
X158348861Y-136013827D01*
X158348853Y-136013830D01*
X158007745Y-136172892D01*
X158007729Y-136172900D01*
X157681771Y-136361092D01*
X157681756Y-136361101D01*
X157373427Y-136576996D01*
X157085091Y-136818940D01*
X156818940Y-137085091D01*
X156576996Y-137373427D01*
X156361101Y-137681756D01*
X156361092Y-137681771D01*
X156172900Y-138007729D01*
X156172892Y-138007745D01*
X156013830Y-138348853D01*
X156013827Y-138348861D01*
X155893302Y-138680000D01*
X155885086Y-138702573D01*
X155839873Y-138871306D01*
X155787666Y-139066146D01*
X155787664Y-139066157D01*
X155722305Y-139436824D01*
X155722305Y-139436828D01*
X155689500Y-139811795D01*
X155689500Y-140188204D01*
X155722305Y-140563171D01*
X155722305Y-140563175D01*
X155787664Y-140933842D01*
X155787666Y-140933852D01*
X155885086Y-141297427D01*
X156013823Y-141651129D01*
X156013826Y-141651136D01*
X156013827Y-141651138D01*
X156013830Y-141651146D01*
X156172892Y-141992254D01*
X156172900Y-141992270D01*
X156361092Y-142318228D01*
X156361101Y-142318243D01*
X156576996Y-142626572D01*
X156761539Y-142846501D01*
X156818938Y-142914906D01*
X157085094Y-143181062D01*
X157187700Y-143267159D01*
X157373427Y-143423003D01*
X157373433Y-143423007D01*
X157373434Y-143423008D01*
X157681763Y-143638903D01*
X157905562Y-143768113D01*
X157953778Y-143818680D01*
X157967001Y-143887287D01*
X157941033Y-143952152D01*
X157884118Y-143992680D01*
X157843562Y-143999500D01*
X107156438Y-143999500D01*
X107089399Y-143979815D01*
X107043644Y-143927011D01*
X107033700Y-143857853D01*
X107062725Y-143794297D01*
X107094438Y-143768113D01*
X107318237Y-143638903D01*
X107626566Y-143423008D01*
X107914906Y-143181062D01*
X108181062Y-142914906D01*
X108423008Y-142626566D01*
X108638903Y-142318237D01*
X108827103Y-141992264D01*
X108986177Y-141651129D01*
X109114914Y-141297427D01*
X109212334Y-140933852D01*
X109277695Y-140563169D01*
X109310500Y-140188201D01*
X109310500Y-139811799D01*
X109277695Y-139436831D01*
X109212334Y-139066148D01*
X109114914Y-138702573D01*
X108986177Y-138348871D01*
X108928796Y-138225818D01*
X108869392Y-138098426D01*
X108827103Y-138007736D01*
X108638903Y-137681763D01*
X108423008Y-137373434D01*
X108423007Y-137373433D01*
X108423003Y-137373427D01*
X108181059Y-137085091D01*
X107914908Y-136818940D01*
X107626572Y-136576996D01*
X107318243Y-136361101D01*
X107318240Y-136361099D01*
X107318237Y-136361097D01*
X107221394Y-136305185D01*
X106992270Y-136172900D01*
X106992254Y-136172892D01*
X106651146Y-136013830D01*
X106651138Y-136013827D01*
X106651136Y-136013826D01*
X106651129Y-136013823D01*
X106297427Y-135885086D01*
X106066931Y-135823324D01*
X105933853Y-135787666D01*
X105933842Y-135787664D01*
X105563173Y-135722305D01*
X105188204Y-135689500D01*
X105188201Y-135689500D01*
X104811799Y-135689500D01*
X104811795Y-135689500D01*
X104436828Y-135722305D01*
X104436824Y-135722305D01*
X104066157Y-135787664D01*
X104066146Y-135787666D01*
X103871306Y-135839873D01*
X103702573Y-135885086D01*
X103702570Y-135885087D01*
X103702569Y-135885087D01*
X103505003Y-135956995D01*
X103348871Y-136013823D01*
X103348867Y-136013824D01*
X103348861Y-136013827D01*
X103348853Y-136013830D01*
X103007745Y-136172892D01*
X103007729Y-136172900D01*
X102681771Y-136361092D01*
X102681756Y-136361101D01*
X102373427Y-136576996D01*
X102085091Y-136818940D01*
X101818940Y-137085091D01*
X101576996Y-137373427D01*
X101361101Y-137681756D01*
X101361092Y-137681771D01*
X101172900Y-138007729D01*
X101172892Y-138007745D01*
X101013830Y-138348853D01*
X101013827Y-138348861D01*
X100893302Y-138680000D01*
X100885086Y-138702573D01*
X100839873Y-138871306D01*
X100787666Y-139066146D01*
X100787664Y-139066157D01*
X100722305Y-139436824D01*
X100722305Y-139436828D01*
X100689500Y-139811795D01*
X100689500Y-140188204D01*
X100722305Y-140563171D01*
X100722305Y-140563175D01*
X100787664Y-140933842D01*
X100787666Y-140933852D01*
X100885086Y-141297427D01*
X101013823Y-141651129D01*
X101013826Y-141651136D01*
X101013827Y-141651138D01*
X101013830Y-141651146D01*
X101172892Y-141992254D01*
X101172900Y-141992270D01*
X101361092Y-142318228D01*
X101361101Y-142318243D01*
X101576996Y-142626572D01*
X101761539Y-142846501D01*
X101818938Y-142914906D01*
X102085094Y-143181062D01*
X102187700Y-143267159D01*
X102373427Y-143423003D01*
X102373433Y-143423007D01*
X102373434Y-143423008D01*
X102681763Y-143638903D01*
X102905562Y-143768113D01*
X102953778Y-143818680D01*
X102967001Y-143887287D01*
X102941033Y-143952152D01*
X102884118Y-143992680D01*
X102843562Y-143999500D01*
X52156438Y-143999500D01*
X52089399Y-143979815D01*
X52043644Y-143927011D01*
X52033700Y-143857853D01*
X52062725Y-143794297D01*
X52094438Y-143768113D01*
X52318237Y-143638903D01*
X52626566Y-143423008D01*
X52914906Y-143181062D01*
X53181062Y-142914906D01*
X53423008Y-142626566D01*
X53638903Y-142318237D01*
X53827103Y-141992264D01*
X53986177Y-141651129D01*
X54114914Y-141297427D01*
X54212334Y-140933852D01*
X54277695Y-140563169D01*
X54310500Y-140188201D01*
X54310500Y-139811799D01*
X54277695Y-139436831D01*
X54212334Y-139066148D01*
X54114914Y-138702573D01*
X53986177Y-138348871D01*
X53928796Y-138225818D01*
X53907431Y-138180000D01*
X90430400Y-138180000D01*
X92055879Y-138180000D01*
X92036901Y-138225818D01*
X92010000Y-138361056D01*
X92010000Y-138498944D01*
X92036901Y-138634182D01*
X92055879Y-138680000D01*
X90430400Y-138680000D01*
X90447919Y-138790618D01*
X90522827Y-139021159D01*
X90632874Y-139237136D01*
X90775356Y-139433245D01*
X90946754Y-139604643D01*
X91142863Y-139747125D01*
X91358840Y-139857172D01*
X91589381Y-139932079D01*
X91828800Y-139970000D01*
X92460000Y-139970000D01*
X92460000Y-139084120D01*
X92505818Y-139103099D01*
X92641056Y-139130000D01*
X92778944Y-139130000D01*
X92914182Y-139103099D01*
X92960000Y-139084120D01*
X92960000Y-139970000D01*
X93591200Y-139970000D01*
X93830618Y-139932079D01*
X94061159Y-139857172D01*
X94277136Y-139747125D01*
X94473245Y-139604643D01*
X94644643Y-139433245D01*
X94787125Y-139237136D01*
X94897172Y-139021159D01*
X94972080Y-138790618D01*
X94989600Y-138680000D01*
X93364121Y-138680000D01*
X93383099Y-138634182D01*
X93410000Y-138498944D01*
X93410000Y-138361056D01*
X93383099Y-138225818D01*
X93364121Y-138180000D01*
X94989600Y-138180000D01*
X94972080Y-138069381D01*
X94897172Y-137838840D01*
X94787125Y-137622863D01*
X94644643Y-137426754D01*
X94473245Y-137255356D01*
X94277136Y-137112874D01*
X94061159Y-137002827D01*
X93830618Y-136927920D01*
X93591200Y-136890000D01*
X92960000Y-136890000D01*
X92960000Y-137775879D01*
X92914182Y-137756901D01*
X92778944Y-137730000D01*
X92641056Y-137730000D01*
X92505818Y-137756901D01*
X92460000Y-137775879D01*
X92460000Y-136890000D01*
X91828800Y-136890000D01*
X91589381Y-136927920D01*
X91358840Y-137002827D01*
X91142863Y-137112874D01*
X90946754Y-137255356D01*
X90775356Y-137426754D01*
X90632874Y-137622863D01*
X90522827Y-137838840D01*
X90447919Y-138069381D01*
X90430400Y-138180000D01*
X53907431Y-138180000D01*
X53869392Y-138098426D01*
X53827103Y-138007736D01*
X53638903Y-137681763D01*
X53423008Y-137373434D01*
X53423007Y-137373433D01*
X53423003Y-137373427D01*
X53181059Y-137085091D01*
X52914908Y-136818940D01*
X52626572Y-136576996D01*
X52318243Y-136361101D01*
X52318240Y-136361099D01*
X52318237Y-136361097D01*
X52221394Y-136305185D01*
X51992270Y-136172900D01*
X51992254Y-136172892D01*
X51651146Y-136013830D01*
X51651138Y-136013827D01*
X51651136Y-136013826D01*
X51651129Y-136013823D01*
X51297427Y-135885086D01*
X51066931Y-135823324D01*
X50933853Y-135787666D01*
X50933842Y-135787664D01*
X50563173Y-135722305D01*
X50188204Y-135689500D01*
X50188201Y-135689500D01*
X49811799Y-135689500D01*
X49811795Y-135689500D01*
X49436828Y-135722305D01*
X49436824Y-135722305D01*
X49066157Y-135787664D01*
X49066146Y-135787666D01*
X48871306Y-135839873D01*
X48702573Y-135885086D01*
X48702570Y-135885087D01*
X48702569Y-135885087D01*
X48505003Y-135956995D01*
X48348871Y-136013823D01*
X48348867Y-136013824D01*
X48348861Y-136013827D01*
X48348853Y-136013830D01*
X48007745Y-136172892D01*
X48007729Y-136172900D01*
X47681771Y-136361092D01*
X47681756Y-136361101D01*
X47373427Y-136576996D01*
X47085091Y-136818940D01*
X46818940Y-137085091D01*
X46576996Y-137373427D01*
X46361101Y-137681756D01*
X46361092Y-137681771D01*
X46172900Y-138007729D01*
X46172892Y-138007745D01*
X46013830Y-138348853D01*
X46013827Y-138348861D01*
X45893302Y-138680000D01*
X45885086Y-138702573D01*
X45839873Y-138871306D01*
X45787666Y-139066146D01*
X45787664Y-139066157D01*
X45722305Y-139436824D01*
X45722305Y-139436828D01*
X45689500Y-139811795D01*
X45689500Y-140188204D01*
X45722305Y-140563171D01*
X45722305Y-140563175D01*
X45787664Y-140933842D01*
X45787666Y-140933852D01*
X45885086Y-141297427D01*
X46013823Y-141651129D01*
X46013826Y-141651136D01*
X46013827Y-141651138D01*
X46013830Y-141651146D01*
X46172892Y-141992254D01*
X46172900Y-141992270D01*
X46361092Y-142318228D01*
X46361101Y-142318243D01*
X46576996Y-142626572D01*
X46761539Y-142846501D01*
X46818938Y-142914906D01*
X47085094Y-143181062D01*
X47187700Y-143267159D01*
X47373427Y-143423003D01*
X47373433Y-143423007D01*
X47373434Y-143423008D01*
X47681763Y-143638903D01*
X47905562Y-143768113D01*
X47953778Y-143818680D01*
X47967001Y-143887287D01*
X47941033Y-143952152D01*
X47884118Y-143992680D01*
X47843562Y-143999500D01*
X35124500Y-143999500D01*
X35057461Y-143979815D01*
X35011706Y-143927011D01*
X35000500Y-143875500D01*
X35000500Y-132509982D01*
X90409500Y-132509982D01*
X90409500Y-134190017D01*
X90420000Y-134292796D01*
X90420001Y-134292798D01*
X90475186Y-134459335D01*
X90567288Y-134608656D01*
X90691344Y-134732712D01*
X90840665Y-134824814D01*
X91007202Y-134879999D01*
X91109990Y-134890500D01*
X91109995Y-134890500D01*
X94310005Y-134890500D01*
X94310010Y-134890500D01*
X94412798Y-134879999D01*
X94579335Y-134824814D01*
X94728656Y-134732712D01*
X94852712Y-134608656D01*
X94944814Y-134459335D01*
X94999999Y-134292798D01*
X95010500Y-134190010D01*
X95010500Y-133100000D01*
X170440400Y-133100000D01*
X172065879Y-133100000D01*
X172046901Y-133145818D01*
X172020000Y-133281056D01*
X172020000Y-133418944D01*
X172046901Y-133554182D01*
X172065879Y-133600000D01*
X170440400Y-133600000D01*
X170457919Y-133710618D01*
X170532827Y-133941159D01*
X170642874Y-134157136D01*
X170785356Y-134353245D01*
X170956754Y-134524643D01*
X171152863Y-134667125D01*
X171368840Y-134777172D01*
X171599381Y-134852079D01*
X171838800Y-134890000D01*
X172470000Y-134890000D01*
X172470000Y-134004120D01*
X172515818Y-134023099D01*
X172651056Y-134050000D01*
X172788944Y-134050000D01*
X172924182Y-134023099D01*
X172970000Y-134004120D01*
X172970000Y-134890000D01*
X173601200Y-134890000D01*
X173840618Y-134852079D01*
X174071159Y-134777172D01*
X174287136Y-134667125D01*
X174483245Y-134524643D01*
X174654643Y-134353245D01*
X174797125Y-134157136D01*
X174907172Y-133941159D01*
X174982080Y-133710618D01*
X174999600Y-133600000D01*
X173374121Y-133600000D01*
X173393099Y-133554182D01*
X173420000Y-133418944D01*
X173420000Y-133281056D01*
X173393099Y-133145818D01*
X173374121Y-133100000D01*
X174999600Y-133100000D01*
X174982080Y-132989381D01*
X174907172Y-132758840D01*
X174797125Y-132542863D01*
X174654643Y-132346754D01*
X174483245Y-132175356D01*
X174287136Y-132032874D01*
X174071159Y-131922827D01*
X173840618Y-131847920D01*
X173601200Y-131810000D01*
X172970000Y-131810000D01*
X172970000Y-132695879D01*
X172924182Y-132676901D01*
X172788944Y-132650000D01*
X172651056Y-132650000D01*
X172515818Y-132676901D01*
X172470000Y-132695879D01*
X172470000Y-131810000D01*
X171838800Y-131810000D01*
X171599381Y-131847920D01*
X171368840Y-131922827D01*
X171152863Y-132032874D01*
X170956754Y-132175356D01*
X170785356Y-132346754D01*
X170642874Y-132542863D01*
X170532827Y-132758840D01*
X170457919Y-132989381D01*
X170440400Y-133100000D01*
X95010500Y-133100000D01*
X95010500Y-132509990D01*
X94999999Y-132407202D01*
X94944814Y-132240665D01*
X94852712Y-132091344D01*
X94728656Y-131967288D01*
X94579335Y-131875186D01*
X94412798Y-131820001D01*
X94412796Y-131820000D01*
X94310017Y-131809500D01*
X94310010Y-131809500D01*
X91109990Y-131809500D01*
X91109982Y-131809500D01*
X91007203Y-131820000D01*
X91007202Y-131820001D01*
X90924669Y-131847349D01*
X90840667Y-131875185D01*
X90840662Y-131875187D01*
X90691342Y-131967289D01*
X90567289Y-132091342D01*
X90475187Y-132240662D01*
X90475186Y-132240665D01*
X90420001Y-132407202D01*
X90420001Y-132407203D01*
X90420000Y-132407203D01*
X90409500Y-132509982D01*
X35000500Y-132509982D01*
X35000500Y-106873713D01*
X45984500Y-106873713D01*
X45984500Y-107086286D01*
X46011068Y-107254034D01*
X46017754Y-107296243D01*
X46028072Y-107327999D01*
X46083444Y-107498414D01*
X46179951Y-107687820D01*
X46304890Y-107859786D01*
X46455213Y-108010109D01*
X46627182Y-108135050D01*
X46635946Y-108139516D01*
X46686742Y-108187491D01*
X46703536Y-108255312D01*
X46680998Y-108321447D01*
X46635946Y-108360484D01*
X46627182Y-108364949D01*
X46455213Y-108489890D01*
X46304890Y-108640213D01*
X46179951Y-108812179D01*
X46083444Y-109001585D01*
X46017753Y-109203760D01*
X45984500Y-109413713D01*
X45984500Y-109626286D01*
X46017753Y-109836239D01*
X46083444Y-110038414D01*
X46179951Y-110227820D01*
X46304890Y-110399786D01*
X46455213Y-110550109D01*
X46627179Y-110675048D01*
X46627181Y-110675049D01*
X46627184Y-110675051D01*
X46636493Y-110679794D01*
X46687290Y-110727766D01*
X46704087Y-110795587D01*
X46681552Y-110861722D01*
X46636502Y-110900762D01*
X46627443Y-110905378D01*
X46455540Y-111030272D01*
X46455535Y-111030276D01*
X46305276Y-111180535D01*
X46305272Y-111180540D01*
X46180379Y-111352442D01*
X46083904Y-111541782D01*
X46018242Y-111743870D01*
X46018242Y-111743873D01*
X46007769Y-111810000D01*
X47055854Y-111810000D01*
X47017370Y-111876657D01*
X46985000Y-111997465D01*
X46985000Y-112122535D01*
X47017370Y-112243343D01*
X47055854Y-112310000D01*
X46007769Y-112310000D01*
X46018242Y-112376126D01*
X46018242Y-112376129D01*
X46083904Y-112578217D01*
X46180379Y-112767557D01*
X46305272Y-112939459D01*
X46305276Y-112939464D01*
X46455535Y-113089723D01*
X46455540Y-113089727D01*
X46627444Y-113214622D01*
X46636495Y-113219234D01*
X46687292Y-113267208D01*
X46704087Y-113335029D01*
X46681550Y-113401164D01*
X46636499Y-113440202D01*
X46627182Y-113444949D01*
X46455213Y-113569890D01*
X46304890Y-113720213D01*
X46179951Y-113892179D01*
X46083444Y-114081585D01*
X46083443Y-114081587D01*
X46083443Y-114081588D01*
X46068539Y-114127459D01*
X46017753Y-114283760D01*
X45984500Y-114493713D01*
X45984500Y-114706286D01*
X46011068Y-114874034D01*
X46017754Y-114916243D01*
X46062887Y-115055148D01*
X46083444Y-115118414D01*
X46179951Y-115307820D01*
X46304890Y-115479786D01*
X46455213Y-115630109D01*
X46627182Y-115755050D01*
X46635946Y-115759516D01*
X46686742Y-115807491D01*
X46703536Y-115875312D01*
X46680998Y-115941447D01*
X46635946Y-115980484D01*
X46627182Y-115984949D01*
X46455213Y-116109890D01*
X46304890Y-116260213D01*
X46179951Y-116432179D01*
X46083444Y-116621585D01*
X46083443Y-116621587D01*
X46083443Y-116621588D01*
X46068539Y-116667459D01*
X46017753Y-116823760D01*
X45984500Y-117033713D01*
X45984500Y-117246286D01*
X46011068Y-117414034D01*
X46017754Y-117456243D01*
X46069837Y-117616538D01*
X46083444Y-117658414D01*
X46179951Y-117847820D01*
X46304890Y-118019786D01*
X46455213Y-118170109D01*
X46627182Y-118295050D01*
X46635946Y-118299516D01*
X46686742Y-118347491D01*
X46703536Y-118415312D01*
X46680998Y-118481447D01*
X46635946Y-118520484D01*
X46627182Y-118524949D01*
X46455213Y-118649890D01*
X46304890Y-118800213D01*
X46179951Y-118972179D01*
X46083444Y-119161585D01*
X46083443Y-119161587D01*
X46083443Y-119161588D01*
X46074654Y-119188638D01*
X46017753Y-119363760D01*
X45984500Y-119573713D01*
X45984500Y-119786287D01*
X45987421Y-119804728D01*
X46014657Y-119976693D01*
X46017754Y-119996243D01*
X46067929Y-120150666D01*
X46083444Y-120198414D01*
X46179951Y-120387820D01*
X46304890Y-120559786D01*
X46455213Y-120710109D01*
X46627182Y-120835050D01*
X46635946Y-120839516D01*
X46686742Y-120887491D01*
X46703536Y-120955312D01*
X46680998Y-121021447D01*
X46635946Y-121060484D01*
X46627182Y-121064949D01*
X46455213Y-121189890D01*
X46304890Y-121340213D01*
X46179951Y-121512179D01*
X46083444Y-121701585D01*
X46017753Y-121903760D01*
X45984500Y-122113713D01*
X45984500Y-122326286D01*
X46017753Y-122536239D01*
X46017753Y-122536241D01*
X46017754Y-122536243D01*
X46044794Y-122619464D01*
X46083444Y-122738414D01*
X46179951Y-122927820D01*
X46304890Y-123099786D01*
X46455213Y-123250109D01*
X46627182Y-123375050D01*
X46635946Y-123379516D01*
X46686742Y-123427491D01*
X46703536Y-123495312D01*
X46680998Y-123561447D01*
X46635946Y-123600484D01*
X46627182Y-123604949D01*
X46455213Y-123729890D01*
X46304890Y-123880213D01*
X46179951Y-124052179D01*
X46083444Y-124241585D01*
X46017753Y-124443760D01*
X45984500Y-124653713D01*
X45984500Y-124866286D01*
X46011068Y-125034034D01*
X46017754Y-125076243D01*
X46044794Y-125159464D01*
X46083444Y-125278414D01*
X46179951Y-125467820D01*
X46304890Y-125639786D01*
X46455213Y-125790109D01*
X46627179Y-125915048D01*
X46627181Y-125915049D01*
X46627184Y-125915051D01*
X46816588Y-126011557D01*
X47018757Y-126077246D01*
X47228713Y-126110500D01*
X47228714Y-126110500D01*
X47691286Y-126110500D01*
X47691287Y-126110500D01*
X47901243Y-126077246D01*
X48103412Y-126011557D01*
X48292816Y-125915051D01*
X48314789Y-125899086D01*
X48464786Y-125790109D01*
X48464788Y-125790106D01*
X48464792Y-125790104D01*
X48615104Y-125639792D01*
X48615106Y-125639788D01*
X48615109Y-125639786D01*
X48740048Y-125467820D01*
X48740047Y-125467820D01*
X48740051Y-125467816D01*
X48836557Y-125278412D01*
X48902246Y-125076243D01*
X48935500Y-124866287D01*
X48935500Y-124653713D01*
X48902246Y-124443757D01*
X48836557Y-124241588D01*
X48740051Y-124052184D01*
X48740049Y-124052181D01*
X48740048Y-124052179D01*
X48615109Y-123880213D01*
X48464786Y-123729890D01*
X48292820Y-123604951D01*
X48292115Y-123604591D01*
X48284054Y-123600485D01*
X48233259Y-123552512D01*
X48216463Y-123484692D01*
X48238999Y-123418556D01*
X48284054Y-123379515D01*
X48292816Y-123375051D01*
X48318520Y-123356376D01*
X48464786Y-123250109D01*
X48464788Y-123250106D01*
X48464792Y-123250104D01*
X48615104Y-123099792D01*
X48615106Y-123099788D01*
X48615109Y-123099786D01*
X48740048Y-122927820D01*
X48740047Y-122927820D01*
X48740051Y-122927816D01*
X48836557Y-122738412D01*
X48902246Y-122536243D01*
X48935500Y-122326287D01*
X48935500Y-122113713D01*
X48902246Y-121903757D01*
X48836557Y-121701588D01*
X48740051Y-121512184D01*
X48740049Y-121512181D01*
X48740048Y-121512179D01*
X48615109Y-121340213D01*
X48464786Y-121189890D01*
X48292820Y-121064951D01*
X48289515Y-121063267D01*
X48284054Y-121060485D01*
X48233259Y-121012512D01*
X48216463Y-120944692D01*
X48238999Y-120878556D01*
X48284054Y-120839515D01*
X48292816Y-120835051D01*
X48314789Y-120819086D01*
X48464786Y-120710109D01*
X48464788Y-120710106D01*
X48464792Y-120710104D01*
X48615104Y-120559792D01*
X48615106Y-120559788D01*
X48615109Y-120559786D01*
X48740048Y-120387820D01*
X48740047Y-120387820D01*
X48740051Y-120387816D01*
X48836557Y-120198412D01*
X48902246Y-119996243D01*
X48935500Y-119786287D01*
X48935500Y-119573713D01*
X48902246Y-119363757D01*
X48836557Y-119161588D01*
X48740051Y-118972184D01*
X48740049Y-118972181D01*
X48740048Y-118972179D01*
X48615109Y-118800213D01*
X48464786Y-118649890D01*
X48292820Y-118524951D01*
X48284600Y-118520763D01*
X48284054Y-118520485D01*
X48233259Y-118472512D01*
X48216463Y-118404692D01*
X48238999Y-118338556D01*
X48284054Y-118299515D01*
X48292816Y-118295051D01*
X48386060Y-118227306D01*
X48464786Y-118170109D01*
X48464788Y-118170106D01*
X48464792Y-118170104D01*
X48615104Y-118019792D01*
X48615106Y-118019788D01*
X48615109Y-118019786D01*
X48740048Y-117847820D01*
X48740047Y-117847820D01*
X48740051Y-117847816D01*
X48836557Y-117658412D01*
X48902246Y-117456243D01*
X48935500Y-117246287D01*
X48935500Y-117033713D01*
X48902246Y-116823757D01*
X48836557Y-116621588D01*
X48740051Y-116432184D01*
X48740049Y-116432181D01*
X48740048Y-116432179D01*
X48615109Y-116260213D01*
X48464786Y-116109890D01*
X48292820Y-115984951D01*
X48292115Y-115984591D01*
X48284054Y-115980485D01*
X48233259Y-115932512D01*
X48216463Y-115864692D01*
X48238999Y-115798556D01*
X48284054Y-115759515D01*
X48292816Y-115755051D01*
X48314789Y-115739086D01*
X48464786Y-115630109D01*
X48464788Y-115630106D01*
X48464792Y-115630104D01*
X48615104Y-115479792D01*
X48615106Y-115479788D01*
X48615109Y-115479786D01*
X48740048Y-115307820D01*
X48740047Y-115307820D01*
X48740051Y-115307816D01*
X48836557Y-115118412D01*
X48902246Y-114916243D01*
X48935500Y-114706287D01*
X48935500Y-114493713D01*
X51064500Y-114493713D01*
X51064500Y-114706286D01*
X51091068Y-114874034D01*
X51097754Y-114916243D01*
X51142887Y-115055148D01*
X51163444Y-115118414D01*
X51259951Y-115307820D01*
X51384890Y-115479786D01*
X51535213Y-115630109D01*
X51707182Y-115755050D01*
X51715946Y-115759516D01*
X51766742Y-115807491D01*
X51783536Y-115875312D01*
X51760998Y-115941447D01*
X51715946Y-115980484D01*
X51707182Y-115984949D01*
X51535213Y-116109890D01*
X51384890Y-116260213D01*
X51259951Y-116432179D01*
X51163444Y-116621585D01*
X51163443Y-116621587D01*
X51163443Y-116621588D01*
X51148539Y-116667459D01*
X51097753Y-116823760D01*
X51064500Y-117033713D01*
X51064500Y-117246286D01*
X51091068Y-117414034D01*
X51097754Y-117456243D01*
X51149837Y-117616538D01*
X51163444Y-117658414D01*
X51259951Y-117847820D01*
X51384890Y-118019786D01*
X51535213Y-118170109D01*
X51707179Y-118295048D01*
X51707181Y-118295049D01*
X51707184Y-118295051D01*
X51716493Y-118299794D01*
X51767290Y-118347766D01*
X51784087Y-118415587D01*
X51761552Y-118481722D01*
X51716502Y-118520762D01*
X51707443Y-118525378D01*
X51535540Y-118650272D01*
X51535535Y-118650276D01*
X51385276Y-118800535D01*
X51385272Y-118800540D01*
X51260379Y-118972442D01*
X51163904Y-119161782D01*
X51098242Y-119363870D01*
X51098242Y-119363873D01*
X51087769Y-119430000D01*
X52135854Y-119430000D01*
X52097370Y-119496657D01*
X52065000Y-119617465D01*
X52065000Y-119742535D01*
X52097370Y-119863343D01*
X52135854Y-119930000D01*
X51087769Y-119930000D01*
X51098242Y-119996126D01*
X51098242Y-119996129D01*
X51163904Y-120198217D01*
X51260379Y-120387557D01*
X51385272Y-120559459D01*
X51385276Y-120559464D01*
X51535535Y-120709723D01*
X51535540Y-120709727D01*
X51707444Y-120834622D01*
X51716495Y-120839234D01*
X51767292Y-120887208D01*
X51784087Y-120955029D01*
X51761550Y-121021164D01*
X51716499Y-121060202D01*
X51707182Y-121064949D01*
X51535213Y-121189890D01*
X51384890Y-121340213D01*
X51259951Y-121512179D01*
X51163444Y-121701585D01*
X51097753Y-121903760D01*
X51064500Y-122113713D01*
X51064500Y-122326286D01*
X51097753Y-122536239D01*
X51097753Y-122536241D01*
X51097754Y-122536243D01*
X51124794Y-122619464D01*
X51163444Y-122738414D01*
X51259951Y-122927820D01*
X51384890Y-123099786D01*
X51535213Y-123250109D01*
X51707182Y-123375050D01*
X51715946Y-123379516D01*
X51766742Y-123427491D01*
X51783536Y-123495312D01*
X51760998Y-123561447D01*
X51715946Y-123600484D01*
X51707182Y-123604949D01*
X51535213Y-123729890D01*
X51384890Y-123880213D01*
X51259951Y-124052179D01*
X51163444Y-124241585D01*
X51097753Y-124443760D01*
X51064500Y-124653713D01*
X51064500Y-124866286D01*
X51091068Y-125034034D01*
X51097754Y-125076243D01*
X51124794Y-125159464D01*
X51163444Y-125278414D01*
X51259951Y-125467820D01*
X51384890Y-125639786D01*
X51535213Y-125790109D01*
X51707179Y-125915048D01*
X51707181Y-125915049D01*
X51707184Y-125915051D01*
X51896588Y-126011557D01*
X52098757Y-126077246D01*
X52308713Y-126110500D01*
X52308714Y-126110500D01*
X52771286Y-126110500D01*
X52771287Y-126110500D01*
X52981243Y-126077246D01*
X53183412Y-126011557D01*
X53372816Y-125915051D01*
X53394789Y-125899086D01*
X53544786Y-125790109D01*
X53544788Y-125790106D01*
X53544792Y-125790104D01*
X53695104Y-125639792D01*
X53695106Y-125639788D01*
X53695109Y-125639786D01*
X53820048Y-125467820D01*
X53820047Y-125467820D01*
X53820051Y-125467816D01*
X53916557Y-125278412D01*
X53982246Y-125076243D01*
X54015500Y-124866287D01*
X54015500Y-124653713D01*
X53982246Y-124443757D01*
X53958704Y-124371304D01*
X56249500Y-124371304D01*
X56249500Y-124548695D01*
X56284103Y-124722658D01*
X56284106Y-124722667D01*
X56351983Y-124886540D01*
X56351990Y-124886553D01*
X56450535Y-125034034D01*
X56450538Y-125034038D01*
X56575961Y-125159461D01*
X56575965Y-125159464D01*
X56723446Y-125258009D01*
X56723459Y-125258016D01*
X56846363Y-125308923D01*
X56887334Y-125325894D01*
X56887336Y-125325894D01*
X56887341Y-125325896D01*
X57061304Y-125360499D01*
X57061307Y-125360500D01*
X57061309Y-125360500D01*
X57238693Y-125360500D01*
X57238694Y-125360499D01*
X57296682Y-125348964D01*
X57412658Y-125325896D01*
X57412661Y-125325894D01*
X57412666Y-125325894D01*
X57576547Y-125258013D01*
X57724035Y-125159464D01*
X57849464Y-125034035D01*
X57948013Y-124886547D01*
X58015894Y-124722666D01*
X58050500Y-124548691D01*
X58050500Y-124495451D01*
X58070185Y-124428412D01*
X58086814Y-124407775D01*
X68283285Y-114211304D01*
X96889500Y-114211304D01*
X96889500Y-114388695D01*
X96924103Y-114562658D01*
X96924106Y-114562667D01*
X96991983Y-114726540D01*
X96991990Y-114726553D01*
X97090535Y-114874034D01*
X97090538Y-114874038D01*
X97128180Y-114911679D01*
X97161666Y-114973001D01*
X97164500Y-114999361D01*
X97164500Y-116140638D01*
X97144815Y-116207677D01*
X97128181Y-116228319D01*
X97090538Y-116265961D01*
X97090535Y-116265965D01*
X96991990Y-116413446D01*
X96991983Y-116413459D01*
X96924106Y-116577332D01*
X96924103Y-116577341D01*
X96889500Y-116751304D01*
X96889500Y-116928695D01*
X96924103Y-117102658D01*
X96924106Y-117102667D01*
X96991983Y-117266540D01*
X96991990Y-117266553D01*
X97090535Y-117414034D01*
X97090538Y-117414038D01*
X97128180Y-117451679D01*
X97161666Y-117513001D01*
X97164500Y-117539361D01*
X97164500Y-118680638D01*
X97144815Y-118747677D01*
X97128181Y-118768319D01*
X97090538Y-118805961D01*
X97090535Y-118805965D01*
X96991990Y-118953446D01*
X96991983Y-118953459D01*
X96924106Y-119117332D01*
X96924103Y-119117341D01*
X96889500Y-119291304D01*
X96889500Y-119468695D01*
X96924103Y-119642658D01*
X96924106Y-119642667D01*
X96991983Y-119806540D01*
X96991990Y-119806553D01*
X97090535Y-119954034D01*
X97090538Y-119954038D01*
X97215961Y-120079461D01*
X97215965Y-120079464D01*
X97363446Y-120178009D01*
X97363459Y-120178016D01*
X97486363Y-120228923D01*
X97527334Y-120245894D01*
X97527336Y-120245894D01*
X97527341Y-120245896D01*
X97701304Y-120280499D01*
X97701307Y-120280500D01*
X97701309Y-120280500D01*
X97878693Y-120280500D01*
X97878694Y-120280499D01*
X97936682Y-120268964D01*
X98052658Y-120245896D01*
X98052661Y-120245894D01*
X98052666Y-120245894D01*
X98216547Y-120178013D01*
X98364035Y-120079464D01*
X98489464Y-119954035D01*
X98588013Y-119806547D01*
X98588767Y-119804728D01*
X98600385Y-119776677D01*
X98655894Y-119642666D01*
X98659341Y-119625341D01*
X98690499Y-119468695D01*
X98690500Y-119468693D01*
X98690500Y-119291306D01*
X98690499Y-119291304D01*
X98655896Y-119117341D01*
X98655893Y-119117332D01*
X98654519Y-119114016D01*
X98613699Y-119015464D01*
X98588016Y-118953459D01*
X98588009Y-118953446D01*
X98489464Y-118805965D01*
X98489461Y-118805961D01*
X98451819Y-118768319D01*
X98418334Y-118706996D01*
X98415500Y-118680638D01*
X98415500Y-117539361D01*
X98435185Y-117472322D01*
X98451820Y-117451679D01*
X98489461Y-117414038D01*
X98489464Y-117414035D01*
X98588013Y-117266547D01*
X98588767Y-117264728D01*
X98600385Y-117236677D01*
X98655894Y-117102666D01*
X98690500Y-116928691D01*
X98690500Y-116751309D01*
X98690500Y-116751306D01*
X98690499Y-116751304D01*
X98655896Y-116577341D01*
X98655893Y-116577332D01*
X98588016Y-116413459D01*
X98588009Y-116413446D01*
X98489464Y-116265965D01*
X98489461Y-116265961D01*
X98451819Y-116228319D01*
X98418334Y-116166996D01*
X98415500Y-116140638D01*
X98415500Y-114999361D01*
X98435185Y-114932322D01*
X98451820Y-114911679D01*
X98489461Y-114874038D01*
X98489464Y-114874035D01*
X98588013Y-114726547D01*
X98588767Y-114724728D01*
X98603022Y-114690312D01*
X98655894Y-114562666D01*
X98672614Y-114478612D01*
X98675391Y-114464650D01*
X98675391Y-114464649D01*
X98690500Y-114388693D01*
X98690500Y-114211306D01*
X98690499Y-114211304D01*
X98655896Y-114037341D01*
X98655893Y-114037332D01*
X98588016Y-113873459D01*
X98588009Y-113873446D01*
X98489464Y-113725965D01*
X98489461Y-113725961D01*
X98364038Y-113600538D01*
X98364034Y-113600535D01*
X98216553Y-113501990D01*
X98216540Y-113501983D01*
X98052667Y-113434106D01*
X98052658Y-113434103D01*
X97878694Y-113399500D01*
X97878691Y-113399500D01*
X97701309Y-113399500D01*
X97701306Y-113399500D01*
X97527341Y-113434103D01*
X97527332Y-113434106D01*
X97363459Y-113501983D01*
X97363446Y-113501990D01*
X97215965Y-113600535D01*
X97215961Y-113600538D01*
X97090538Y-113725961D01*
X97090535Y-113725965D01*
X96991990Y-113873446D01*
X96991983Y-113873459D01*
X96924106Y-114037332D01*
X96924103Y-114037341D01*
X96889500Y-114211304D01*
X68283285Y-114211304D01*
X71568729Y-110925860D01*
X71568733Y-110925858D01*
X71655858Y-110838733D01*
X71700744Y-110771557D01*
X71724312Y-110736286D01*
X71771463Y-110622451D01*
X71795500Y-110501607D01*
X71795500Y-110378393D01*
X71795500Y-106873713D01*
X100984500Y-106873713D01*
X100984500Y-107086286D01*
X101011068Y-107254034D01*
X101017754Y-107296243D01*
X101028072Y-107327999D01*
X101083444Y-107498414D01*
X101179951Y-107687820D01*
X101304890Y-107859786D01*
X101455213Y-108010109D01*
X101627182Y-108135050D01*
X101635946Y-108139516D01*
X101686742Y-108187491D01*
X101703536Y-108255312D01*
X101680998Y-108321447D01*
X101635946Y-108360484D01*
X101627182Y-108364949D01*
X101455213Y-108489890D01*
X101304890Y-108640213D01*
X101179951Y-108812179D01*
X101083444Y-109001585D01*
X101017753Y-109203760D01*
X100984500Y-109413713D01*
X100984500Y-109626286D01*
X101017753Y-109836239D01*
X101083444Y-110038414D01*
X101179951Y-110227820D01*
X101304890Y-110399786D01*
X101455213Y-110550109D01*
X101627179Y-110675048D01*
X101627181Y-110675049D01*
X101627184Y-110675051D01*
X101636493Y-110679794D01*
X101687290Y-110727766D01*
X101704087Y-110795587D01*
X101681552Y-110861722D01*
X101636502Y-110900762D01*
X101627443Y-110905378D01*
X101455540Y-111030272D01*
X101455535Y-111030276D01*
X101305276Y-111180535D01*
X101305272Y-111180540D01*
X101180379Y-111352442D01*
X101083904Y-111541782D01*
X101018242Y-111743870D01*
X101018242Y-111743873D01*
X101007769Y-111810000D01*
X102055854Y-111810000D01*
X102017370Y-111876657D01*
X101985000Y-111997465D01*
X101985000Y-112122535D01*
X102017370Y-112243343D01*
X102055854Y-112310000D01*
X101007769Y-112310000D01*
X101018242Y-112376126D01*
X101018242Y-112376129D01*
X101083904Y-112578217D01*
X101180379Y-112767557D01*
X101305272Y-112939459D01*
X101305276Y-112939464D01*
X101455535Y-113089723D01*
X101455540Y-113089727D01*
X101627444Y-113214622D01*
X101636495Y-113219234D01*
X101687292Y-113267208D01*
X101704087Y-113335029D01*
X101681550Y-113401164D01*
X101636499Y-113440202D01*
X101627182Y-113444949D01*
X101455213Y-113569890D01*
X101304890Y-113720213D01*
X101179951Y-113892179D01*
X101083444Y-114081585D01*
X101083443Y-114081587D01*
X101083443Y-114081588D01*
X101068539Y-114127459D01*
X101017753Y-114283760D01*
X100984500Y-114493713D01*
X100984500Y-114706286D01*
X101011068Y-114874034D01*
X101017754Y-114916243D01*
X101062887Y-115055148D01*
X101083444Y-115118414D01*
X101179951Y-115307820D01*
X101304890Y-115479786D01*
X101455213Y-115630109D01*
X101627182Y-115755050D01*
X101635946Y-115759516D01*
X101686742Y-115807491D01*
X101703536Y-115875312D01*
X101680998Y-115941447D01*
X101635946Y-115980484D01*
X101627182Y-115984949D01*
X101455213Y-116109890D01*
X101304890Y-116260213D01*
X101179951Y-116432179D01*
X101083444Y-116621585D01*
X101083443Y-116621587D01*
X101083443Y-116621588D01*
X101068539Y-116667459D01*
X101017753Y-116823760D01*
X100984500Y-117033713D01*
X100984500Y-117246286D01*
X101011068Y-117414034D01*
X101017754Y-117456243D01*
X101069837Y-117616538D01*
X101083444Y-117658414D01*
X101179951Y-117847820D01*
X101304890Y-118019786D01*
X101455213Y-118170109D01*
X101627182Y-118295050D01*
X101635946Y-118299516D01*
X101686742Y-118347491D01*
X101703536Y-118415312D01*
X101680998Y-118481447D01*
X101635946Y-118520484D01*
X101627182Y-118524949D01*
X101455213Y-118649890D01*
X101304890Y-118800213D01*
X101179951Y-118972179D01*
X101083444Y-119161585D01*
X101083443Y-119161587D01*
X101083443Y-119161588D01*
X101074654Y-119188638D01*
X101017753Y-119363760D01*
X100984500Y-119573713D01*
X100984500Y-119786287D01*
X100987421Y-119804728D01*
X101014657Y-119976693D01*
X101017754Y-119996243D01*
X101067929Y-120150666D01*
X101083444Y-120198414D01*
X101179951Y-120387820D01*
X101304890Y-120559786D01*
X101455213Y-120710109D01*
X101627182Y-120835050D01*
X101635946Y-120839516D01*
X101686742Y-120887491D01*
X101703536Y-120955312D01*
X101680998Y-121021447D01*
X101635946Y-121060484D01*
X101627182Y-121064949D01*
X101455213Y-121189890D01*
X101304890Y-121340213D01*
X101179951Y-121512179D01*
X101083444Y-121701585D01*
X101017753Y-121903760D01*
X100984500Y-122113713D01*
X100984500Y-122326286D01*
X101017753Y-122536239D01*
X101017753Y-122536241D01*
X101017754Y-122536243D01*
X101044794Y-122619464D01*
X101083444Y-122738414D01*
X101179951Y-122927820D01*
X101304890Y-123099786D01*
X101455213Y-123250109D01*
X101627182Y-123375050D01*
X101635946Y-123379516D01*
X101686742Y-123427491D01*
X101703536Y-123495312D01*
X101680998Y-123561447D01*
X101635946Y-123600484D01*
X101627182Y-123604949D01*
X101455213Y-123729890D01*
X101304890Y-123880213D01*
X101179951Y-124052179D01*
X101083444Y-124241585D01*
X101017753Y-124443760D01*
X100984500Y-124653713D01*
X100984500Y-124866286D01*
X101011068Y-125034034D01*
X101017754Y-125076243D01*
X101044794Y-125159464D01*
X101083444Y-125278414D01*
X101179951Y-125467820D01*
X101304890Y-125639786D01*
X101455213Y-125790109D01*
X101627179Y-125915048D01*
X101627181Y-125915049D01*
X101627184Y-125915051D01*
X101816588Y-126011557D01*
X102018757Y-126077246D01*
X102228713Y-126110500D01*
X102228714Y-126110500D01*
X102691286Y-126110500D01*
X102691287Y-126110500D01*
X102901243Y-126077246D01*
X103103412Y-126011557D01*
X103292816Y-125915051D01*
X103314789Y-125899086D01*
X103464786Y-125790109D01*
X103464788Y-125790106D01*
X103464792Y-125790104D01*
X103615104Y-125639792D01*
X103615106Y-125639788D01*
X103615109Y-125639786D01*
X103740048Y-125467820D01*
X103740047Y-125467820D01*
X103740051Y-125467816D01*
X103836557Y-125278412D01*
X103902246Y-125076243D01*
X103935500Y-124866287D01*
X103935500Y-124653713D01*
X103902246Y-124443757D01*
X103836557Y-124241588D01*
X103740051Y-124052184D01*
X103740049Y-124052181D01*
X103740048Y-124052179D01*
X103615109Y-123880213D01*
X103464786Y-123729890D01*
X103292820Y-123604951D01*
X103292115Y-123604591D01*
X103284054Y-123600485D01*
X103233259Y-123552512D01*
X103216463Y-123484692D01*
X103238999Y-123418556D01*
X103284054Y-123379515D01*
X103292816Y-123375051D01*
X103318520Y-123356376D01*
X103464786Y-123250109D01*
X103464788Y-123250106D01*
X103464792Y-123250104D01*
X103615104Y-123099792D01*
X103615106Y-123099788D01*
X103615109Y-123099786D01*
X103740048Y-122927820D01*
X103740047Y-122927820D01*
X103740051Y-122927816D01*
X103836557Y-122738412D01*
X103902246Y-122536243D01*
X103935500Y-122326287D01*
X103935500Y-122113713D01*
X103902246Y-121903757D01*
X103836557Y-121701588D01*
X103740051Y-121512184D01*
X103740049Y-121512181D01*
X103740048Y-121512179D01*
X103615109Y-121340213D01*
X103464786Y-121189890D01*
X103292820Y-121064951D01*
X103289515Y-121063267D01*
X103284054Y-121060485D01*
X103233259Y-121012512D01*
X103216463Y-120944692D01*
X103238999Y-120878556D01*
X103284054Y-120839515D01*
X103292816Y-120835051D01*
X103314789Y-120819086D01*
X103464786Y-120710109D01*
X103464788Y-120710106D01*
X103464792Y-120710104D01*
X103615104Y-120559792D01*
X103615106Y-120559788D01*
X103615109Y-120559786D01*
X103740048Y-120387820D01*
X103740047Y-120387820D01*
X103740051Y-120387816D01*
X103836557Y-120198412D01*
X103902246Y-119996243D01*
X103935500Y-119786287D01*
X103935500Y-119573713D01*
X103902246Y-119363757D01*
X103836557Y-119161588D01*
X103740051Y-118972184D01*
X103740049Y-118972181D01*
X103740048Y-118972179D01*
X103615109Y-118800213D01*
X103464786Y-118649890D01*
X103292820Y-118524951D01*
X103284600Y-118520763D01*
X103284054Y-118520485D01*
X103233259Y-118472512D01*
X103216463Y-118404692D01*
X103238999Y-118338556D01*
X103284054Y-118299515D01*
X103292816Y-118295051D01*
X103386060Y-118227306D01*
X103464786Y-118170109D01*
X103464788Y-118170106D01*
X103464792Y-118170104D01*
X103615104Y-118019792D01*
X103615106Y-118019788D01*
X103615109Y-118019786D01*
X103740048Y-117847820D01*
X103740047Y-117847820D01*
X103740051Y-117847816D01*
X103836557Y-117658412D01*
X103902246Y-117456243D01*
X103935500Y-117246287D01*
X103935500Y-117033713D01*
X103902246Y-116823757D01*
X103836557Y-116621588D01*
X103740051Y-116432184D01*
X103740049Y-116432181D01*
X103740048Y-116432179D01*
X103615109Y-116260213D01*
X103464786Y-116109890D01*
X103292820Y-115984951D01*
X103292115Y-115984591D01*
X103284054Y-115980485D01*
X103233259Y-115932512D01*
X103216463Y-115864692D01*
X103238999Y-115798556D01*
X103284054Y-115759515D01*
X103292816Y-115755051D01*
X103314789Y-115739086D01*
X103464786Y-115630109D01*
X103464788Y-115630106D01*
X103464792Y-115630104D01*
X103615104Y-115479792D01*
X103615106Y-115479788D01*
X103615109Y-115479786D01*
X103740048Y-115307820D01*
X103740047Y-115307820D01*
X103740051Y-115307816D01*
X103836557Y-115118412D01*
X103902246Y-114916243D01*
X103935500Y-114706287D01*
X103935500Y-114493713D01*
X103902246Y-114283757D01*
X103836557Y-114081588D01*
X103740051Y-113892184D01*
X103740049Y-113892181D01*
X103740048Y-113892179D01*
X103615109Y-113720213D01*
X103464786Y-113569890D01*
X103292817Y-113444949D01*
X103283504Y-113440204D01*
X103232707Y-113392230D01*
X103215912Y-113324409D01*
X103238449Y-113258274D01*
X103283507Y-113219232D01*
X103292558Y-113214620D01*
X103464459Y-113089727D01*
X103464464Y-113089723D01*
X103614723Y-112939464D01*
X103614727Y-112939459D01*
X103739620Y-112767557D01*
X103836095Y-112578217D01*
X103901757Y-112376129D01*
X103901757Y-112376126D01*
X103912231Y-112310000D01*
X102864146Y-112310000D01*
X102902630Y-112243343D01*
X102935000Y-112122535D01*
X102935000Y-111997465D01*
X102902630Y-111876657D01*
X102864146Y-111810000D01*
X103912231Y-111810000D01*
X103901757Y-111743873D01*
X103901757Y-111743870D01*
X103836095Y-111541782D01*
X103739620Y-111352442D01*
X103614727Y-111180540D01*
X103614723Y-111180535D01*
X103464464Y-111030276D01*
X103464459Y-111030272D01*
X103292555Y-110905377D01*
X103283500Y-110900763D01*
X103232706Y-110852788D01*
X103215912Y-110784966D01*
X103238451Y-110718832D01*
X103283508Y-110679793D01*
X103292816Y-110675051D01*
X103372007Y-110617515D01*
X103464786Y-110550109D01*
X103464788Y-110550106D01*
X103464792Y-110550104D01*
X103615104Y-110399792D01*
X103615106Y-110399788D01*
X103615109Y-110399786D01*
X103740048Y-110227820D01*
X103740047Y-110227820D01*
X103740051Y-110227816D01*
X103836557Y-110038412D01*
X103902246Y-109836243D01*
X103935500Y-109626287D01*
X103935500Y-109413713D01*
X103902246Y-109203757D01*
X103836557Y-109001588D01*
X103740051Y-108812184D01*
X103740049Y-108812181D01*
X103740048Y-108812179D01*
X103615109Y-108640213D01*
X103464786Y-108489890D01*
X103292820Y-108364951D01*
X103292115Y-108364591D01*
X103284054Y-108360485D01*
X103233259Y-108312512D01*
X103216463Y-108244692D01*
X103238999Y-108178556D01*
X103284054Y-108139515D01*
X103292816Y-108135051D01*
X103314789Y-108119086D01*
X103464786Y-108010109D01*
X103464788Y-108010106D01*
X103464792Y-108010104D01*
X103615104Y-107859792D01*
X103615106Y-107859788D01*
X103615109Y-107859786D01*
X103740048Y-107687820D01*
X103740047Y-107687820D01*
X103740051Y-107687816D01*
X103836557Y-107498412D01*
X103902246Y-107296243D01*
X103935500Y-107086287D01*
X103935500Y-106873713D01*
X103902246Y-106663757D01*
X103878704Y-106591304D01*
X104509500Y-106591304D01*
X104509500Y-106768695D01*
X104544103Y-106942658D01*
X104544106Y-106942667D01*
X104611983Y-107106540D01*
X104611990Y-107106553D01*
X104710535Y-107254034D01*
X104710538Y-107254038D01*
X104748180Y-107291679D01*
X104781666Y-107353001D01*
X104784500Y-107379361D01*
X104784500Y-112724638D01*
X104764815Y-112791677D01*
X104748181Y-112812319D01*
X104710538Y-112849961D01*
X104710535Y-112849965D01*
X104611990Y-112997446D01*
X104611983Y-112997459D01*
X104544106Y-113161332D01*
X104544103Y-113161341D01*
X104509500Y-113335304D01*
X104509500Y-113512695D01*
X104544103Y-113686658D01*
X104544106Y-113686667D01*
X104611983Y-113850540D01*
X104611990Y-113850553D01*
X104710535Y-113998034D01*
X104710538Y-113998038D01*
X104835961Y-114123461D01*
X104835965Y-114123464D01*
X104983446Y-114222009D01*
X104983459Y-114222016D01*
X105106363Y-114272923D01*
X105147334Y-114289894D01*
X105147336Y-114289894D01*
X105147341Y-114289896D01*
X105321304Y-114324499D01*
X105321307Y-114324500D01*
X105386500Y-114324500D01*
X105453539Y-114344185D01*
X105499294Y-114396989D01*
X105510500Y-114448500D01*
X105510500Y-117438981D01*
X105490815Y-117506020D01*
X105455391Y-117542083D01*
X105343965Y-117616535D01*
X105343961Y-117616538D01*
X105218538Y-117741961D01*
X105218535Y-117741965D01*
X105119990Y-117889446D01*
X105119983Y-117889459D01*
X105052106Y-118053332D01*
X105052103Y-118053341D01*
X105017500Y-118227304D01*
X105017500Y-118404692D01*
X105052103Y-118578658D01*
X105052106Y-118578667D01*
X105119983Y-118742540D01*
X105119990Y-118742553D01*
X105218535Y-118890034D01*
X105218538Y-118890038D01*
X105343961Y-119015461D01*
X105343965Y-119015464D01*
X105491446Y-119114009D01*
X105491459Y-119114016D01*
X105606298Y-119161583D01*
X105655334Y-119181894D01*
X105655336Y-119181894D01*
X105655341Y-119181896D01*
X105829304Y-119216499D01*
X105829307Y-119216500D01*
X105976399Y-119216500D01*
X106043438Y-119236185D01*
X106089193Y-119288989D01*
X106099137Y-119358147D01*
X106098872Y-119359898D01*
X106087769Y-119430000D01*
X107135854Y-119430000D01*
X107097370Y-119496657D01*
X107065000Y-119617465D01*
X107065000Y-119742535D01*
X107097370Y-119863343D01*
X107135854Y-119930000D01*
X106087769Y-119930000D01*
X106098242Y-119996126D01*
X106098242Y-119996129D01*
X106163904Y-120198217D01*
X106260379Y-120387557D01*
X106385272Y-120559459D01*
X106385276Y-120559464D01*
X106535535Y-120709723D01*
X106535540Y-120709727D01*
X106707444Y-120834622D01*
X106716495Y-120839234D01*
X106767292Y-120887208D01*
X106784087Y-120955029D01*
X106761550Y-121021164D01*
X106716499Y-121060202D01*
X106707182Y-121064949D01*
X106535213Y-121189890D01*
X106384890Y-121340213D01*
X106259951Y-121512179D01*
X106163444Y-121701585D01*
X106097753Y-121903760D01*
X106064500Y-122113713D01*
X106064500Y-122326286D01*
X106097753Y-122536239D01*
X106097753Y-122536241D01*
X106097754Y-122536243D01*
X106124794Y-122619464D01*
X106163444Y-122738414D01*
X106259951Y-122927820D01*
X106384890Y-123099786D01*
X106535213Y-123250109D01*
X106707182Y-123375050D01*
X106715946Y-123379516D01*
X106766742Y-123427491D01*
X106783536Y-123495312D01*
X106760998Y-123561447D01*
X106715946Y-123600484D01*
X106707182Y-123604949D01*
X106535213Y-123729890D01*
X106384890Y-123880213D01*
X106259951Y-124052179D01*
X106163444Y-124241585D01*
X106097753Y-124443760D01*
X106064500Y-124653713D01*
X106064500Y-124866286D01*
X106091068Y-125034034D01*
X106097754Y-125076243D01*
X106124794Y-125159464D01*
X106163444Y-125278414D01*
X106259951Y-125467820D01*
X106384890Y-125639786D01*
X106535213Y-125790109D01*
X106707179Y-125915048D01*
X106707181Y-125915049D01*
X106707184Y-125915051D01*
X106896588Y-126011557D01*
X107098757Y-126077246D01*
X107308713Y-126110500D01*
X107308714Y-126110500D01*
X107771286Y-126110500D01*
X107771287Y-126110500D01*
X107981243Y-126077246D01*
X108183412Y-126011557D01*
X108372816Y-125915051D01*
X108394789Y-125899086D01*
X108544786Y-125790109D01*
X108544788Y-125790106D01*
X108544792Y-125790104D01*
X108695104Y-125639792D01*
X108695106Y-125639788D01*
X108695109Y-125639786D01*
X108820048Y-125467820D01*
X108820047Y-125467820D01*
X108820051Y-125467816D01*
X108916557Y-125278412D01*
X108982246Y-125076243D01*
X109015500Y-124866287D01*
X109015500Y-124653713D01*
X108982246Y-124443757D01*
X108916557Y-124241588D01*
X108820051Y-124052184D01*
X108820049Y-124052181D01*
X108820048Y-124052179D01*
X108695109Y-123880213D01*
X108544786Y-123729890D01*
X108372820Y-123604951D01*
X108372115Y-123604591D01*
X108364054Y-123600485D01*
X108313259Y-123552512D01*
X108296463Y-123484692D01*
X108318999Y-123418556D01*
X108364054Y-123379515D01*
X108372816Y-123375051D01*
X108398520Y-123356376D01*
X108544786Y-123250109D01*
X108544788Y-123250106D01*
X108544792Y-123250104D01*
X108695104Y-123099792D01*
X108695106Y-123099788D01*
X108695109Y-123099786D01*
X108820048Y-122927820D01*
X108820047Y-122927820D01*
X108820051Y-122927816D01*
X108916557Y-122738412D01*
X108982246Y-122536243D01*
X109015500Y-122326287D01*
X109015500Y-122113713D01*
X108982246Y-121903757D01*
X108916557Y-121701588D01*
X108820051Y-121512184D01*
X108820049Y-121512181D01*
X108820048Y-121512179D01*
X108695109Y-121340213D01*
X108544786Y-121189890D01*
X108372817Y-121064949D01*
X108363504Y-121060204D01*
X108312707Y-121012230D01*
X108295912Y-120944409D01*
X108318449Y-120878274D01*
X108363507Y-120839232D01*
X108372558Y-120834620D01*
X108544459Y-120709727D01*
X108544464Y-120709723D01*
X108694723Y-120559464D01*
X108694727Y-120559459D01*
X108819620Y-120387557D01*
X108916095Y-120198217D01*
X108981757Y-119996129D01*
X108981757Y-119996126D01*
X108992231Y-119930000D01*
X107944146Y-119930000D01*
X107982630Y-119863343D01*
X108015000Y-119742535D01*
X108015000Y-119617465D01*
X107982630Y-119496657D01*
X107944146Y-119430000D01*
X108992231Y-119430000D01*
X108981757Y-119363873D01*
X108981757Y-119363870D01*
X108916095Y-119161782D01*
X108819620Y-118972442D01*
X108694727Y-118800540D01*
X108694723Y-118800535D01*
X108544464Y-118650276D01*
X108544459Y-118650272D01*
X108372555Y-118525377D01*
X108363500Y-118520763D01*
X108312706Y-118472788D01*
X108295912Y-118404966D01*
X108318451Y-118338832D01*
X108363508Y-118299793D01*
X108372816Y-118295051D01*
X108466060Y-118227306D01*
X108544786Y-118170109D01*
X108544788Y-118170106D01*
X108544792Y-118170104D01*
X108695104Y-118019792D01*
X108695106Y-118019788D01*
X108695109Y-118019786D01*
X108820048Y-117847820D01*
X108820047Y-117847820D01*
X108820051Y-117847816D01*
X108916557Y-117658412D01*
X108982246Y-117456243D01*
X109015500Y-117246287D01*
X109015500Y-117033713D01*
X108982246Y-116823757D01*
X108916557Y-116621588D01*
X108820051Y-116432184D01*
X108820049Y-116432181D01*
X108820048Y-116432179D01*
X108695109Y-116260213D01*
X108544786Y-116109890D01*
X108372820Y-115984951D01*
X108372115Y-115984591D01*
X108364054Y-115980485D01*
X108313259Y-115932512D01*
X108296463Y-115864692D01*
X108318999Y-115798556D01*
X108364054Y-115759515D01*
X108372816Y-115755051D01*
X108394789Y-115739086D01*
X108544786Y-115630109D01*
X108544788Y-115630106D01*
X108544792Y-115630104D01*
X108695104Y-115479792D01*
X108695106Y-115479788D01*
X108695109Y-115479786D01*
X108820048Y-115307820D01*
X108820047Y-115307820D01*
X108820051Y-115307816D01*
X108916557Y-115118412D01*
X108982246Y-114916243D01*
X109015500Y-114706287D01*
X109015500Y-114493713D01*
X108982246Y-114283757D01*
X108916557Y-114081588D01*
X108820051Y-113892184D01*
X108820049Y-113892181D01*
X108820048Y-113892179D01*
X108695109Y-113720213D01*
X108544786Y-113569890D01*
X108372817Y-113444949D01*
X108363504Y-113440204D01*
X108312707Y-113392230D01*
X108295912Y-113324409D01*
X108318449Y-113258274D01*
X108363507Y-113219232D01*
X108372558Y-113214620D01*
X108544459Y-113089727D01*
X108544464Y-113089723D01*
X108694723Y-112939464D01*
X108694727Y-112939459D01*
X108819620Y-112767557D01*
X108916095Y-112578217D01*
X108981757Y-112376129D01*
X108981757Y-112376126D01*
X108992231Y-112310000D01*
X107944146Y-112310000D01*
X107982630Y-112243343D01*
X108015000Y-112122535D01*
X108015000Y-111997465D01*
X107982630Y-111876657D01*
X107944146Y-111810000D01*
X108992231Y-111810000D01*
X108981757Y-111743873D01*
X108981757Y-111743870D01*
X108916095Y-111541782D01*
X108819620Y-111352442D01*
X108694727Y-111180540D01*
X108694723Y-111180535D01*
X108544464Y-111030276D01*
X108544459Y-111030272D01*
X108372558Y-110905379D01*
X108362954Y-110900486D01*
X108312157Y-110852512D01*
X108295361Y-110784692D01*
X108317897Y-110718556D01*
X108362954Y-110679514D01*
X108372558Y-110674620D01*
X108544459Y-110549727D01*
X108544464Y-110549723D01*
X108694723Y-110399464D01*
X108694727Y-110399459D01*
X108819620Y-110227557D01*
X108916095Y-110038217D01*
X108981757Y-109836129D01*
X108981757Y-109836126D01*
X108992231Y-109770000D01*
X107944146Y-109770000D01*
X107982630Y-109703343D01*
X108015000Y-109582535D01*
X108015000Y-109457465D01*
X107982630Y-109336657D01*
X107944146Y-109270000D01*
X108992231Y-109270000D01*
X108981757Y-109203873D01*
X108981757Y-109203870D01*
X108916095Y-109001782D01*
X108819620Y-108812442D01*
X108694727Y-108640540D01*
X108694723Y-108640535D01*
X108544464Y-108490276D01*
X108544459Y-108490272D01*
X108372558Y-108365379D01*
X108362954Y-108360486D01*
X108312157Y-108312512D01*
X108295361Y-108244692D01*
X108317897Y-108178556D01*
X108362954Y-108139514D01*
X108372558Y-108134620D01*
X108544459Y-108009727D01*
X108544464Y-108009723D01*
X108694723Y-107859464D01*
X108694727Y-107859459D01*
X108819620Y-107687557D01*
X108916095Y-107498217D01*
X108981757Y-107296129D01*
X108981757Y-107296126D01*
X108992231Y-107230000D01*
X107944146Y-107230000D01*
X107982630Y-107163343D01*
X108015000Y-107042535D01*
X108015000Y-106917465D01*
X107982630Y-106796657D01*
X107944146Y-106730000D01*
X108992231Y-106730000D01*
X108981757Y-106663873D01*
X108981757Y-106663870D01*
X108916095Y-106461782D01*
X108819620Y-106272442D01*
X108694727Y-106100540D01*
X108694723Y-106100535D01*
X108544464Y-105950276D01*
X108544459Y-105950272D01*
X108372557Y-105825379D01*
X108183217Y-105728904D01*
X107981128Y-105663242D01*
X107790000Y-105632969D01*
X107790000Y-106575854D01*
X107723343Y-106537370D01*
X107602535Y-106505000D01*
X107477465Y-106505000D01*
X107356657Y-106537370D01*
X107290000Y-106575854D01*
X107290000Y-105632969D01*
X107098872Y-105663242D01*
X107098869Y-105663242D01*
X106980818Y-105701600D01*
X106910977Y-105703595D01*
X106851144Y-105667515D01*
X106820316Y-105604814D01*
X106818500Y-105583669D01*
X106818500Y-105575306D01*
X106818499Y-105575304D01*
X106783896Y-105401341D01*
X106783893Y-105401332D01*
X106716016Y-105237459D01*
X106716009Y-105237446D01*
X106617464Y-105089965D01*
X106617461Y-105089961D01*
X106492038Y-104964538D01*
X106492034Y-104964535D01*
X106344553Y-104865990D01*
X106344540Y-104865983D01*
X106180667Y-104798106D01*
X106180658Y-104798103D01*
X106006694Y-104763500D01*
X106006691Y-104763500D01*
X105829309Y-104763500D01*
X105829306Y-104763500D01*
X105655341Y-104798103D01*
X105655332Y-104798106D01*
X105491459Y-104865983D01*
X105491446Y-104865990D01*
X105343965Y-104964535D01*
X105343961Y-104964538D01*
X105218538Y-105089961D01*
X105218535Y-105089965D01*
X105119990Y-105237446D01*
X105119983Y-105237459D01*
X105052106Y-105401332D01*
X105052103Y-105401341D01*
X105017500Y-105575304D01*
X105017500Y-105752694D01*
X105020043Y-105765480D01*
X105013813Y-105835071D01*
X104970949Y-105890247D01*
X104967316Y-105892769D01*
X104835965Y-105980535D01*
X104835961Y-105980538D01*
X104710538Y-106105961D01*
X104710535Y-106105965D01*
X104611990Y-106253446D01*
X104611983Y-106253459D01*
X104544106Y-106417332D01*
X104544103Y-106417341D01*
X104509500Y-106591304D01*
X103878704Y-106591304D01*
X103850662Y-106505000D01*
X103836557Y-106461588D01*
X103740051Y-106272184D01*
X103740049Y-106272181D01*
X103740048Y-106272179D01*
X103615109Y-106100213D01*
X103464786Y-105949890D01*
X103292820Y-105824951D01*
X103103414Y-105728444D01*
X103103413Y-105728443D01*
X103103412Y-105728443D01*
X102901243Y-105662754D01*
X102901241Y-105662753D01*
X102901240Y-105662753D01*
X102713189Y-105632969D01*
X102691287Y-105629500D01*
X102228713Y-105629500D01*
X102206811Y-105632969D01*
X102018760Y-105662753D01*
X101816585Y-105728444D01*
X101627179Y-105824951D01*
X101455213Y-105949890D01*
X101304890Y-106100213D01*
X101179951Y-106272179D01*
X101083444Y-106461585D01*
X101017753Y-106663760D01*
X100984500Y-106873713D01*
X71795500Y-106873713D01*
X71795500Y-100346000D01*
X71815185Y-100278961D01*
X71867989Y-100233206D01*
X71919500Y-100222000D01*
X72010005Y-100222000D01*
X72010010Y-100222000D01*
X72112798Y-100211499D01*
X72279335Y-100156314D01*
X72428656Y-100064212D01*
X72552712Y-99940156D01*
X72644814Y-99790835D01*
X72699999Y-99624298D01*
X72710500Y-99521510D01*
X72710500Y-97118799D01*
X78460000Y-97118799D01*
X78460000Y-97750000D01*
X79345879Y-97750000D01*
X79326901Y-97795818D01*
X79300000Y-97931056D01*
X79300000Y-98068944D01*
X79326901Y-98204182D01*
X79345879Y-98250000D01*
X78460000Y-98250000D01*
X78460000Y-98881200D01*
X78497920Y-99120618D01*
X78572827Y-99351159D01*
X78682874Y-99567136D01*
X78825356Y-99763245D01*
X78996754Y-99934643D01*
X79192863Y-100077125D01*
X79408840Y-100187172D01*
X79639381Y-100262080D01*
X79750000Y-100279600D01*
X79750000Y-98654120D01*
X79795818Y-98673099D01*
X79931056Y-98700000D01*
X80068944Y-98700000D01*
X80204182Y-98673099D01*
X80250000Y-98654120D01*
X80250000Y-100279599D01*
X80360618Y-100262080D01*
X80591159Y-100187172D01*
X80807136Y-100077125D01*
X81003245Y-99934643D01*
X81174643Y-99763245D01*
X81317125Y-99567136D01*
X81427172Y-99351159D01*
X81502079Y-99120618D01*
X81540000Y-98881200D01*
X81540000Y-98250000D01*
X80654121Y-98250000D01*
X80673099Y-98204182D01*
X80700000Y-98068944D01*
X80700000Y-97931056D01*
X80673099Y-97795818D01*
X80654121Y-97750000D01*
X81540000Y-97750000D01*
X81540000Y-97118799D01*
X81539993Y-97118754D01*
X83539500Y-97118754D01*
X83539500Y-98881245D01*
X83577432Y-99120736D01*
X83652360Y-99351344D01*
X83652362Y-99351347D01*
X83748674Y-99540370D01*
X83762448Y-99567401D01*
X83904966Y-99763562D01*
X83904970Y-99763567D01*
X84076432Y-99935029D01*
X84076437Y-99935033D01*
X84191537Y-100018657D01*
X84272602Y-100077554D01*
X84449568Y-100167723D01*
X84488655Y-100187639D01*
X84562087Y-100211498D01*
X84719265Y-100262568D01*
X84822767Y-100278961D01*
X84958755Y-100300500D01*
X84958760Y-100300500D01*
X85201245Y-100300500D01*
X85333198Y-100279600D01*
X85440735Y-100262568D01*
X85671347Y-100187638D01*
X85887398Y-100077554D01*
X86083569Y-99935028D01*
X86255028Y-99763569D01*
X86397554Y-99567398D01*
X86507638Y-99351347D01*
X86582568Y-99120735D01*
X86606235Y-98971306D01*
X86620500Y-98881245D01*
X86620500Y-97118754D01*
X86592830Y-96944059D01*
X86582568Y-96879265D01*
X86514793Y-96670673D01*
X86507639Y-96648655D01*
X86505480Y-96644418D01*
X86397554Y-96432602D01*
X86397553Y-96432600D01*
X86373855Y-96399982D01*
X88619500Y-96399982D01*
X88619500Y-99600017D01*
X88630000Y-99702796D01*
X88680944Y-99856533D01*
X88685186Y-99869335D01*
X88777288Y-100018656D01*
X88901344Y-100142712D01*
X89050665Y-100234814D01*
X89217202Y-100289999D01*
X89319990Y-100300500D01*
X89319995Y-100300500D01*
X91000005Y-100300500D01*
X91000010Y-100300500D01*
X91102798Y-100289999D01*
X91269335Y-100234814D01*
X91418656Y-100142712D01*
X91542712Y-100018656D01*
X91634814Y-99869335D01*
X91689999Y-99702798D01*
X91700500Y-99600010D01*
X91700500Y-96399990D01*
X91689999Y-96297202D01*
X91634814Y-96130665D01*
X91542712Y-95981344D01*
X91418656Y-95857288D01*
X91291389Y-95778789D01*
X91269337Y-95765187D01*
X91269332Y-95765185D01*
X91267863Y-95764698D01*
X91102798Y-95710001D01*
X91102796Y-95710000D01*
X91000017Y-95699500D01*
X91000010Y-95699500D01*
X89319990Y-95699500D01*
X89319982Y-95699500D01*
X89217203Y-95710000D01*
X89217202Y-95710001D01*
X89143791Y-95734327D01*
X89050667Y-95765185D01*
X89050662Y-95765187D01*
X88901342Y-95857289D01*
X88777289Y-95981342D01*
X88685187Y-96130662D01*
X88685185Y-96130667D01*
X88676149Y-96157937D01*
X88630001Y-96297202D01*
X88630001Y-96297203D01*
X88630000Y-96297203D01*
X88619500Y-96399982D01*
X86373855Y-96399982D01*
X86255033Y-96236437D01*
X86255029Y-96236432D01*
X86083567Y-96064970D01*
X86083562Y-96064966D01*
X85887401Y-95922448D01*
X85887400Y-95922447D01*
X85887398Y-95922446D01*
X85733334Y-95843946D01*
X85671344Y-95812360D01*
X85440736Y-95737432D01*
X85201245Y-95699500D01*
X85201240Y-95699500D01*
X84958760Y-95699500D01*
X84958755Y-95699500D01*
X84719263Y-95737432D01*
X84488655Y-95812360D01*
X84272598Y-95922448D01*
X84076437Y-96064966D01*
X84076432Y-96064970D01*
X83904970Y-96236432D01*
X83904966Y-96236437D01*
X83762448Y-96432598D01*
X83652360Y-96648655D01*
X83577432Y-96879263D01*
X83539500Y-97118754D01*
X81539993Y-97118754D01*
X81502079Y-96879381D01*
X81427172Y-96648840D01*
X81317125Y-96432863D01*
X81174643Y-96236754D01*
X81003245Y-96065356D01*
X80807136Y-95922874D01*
X80591157Y-95812827D01*
X80360614Y-95737919D01*
X80250000Y-95720399D01*
X80250000Y-97345879D01*
X80204182Y-97326901D01*
X80068944Y-97300000D01*
X79931056Y-97300000D01*
X79795818Y-97326901D01*
X79750000Y-97345879D01*
X79750000Y-95720399D01*
X79749999Y-95720399D01*
X79639385Y-95737919D01*
X79408842Y-95812827D01*
X79192863Y-95922874D01*
X78996754Y-96065356D01*
X78825356Y-96236754D01*
X78682874Y-96432863D01*
X78572827Y-96648840D01*
X78497920Y-96879381D01*
X78460000Y-97118799D01*
X72710500Y-97118799D01*
X72710500Y-96321490D01*
X72699999Y-96218702D01*
X72644814Y-96052165D01*
X72552712Y-95902844D01*
X72428656Y-95778788D01*
X72279335Y-95686686D01*
X72112798Y-95631501D01*
X72112796Y-95631500D01*
X72010017Y-95621000D01*
X72010010Y-95621000D01*
X70329990Y-95621000D01*
X70329982Y-95621000D01*
X70227203Y-95631500D01*
X70227202Y-95631501D01*
X70144669Y-95658849D01*
X70060667Y-95686685D01*
X70060662Y-95686687D01*
X69911342Y-95778789D01*
X69787289Y-95902842D01*
X69695187Y-96052162D01*
X69695186Y-96052165D01*
X69640001Y-96218702D01*
X69640001Y-96218703D01*
X69640000Y-96218703D01*
X69629500Y-96321482D01*
X69629500Y-99521517D01*
X69640000Y-99624296D01*
X69686044Y-99763245D01*
X69695186Y-99790835D01*
X69787288Y-99940156D01*
X69911344Y-100064212D01*
X70060665Y-100156314D01*
X70227202Y-100211499D01*
X70329990Y-100222000D01*
X70420500Y-100222000D01*
X70487539Y-100241685D01*
X70533294Y-100294489D01*
X70544500Y-100346000D01*
X70544500Y-110129548D01*
X70524815Y-110196587D01*
X70508181Y-110217229D01*
X57202229Y-123523181D01*
X57140906Y-123556666D01*
X57114548Y-123559500D01*
X57061306Y-123559500D01*
X56887341Y-123594103D01*
X56887332Y-123594106D01*
X56723459Y-123661983D01*
X56723446Y-123661990D01*
X56575965Y-123760535D01*
X56575961Y-123760538D01*
X56450538Y-123885961D01*
X56450535Y-123885965D01*
X56351990Y-124033446D01*
X56351983Y-124033459D01*
X56284106Y-124197332D01*
X56284103Y-124197341D01*
X56249500Y-124371304D01*
X53958704Y-124371304D01*
X53957062Y-124366251D01*
X53916557Y-124241588D01*
X53820051Y-124052184D01*
X53820049Y-124052181D01*
X53820048Y-124052179D01*
X53695109Y-123880213D01*
X53544786Y-123729890D01*
X53372820Y-123604951D01*
X53372115Y-123604591D01*
X53364054Y-123600485D01*
X53313259Y-123552512D01*
X53296463Y-123484692D01*
X53318999Y-123418556D01*
X53364054Y-123379515D01*
X53372816Y-123375051D01*
X53398520Y-123356376D01*
X53544786Y-123250109D01*
X53544788Y-123250106D01*
X53544792Y-123250104D01*
X53695104Y-123099792D01*
X53695106Y-123099788D01*
X53695109Y-123099786D01*
X53820048Y-122927820D01*
X53820047Y-122927820D01*
X53820051Y-122927816D01*
X53916557Y-122738412D01*
X53982246Y-122536243D01*
X54015500Y-122326287D01*
X54015500Y-122113713D01*
X53982246Y-121903757D01*
X53968363Y-121861031D01*
X53958704Y-121831304D01*
X56249500Y-121831304D01*
X56249500Y-122008695D01*
X56284103Y-122182658D01*
X56284106Y-122182667D01*
X56351983Y-122346540D01*
X56351990Y-122346553D01*
X56450535Y-122494034D01*
X56450538Y-122494038D01*
X56575961Y-122619461D01*
X56575965Y-122619464D01*
X56723446Y-122718009D01*
X56723459Y-122718016D01*
X56808282Y-122753150D01*
X56887334Y-122785894D01*
X56887336Y-122785894D01*
X56887341Y-122785896D01*
X57061304Y-122820499D01*
X57061307Y-122820500D01*
X57061309Y-122820500D01*
X57238693Y-122820500D01*
X57238694Y-122820499D01*
X57296682Y-122808964D01*
X57412658Y-122785896D01*
X57412661Y-122785894D01*
X57412666Y-122785894D01*
X57576547Y-122718013D01*
X57724035Y-122619464D01*
X57849464Y-122494035D01*
X57948013Y-122346547D01*
X58015894Y-122182666D01*
X58050500Y-122008691D01*
X58050500Y-121955451D01*
X58070185Y-121888412D01*
X58086814Y-121867775D01*
X66488729Y-113465860D01*
X66488733Y-113465858D01*
X66575858Y-113378733D01*
X66644311Y-113276286D01*
X66691463Y-113162452D01*
X66715500Y-113041606D01*
X66715500Y-100167723D01*
X66735185Y-100100684D01*
X66783203Y-100057239D01*
X66897398Y-99999054D01*
X67093569Y-99856528D01*
X67265028Y-99685069D01*
X67407554Y-99488898D01*
X67517638Y-99272847D01*
X67592568Y-99042235D01*
X67618067Y-98881240D01*
X67630500Y-98802745D01*
X67630500Y-97040254D01*
X67592586Y-96800881D01*
X67592568Y-96800765D01*
X67550299Y-96670673D01*
X67517639Y-96570155D01*
X67488271Y-96512518D01*
X67407554Y-96354102D01*
X67322062Y-96236432D01*
X67265033Y-96157937D01*
X67265029Y-96157932D01*
X67093567Y-95986470D01*
X67093562Y-95986466D01*
X66897401Y-95843948D01*
X66897400Y-95843947D01*
X66897398Y-95843946D01*
X66769519Y-95778788D01*
X66681344Y-95733860D01*
X66450736Y-95658932D01*
X66211245Y-95621000D01*
X66211240Y-95621000D01*
X65968760Y-95621000D01*
X65968755Y-95621000D01*
X65729263Y-95658932D01*
X65498655Y-95733860D01*
X65282598Y-95843948D01*
X65086437Y-95986466D01*
X65086432Y-95986470D01*
X64914970Y-96157932D01*
X64914966Y-96157937D01*
X64772448Y-96354098D01*
X64662360Y-96570155D01*
X64587432Y-96800763D01*
X64549500Y-97040254D01*
X64549500Y-98802745D01*
X64587432Y-99042236D01*
X64662360Y-99272844D01*
X64702264Y-99351159D01*
X64771251Y-99486553D01*
X64772448Y-99488901D01*
X64914966Y-99685062D01*
X64914970Y-99685067D01*
X65086432Y-99856529D01*
X65086437Y-99856533D01*
X65201537Y-99940157D01*
X65282602Y-99999054D01*
X65396796Y-100057238D01*
X65447591Y-100105212D01*
X65464500Y-100167723D01*
X65464500Y-112669548D01*
X65444815Y-112736587D01*
X65428181Y-112757229D01*
X57202229Y-120983181D01*
X57140906Y-121016666D01*
X57114548Y-121019500D01*
X57061306Y-121019500D01*
X56887341Y-121054103D01*
X56887332Y-121054106D01*
X56723459Y-121121983D01*
X56723446Y-121121990D01*
X56575965Y-121220535D01*
X56575961Y-121220538D01*
X56450538Y-121345961D01*
X56450535Y-121345965D01*
X56351990Y-121493446D01*
X56351983Y-121493459D01*
X56284106Y-121657332D01*
X56284103Y-121657341D01*
X56249500Y-121831304D01*
X53958704Y-121831304D01*
X53946767Y-121794564D01*
X53916557Y-121701588D01*
X53820051Y-121512184D01*
X53820049Y-121512181D01*
X53820048Y-121512179D01*
X53695109Y-121340213D01*
X53544786Y-121189890D01*
X53372817Y-121064949D01*
X53363504Y-121060204D01*
X53312707Y-121012230D01*
X53295912Y-120944409D01*
X53318449Y-120878274D01*
X53363507Y-120839232D01*
X53372558Y-120834620D01*
X53544459Y-120709727D01*
X53544464Y-120709723D01*
X53694723Y-120559464D01*
X53694727Y-120559459D01*
X53819620Y-120387557D01*
X53916095Y-120198217D01*
X53981757Y-119996129D01*
X53981757Y-119996126D01*
X53992231Y-119930000D01*
X52944146Y-119930000D01*
X52982630Y-119863343D01*
X53015000Y-119742535D01*
X53015000Y-119617465D01*
X52982630Y-119496657D01*
X52944146Y-119430000D01*
X53992231Y-119430000D01*
X53981757Y-119363873D01*
X53981757Y-119363870D01*
X53916095Y-119161782D01*
X53819620Y-118972442D01*
X53694727Y-118800540D01*
X53694723Y-118800535D01*
X53544464Y-118650276D01*
X53544459Y-118650272D01*
X53372555Y-118525377D01*
X53363500Y-118520763D01*
X53312706Y-118472788D01*
X53295912Y-118404966D01*
X53318451Y-118338832D01*
X53363508Y-118299793D01*
X53372816Y-118295051D01*
X53466060Y-118227306D01*
X53544786Y-118170109D01*
X53544788Y-118170106D01*
X53544792Y-118170104D01*
X53695104Y-118019792D01*
X53695106Y-118019788D01*
X53695109Y-118019786D01*
X53820048Y-117847820D01*
X53820047Y-117847820D01*
X53820051Y-117847816D01*
X53916557Y-117658412D01*
X53982246Y-117456243D01*
X54015500Y-117246287D01*
X54015500Y-117033713D01*
X53982246Y-116823757D01*
X53916557Y-116621588D01*
X53820051Y-116432184D01*
X53820049Y-116432181D01*
X53820048Y-116432179D01*
X53695109Y-116260213D01*
X53544786Y-116109890D01*
X53372820Y-115984951D01*
X53372115Y-115984591D01*
X53364054Y-115980485D01*
X53313259Y-115932512D01*
X53296463Y-115864692D01*
X53318999Y-115798556D01*
X53364054Y-115759515D01*
X53372816Y-115755051D01*
X53394789Y-115739086D01*
X53544786Y-115630109D01*
X53544788Y-115630106D01*
X53544792Y-115630104D01*
X53695104Y-115479792D01*
X53695106Y-115479788D01*
X53695109Y-115479786D01*
X53820048Y-115307820D01*
X53820047Y-115307820D01*
X53820051Y-115307816D01*
X53916557Y-115118412D01*
X53918989Y-115110925D01*
X53958424Y-115053248D01*
X54022781Y-115026047D01*
X54091628Y-115037958D01*
X54105813Y-115046136D01*
X54183446Y-115098009D01*
X54183459Y-115098016D01*
X54306363Y-115148923D01*
X54347334Y-115165894D01*
X54347336Y-115165894D01*
X54347341Y-115165896D01*
X54521304Y-115200499D01*
X54521307Y-115200500D01*
X54521309Y-115200500D01*
X54698693Y-115200500D01*
X54698694Y-115200499D01*
X54769968Y-115186322D01*
X54872658Y-115165896D01*
X54872661Y-115165894D01*
X54872666Y-115165894D01*
X55036547Y-115098013D01*
X55184035Y-114999464D01*
X55309464Y-114874035D01*
X55408013Y-114726547D01*
X55408767Y-114724728D01*
X55423022Y-114690312D01*
X55475894Y-114562666D01*
X55492614Y-114478612D01*
X55510499Y-114388695D01*
X55510500Y-114388693D01*
X55510500Y-114211306D01*
X55510499Y-114211304D01*
X55475896Y-114037341D01*
X55475893Y-114037332D01*
X55408016Y-113873459D01*
X55408009Y-113873446D01*
X55309464Y-113725965D01*
X55309461Y-113725961D01*
X55271819Y-113688319D01*
X55238334Y-113626996D01*
X55235500Y-113600638D01*
X55235500Y-99759361D01*
X55255185Y-99692322D01*
X55271820Y-99671679D01*
X55309461Y-99634038D01*
X55309464Y-99634035D01*
X55408013Y-99486547D01*
X55475894Y-99322666D01*
X55485805Y-99272844D01*
X55510499Y-99148695D01*
X55510500Y-99148693D01*
X55510500Y-98971306D01*
X55510499Y-98971304D01*
X55475896Y-98797341D01*
X55475893Y-98797332D01*
X55408016Y-98633459D01*
X55408009Y-98633446D01*
X55309464Y-98485965D01*
X55309461Y-98485961D01*
X55184038Y-98360538D01*
X55184034Y-98360535D01*
X55036553Y-98261990D01*
X55036540Y-98261983D01*
X54970668Y-98234699D01*
X54872667Y-98194106D01*
X54872658Y-98194103D01*
X54698694Y-98159500D01*
X54698691Y-98159500D01*
X54521309Y-98159500D01*
X54521306Y-98159500D01*
X54347341Y-98194103D01*
X54347332Y-98194106D01*
X54183459Y-98261983D01*
X54183446Y-98261990D01*
X54035965Y-98360535D01*
X54035961Y-98360538D01*
X53910538Y-98485961D01*
X53910535Y-98485965D01*
X53811990Y-98633446D01*
X53811983Y-98633459D01*
X53744106Y-98797332D01*
X53744103Y-98797341D01*
X53709500Y-98971304D01*
X53709500Y-99148695D01*
X53744103Y-99322658D01*
X53744106Y-99322667D01*
X53811983Y-99486540D01*
X53811990Y-99486553D01*
X53910535Y-99634034D01*
X53910538Y-99634038D01*
X53948180Y-99671679D01*
X53981666Y-99733001D01*
X53984500Y-99759361D01*
X53984500Y-106117746D01*
X53964815Y-106184785D01*
X53912011Y-106230540D01*
X53842853Y-106240484D01*
X53779297Y-106211459D01*
X53760182Y-106190631D01*
X53694727Y-106100540D01*
X53694723Y-106100535D01*
X53544464Y-105950276D01*
X53544459Y-105950272D01*
X53372557Y-105825379D01*
X53183217Y-105728904D01*
X52981128Y-105663242D01*
X52790000Y-105632969D01*
X52790000Y-106575854D01*
X52723343Y-106537370D01*
X52602535Y-106505000D01*
X52477465Y-106505000D01*
X52356657Y-106537370D01*
X52290000Y-106575854D01*
X52290000Y-105632969D01*
X52098872Y-105663242D01*
X52098869Y-105663242D01*
X51896782Y-105728904D01*
X51707442Y-105825379D01*
X51535540Y-105950272D01*
X51535535Y-105950276D01*
X51385276Y-106100535D01*
X51385272Y-106100540D01*
X51260379Y-106272442D01*
X51163904Y-106461782D01*
X51098242Y-106663870D01*
X51098242Y-106663873D01*
X51087769Y-106730000D01*
X52135854Y-106730000D01*
X52097370Y-106796657D01*
X52065000Y-106917465D01*
X52065000Y-107042535D01*
X52097370Y-107163343D01*
X52135854Y-107230000D01*
X51087769Y-107230000D01*
X51098242Y-107296126D01*
X51098242Y-107296129D01*
X51163904Y-107498217D01*
X51260379Y-107687557D01*
X51385272Y-107859459D01*
X51385276Y-107859464D01*
X51535535Y-108009723D01*
X51535540Y-108009727D01*
X51707444Y-108134622D01*
X51717048Y-108139516D01*
X51767844Y-108187491D01*
X51784638Y-108255312D01*
X51762100Y-108321447D01*
X51717048Y-108360484D01*
X51707444Y-108365377D01*
X51535540Y-108490272D01*
X51535535Y-108490276D01*
X51385276Y-108640535D01*
X51385272Y-108640540D01*
X51260379Y-108812442D01*
X51163904Y-109001782D01*
X51098242Y-109203870D01*
X51098242Y-109203873D01*
X51087769Y-109270000D01*
X52135854Y-109270000D01*
X52097370Y-109336657D01*
X52065000Y-109457465D01*
X52065000Y-109582535D01*
X52097370Y-109703343D01*
X52135854Y-109770000D01*
X51087769Y-109770000D01*
X51098242Y-109836126D01*
X51098242Y-109836129D01*
X51163904Y-110038217D01*
X51260379Y-110227557D01*
X51385272Y-110399459D01*
X51385276Y-110399464D01*
X51535535Y-110549723D01*
X51535540Y-110549727D01*
X51707444Y-110674622D01*
X51717048Y-110679516D01*
X51767844Y-110727491D01*
X51784638Y-110795312D01*
X51762100Y-110861447D01*
X51717048Y-110900484D01*
X51707444Y-110905377D01*
X51535540Y-111030272D01*
X51535535Y-111030276D01*
X51385276Y-111180535D01*
X51385272Y-111180540D01*
X51260379Y-111352442D01*
X51163904Y-111541782D01*
X51098242Y-111743870D01*
X51098242Y-111743873D01*
X51087769Y-111810000D01*
X52135854Y-111810000D01*
X52097370Y-111876657D01*
X52065000Y-111997465D01*
X52065000Y-112122535D01*
X52097370Y-112243343D01*
X52135854Y-112310000D01*
X51087769Y-112310000D01*
X51098242Y-112376126D01*
X51098242Y-112376129D01*
X51163904Y-112578217D01*
X51260379Y-112767557D01*
X51385272Y-112939459D01*
X51385276Y-112939464D01*
X51535535Y-113089723D01*
X51535540Y-113089727D01*
X51707444Y-113214622D01*
X51716495Y-113219234D01*
X51767292Y-113267208D01*
X51784087Y-113335029D01*
X51761550Y-113401164D01*
X51716499Y-113440202D01*
X51707182Y-113444949D01*
X51535213Y-113569890D01*
X51384890Y-113720213D01*
X51259951Y-113892179D01*
X51163444Y-114081585D01*
X51163443Y-114081587D01*
X51163443Y-114081588D01*
X51148539Y-114127459D01*
X51097753Y-114283760D01*
X51064500Y-114493713D01*
X48935500Y-114493713D01*
X48902246Y-114283757D01*
X48836557Y-114081588D01*
X48740051Y-113892184D01*
X48740049Y-113892181D01*
X48740048Y-113892179D01*
X48615109Y-113720213D01*
X48464786Y-113569890D01*
X48292817Y-113444949D01*
X48283504Y-113440204D01*
X48232707Y-113392230D01*
X48215912Y-113324409D01*
X48238449Y-113258274D01*
X48283507Y-113219232D01*
X48292558Y-113214620D01*
X48464459Y-113089727D01*
X48464464Y-113089723D01*
X48614723Y-112939464D01*
X48614727Y-112939459D01*
X48739620Y-112767557D01*
X48836095Y-112578217D01*
X48901757Y-112376129D01*
X48901757Y-112376126D01*
X48912231Y-112310000D01*
X47864146Y-112310000D01*
X47902630Y-112243343D01*
X47935000Y-112122535D01*
X47935000Y-111997465D01*
X47902630Y-111876657D01*
X47864146Y-111810000D01*
X48912231Y-111810000D01*
X48901757Y-111743873D01*
X48901757Y-111743870D01*
X48836095Y-111541782D01*
X48739620Y-111352442D01*
X48614727Y-111180540D01*
X48614723Y-111180535D01*
X48464464Y-111030276D01*
X48464459Y-111030272D01*
X48292555Y-110905377D01*
X48283500Y-110900763D01*
X48232706Y-110852788D01*
X48215912Y-110784966D01*
X48238451Y-110718832D01*
X48283508Y-110679793D01*
X48292816Y-110675051D01*
X48372007Y-110617515D01*
X48464786Y-110550109D01*
X48464788Y-110550106D01*
X48464792Y-110550104D01*
X48615104Y-110399792D01*
X48615106Y-110399788D01*
X48615109Y-110399786D01*
X48740048Y-110227820D01*
X48740047Y-110227820D01*
X48740051Y-110227816D01*
X48836557Y-110038412D01*
X48902246Y-109836243D01*
X48923296Y-109703343D01*
X48935500Y-109626287D01*
X48935500Y-109413713D01*
X48902264Y-109203873D01*
X48902246Y-109203757D01*
X48836557Y-109001588D01*
X48740051Y-108812184D01*
X48740049Y-108812181D01*
X48740048Y-108812179D01*
X48615109Y-108640213D01*
X48464786Y-108489890D01*
X48292820Y-108364951D01*
X48292115Y-108364591D01*
X48284054Y-108360485D01*
X48233259Y-108312512D01*
X48216463Y-108244692D01*
X48238999Y-108178556D01*
X48284054Y-108139515D01*
X48292816Y-108135051D01*
X48314789Y-108119086D01*
X48464786Y-108010109D01*
X48464788Y-108010106D01*
X48464792Y-108010104D01*
X48615104Y-107859792D01*
X48615106Y-107859788D01*
X48615109Y-107859786D01*
X48740048Y-107687820D01*
X48740047Y-107687820D01*
X48740051Y-107687816D01*
X48836557Y-107498412D01*
X48902246Y-107296243D01*
X48923296Y-107163343D01*
X48935500Y-107086287D01*
X48935500Y-106873712D01*
X48921681Y-106786461D01*
X48902264Y-106663873D01*
X48902246Y-106663757D01*
X48836557Y-106461588D01*
X48740051Y-106272184D01*
X48740049Y-106272181D01*
X48740048Y-106272179D01*
X48615109Y-106100213D01*
X48464786Y-105949890D01*
X48292820Y-105824951D01*
X48103414Y-105728444D01*
X48103413Y-105728443D01*
X48103412Y-105728443D01*
X47901243Y-105662754D01*
X47901241Y-105662753D01*
X47901240Y-105662753D01*
X47713189Y-105632969D01*
X47691287Y-105629500D01*
X47228713Y-105629500D01*
X47206811Y-105632969D01*
X47018760Y-105662753D01*
X46816585Y-105728444D01*
X46627179Y-105824951D01*
X46455213Y-105949890D01*
X46304890Y-106100213D01*
X46179951Y-106272179D01*
X46083444Y-106461585D01*
X46017753Y-106663760D01*
X45984500Y-106873713D01*
X35000500Y-106873713D01*
X35000500Y-97040299D01*
X59470000Y-97040299D01*
X59470000Y-97671500D01*
X60355879Y-97671500D01*
X60336901Y-97717318D01*
X60310000Y-97852556D01*
X60310000Y-97990444D01*
X60336901Y-98125682D01*
X60355879Y-98171500D01*
X59470000Y-98171500D01*
X59470000Y-98802700D01*
X59507920Y-99042118D01*
X59582827Y-99272659D01*
X59692874Y-99488636D01*
X59835356Y-99684745D01*
X60006754Y-99856143D01*
X60202863Y-99998625D01*
X60418840Y-100108672D01*
X60649381Y-100183580D01*
X60760000Y-100201100D01*
X60760000Y-98575620D01*
X60805818Y-98594599D01*
X60941056Y-98621500D01*
X61078944Y-98621500D01*
X61214182Y-98594599D01*
X61260000Y-98575620D01*
X61260000Y-100201099D01*
X61370618Y-100183580D01*
X61601159Y-100108672D01*
X61817136Y-99998625D01*
X62013245Y-99856143D01*
X62184643Y-99684745D01*
X62327125Y-99488636D01*
X62437172Y-99272659D01*
X62512079Y-99042118D01*
X62550000Y-98802700D01*
X62550000Y-98171500D01*
X61664121Y-98171500D01*
X61683099Y-98125682D01*
X61710000Y-97990444D01*
X61710000Y-97852556D01*
X61683099Y-97717318D01*
X61664121Y-97671500D01*
X62550000Y-97671500D01*
X62550000Y-97040299D01*
X62512079Y-96800881D01*
X62437172Y-96570340D01*
X62327125Y-96354363D01*
X62184643Y-96158254D01*
X62013245Y-95986856D01*
X61817136Y-95844374D01*
X61601157Y-95734327D01*
X61370614Y-95659419D01*
X61260000Y-95641899D01*
X61260000Y-97267379D01*
X61214182Y-97248401D01*
X61078944Y-97221500D01*
X60941056Y-97221500D01*
X60805818Y-97248401D01*
X60760000Y-97267379D01*
X60760000Y-95641899D01*
X60759999Y-95641899D01*
X60649385Y-95659419D01*
X60418842Y-95734327D01*
X60202863Y-95844374D01*
X60006754Y-95986856D01*
X59835356Y-96158254D01*
X59692874Y-96354363D01*
X59582827Y-96570340D01*
X59507920Y-96800881D01*
X59470000Y-97040299D01*
X35000500Y-97040299D01*
X35000500Y-91551795D01*
X45689500Y-91551795D01*
X45689500Y-91928204D01*
X45722305Y-92303171D01*
X45722305Y-92303175D01*
X45759380Y-92513434D01*
X45787666Y-92673852D01*
X45885086Y-93037427D01*
X46013823Y-93391129D01*
X46013824Y-93391131D01*
X46013827Y-93391138D01*
X46013830Y-93391146D01*
X46172892Y-93732254D01*
X46172900Y-93732270D01*
X46361092Y-94058228D01*
X46361101Y-94058243D01*
X46576996Y-94366572D01*
X46734296Y-94554034D01*
X46818938Y-94654906D01*
X47085094Y-94921062D01*
X47187700Y-95007159D01*
X47373427Y-95163003D01*
X47373433Y-95163007D01*
X47373434Y-95163008D01*
X47681763Y-95378903D01*
X48007736Y-95567103D01*
X48007745Y-95567107D01*
X48348853Y-95726169D01*
X48348857Y-95726170D01*
X48348871Y-95726177D01*
X48702573Y-95854914D01*
X49066148Y-95952334D01*
X49436831Y-96017695D01*
X49811797Y-96050499D01*
X49811798Y-96050500D01*
X49811799Y-96050500D01*
X50188202Y-96050500D01*
X50188202Y-96050499D01*
X50563169Y-96017695D01*
X50933852Y-95952334D01*
X51297427Y-95854914D01*
X51651129Y-95726177D01*
X51992264Y-95567103D01*
X52318237Y-95378903D01*
X52626566Y-95163008D01*
X52914906Y-94921062D01*
X53181062Y-94654906D01*
X53423008Y-94366566D01*
X53638903Y-94058237D01*
X53827103Y-93732264D01*
X53986177Y-93391129D01*
X54114914Y-93037427D01*
X54212334Y-92673852D01*
X54277695Y-92303169D01*
X54310500Y-91928201D01*
X54310500Y-91551799D01*
X54310500Y-91551795D01*
X100689500Y-91551795D01*
X100689500Y-91928204D01*
X100722305Y-92303171D01*
X100722305Y-92303175D01*
X100759380Y-92513434D01*
X100787666Y-92673852D01*
X100885086Y-93037427D01*
X101013823Y-93391129D01*
X101013824Y-93391131D01*
X101013827Y-93391138D01*
X101013830Y-93391146D01*
X101172892Y-93732254D01*
X101172900Y-93732270D01*
X101361092Y-94058228D01*
X101361101Y-94058243D01*
X101576996Y-94366572D01*
X101734296Y-94554034D01*
X101818938Y-94654906D01*
X102085094Y-94921062D01*
X102187700Y-95007159D01*
X102373427Y-95163003D01*
X102373433Y-95163007D01*
X102373434Y-95163008D01*
X102681763Y-95378903D01*
X103007736Y-95567103D01*
X103007745Y-95567107D01*
X103348853Y-95726169D01*
X103348857Y-95726170D01*
X103348871Y-95726177D01*
X103702573Y-95854914D01*
X104066148Y-95952334D01*
X104436831Y-96017695D01*
X104811797Y-96050499D01*
X104811798Y-96050500D01*
X104811799Y-96050500D01*
X105188202Y-96050500D01*
X105188202Y-96050499D01*
X105563169Y-96017695D01*
X105933852Y-95952334D01*
X106245335Y-95868872D01*
X124339500Y-95868872D01*
X124339500Y-96131127D01*
X124353407Y-96236754D01*
X124373730Y-96391116D01*
X124430448Y-96602792D01*
X124441602Y-96644418D01*
X124441605Y-96644428D01*
X124541953Y-96886690D01*
X124541958Y-96886700D01*
X124673075Y-97113803D01*
X124832718Y-97321851D01*
X124832726Y-97321860D01*
X125018140Y-97507274D01*
X125018148Y-97507281D01*
X125226196Y-97666924D01*
X125453299Y-97798041D01*
X125453309Y-97798046D01*
X125695571Y-97898394D01*
X125695581Y-97898398D01*
X125948884Y-97966270D01*
X126208880Y-98000500D01*
X126208887Y-98000500D01*
X126471113Y-98000500D01*
X126471120Y-98000500D01*
X126731116Y-97966270D01*
X126984419Y-97898398D01*
X127226697Y-97798043D01*
X127453803Y-97666924D01*
X127661851Y-97507282D01*
X127661855Y-97507277D01*
X127661860Y-97507274D01*
X127847274Y-97321860D01*
X127847277Y-97321855D01*
X127847282Y-97321851D01*
X128006924Y-97113803D01*
X128138043Y-96886697D01*
X128141122Y-96879265D01*
X128227525Y-96670669D01*
X128238398Y-96644419D01*
X128306270Y-96391116D01*
X128340500Y-96131120D01*
X128340500Y-95868880D01*
X128306270Y-95608884D01*
X128238398Y-95355581D01*
X128158632Y-95163008D01*
X128138046Y-95113309D01*
X128138041Y-95113299D01*
X128006924Y-94886196D01*
X127847281Y-94678148D01*
X127847274Y-94678140D01*
X127661860Y-94492726D01*
X127661851Y-94492718D01*
X127453803Y-94333075D01*
X127226700Y-94201958D01*
X127226690Y-94201953D01*
X126984428Y-94101605D01*
X126984421Y-94101603D01*
X126984419Y-94101602D01*
X126731116Y-94033730D01*
X126673339Y-94026123D01*
X126471127Y-93999500D01*
X126471120Y-93999500D01*
X126208880Y-93999500D01*
X126208872Y-93999500D01*
X125977772Y-94029926D01*
X125948884Y-94033730D01*
X125695581Y-94101602D01*
X125695571Y-94101605D01*
X125453309Y-94201953D01*
X125453299Y-94201958D01*
X125226196Y-94333075D01*
X125018148Y-94492718D01*
X124832718Y-94678148D01*
X124673075Y-94886196D01*
X124541958Y-95113299D01*
X124541953Y-95113309D01*
X124441605Y-95355571D01*
X124441602Y-95355581D01*
X124406260Y-95487482D01*
X124373730Y-95608885D01*
X124339500Y-95868872D01*
X106245335Y-95868872D01*
X106297427Y-95854914D01*
X106651129Y-95726177D01*
X106992264Y-95567103D01*
X107318237Y-95378903D01*
X107626566Y-95163008D01*
X107914906Y-94921062D01*
X108181062Y-94654906D01*
X108423008Y-94366566D01*
X108638903Y-94058237D01*
X108827103Y-93732264D01*
X108986177Y-93391129D01*
X109002731Y-93345646D01*
X141499500Y-93345646D01*
X141499500Y-93574353D01*
X141535278Y-93800246D01*
X141535278Y-93800249D01*
X141605950Y-94017755D01*
X141709783Y-94221538D01*
X141844214Y-94406566D01*
X142005934Y-94568286D01*
X142090864Y-94629991D01*
X142133529Y-94685321D01*
X142139508Y-94754935D01*
X142106902Y-94816730D01*
X142090864Y-94830627D01*
X142006257Y-94892097D01*
X141844597Y-95053757D01*
X141710211Y-95238723D01*
X141606417Y-95442429D01*
X141535765Y-95659871D01*
X141521491Y-95750000D01*
X142509252Y-95750000D01*
X142487482Y-95787708D01*
X142450000Y-95927591D01*
X142450000Y-96072409D01*
X142487482Y-96212292D01*
X142509252Y-96250000D01*
X141521491Y-96250000D01*
X141535765Y-96340128D01*
X141606417Y-96557570D01*
X141710213Y-96761279D01*
X141843011Y-96944060D01*
X141866491Y-97009866D01*
X141850666Y-97077920D01*
X141800560Y-97126615D01*
X141786026Y-97133127D01*
X141757671Y-97143702D01*
X141757664Y-97143706D01*
X141642455Y-97229952D01*
X141642452Y-97229955D01*
X141556206Y-97345164D01*
X141556202Y-97345171D01*
X141505908Y-97480017D01*
X141499501Y-97539616D01*
X141499501Y-97539623D01*
X141499500Y-97539635D01*
X141499500Y-99540370D01*
X141499501Y-99540376D01*
X141505908Y-99599983D01*
X141556202Y-99734828D01*
X141556206Y-99734835D01*
X141642452Y-99850044D01*
X141642455Y-99850047D01*
X141757664Y-99936293D01*
X141757671Y-99936297D01*
X141892517Y-99986591D01*
X141892516Y-99986591D01*
X141899444Y-99987335D01*
X141952127Y-99993000D01*
X144047872Y-99992999D01*
X144107483Y-99986591D01*
X144242331Y-99936296D01*
X144357546Y-99850046D01*
X144443796Y-99734831D01*
X144494091Y-99599983D01*
X144500500Y-99540373D01*
X144500499Y-97539628D01*
X144494091Y-97480017D01*
X144485235Y-97456274D01*
X144443797Y-97345171D01*
X144443793Y-97345164D01*
X144357547Y-97229955D01*
X144357544Y-97229952D01*
X144242335Y-97143706D01*
X144242326Y-97143701D01*
X144213974Y-97133127D01*
X144158040Y-97091257D01*
X144133622Y-97025792D01*
X144148473Y-96957519D01*
X144156988Y-96944059D01*
X144289788Y-96761276D01*
X144393582Y-96557570D01*
X144464234Y-96340128D01*
X144478509Y-96250000D01*
X143490748Y-96250000D01*
X143512518Y-96212292D01*
X143550000Y-96072409D01*
X143550000Y-95927591D01*
X143512518Y-95787708D01*
X143490748Y-95750000D01*
X144478509Y-95750000D01*
X144464234Y-95659871D01*
X144393582Y-95442429D01*
X144289788Y-95238723D01*
X144155402Y-95053757D01*
X143993742Y-94892097D01*
X143909135Y-94830626D01*
X143866470Y-94775296D01*
X143860491Y-94705682D01*
X143893097Y-94643887D01*
X143909125Y-94629999D01*
X143994066Y-94568286D01*
X144155786Y-94406566D01*
X144290217Y-94221538D01*
X144394048Y-94017758D01*
X144435135Y-93891306D01*
X144435136Y-93891304D01*
X145149500Y-93891304D01*
X145149500Y-94068695D01*
X145184103Y-94242658D01*
X145184106Y-94242667D01*
X145251983Y-94406540D01*
X145251990Y-94406553D01*
X145350535Y-94554034D01*
X145350538Y-94554038D01*
X145388180Y-94591679D01*
X145421666Y-94653001D01*
X145424500Y-94679361D01*
X145424500Y-117616638D01*
X145404815Y-117683677D01*
X145388181Y-117704319D01*
X145350538Y-117741961D01*
X145350535Y-117741965D01*
X145251990Y-117889446D01*
X145251983Y-117889459D01*
X145184106Y-118053332D01*
X145184103Y-118053341D01*
X145149500Y-118227304D01*
X145149500Y-118404692D01*
X145184103Y-118578658D01*
X145184106Y-118578667D01*
X145251983Y-118742540D01*
X145251990Y-118742553D01*
X145350535Y-118890034D01*
X145350538Y-118890038D01*
X145475961Y-119015461D01*
X145475965Y-119015464D01*
X145623446Y-119114009D01*
X145623459Y-119114016D01*
X145738298Y-119161583D01*
X145787334Y-119181894D01*
X145787336Y-119181894D01*
X145787341Y-119181896D01*
X145961304Y-119216499D01*
X145961307Y-119216500D01*
X145961309Y-119216500D01*
X146138693Y-119216500D01*
X146138694Y-119216499D01*
X146196682Y-119204964D01*
X146312658Y-119181896D01*
X146312661Y-119181894D01*
X146312666Y-119181894D01*
X146452535Y-119123958D01*
X146476540Y-119114016D01*
X146476540Y-119114015D01*
X146476547Y-119114013D01*
X146624035Y-119015464D01*
X146749464Y-118890035D01*
X146848013Y-118742547D01*
X146915894Y-118578666D01*
X146927468Y-118520484D01*
X146950500Y-118404692D01*
X146950500Y-118227306D01*
X146950499Y-118227304D01*
X146915896Y-118053341D01*
X146915893Y-118053332D01*
X146848016Y-117889459D01*
X146848009Y-117889446D01*
X146749464Y-117741965D01*
X146749461Y-117741961D01*
X146711819Y-117704319D01*
X146678334Y-117642996D01*
X146675500Y-117616638D01*
X146675500Y-114211304D01*
X154039500Y-114211304D01*
X154039500Y-114388695D01*
X154074103Y-114562658D01*
X154074106Y-114562667D01*
X154141983Y-114726540D01*
X154141990Y-114726553D01*
X154240535Y-114874034D01*
X154240538Y-114874038D01*
X154278180Y-114911679D01*
X154311666Y-114973001D01*
X154314500Y-114999361D01*
X154314500Y-116140638D01*
X154294815Y-116207677D01*
X154278181Y-116228319D01*
X154240538Y-116265961D01*
X154240535Y-116265965D01*
X154141990Y-116413446D01*
X154141983Y-116413459D01*
X154074106Y-116577332D01*
X154074103Y-116577341D01*
X154039500Y-116751304D01*
X154039500Y-116928695D01*
X154074103Y-117102658D01*
X154074106Y-117102667D01*
X154141983Y-117266540D01*
X154141990Y-117266553D01*
X154240535Y-117414034D01*
X154240538Y-117414038D01*
X154278180Y-117451679D01*
X154311666Y-117513001D01*
X154314500Y-117539361D01*
X154314500Y-118680638D01*
X154294815Y-118747677D01*
X154278181Y-118768319D01*
X154240538Y-118805961D01*
X154240535Y-118805965D01*
X154141990Y-118953446D01*
X154141983Y-118953459D01*
X154074106Y-119117332D01*
X154074103Y-119117341D01*
X154039500Y-119291304D01*
X154039500Y-119468695D01*
X154074103Y-119642658D01*
X154074106Y-119642667D01*
X154141983Y-119806540D01*
X154141990Y-119806553D01*
X154240535Y-119954034D01*
X154240538Y-119954038D01*
X154365961Y-120079461D01*
X154365965Y-120079464D01*
X154513446Y-120178009D01*
X154513459Y-120178016D01*
X154636363Y-120228923D01*
X154677334Y-120245894D01*
X154677336Y-120245894D01*
X154677341Y-120245896D01*
X154851304Y-120280499D01*
X154851307Y-120280500D01*
X154851309Y-120280500D01*
X155028693Y-120280500D01*
X155028694Y-120280499D01*
X155086682Y-120268964D01*
X155202658Y-120245896D01*
X155202661Y-120245894D01*
X155202666Y-120245894D01*
X155366547Y-120178013D01*
X155514035Y-120079464D01*
X155639464Y-119954035D01*
X155738013Y-119806547D01*
X155750386Y-119776673D01*
X155794224Y-119722272D01*
X155860517Y-119700205D01*
X155928217Y-119717482D01*
X155975829Y-119768618D01*
X155987420Y-119804728D01*
X156017735Y-119996126D01*
X156017754Y-119996243D01*
X156067929Y-120150666D01*
X156083444Y-120198414D01*
X156179951Y-120387820D01*
X156304890Y-120559786D01*
X156455213Y-120710109D01*
X156627182Y-120835050D01*
X156635946Y-120839516D01*
X156686742Y-120887491D01*
X156703536Y-120955312D01*
X156680998Y-121021447D01*
X156635946Y-121060484D01*
X156627182Y-121064949D01*
X156455213Y-121189890D01*
X156304890Y-121340213D01*
X156179951Y-121512179D01*
X156083444Y-121701585D01*
X156017753Y-121903760D01*
X155984500Y-122113713D01*
X155984500Y-122326286D01*
X156017753Y-122536239D01*
X156017753Y-122536241D01*
X156017754Y-122536243D01*
X156044794Y-122619464D01*
X156083444Y-122738414D01*
X156179951Y-122927820D01*
X156304890Y-123099786D01*
X156455213Y-123250109D01*
X156627182Y-123375050D01*
X156635946Y-123379516D01*
X156686742Y-123427491D01*
X156703536Y-123495312D01*
X156680998Y-123561447D01*
X156635946Y-123600484D01*
X156627182Y-123604949D01*
X156455213Y-123729890D01*
X156304890Y-123880213D01*
X156179951Y-124052179D01*
X156083444Y-124241585D01*
X156017753Y-124443760D01*
X155984500Y-124653713D01*
X155984500Y-124866286D01*
X156011068Y-125034034D01*
X156017754Y-125076243D01*
X156044794Y-125159464D01*
X156083444Y-125278414D01*
X156179951Y-125467820D01*
X156304890Y-125639786D01*
X156455213Y-125790109D01*
X156627179Y-125915048D01*
X156627181Y-125915049D01*
X156627184Y-125915051D01*
X156816588Y-126011557D01*
X157018757Y-126077246D01*
X157228713Y-126110500D01*
X157228714Y-126110500D01*
X157691286Y-126110500D01*
X157691287Y-126110500D01*
X157901243Y-126077246D01*
X158103412Y-126011557D01*
X158292816Y-125915051D01*
X158314789Y-125899086D01*
X158464786Y-125790109D01*
X158464788Y-125790106D01*
X158464792Y-125790104D01*
X158615104Y-125639792D01*
X158615106Y-125639788D01*
X158615109Y-125639786D01*
X158740048Y-125467820D01*
X158740047Y-125467820D01*
X158740051Y-125467816D01*
X158836557Y-125278412D01*
X158902246Y-125076243D01*
X158935500Y-124866287D01*
X158935500Y-124653713D01*
X158902246Y-124443757D01*
X158836557Y-124241588D01*
X158740051Y-124052184D01*
X158740049Y-124052181D01*
X158740048Y-124052179D01*
X158615109Y-123880213D01*
X158464786Y-123729890D01*
X158292820Y-123604951D01*
X158292115Y-123604591D01*
X158284054Y-123600485D01*
X158233259Y-123552512D01*
X158216463Y-123484692D01*
X158238999Y-123418556D01*
X158284054Y-123379515D01*
X158292816Y-123375051D01*
X158318520Y-123356376D01*
X158464786Y-123250109D01*
X158464788Y-123250106D01*
X158464792Y-123250104D01*
X158615104Y-123099792D01*
X158615106Y-123099788D01*
X158615109Y-123099786D01*
X158740048Y-122927820D01*
X158740047Y-122927820D01*
X158740051Y-122927816D01*
X158836557Y-122738412D01*
X158902246Y-122536243D01*
X158935500Y-122326287D01*
X158935500Y-122113713D01*
X158902246Y-121903757D01*
X158836557Y-121701588D01*
X158740051Y-121512184D01*
X158740049Y-121512181D01*
X158740048Y-121512179D01*
X158615109Y-121340213D01*
X158464786Y-121189890D01*
X158292820Y-121064951D01*
X158289515Y-121063267D01*
X158284054Y-121060485D01*
X158233259Y-121012512D01*
X158216463Y-120944692D01*
X158238999Y-120878556D01*
X158284054Y-120839515D01*
X158292816Y-120835051D01*
X158314789Y-120819086D01*
X158464786Y-120710109D01*
X158464788Y-120710106D01*
X158464792Y-120710104D01*
X158615104Y-120559792D01*
X158615106Y-120559788D01*
X158615109Y-120559786D01*
X158740048Y-120387820D01*
X158740047Y-120387820D01*
X158740051Y-120387816D01*
X158836557Y-120198412D01*
X158902246Y-119996243D01*
X158935500Y-119786287D01*
X158935500Y-119573713D01*
X158902246Y-119363757D01*
X158836557Y-119161588D01*
X158740051Y-118972184D01*
X158740049Y-118972181D01*
X158740048Y-118972179D01*
X158615109Y-118800213D01*
X158464786Y-118649890D01*
X158292820Y-118524951D01*
X158284600Y-118520763D01*
X158284054Y-118520485D01*
X158233259Y-118472512D01*
X158216463Y-118404692D01*
X158238999Y-118338556D01*
X158284054Y-118299515D01*
X158292816Y-118295051D01*
X158386060Y-118227306D01*
X158464786Y-118170109D01*
X158464788Y-118170106D01*
X158464792Y-118170104D01*
X158615104Y-118019792D01*
X158615106Y-118019788D01*
X158615109Y-118019786D01*
X158740048Y-117847820D01*
X158740047Y-117847820D01*
X158740051Y-117847816D01*
X158836557Y-117658412D01*
X158902246Y-117456243D01*
X158935500Y-117246287D01*
X158935500Y-117033713D01*
X158902246Y-116823757D01*
X158836557Y-116621588D01*
X158740051Y-116432184D01*
X158740049Y-116432181D01*
X158740048Y-116432179D01*
X158615109Y-116260213D01*
X158464786Y-116109890D01*
X158292820Y-115984951D01*
X158292115Y-115984591D01*
X158284054Y-115980485D01*
X158233259Y-115932512D01*
X158216463Y-115864692D01*
X158238999Y-115798556D01*
X158284054Y-115759515D01*
X158292816Y-115755051D01*
X158314789Y-115739086D01*
X158464786Y-115630109D01*
X158464788Y-115630106D01*
X158464792Y-115630104D01*
X158615104Y-115479792D01*
X158615106Y-115479788D01*
X158615109Y-115479786D01*
X158740048Y-115307820D01*
X158740047Y-115307820D01*
X158740051Y-115307816D01*
X158836557Y-115118412D01*
X158902246Y-114916243D01*
X158935500Y-114706287D01*
X158935500Y-114493713D01*
X161064500Y-114493713D01*
X161064500Y-114706286D01*
X161091068Y-114874034D01*
X161097754Y-114916243D01*
X161142887Y-115055148D01*
X161163444Y-115118414D01*
X161259951Y-115307820D01*
X161384890Y-115479786D01*
X161535213Y-115630109D01*
X161707182Y-115755050D01*
X161715946Y-115759516D01*
X161766742Y-115807491D01*
X161783536Y-115875312D01*
X161760998Y-115941447D01*
X161715946Y-115980484D01*
X161707182Y-115984949D01*
X161535213Y-116109890D01*
X161384890Y-116260213D01*
X161259951Y-116432179D01*
X161163444Y-116621585D01*
X161163443Y-116621587D01*
X161163443Y-116621588D01*
X161148539Y-116667459D01*
X161097753Y-116823760D01*
X161064500Y-117033713D01*
X161064500Y-117246286D01*
X161091068Y-117414034D01*
X161097754Y-117456243D01*
X161149837Y-117616538D01*
X161163444Y-117658414D01*
X161259951Y-117847820D01*
X161384890Y-118019786D01*
X161535213Y-118170109D01*
X161707179Y-118295048D01*
X161707181Y-118295049D01*
X161707184Y-118295051D01*
X161716493Y-118299794D01*
X161767290Y-118347766D01*
X161784087Y-118415587D01*
X161761552Y-118481722D01*
X161716502Y-118520762D01*
X161707443Y-118525378D01*
X161535540Y-118650272D01*
X161535535Y-118650276D01*
X161385276Y-118800535D01*
X161385272Y-118800540D01*
X161260379Y-118972442D01*
X161163904Y-119161782D01*
X161098242Y-119363870D01*
X161098242Y-119363873D01*
X161087769Y-119430000D01*
X162135854Y-119430000D01*
X162097370Y-119496657D01*
X162065000Y-119617465D01*
X162065000Y-119742535D01*
X162097370Y-119863343D01*
X162135854Y-119930000D01*
X161087769Y-119930000D01*
X161098242Y-119996126D01*
X161098242Y-119996129D01*
X161163904Y-120198217D01*
X161260379Y-120387557D01*
X161385272Y-120559459D01*
X161385276Y-120559464D01*
X161535535Y-120709723D01*
X161535540Y-120709727D01*
X161707444Y-120834622D01*
X161716495Y-120839234D01*
X161767292Y-120887208D01*
X161784087Y-120955029D01*
X161761550Y-121021164D01*
X161716499Y-121060202D01*
X161707182Y-121064949D01*
X161535213Y-121189890D01*
X161384890Y-121340213D01*
X161259951Y-121512179D01*
X161163444Y-121701585D01*
X161097753Y-121903760D01*
X161064500Y-122113713D01*
X161064500Y-122326286D01*
X161097753Y-122536239D01*
X161097753Y-122536241D01*
X161097754Y-122536243D01*
X161124794Y-122619464D01*
X161163444Y-122738414D01*
X161259951Y-122927820D01*
X161384890Y-123099786D01*
X161535213Y-123250109D01*
X161707182Y-123375050D01*
X161715946Y-123379516D01*
X161766742Y-123427491D01*
X161783536Y-123495312D01*
X161760998Y-123561447D01*
X161715946Y-123600484D01*
X161707182Y-123604949D01*
X161535213Y-123729890D01*
X161384890Y-123880213D01*
X161259951Y-124052179D01*
X161163444Y-124241585D01*
X161097753Y-124443760D01*
X161064500Y-124653713D01*
X161064500Y-124866286D01*
X161091068Y-125034034D01*
X161097754Y-125076243D01*
X161124794Y-125159464D01*
X161163444Y-125278414D01*
X161259951Y-125467820D01*
X161384890Y-125639786D01*
X161535213Y-125790109D01*
X161707179Y-125915048D01*
X161707181Y-125915049D01*
X161707184Y-125915051D01*
X161896588Y-126011557D01*
X162098757Y-126077246D01*
X162308713Y-126110500D01*
X162308714Y-126110500D01*
X162771286Y-126110500D01*
X162771287Y-126110500D01*
X162981243Y-126077246D01*
X163183412Y-126011557D01*
X163372816Y-125915051D01*
X163394789Y-125899086D01*
X163544786Y-125790109D01*
X163544788Y-125790106D01*
X163544792Y-125790104D01*
X163695104Y-125639792D01*
X163695106Y-125639788D01*
X163695109Y-125639786D01*
X163820048Y-125467820D01*
X163820047Y-125467820D01*
X163820051Y-125467816D01*
X163916557Y-125278412D01*
X163982246Y-125076243D01*
X164015500Y-124866287D01*
X164015500Y-124653713D01*
X163982246Y-124443757D01*
X163916557Y-124241588D01*
X163820051Y-124052184D01*
X163820049Y-124052181D01*
X163820048Y-124052179D01*
X163695109Y-123880213D01*
X163544786Y-123729890D01*
X163372820Y-123604951D01*
X163372115Y-123604591D01*
X163364054Y-123600485D01*
X163313259Y-123552512D01*
X163296463Y-123484692D01*
X163318999Y-123418556D01*
X163364054Y-123379515D01*
X163372816Y-123375051D01*
X163398520Y-123356376D01*
X163544786Y-123250109D01*
X163544788Y-123250106D01*
X163544792Y-123250104D01*
X163695104Y-123099792D01*
X163695106Y-123099788D01*
X163695109Y-123099786D01*
X163820048Y-122927820D01*
X163820047Y-122927820D01*
X163820051Y-122927816D01*
X163916557Y-122738412D01*
X163982246Y-122536243D01*
X164015500Y-122326287D01*
X164015500Y-122113713D01*
X163982246Y-121903757D01*
X163916557Y-121701588D01*
X163820051Y-121512184D01*
X163820049Y-121512181D01*
X163820048Y-121512179D01*
X163695109Y-121340213D01*
X163544786Y-121189890D01*
X163372817Y-121064949D01*
X163363504Y-121060204D01*
X163312707Y-121012230D01*
X163295912Y-120944409D01*
X163318449Y-120878274D01*
X163363507Y-120839232D01*
X163372558Y-120834620D01*
X163544459Y-120709727D01*
X163544464Y-120709723D01*
X163694723Y-120559464D01*
X163694727Y-120559459D01*
X163819620Y-120387557D01*
X163916095Y-120198217D01*
X163981757Y-119996129D01*
X163981757Y-119996126D01*
X163992231Y-119930000D01*
X162944146Y-119930000D01*
X162982630Y-119863343D01*
X163015000Y-119742535D01*
X163015000Y-119617465D01*
X162982630Y-119496657D01*
X162944146Y-119430000D01*
X163992231Y-119430000D01*
X163981757Y-119363873D01*
X163981757Y-119363870D01*
X163916095Y-119161782D01*
X163819620Y-118972442D01*
X163694727Y-118800540D01*
X163694723Y-118800535D01*
X163544464Y-118650276D01*
X163544459Y-118650272D01*
X163372555Y-118525377D01*
X163363500Y-118520763D01*
X163312706Y-118472788D01*
X163295912Y-118404966D01*
X163318451Y-118338832D01*
X163363508Y-118299793D01*
X163372816Y-118295051D01*
X163466060Y-118227306D01*
X163544786Y-118170109D01*
X163544788Y-118170106D01*
X163544792Y-118170104D01*
X163695104Y-118019792D01*
X163695106Y-118019788D01*
X163695109Y-118019786D01*
X163820048Y-117847820D01*
X163820047Y-117847820D01*
X163820051Y-117847816D01*
X163916557Y-117658412D01*
X163982246Y-117456243D01*
X164015500Y-117246287D01*
X164015500Y-117033713D01*
X163982246Y-116823757D01*
X163916557Y-116621588D01*
X163820051Y-116432184D01*
X163820049Y-116432181D01*
X163820048Y-116432179D01*
X163695109Y-116260213D01*
X163544786Y-116109890D01*
X163372820Y-115984951D01*
X163372115Y-115984591D01*
X163364054Y-115980485D01*
X163313259Y-115932512D01*
X163296463Y-115864692D01*
X163318999Y-115798556D01*
X163364054Y-115759515D01*
X163372816Y-115755051D01*
X163394789Y-115739086D01*
X163544786Y-115630109D01*
X163544788Y-115630106D01*
X163544792Y-115630104D01*
X163695104Y-115479792D01*
X163695106Y-115479788D01*
X163695109Y-115479786D01*
X163820048Y-115307820D01*
X163820047Y-115307820D01*
X163820051Y-115307816D01*
X163916557Y-115118412D01*
X163982246Y-114916243D01*
X164015500Y-114706287D01*
X164015500Y-114493713D01*
X164011000Y-114465304D01*
X208395500Y-114465304D01*
X208395500Y-114642695D01*
X208430103Y-114816658D01*
X208430106Y-114816667D01*
X208497983Y-114980540D01*
X208497990Y-114980553D01*
X208596535Y-115128034D01*
X208596538Y-115128038D01*
X208634180Y-115165679D01*
X208667666Y-115227001D01*
X208670500Y-115253361D01*
X208670500Y-116394638D01*
X208650815Y-116461677D01*
X208634181Y-116482319D01*
X208596538Y-116519961D01*
X208596535Y-116519965D01*
X208497990Y-116667446D01*
X208497983Y-116667459D01*
X208430106Y-116831332D01*
X208430103Y-116831341D01*
X208395500Y-117005304D01*
X208395500Y-117182695D01*
X208430103Y-117356658D01*
X208430106Y-117356667D01*
X208497983Y-117520540D01*
X208497990Y-117520553D01*
X208596535Y-117668034D01*
X208596538Y-117668038D01*
X208634180Y-117705679D01*
X208667666Y-117767001D01*
X208670500Y-117793361D01*
X208670500Y-119188638D01*
X208650815Y-119255677D01*
X208634181Y-119276319D01*
X208596538Y-119313961D01*
X208596535Y-119313965D01*
X208497990Y-119461446D01*
X208497983Y-119461459D01*
X208430106Y-119625332D01*
X208430103Y-119625341D01*
X208395500Y-119799304D01*
X208395500Y-119976695D01*
X208430103Y-120150658D01*
X208430106Y-120150667D01*
X208497983Y-120314540D01*
X208497990Y-120314553D01*
X208596535Y-120462034D01*
X208596538Y-120462038D01*
X208721961Y-120587461D01*
X208721965Y-120587464D01*
X208869446Y-120686009D01*
X208869459Y-120686016D01*
X208992363Y-120736923D01*
X209033334Y-120753894D01*
X209033336Y-120753894D01*
X209033341Y-120753896D01*
X209207304Y-120788499D01*
X209207307Y-120788500D01*
X209207309Y-120788500D01*
X209384693Y-120788500D01*
X209384694Y-120788499D01*
X209442682Y-120776964D01*
X209558658Y-120753896D01*
X209558661Y-120753894D01*
X209558666Y-120753894D01*
X209722547Y-120686013D01*
X209870035Y-120587464D01*
X209995464Y-120462035D01*
X210094013Y-120314547D01*
X210161894Y-120150666D01*
X210196500Y-119976691D01*
X210196500Y-119799309D01*
X210196500Y-119799306D01*
X210196499Y-119799304D01*
X210161896Y-119625341D01*
X210161893Y-119625332D01*
X210158634Y-119617465D01*
X210097012Y-119468693D01*
X210094016Y-119461459D01*
X210094009Y-119461446D01*
X209995464Y-119313965D01*
X209995461Y-119313961D01*
X209957819Y-119276319D01*
X209924334Y-119214996D01*
X209921500Y-119188638D01*
X209921500Y-117793361D01*
X209941185Y-117726322D01*
X209957820Y-117705679D01*
X209995461Y-117668038D01*
X209995464Y-117668035D01*
X210094013Y-117520547D01*
X210098342Y-117510097D01*
X210138131Y-117414035D01*
X210161894Y-117356666D01*
X210196500Y-117182691D01*
X210196500Y-117005309D01*
X210196500Y-117005306D01*
X210196499Y-117005304D01*
X210161896Y-116831341D01*
X210161893Y-116831332D01*
X210158755Y-116823757D01*
X210110976Y-116708405D01*
X210094016Y-116667459D01*
X210094009Y-116667446D01*
X209995464Y-116519965D01*
X209995461Y-116519961D01*
X209957819Y-116482319D01*
X209924334Y-116420996D01*
X209921500Y-116394638D01*
X209921500Y-115253361D01*
X209941185Y-115186322D01*
X209957820Y-115165679D01*
X209995461Y-115128038D01*
X209995464Y-115128035D01*
X210094013Y-114980547D01*
X210161894Y-114816666D01*
X210196500Y-114642691D01*
X210196500Y-114465309D01*
X210196500Y-114465306D01*
X210196499Y-114465304D01*
X210161896Y-114291341D01*
X210161893Y-114291332D01*
X210161297Y-114289894D01*
X210110976Y-114168405D01*
X210094016Y-114127459D01*
X210094009Y-114127446D01*
X209995464Y-113979965D01*
X209995461Y-113979961D01*
X209870038Y-113854538D01*
X209870034Y-113854535D01*
X209722553Y-113755990D01*
X209722540Y-113755983D01*
X209558667Y-113688106D01*
X209558658Y-113688103D01*
X209384694Y-113653500D01*
X209384691Y-113653500D01*
X209207309Y-113653500D01*
X209207306Y-113653500D01*
X209033341Y-113688103D01*
X209033332Y-113688106D01*
X208869459Y-113755983D01*
X208869446Y-113755990D01*
X208721965Y-113854535D01*
X208721961Y-113854538D01*
X208596538Y-113979961D01*
X208596535Y-113979965D01*
X208497990Y-114127446D01*
X208497983Y-114127459D01*
X208430106Y-114291332D01*
X208430103Y-114291341D01*
X208395500Y-114465304D01*
X164011000Y-114465304D01*
X163982246Y-114283757D01*
X163916557Y-114081588D01*
X163820051Y-113892184D01*
X163820049Y-113892181D01*
X163820048Y-113892179D01*
X163695109Y-113720213D01*
X163544786Y-113569890D01*
X163372817Y-113444949D01*
X163363504Y-113440204D01*
X163312707Y-113392230D01*
X163295912Y-113324409D01*
X163318449Y-113258274D01*
X163363507Y-113219232D01*
X163372558Y-113214620D01*
X163544459Y-113089727D01*
X163544464Y-113089723D01*
X163694723Y-112939464D01*
X163694727Y-112939459D01*
X163819620Y-112767557D01*
X163916095Y-112578217D01*
X163981757Y-112376129D01*
X163981757Y-112376126D01*
X163992231Y-112310000D01*
X162944146Y-112310000D01*
X162982630Y-112243343D01*
X163015000Y-112122535D01*
X163015000Y-111997465D01*
X162982630Y-111876657D01*
X162944146Y-111810000D01*
X163992231Y-111810000D01*
X163981757Y-111743873D01*
X163981757Y-111743870D01*
X163916095Y-111541782D01*
X163819620Y-111352442D01*
X163694727Y-111180540D01*
X163694723Y-111180535D01*
X163544464Y-111030276D01*
X163544459Y-111030272D01*
X163372558Y-110905379D01*
X163362954Y-110900486D01*
X163312157Y-110852512D01*
X163295361Y-110784692D01*
X163317897Y-110718556D01*
X163362954Y-110679514D01*
X163372558Y-110674620D01*
X163544459Y-110549727D01*
X163544464Y-110549723D01*
X163694723Y-110399464D01*
X163694727Y-110399459D01*
X163819620Y-110227557D01*
X163916095Y-110038217D01*
X163981757Y-109836129D01*
X163981757Y-109836126D01*
X163992231Y-109770000D01*
X162944146Y-109770000D01*
X162982630Y-109703343D01*
X163015000Y-109582535D01*
X163015000Y-109457465D01*
X162982630Y-109336657D01*
X162944146Y-109270000D01*
X163992231Y-109270000D01*
X163981757Y-109203873D01*
X163981757Y-109203870D01*
X163916095Y-109001782D01*
X163819620Y-108812442D01*
X163694727Y-108640540D01*
X163694723Y-108640535D01*
X163544464Y-108490276D01*
X163544459Y-108490272D01*
X163372558Y-108365379D01*
X163362954Y-108360486D01*
X163312157Y-108312512D01*
X163295361Y-108244692D01*
X163317897Y-108178556D01*
X163362954Y-108139514D01*
X163372558Y-108134620D01*
X163544459Y-108009727D01*
X163544464Y-108009723D01*
X163694723Y-107859464D01*
X163694727Y-107859459D01*
X163819620Y-107687557D01*
X163916095Y-107498217D01*
X163981757Y-107296129D01*
X163981757Y-107296126D01*
X163992231Y-107230000D01*
X162944146Y-107230000D01*
X162982630Y-107163343D01*
X163015000Y-107042535D01*
X163015000Y-106917465D01*
X163003277Y-106873713D01*
X210984500Y-106873713D01*
X210984500Y-107086286D01*
X211011068Y-107254034D01*
X211017754Y-107296243D01*
X211028072Y-107327999D01*
X211083444Y-107498414D01*
X211179951Y-107687820D01*
X211304890Y-107859786D01*
X211455213Y-108010109D01*
X211627182Y-108135050D01*
X211635946Y-108139516D01*
X211686742Y-108187491D01*
X211703536Y-108255312D01*
X211680998Y-108321447D01*
X211635946Y-108360484D01*
X211627182Y-108364949D01*
X211455213Y-108489890D01*
X211304890Y-108640213D01*
X211179951Y-108812179D01*
X211083444Y-109001585D01*
X211017753Y-109203760D01*
X210984500Y-109413713D01*
X210984500Y-109626286D01*
X211017753Y-109836239D01*
X211083444Y-110038414D01*
X211179951Y-110227820D01*
X211304890Y-110399786D01*
X211455213Y-110550109D01*
X211627179Y-110675048D01*
X211627181Y-110675049D01*
X211627184Y-110675051D01*
X211636493Y-110679794D01*
X211687290Y-110727766D01*
X211704087Y-110795587D01*
X211681552Y-110861722D01*
X211636502Y-110900762D01*
X211627443Y-110905378D01*
X211455540Y-111030272D01*
X211455535Y-111030276D01*
X211305276Y-111180535D01*
X211305272Y-111180540D01*
X211180379Y-111352442D01*
X211083904Y-111541782D01*
X211018242Y-111743870D01*
X211018242Y-111743873D01*
X211007769Y-111810000D01*
X212055854Y-111810000D01*
X212017370Y-111876657D01*
X211985000Y-111997465D01*
X211985000Y-112122535D01*
X212017370Y-112243343D01*
X212055854Y-112310000D01*
X211007769Y-112310000D01*
X211018242Y-112376126D01*
X211018242Y-112376129D01*
X211083904Y-112578217D01*
X211180379Y-112767557D01*
X211305272Y-112939459D01*
X211305276Y-112939464D01*
X211455535Y-113089723D01*
X211455540Y-113089727D01*
X211627444Y-113214622D01*
X211636495Y-113219234D01*
X211687292Y-113267208D01*
X211704087Y-113335029D01*
X211681550Y-113401164D01*
X211636499Y-113440202D01*
X211627182Y-113444949D01*
X211455213Y-113569890D01*
X211304890Y-113720213D01*
X211179951Y-113892179D01*
X211083444Y-114081585D01*
X211083443Y-114081587D01*
X211083443Y-114081588D01*
X211068539Y-114127459D01*
X211017753Y-114283760D01*
X210984500Y-114493713D01*
X210984500Y-114706286D01*
X211011068Y-114874034D01*
X211017754Y-114916243D01*
X211062887Y-115055148D01*
X211083444Y-115118414D01*
X211179951Y-115307820D01*
X211304890Y-115479786D01*
X211455213Y-115630109D01*
X211627182Y-115755050D01*
X211635946Y-115759516D01*
X211686742Y-115807491D01*
X211703536Y-115875312D01*
X211680998Y-115941447D01*
X211635946Y-115980484D01*
X211627182Y-115984949D01*
X211455213Y-116109890D01*
X211304890Y-116260213D01*
X211179951Y-116432179D01*
X211083444Y-116621585D01*
X211083443Y-116621587D01*
X211083443Y-116621588D01*
X211068539Y-116667459D01*
X211017753Y-116823760D01*
X210984500Y-117033713D01*
X210984500Y-117246286D01*
X211011068Y-117414034D01*
X211017754Y-117456243D01*
X211069837Y-117616538D01*
X211083444Y-117658414D01*
X211179951Y-117847820D01*
X211304890Y-118019786D01*
X211455213Y-118170109D01*
X211627182Y-118295050D01*
X211635946Y-118299516D01*
X211686742Y-118347491D01*
X211703536Y-118415312D01*
X211680998Y-118481447D01*
X211635946Y-118520484D01*
X211627182Y-118524949D01*
X211455213Y-118649890D01*
X211304890Y-118800213D01*
X211179951Y-118972179D01*
X211083444Y-119161585D01*
X211083443Y-119161587D01*
X211083443Y-119161588D01*
X211074654Y-119188638D01*
X211017753Y-119363760D01*
X210984500Y-119573713D01*
X210984500Y-119786287D01*
X210987421Y-119804728D01*
X211014657Y-119976693D01*
X211017754Y-119996243D01*
X211067929Y-120150666D01*
X211083444Y-120198414D01*
X211179951Y-120387820D01*
X211304890Y-120559786D01*
X211455213Y-120710109D01*
X211627182Y-120835050D01*
X211635946Y-120839516D01*
X211686742Y-120887491D01*
X211703536Y-120955312D01*
X211680998Y-121021447D01*
X211635946Y-121060484D01*
X211627182Y-121064949D01*
X211455213Y-121189890D01*
X211304890Y-121340213D01*
X211179951Y-121512179D01*
X211083444Y-121701585D01*
X211017753Y-121903760D01*
X210984500Y-122113713D01*
X210984500Y-122326286D01*
X211017753Y-122536239D01*
X211017753Y-122536241D01*
X211017754Y-122536243D01*
X211044794Y-122619464D01*
X211083444Y-122738414D01*
X211179951Y-122927820D01*
X211304890Y-123099786D01*
X211455213Y-123250109D01*
X211627182Y-123375050D01*
X211635946Y-123379516D01*
X211686742Y-123427491D01*
X211703536Y-123495312D01*
X211680998Y-123561447D01*
X211635946Y-123600484D01*
X211627182Y-123604949D01*
X211455213Y-123729890D01*
X211304890Y-123880213D01*
X211179951Y-124052179D01*
X211083444Y-124241585D01*
X211017753Y-124443760D01*
X210984500Y-124653713D01*
X210984500Y-124866286D01*
X211011068Y-125034034D01*
X211017754Y-125076243D01*
X211044794Y-125159464D01*
X211083444Y-125278414D01*
X211179951Y-125467820D01*
X211304890Y-125639786D01*
X211455213Y-125790109D01*
X211627179Y-125915048D01*
X211627181Y-125915049D01*
X211627184Y-125915051D01*
X211816588Y-126011557D01*
X212018757Y-126077246D01*
X212228713Y-126110500D01*
X212228714Y-126110500D01*
X212691286Y-126110500D01*
X212691287Y-126110500D01*
X212901243Y-126077246D01*
X213103412Y-126011557D01*
X213292816Y-125915051D01*
X213314789Y-125899086D01*
X213464786Y-125790109D01*
X213464788Y-125790106D01*
X213464792Y-125790104D01*
X213615104Y-125639792D01*
X213615106Y-125639788D01*
X213615109Y-125639786D01*
X213740048Y-125467820D01*
X213740047Y-125467820D01*
X213740051Y-125467816D01*
X213836557Y-125278412D01*
X213902246Y-125076243D01*
X213935500Y-124866287D01*
X213935500Y-124653713D01*
X213902246Y-124443757D01*
X213836557Y-124241588D01*
X213740051Y-124052184D01*
X213740049Y-124052181D01*
X213740048Y-124052179D01*
X213615109Y-123880213D01*
X213464786Y-123729890D01*
X213292820Y-123604951D01*
X213292115Y-123604591D01*
X213284054Y-123600485D01*
X213233259Y-123552512D01*
X213216463Y-123484692D01*
X213238999Y-123418556D01*
X213284054Y-123379515D01*
X213292816Y-123375051D01*
X213318520Y-123356376D01*
X213464786Y-123250109D01*
X213464788Y-123250106D01*
X213464792Y-123250104D01*
X213615104Y-123099792D01*
X213615106Y-123099788D01*
X213615109Y-123099786D01*
X213740048Y-122927820D01*
X213740047Y-122927820D01*
X213740051Y-122927816D01*
X213836557Y-122738412D01*
X213902246Y-122536243D01*
X213935500Y-122326287D01*
X213935500Y-122113713D01*
X213902246Y-121903757D01*
X213836557Y-121701588D01*
X213740051Y-121512184D01*
X213740049Y-121512181D01*
X213740048Y-121512179D01*
X213615109Y-121340213D01*
X213464786Y-121189890D01*
X213292820Y-121064951D01*
X213289515Y-121063267D01*
X213284054Y-121060485D01*
X213233259Y-121012512D01*
X213216463Y-120944692D01*
X213238999Y-120878556D01*
X213284054Y-120839515D01*
X213292816Y-120835051D01*
X213314789Y-120819086D01*
X213464786Y-120710109D01*
X213464788Y-120710106D01*
X213464792Y-120710104D01*
X213615104Y-120559792D01*
X213615106Y-120559788D01*
X213615109Y-120559786D01*
X213740048Y-120387820D01*
X213740047Y-120387820D01*
X213740051Y-120387816D01*
X213836557Y-120198412D01*
X213902246Y-119996243D01*
X213935500Y-119786287D01*
X213935500Y-119573713D01*
X213902246Y-119363757D01*
X213836557Y-119161588D01*
X213740051Y-118972184D01*
X213740049Y-118972181D01*
X213740048Y-118972179D01*
X213615109Y-118800213D01*
X213464786Y-118649890D01*
X213292820Y-118524951D01*
X213284600Y-118520763D01*
X213284054Y-118520485D01*
X213233259Y-118472512D01*
X213216463Y-118404692D01*
X213238999Y-118338556D01*
X213284054Y-118299515D01*
X213292816Y-118295051D01*
X213386060Y-118227306D01*
X213464786Y-118170109D01*
X213464788Y-118170106D01*
X213464792Y-118170104D01*
X213615104Y-118019792D01*
X213615106Y-118019788D01*
X213615109Y-118019786D01*
X213740048Y-117847820D01*
X213740047Y-117847820D01*
X213740051Y-117847816D01*
X213836557Y-117658412D01*
X213902246Y-117456243D01*
X213935500Y-117246287D01*
X213935500Y-117033713D01*
X213902246Y-116823757D01*
X213836557Y-116621588D01*
X213740051Y-116432184D01*
X213740049Y-116432181D01*
X213740048Y-116432179D01*
X213615109Y-116260213D01*
X213464786Y-116109890D01*
X213292820Y-115984951D01*
X213292115Y-115984591D01*
X213284054Y-115980485D01*
X213233259Y-115932512D01*
X213216463Y-115864692D01*
X213238999Y-115798556D01*
X213284054Y-115759515D01*
X213292816Y-115755051D01*
X213314789Y-115739086D01*
X213464786Y-115630109D01*
X213464788Y-115630106D01*
X213464792Y-115630104D01*
X213615104Y-115479792D01*
X213615106Y-115479788D01*
X213615109Y-115479786D01*
X213740048Y-115307820D01*
X213740047Y-115307820D01*
X213740051Y-115307816D01*
X213836557Y-115118412D01*
X213857113Y-115055145D01*
X213896549Y-114997472D01*
X213960907Y-114970273D01*
X214029753Y-114982187D01*
X214053709Y-114997613D01*
X214055964Y-114999463D01*
X214203446Y-115098009D01*
X214203459Y-115098016D01*
X214326363Y-115148923D01*
X214367334Y-115165894D01*
X214367336Y-115165894D01*
X214367341Y-115165896D01*
X214541304Y-115200499D01*
X214541307Y-115200500D01*
X214541309Y-115200500D01*
X214718693Y-115200500D01*
X214718694Y-115200499D01*
X214789968Y-115186322D01*
X214892658Y-115165896D01*
X214892661Y-115165894D01*
X214892666Y-115165894D01*
X215056547Y-115098013D01*
X215204035Y-114999464D01*
X215329464Y-114874035D01*
X215428013Y-114726547D01*
X215428767Y-114724728D01*
X215443022Y-114690312D01*
X215495894Y-114562666D01*
X215509610Y-114493713D01*
X216064500Y-114493713D01*
X216064500Y-114706286D01*
X216091068Y-114874034D01*
X216097754Y-114916243D01*
X216142887Y-115055148D01*
X216163444Y-115118414D01*
X216259951Y-115307820D01*
X216384890Y-115479786D01*
X216535213Y-115630109D01*
X216707182Y-115755050D01*
X216715946Y-115759516D01*
X216766742Y-115807491D01*
X216783536Y-115875312D01*
X216760998Y-115941447D01*
X216715946Y-115980484D01*
X216707182Y-115984949D01*
X216535213Y-116109890D01*
X216384890Y-116260213D01*
X216259951Y-116432179D01*
X216163444Y-116621585D01*
X216163443Y-116621587D01*
X216163443Y-116621588D01*
X216148539Y-116667459D01*
X216097753Y-116823760D01*
X216064500Y-117033713D01*
X216064500Y-117246286D01*
X216091068Y-117414034D01*
X216097754Y-117456243D01*
X216149837Y-117616538D01*
X216163444Y-117658414D01*
X216259951Y-117847820D01*
X216384890Y-118019786D01*
X216535213Y-118170109D01*
X216707179Y-118295048D01*
X216707181Y-118295049D01*
X216707184Y-118295051D01*
X216716493Y-118299794D01*
X216767290Y-118347766D01*
X216784087Y-118415587D01*
X216761552Y-118481722D01*
X216716502Y-118520762D01*
X216707443Y-118525378D01*
X216535540Y-118650272D01*
X216535535Y-118650276D01*
X216385276Y-118800535D01*
X216385272Y-118800540D01*
X216260379Y-118972442D01*
X216163904Y-119161782D01*
X216098242Y-119363870D01*
X216098242Y-119363873D01*
X216087769Y-119430000D01*
X217135854Y-119430000D01*
X217097370Y-119496657D01*
X217065000Y-119617465D01*
X217065000Y-119742535D01*
X217097370Y-119863343D01*
X217135854Y-119930000D01*
X216087769Y-119930000D01*
X216098242Y-119996126D01*
X216098242Y-119996129D01*
X216163904Y-120198217D01*
X216260379Y-120387557D01*
X216385272Y-120559459D01*
X216385276Y-120559464D01*
X216535535Y-120709723D01*
X216535540Y-120709727D01*
X216707444Y-120834622D01*
X216716495Y-120839234D01*
X216767292Y-120887208D01*
X216784087Y-120955029D01*
X216761550Y-121021164D01*
X216716499Y-121060202D01*
X216707182Y-121064949D01*
X216535213Y-121189890D01*
X216384890Y-121340213D01*
X216259951Y-121512179D01*
X216163444Y-121701585D01*
X216097753Y-121903760D01*
X216064500Y-122113713D01*
X216064500Y-122326286D01*
X216097753Y-122536239D01*
X216097753Y-122536241D01*
X216097754Y-122536243D01*
X216124794Y-122619464D01*
X216163444Y-122738414D01*
X216259951Y-122927820D01*
X216384890Y-123099786D01*
X216535213Y-123250109D01*
X216707182Y-123375050D01*
X216715946Y-123379516D01*
X216766742Y-123427491D01*
X216783536Y-123495312D01*
X216760998Y-123561447D01*
X216715946Y-123600484D01*
X216707182Y-123604949D01*
X216535213Y-123729890D01*
X216384890Y-123880213D01*
X216259951Y-124052179D01*
X216163444Y-124241585D01*
X216097753Y-124443760D01*
X216064500Y-124653713D01*
X216064500Y-124866286D01*
X216091068Y-125034034D01*
X216097754Y-125076243D01*
X216124794Y-125159464D01*
X216163444Y-125278414D01*
X216259951Y-125467820D01*
X216384890Y-125639786D01*
X216535213Y-125790109D01*
X216707179Y-125915048D01*
X216707181Y-125915049D01*
X216707184Y-125915051D01*
X216896588Y-126011557D01*
X217098757Y-126077246D01*
X217308713Y-126110500D01*
X217308714Y-126110500D01*
X217771286Y-126110500D01*
X217771287Y-126110500D01*
X217981243Y-126077246D01*
X218183412Y-126011557D01*
X218372816Y-125915051D01*
X218394789Y-125899086D01*
X218544786Y-125790109D01*
X218544788Y-125790106D01*
X218544792Y-125790104D01*
X218695104Y-125639792D01*
X218695106Y-125639788D01*
X218695109Y-125639786D01*
X218820048Y-125467820D01*
X218820047Y-125467820D01*
X218820051Y-125467816D01*
X218916557Y-125278412D01*
X218982246Y-125076243D01*
X219015500Y-124866287D01*
X219015500Y-124653713D01*
X218982246Y-124443757D01*
X218916557Y-124241588D01*
X218820051Y-124052184D01*
X218820049Y-124052181D01*
X218820048Y-124052179D01*
X218695109Y-123880213D01*
X218544786Y-123729890D01*
X218372820Y-123604951D01*
X218372115Y-123604591D01*
X218364054Y-123600485D01*
X218313259Y-123552512D01*
X218296463Y-123484692D01*
X218318999Y-123418556D01*
X218364054Y-123379515D01*
X218372816Y-123375051D01*
X218398520Y-123356376D01*
X218544786Y-123250109D01*
X218544788Y-123250106D01*
X218544792Y-123250104D01*
X218695104Y-123099792D01*
X218695106Y-123099788D01*
X218695109Y-123099786D01*
X218820048Y-122927820D01*
X218820047Y-122927820D01*
X218820051Y-122927816D01*
X218916557Y-122738412D01*
X218982246Y-122536243D01*
X219003542Y-122401787D01*
X225608187Y-122401787D01*
X225608187Y-122579178D01*
X225642790Y-122753141D01*
X225642793Y-122753150D01*
X225710670Y-122917023D01*
X225710677Y-122917036D01*
X225809222Y-123064517D01*
X225809225Y-123064521D01*
X225934648Y-123189944D01*
X225934652Y-123189947D01*
X226082133Y-123288492D01*
X226082146Y-123288499D01*
X226205050Y-123339406D01*
X226246021Y-123356377D01*
X226246023Y-123356377D01*
X226246028Y-123356379D01*
X226419991Y-123390982D01*
X226419994Y-123390983D01*
X226419996Y-123390983D01*
X226597380Y-123390983D01*
X226597381Y-123390982D01*
X226677478Y-123375050D01*
X226771345Y-123356379D01*
X226771348Y-123356377D01*
X226771353Y-123356377D01*
X226935234Y-123288496D01*
X227082722Y-123189947D01*
X227208151Y-123064518D01*
X227306700Y-122917030D01*
X227315179Y-122896559D01*
X227359017Y-122842157D01*
X227412849Y-122822354D01*
X227412717Y-122821689D01*
X227416945Y-122820847D01*
X227417603Y-122820606D01*
X227418677Y-122820500D01*
X227418691Y-122820500D01*
X227418705Y-122820497D01*
X227418707Y-122820497D01*
X227592658Y-122785896D01*
X227592661Y-122785894D01*
X227592666Y-122785894D01*
X227756547Y-122718013D01*
X227904035Y-122619464D01*
X228029464Y-122494035D01*
X228128013Y-122346547D01*
X228195894Y-122182666D01*
X228230500Y-122008691D01*
X228230500Y-121831309D01*
X228230500Y-121831306D01*
X228230499Y-121831304D01*
X228195896Y-121657341D01*
X228195893Y-121657332D01*
X228188948Y-121640566D01*
X228178923Y-121616363D01*
X228128016Y-121493459D01*
X228128009Y-121493446D01*
X228029464Y-121345965D01*
X228029461Y-121345961D01*
X227991819Y-121308319D01*
X227958334Y-121246996D01*
X227955500Y-121220638D01*
X227955500Y-99209952D01*
X227975185Y-99142913D01*
X228025440Y-99099366D01*
X228025181Y-99098881D01*
X228027319Y-99097738D01*
X228027989Y-99097158D01*
X228030235Y-99096179D01*
X228030543Y-99096014D01*
X228030547Y-99096013D01*
X228178035Y-98997464D01*
X228303464Y-98872035D01*
X228402013Y-98724547D01*
X228469894Y-98560666D01*
X228473641Y-98541832D01*
X228504499Y-98386695D01*
X228504500Y-98386693D01*
X228504500Y-98209306D01*
X228504499Y-98209304D01*
X228469896Y-98035341D01*
X228469893Y-98035332D01*
X228402016Y-97871459D01*
X228402009Y-97871446D01*
X228303464Y-97723965D01*
X228303461Y-97723961D01*
X228178038Y-97598538D01*
X228178034Y-97598535D01*
X228030553Y-97499990D01*
X228030540Y-97499983D01*
X227866667Y-97432106D01*
X227866658Y-97432103D01*
X227692694Y-97397500D01*
X227692691Y-97397500D01*
X227610746Y-97397500D01*
X227543707Y-97377815D01*
X227497952Y-97325011D01*
X227489129Y-97297691D01*
X227470896Y-97206027D01*
X227470893Y-97206018D01*
X227403016Y-97042145D01*
X227403009Y-97042132D01*
X227304464Y-96894651D01*
X227304461Y-96894647D01*
X227179038Y-96769224D01*
X227179034Y-96769221D01*
X227031553Y-96670676D01*
X227031540Y-96670669D01*
X226867667Y-96602792D01*
X226867658Y-96602789D01*
X226693694Y-96568186D01*
X226693691Y-96568186D01*
X226516309Y-96568186D01*
X226516306Y-96568186D01*
X226342341Y-96602789D01*
X226342332Y-96602792D01*
X226178459Y-96670669D01*
X226178446Y-96670676D01*
X226030965Y-96769221D01*
X226030961Y-96769224D01*
X225905538Y-96894647D01*
X225905535Y-96894651D01*
X225806990Y-97042132D01*
X225806983Y-97042145D01*
X225739106Y-97206018D01*
X225739103Y-97206027D01*
X225704500Y-97379990D01*
X225704500Y-97557381D01*
X225739103Y-97731344D01*
X225739106Y-97731353D01*
X225806983Y-97895226D01*
X225806990Y-97895239D01*
X225905535Y-98042720D01*
X225905538Y-98042724D01*
X226030961Y-98168147D01*
X226030965Y-98168150D01*
X226178449Y-98266697D01*
X226183819Y-98269567D01*
X226183054Y-98270997D01*
X226231349Y-98309908D01*
X226253421Y-98376200D01*
X226253500Y-98380638D01*
X226253500Y-121033827D01*
X226244855Y-121063267D01*
X226238332Y-121093254D01*
X226234577Y-121098269D01*
X226233815Y-121100866D01*
X226217181Y-121121508D01*
X226109956Y-121228733D01*
X226109954Y-121228735D01*
X226066688Y-121272001D01*
X226022829Y-121315859D01*
X226009533Y-121335757D01*
X225996327Y-121355523D01*
X225954377Y-121418303D01*
X225954372Y-121418312D01*
X225907227Y-121532131D01*
X225907222Y-121532147D01*
X225887702Y-121630286D01*
X225887701Y-121630290D01*
X225885658Y-121640566D01*
X225883187Y-121652987D01*
X225883187Y-121792835D01*
X225883139Y-121794564D01*
X225872876Y-121826235D01*
X225863502Y-121858160D01*
X225861878Y-121860174D01*
X225861601Y-121861031D01*
X225860387Y-121862024D01*
X225846868Y-121878802D01*
X225809225Y-121916444D01*
X225809222Y-121916448D01*
X225710677Y-122063929D01*
X225710670Y-122063942D01*
X225642793Y-122227815D01*
X225642790Y-122227824D01*
X225608187Y-122401787D01*
X219003542Y-122401787D01*
X219015500Y-122326287D01*
X219015500Y-122113713D01*
X218982246Y-121903757D01*
X218916557Y-121701588D01*
X218820051Y-121512184D01*
X218820049Y-121512181D01*
X218820048Y-121512179D01*
X218695109Y-121340213D01*
X218544786Y-121189890D01*
X218372817Y-121064949D01*
X218363504Y-121060204D01*
X218312707Y-121012230D01*
X218295912Y-120944409D01*
X218318449Y-120878274D01*
X218363507Y-120839232D01*
X218372558Y-120834620D01*
X218544459Y-120709727D01*
X218544464Y-120709723D01*
X218694723Y-120559464D01*
X218694727Y-120559459D01*
X218819620Y-120387557D01*
X218916095Y-120198217D01*
X218981757Y-119996129D01*
X218981757Y-119996126D01*
X218992231Y-119930000D01*
X217944146Y-119930000D01*
X217982630Y-119863343D01*
X218015000Y-119742535D01*
X218015000Y-119617465D01*
X217982630Y-119496657D01*
X217944146Y-119430000D01*
X218992231Y-119430000D01*
X218981757Y-119363873D01*
X218981757Y-119363870D01*
X218916095Y-119161782D01*
X218819620Y-118972442D01*
X218694727Y-118800540D01*
X218694723Y-118800535D01*
X218544464Y-118650276D01*
X218544459Y-118650272D01*
X218372555Y-118525377D01*
X218363500Y-118520763D01*
X218312706Y-118472788D01*
X218295912Y-118404966D01*
X218318451Y-118338832D01*
X218363508Y-118299793D01*
X218372816Y-118295051D01*
X218466060Y-118227306D01*
X218544786Y-118170109D01*
X218544788Y-118170106D01*
X218544792Y-118170104D01*
X218695104Y-118019792D01*
X218695106Y-118019788D01*
X218695109Y-118019786D01*
X218820048Y-117847820D01*
X218820047Y-117847820D01*
X218820051Y-117847816D01*
X218916557Y-117658412D01*
X218982246Y-117456243D01*
X219015500Y-117246287D01*
X219015500Y-117033713D01*
X218982246Y-116823757D01*
X218916557Y-116621588D01*
X218820051Y-116432184D01*
X218820049Y-116432181D01*
X218820048Y-116432179D01*
X218695109Y-116260213D01*
X218544786Y-116109890D01*
X218372820Y-115984951D01*
X218372115Y-115984591D01*
X218364054Y-115980485D01*
X218313259Y-115932512D01*
X218296463Y-115864692D01*
X218318999Y-115798556D01*
X218364054Y-115759515D01*
X218372816Y-115755051D01*
X218394789Y-115739086D01*
X218544786Y-115630109D01*
X218544788Y-115630106D01*
X218544792Y-115630104D01*
X218695104Y-115479792D01*
X218695106Y-115479788D01*
X218695109Y-115479786D01*
X218820048Y-115307820D01*
X218820047Y-115307820D01*
X218820051Y-115307816D01*
X218916557Y-115118412D01*
X218982246Y-114916243D01*
X219015500Y-114706287D01*
X219015500Y-114493713D01*
X218982246Y-114283757D01*
X218916557Y-114081588D01*
X218820051Y-113892184D01*
X218820049Y-113892181D01*
X218820048Y-113892179D01*
X218695109Y-113720213D01*
X218544786Y-113569890D01*
X218372817Y-113444949D01*
X218363504Y-113440204D01*
X218312707Y-113392230D01*
X218295912Y-113324409D01*
X218318449Y-113258274D01*
X218363507Y-113219232D01*
X218372558Y-113214620D01*
X218544459Y-113089727D01*
X218544464Y-113089723D01*
X218694723Y-112939464D01*
X218694727Y-112939459D01*
X218819620Y-112767557D01*
X218916095Y-112578217D01*
X218981757Y-112376129D01*
X218981757Y-112376126D01*
X218992231Y-112310000D01*
X217944146Y-112310000D01*
X217982630Y-112243343D01*
X218015000Y-112122535D01*
X218015000Y-111997465D01*
X217982630Y-111876657D01*
X217944146Y-111810000D01*
X218992231Y-111810000D01*
X218981757Y-111743873D01*
X218981757Y-111743870D01*
X218916095Y-111541782D01*
X218819620Y-111352442D01*
X218694727Y-111180540D01*
X218694723Y-111180535D01*
X218544464Y-111030276D01*
X218544459Y-111030272D01*
X218372558Y-110905379D01*
X218362954Y-110900486D01*
X218312157Y-110852512D01*
X218295361Y-110784692D01*
X218317897Y-110718556D01*
X218362954Y-110679514D01*
X218372558Y-110674620D01*
X218544459Y-110549727D01*
X218544464Y-110549723D01*
X218694723Y-110399464D01*
X218694727Y-110399459D01*
X218819620Y-110227557D01*
X218916095Y-110038217D01*
X218981757Y-109836129D01*
X218981757Y-109836126D01*
X218992231Y-109770000D01*
X217944146Y-109770000D01*
X217982630Y-109703343D01*
X218015000Y-109582535D01*
X218015000Y-109457465D01*
X217982630Y-109336657D01*
X217944146Y-109270000D01*
X218992231Y-109270000D01*
X218981757Y-109203873D01*
X218981757Y-109203870D01*
X218916095Y-109001782D01*
X218819620Y-108812442D01*
X218694727Y-108640540D01*
X218694723Y-108640535D01*
X218544464Y-108490276D01*
X218544459Y-108490272D01*
X218372558Y-108365379D01*
X218362954Y-108360486D01*
X218312157Y-108312512D01*
X218295361Y-108244692D01*
X218317897Y-108178556D01*
X218362954Y-108139514D01*
X218372558Y-108134620D01*
X218544459Y-108009727D01*
X218544464Y-108009723D01*
X218694723Y-107859464D01*
X218694727Y-107859459D01*
X218819620Y-107687557D01*
X218916095Y-107498217D01*
X218981757Y-107296129D01*
X218981757Y-107296126D01*
X218992231Y-107230000D01*
X217944146Y-107230000D01*
X217982630Y-107163343D01*
X218015000Y-107042535D01*
X218015000Y-106917465D01*
X217982630Y-106796657D01*
X217944146Y-106730000D01*
X218992231Y-106730000D01*
X218981757Y-106663873D01*
X218981757Y-106663870D01*
X218916095Y-106461782D01*
X218819620Y-106272442D01*
X218694727Y-106100540D01*
X218694723Y-106100535D01*
X218544464Y-105950276D01*
X218544459Y-105950272D01*
X218372557Y-105825379D01*
X218183217Y-105728904D01*
X217981128Y-105663242D01*
X217790000Y-105632969D01*
X217790000Y-106575854D01*
X217723343Y-106537370D01*
X217602535Y-106505000D01*
X217477465Y-106505000D01*
X217356657Y-106537370D01*
X217290000Y-106575854D01*
X217290000Y-105632969D01*
X217098872Y-105663242D01*
X217098869Y-105663242D01*
X216896782Y-105728904D01*
X216707442Y-105825379D01*
X216535540Y-105950272D01*
X216535535Y-105950276D01*
X216385276Y-106100535D01*
X216385272Y-106100540D01*
X216260379Y-106272442D01*
X216163904Y-106461782D01*
X216098242Y-106663870D01*
X216098242Y-106663873D01*
X216087769Y-106730000D01*
X217135854Y-106730000D01*
X217097370Y-106796657D01*
X217065000Y-106917465D01*
X217065000Y-107042535D01*
X217097370Y-107163343D01*
X217135854Y-107230000D01*
X216087769Y-107230000D01*
X216098242Y-107296126D01*
X216098242Y-107296129D01*
X216163904Y-107498217D01*
X216260379Y-107687557D01*
X216385272Y-107859459D01*
X216385276Y-107859464D01*
X216535535Y-108009723D01*
X216535540Y-108009727D01*
X216707444Y-108134622D01*
X216717048Y-108139516D01*
X216767844Y-108187491D01*
X216784638Y-108255312D01*
X216762100Y-108321447D01*
X216717048Y-108360484D01*
X216707444Y-108365377D01*
X216535540Y-108490272D01*
X216535535Y-108490276D01*
X216385276Y-108640535D01*
X216385272Y-108640540D01*
X216260379Y-108812442D01*
X216163904Y-109001782D01*
X216098242Y-109203870D01*
X216098242Y-109203873D01*
X216087769Y-109270000D01*
X217135854Y-109270000D01*
X217097370Y-109336657D01*
X217065000Y-109457465D01*
X217065000Y-109582535D01*
X217097370Y-109703343D01*
X217135854Y-109770000D01*
X216087769Y-109770000D01*
X216098242Y-109836126D01*
X216098242Y-109836129D01*
X216163904Y-110038217D01*
X216260379Y-110227557D01*
X216385272Y-110399459D01*
X216385276Y-110399464D01*
X216535535Y-110549723D01*
X216535540Y-110549727D01*
X216707444Y-110674622D01*
X216717048Y-110679516D01*
X216767844Y-110727491D01*
X216784638Y-110795312D01*
X216762100Y-110861447D01*
X216717048Y-110900484D01*
X216707444Y-110905377D01*
X216535540Y-111030272D01*
X216535535Y-111030276D01*
X216385276Y-111180535D01*
X216385272Y-111180540D01*
X216260379Y-111352442D01*
X216163904Y-111541782D01*
X216098242Y-111743870D01*
X216098242Y-111743873D01*
X216087769Y-111810000D01*
X217135854Y-111810000D01*
X217097370Y-111876657D01*
X217065000Y-111997465D01*
X217065000Y-112122535D01*
X217097370Y-112243343D01*
X217135854Y-112310000D01*
X216087769Y-112310000D01*
X216098242Y-112376126D01*
X216098242Y-112376129D01*
X216163904Y-112578217D01*
X216260379Y-112767557D01*
X216385272Y-112939459D01*
X216385276Y-112939464D01*
X216535535Y-113089723D01*
X216535540Y-113089727D01*
X216707444Y-113214622D01*
X216716495Y-113219234D01*
X216767292Y-113267208D01*
X216784087Y-113335029D01*
X216761550Y-113401164D01*
X216716499Y-113440202D01*
X216707182Y-113444949D01*
X216535213Y-113569890D01*
X216384890Y-113720213D01*
X216259951Y-113892179D01*
X216163444Y-114081585D01*
X216163443Y-114081587D01*
X216163443Y-114081588D01*
X216148539Y-114127459D01*
X216097753Y-114283760D01*
X216064500Y-114493713D01*
X215509610Y-114493713D01*
X215512614Y-114478612D01*
X215515391Y-114464650D01*
X215515391Y-114464649D01*
X215530500Y-114388693D01*
X215530500Y-114211306D01*
X215511883Y-114117715D01*
X215509500Y-114093523D01*
X215509500Y-102553361D01*
X215529185Y-102486322D01*
X215545820Y-102465679D01*
X215583461Y-102428038D01*
X215583464Y-102428035D01*
X215682013Y-102280547D01*
X215749894Y-102116666D01*
X215784500Y-101942691D01*
X215784500Y-101765309D01*
X215784500Y-101765306D01*
X215784499Y-101765304D01*
X215749896Y-101591341D01*
X215749893Y-101591332D01*
X215682016Y-101427459D01*
X215682009Y-101427446D01*
X215583464Y-101279965D01*
X215583461Y-101279961D01*
X215458038Y-101154538D01*
X215458034Y-101154535D01*
X215310553Y-101055990D01*
X215310540Y-101055983D01*
X215146667Y-100988106D01*
X215146658Y-100988103D01*
X214972694Y-100953500D01*
X214972691Y-100953500D01*
X214795309Y-100953500D01*
X214795306Y-100953500D01*
X214621341Y-100988103D01*
X214621332Y-100988106D01*
X214457459Y-101055983D01*
X214457446Y-101055990D01*
X214309965Y-101154535D01*
X214309961Y-101154538D01*
X214184538Y-101279961D01*
X214184535Y-101279965D01*
X214085990Y-101427446D01*
X214085983Y-101427459D01*
X214018106Y-101591332D01*
X214018103Y-101591341D01*
X213983500Y-101765304D01*
X213983500Y-101942695D01*
X214018103Y-102116658D01*
X214018106Y-102116667D01*
X214085983Y-102280540D01*
X214085990Y-102280553D01*
X214184535Y-102428034D01*
X214184538Y-102428038D01*
X214222180Y-102465679D01*
X214255666Y-102527001D01*
X214258500Y-102553361D01*
X214258500Y-113398925D01*
X214238815Y-113465964D01*
X214203392Y-113502027D01*
X214055961Y-113600538D01*
X213930538Y-113725961D01*
X213880267Y-113801197D01*
X213826654Y-113846001D01*
X213757329Y-113854708D01*
X213694302Y-113824553D01*
X213676849Y-113805193D01*
X213615104Y-113720208D01*
X213464792Y-113569896D01*
X213464786Y-113569890D01*
X213292817Y-113444949D01*
X213283504Y-113440204D01*
X213232707Y-113392230D01*
X213215912Y-113324409D01*
X213238449Y-113258274D01*
X213283507Y-113219232D01*
X213292558Y-113214620D01*
X213464459Y-113089727D01*
X213464464Y-113089723D01*
X213614723Y-112939464D01*
X213614727Y-112939459D01*
X213739620Y-112767557D01*
X213836095Y-112578217D01*
X213901757Y-112376129D01*
X213901757Y-112376126D01*
X213912231Y-112310000D01*
X212864146Y-112310000D01*
X212902630Y-112243343D01*
X212935000Y-112122535D01*
X212935000Y-111997465D01*
X212902630Y-111876657D01*
X212864146Y-111810000D01*
X213912231Y-111810000D01*
X213901757Y-111743873D01*
X213901757Y-111743870D01*
X213836095Y-111541782D01*
X213739620Y-111352442D01*
X213614727Y-111180540D01*
X213614723Y-111180535D01*
X213464464Y-111030276D01*
X213464459Y-111030272D01*
X213292555Y-110905377D01*
X213283500Y-110900763D01*
X213232706Y-110852788D01*
X213215912Y-110784966D01*
X213238451Y-110718832D01*
X213283508Y-110679793D01*
X213292816Y-110675051D01*
X213372007Y-110617515D01*
X213464786Y-110550109D01*
X213464788Y-110550106D01*
X213464792Y-110550104D01*
X213615104Y-110399792D01*
X213615106Y-110399788D01*
X213615109Y-110399786D01*
X213740048Y-110227820D01*
X213740047Y-110227820D01*
X213740051Y-110227816D01*
X213836557Y-110038412D01*
X213902246Y-109836243D01*
X213935500Y-109626287D01*
X213935500Y-109413713D01*
X213902246Y-109203757D01*
X213836557Y-109001588D01*
X213740051Y-108812184D01*
X213740049Y-108812181D01*
X213740048Y-108812179D01*
X213615109Y-108640213D01*
X213464786Y-108489890D01*
X213292820Y-108364951D01*
X213292115Y-108364591D01*
X213284054Y-108360485D01*
X213233259Y-108312512D01*
X213216463Y-108244692D01*
X213238999Y-108178556D01*
X213284054Y-108139515D01*
X213292816Y-108135051D01*
X213314789Y-108119086D01*
X213464786Y-108010109D01*
X213464788Y-108010106D01*
X213464792Y-108010104D01*
X213615104Y-107859792D01*
X213615106Y-107859788D01*
X213615109Y-107859786D01*
X213740048Y-107687820D01*
X213740047Y-107687820D01*
X213740051Y-107687816D01*
X213836557Y-107498412D01*
X213902246Y-107296243D01*
X213935500Y-107086287D01*
X213935500Y-106873713D01*
X213902246Y-106663757D01*
X213836557Y-106461588D01*
X213740051Y-106272184D01*
X213740049Y-106272181D01*
X213740048Y-106272179D01*
X213615109Y-106100213D01*
X213464786Y-105949890D01*
X213292820Y-105824951D01*
X213103414Y-105728444D01*
X213103413Y-105728443D01*
X213103412Y-105728443D01*
X212901243Y-105662754D01*
X212901241Y-105662753D01*
X212901240Y-105662753D01*
X212713189Y-105632969D01*
X212691287Y-105629500D01*
X212228713Y-105629500D01*
X212206811Y-105632969D01*
X212018760Y-105662753D01*
X211816585Y-105728444D01*
X211627179Y-105824951D01*
X211455213Y-105949890D01*
X211304890Y-106100213D01*
X211179951Y-106272179D01*
X211083444Y-106461585D01*
X211017753Y-106663760D01*
X210984500Y-106873713D01*
X163003277Y-106873713D01*
X162982630Y-106796657D01*
X162944146Y-106730000D01*
X163992231Y-106730000D01*
X163981757Y-106663873D01*
X163981757Y-106663870D01*
X163916095Y-106461782D01*
X163819620Y-106272442D01*
X163694727Y-106100540D01*
X163694723Y-106100535D01*
X163544464Y-105950276D01*
X163544459Y-105950272D01*
X163372557Y-105825379D01*
X163183217Y-105728904D01*
X162981128Y-105663242D01*
X162790000Y-105632969D01*
X162790000Y-106575854D01*
X162723343Y-106537370D01*
X162602535Y-106505000D01*
X162477465Y-106505000D01*
X162356657Y-106537370D01*
X162290000Y-106575854D01*
X162290000Y-105632969D01*
X162098872Y-105663242D01*
X162098869Y-105663242D01*
X161896782Y-105728904D01*
X161707442Y-105825379D01*
X161535540Y-105950272D01*
X161535535Y-105950276D01*
X161385276Y-106100535D01*
X161385272Y-106100540D01*
X161260379Y-106272442D01*
X161163904Y-106461782D01*
X161098242Y-106663870D01*
X161098242Y-106663873D01*
X161087769Y-106730000D01*
X162135854Y-106730000D01*
X162097370Y-106796657D01*
X162065000Y-106917465D01*
X162065000Y-107042535D01*
X162097370Y-107163343D01*
X162135854Y-107230000D01*
X161087769Y-107230000D01*
X161098242Y-107296126D01*
X161098242Y-107296129D01*
X161163904Y-107498217D01*
X161260379Y-107687557D01*
X161385272Y-107859459D01*
X161385276Y-107859464D01*
X161535535Y-108009723D01*
X161535540Y-108009727D01*
X161707444Y-108134622D01*
X161717048Y-108139516D01*
X161767844Y-108187491D01*
X161784638Y-108255312D01*
X161762100Y-108321447D01*
X161717048Y-108360484D01*
X161707444Y-108365377D01*
X161535540Y-108490272D01*
X161535535Y-108490276D01*
X161385276Y-108640535D01*
X161385272Y-108640540D01*
X161260379Y-108812442D01*
X161163904Y-109001782D01*
X161098242Y-109203870D01*
X161098242Y-109203873D01*
X161087769Y-109270000D01*
X162135854Y-109270000D01*
X162097370Y-109336657D01*
X162065000Y-109457465D01*
X162065000Y-109582535D01*
X162097370Y-109703343D01*
X162135854Y-109770000D01*
X161087769Y-109770000D01*
X161098242Y-109836126D01*
X161098242Y-109836129D01*
X161163904Y-110038217D01*
X161260379Y-110227557D01*
X161385272Y-110399459D01*
X161385276Y-110399464D01*
X161535535Y-110549723D01*
X161535540Y-110549727D01*
X161707444Y-110674622D01*
X161717048Y-110679516D01*
X161767844Y-110727491D01*
X161784638Y-110795312D01*
X161762100Y-110861447D01*
X161717048Y-110900484D01*
X161707444Y-110905377D01*
X161535540Y-111030272D01*
X161535535Y-111030276D01*
X161385276Y-111180535D01*
X161385272Y-111180540D01*
X161260379Y-111352442D01*
X161163904Y-111541782D01*
X161098242Y-111743870D01*
X161098242Y-111743873D01*
X161087769Y-111810000D01*
X162135854Y-111810000D01*
X162097370Y-111876657D01*
X162065000Y-111997465D01*
X162065000Y-112122535D01*
X162097370Y-112243343D01*
X162135854Y-112310000D01*
X161087769Y-112310000D01*
X161098242Y-112376126D01*
X161098242Y-112376129D01*
X161163904Y-112578217D01*
X161260379Y-112767557D01*
X161385272Y-112939459D01*
X161385276Y-112939464D01*
X161535535Y-113089723D01*
X161535540Y-113089727D01*
X161707444Y-113214622D01*
X161716495Y-113219234D01*
X161767292Y-113267208D01*
X161784087Y-113335029D01*
X161761550Y-113401164D01*
X161716499Y-113440202D01*
X161707182Y-113444949D01*
X161535213Y-113569890D01*
X161384890Y-113720213D01*
X161259951Y-113892179D01*
X161163444Y-114081585D01*
X161163443Y-114081587D01*
X161163443Y-114081588D01*
X161148539Y-114127459D01*
X161097753Y-114283760D01*
X161064500Y-114493713D01*
X158935500Y-114493713D01*
X158902246Y-114283757D01*
X158836557Y-114081588D01*
X158740051Y-113892184D01*
X158740049Y-113892181D01*
X158740048Y-113892179D01*
X158615109Y-113720213D01*
X158464786Y-113569890D01*
X158292817Y-113444949D01*
X158283504Y-113440204D01*
X158232707Y-113392230D01*
X158215912Y-113324409D01*
X158238449Y-113258274D01*
X158283507Y-113219232D01*
X158292558Y-113214620D01*
X158464459Y-113089727D01*
X158464464Y-113089723D01*
X158614723Y-112939464D01*
X158614727Y-112939459D01*
X158739620Y-112767557D01*
X158836095Y-112578217D01*
X158901757Y-112376129D01*
X158901757Y-112376126D01*
X158912231Y-112310000D01*
X157864146Y-112310000D01*
X157902630Y-112243343D01*
X157935000Y-112122535D01*
X157935000Y-111997465D01*
X157902630Y-111876657D01*
X157864146Y-111810000D01*
X158912231Y-111810000D01*
X158901757Y-111743873D01*
X158901757Y-111743870D01*
X158836095Y-111541782D01*
X158739620Y-111352442D01*
X158614727Y-111180540D01*
X158614723Y-111180535D01*
X158464464Y-111030276D01*
X158464459Y-111030272D01*
X158292555Y-110905377D01*
X158283500Y-110900763D01*
X158232706Y-110852788D01*
X158215912Y-110784966D01*
X158238451Y-110718832D01*
X158283508Y-110679793D01*
X158292816Y-110675051D01*
X158372007Y-110617515D01*
X158464786Y-110550109D01*
X158464788Y-110550106D01*
X158464792Y-110550104D01*
X158615104Y-110399792D01*
X158615106Y-110399788D01*
X158615109Y-110399786D01*
X158740048Y-110227820D01*
X158740047Y-110227820D01*
X158740051Y-110227816D01*
X158836557Y-110038412D01*
X158902246Y-109836243D01*
X158923296Y-109703343D01*
X158935500Y-109626287D01*
X158935500Y-109413713D01*
X158902264Y-109203873D01*
X158902246Y-109203757D01*
X158836557Y-109001588D01*
X158740051Y-108812184D01*
X158740049Y-108812181D01*
X158740048Y-108812179D01*
X158615109Y-108640213D01*
X158464786Y-108489890D01*
X158292820Y-108364951D01*
X158292115Y-108364591D01*
X158284054Y-108360485D01*
X158233259Y-108312512D01*
X158216463Y-108244692D01*
X158238999Y-108178556D01*
X158284054Y-108139515D01*
X158292816Y-108135051D01*
X158314789Y-108119086D01*
X158464786Y-108010109D01*
X158464788Y-108010106D01*
X158464792Y-108010104D01*
X158615104Y-107859792D01*
X158615106Y-107859788D01*
X158615109Y-107859786D01*
X158740048Y-107687820D01*
X158740047Y-107687820D01*
X158740051Y-107687816D01*
X158836557Y-107498412D01*
X158902246Y-107296243D01*
X158923296Y-107163343D01*
X158935500Y-107086287D01*
X158935500Y-106878136D01*
X158935500Y-106873713D01*
X158902246Y-106663757D01*
X158836557Y-106461588D01*
X158740051Y-106272184D01*
X158740049Y-106272181D01*
X158740048Y-106272179D01*
X158615109Y-106100213D01*
X158464786Y-105949890D01*
X158292820Y-105824951D01*
X158103414Y-105728444D01*
X158103413Y-105728443D01*
X158103412Y-105728443D01*
X157901243Y-105662754D01*
X157901241Y-105662753D01*
X157901240Y-105662753D01*
X157713189Y-105632969D01*
X157691287Y-105629500D01*
X157228713Y-105629500D01*
X157206811Y-105632969D01*
X157018760Y-105662753D01*
X156816585Y-105728444D01*
X156627179Y-105824951D01*
X156455213Y-105949890D01*
X156304890Y-106100213D01*
X156179951Y-106272179D01*
X156083444Y-106461585D01*
X156017753Y-106663760D01*
X155984500Y-106873713D01*
X155984500Y-107086286D01*
X156011068Y-107254034D01*
X156017754Y-107296243D01*
X156028072Y-107327999D01*
X156083444Y-107498414D01*
X156179951Y-107687820D01*
X156304890Y-107859786D01*
X156455213Y-108010109D01*
X156627182Y-108135050D01*
X156635946Y-108139516D01*
X156686742Y-108187491D01*
X156703536Y-108255312D01*
X156680998Y-108321447D01*
X156635946Y-108360484D01*
X156627182Y-108364949D01*
X156455213Y-108489890D01*
X156304890Y-108640213D01*
X156179951Y-108812179D01*
X156083444Y-109001585D01*
X156017753Y-109203760D01*
X155984500Y-109413713D01*
X155984500Y-109626286D01*
X156017753Y-109836239D01*
X156083444Y-110038414D01*
X156179951Y-110227820D01*
X156304890Y-110399786D01*
X156455213Y-110550109D01*
X156627179Y-110675048D01*
X156627181Y-110675049D01*
X156627184Y-110675051D01*
X156636493Y-110679794D01*
X156687290Y-110727766D01*
X156704087Y-110795587D01*
X156681552Y-110861722D01*
X156636502Y-110900762D01*
X156627443Y-110905378D01*
X156455540Y-111030272D01*
X156455535Y-111030276D01*
X156305276Y-111180535D01*
X156305272Y-111180540D01*
X156180379Y-111352442D01*
X156083904Y-111541782D01*
X156018242Y-111743870D01*
X156018242Y-111743873D01*
X156007769Y-111810000D01*
X157055854Y-111810000D01*
X157017370Y-111876657D01*
X156985000Y-111997465D01*
X156985000Y-112122535D01*
X157017370Y-112243343D01*
X157055854Y-112310000D01*
X156007769Y-112310000D01*
X156018242Y-112376126D01*
X156018242Y-112376129D01*
X156083904Y-112578217D01*
X156180379Y-112767557D01*
X156305272Y-112939459D01*
X156305276Y-112939464D01*
X156455535Y-113089723D01*
X156455540Y-113089727D01*
X156627444Y-113214622D01*
X156636495Y-113219234D01*
X156687292Y-113267208D01*
X156704087Y-113335029D01*
X156681550Y-113401164D01*
X156636499Y-113440202D01*
X156627182Y-113444949D01*
X156455213Y-113569890D01*
X156304890Y-113720213D01*
X156179951Y-113892179D01*
X156083444Y-114081583D01*
X156063589Y-114142692D01*
X156024151Y-114200367D01*
X155959792Y-114227565D01*
X155890945Y-114215650D01*
X155839470Y-114168405D01*
X155824041Y-114128564D01*
X155805896Y-114037341D01*
X155805893Y-114037332D01*
X155738016Y-113873459D01*
X155738009Y-113873446D01*
X155639464Y-113725965D01*
X155639461Y-113725961D01*
X155514038Y-113600538D01*
X155514034Y-113600535D01*
X155366553Y-113501990D01*
X155366540Y-113501983D01*
X155202667Y-113434106D01*
X155202658Y-113434103D01*
X155028694Y-113399500D01*
X155028691Y-113399500D01*
X154851309Y-113399500D01*
X154851306Y-113399500D01*
X154677341Y-113434103D01*
X154677332Y-113434106D01*
X154513459Y-113501983D01*
X154513446Y-113501990D01*
X154365965Y-113600535D01*
X154365961Y-113600538D01*
X154240538Y-113725961D01*
X154240535Y-113725965D01*
X154141990Y-113873446D01*
X154141983Y-113873459D01*
X154074106Y-114037332D01*
X154074103Y-114037341D01*
X154039500Y-114211304D01*
X146675500Y-114211304D01*
X146675500Y-97118799D01*
X172460000Y-97118799D01*
X172460000Y-97750000D01*
X173345879Y-97750000D01*
X173326901Y-97795818D01*
X173300000Y-97931056D01*
X173300000Y-98068944D01*
X173326901Y-98204182D01*
X173345879Y-98250000D01*
X172460000Y-98250000D01*
X172460000Y-98881200D01*
X172497920Y-99120618D01*
X172572827Y-99351159D01*
X172682874Y-99567136D01*
X172825356Y-99763245D01*
X172996754Y-99934643D01*
X173192863Y-100077125D01*
X173408840Y-100187172D01*
X173639381Y-100262080D01*
X173750000Y-100279600D01*
X173750000Y-98654120D01*
X173795818Y-98673099D01*
X173931056Y-98700000D01*
X174068944Y-98700000D01*
X174204182Y-98673099D01*
X174250000Y-98654120D01*
X174250000Y-100279599D01*
X174360618Y-100262080D01*
X174591159Y-100187172D01*
X174807136Y-100077125D01*
X175003245Y-99934643D01*
X175174643Y-99763245D01*
X175317125Y-99567136D01*
X175427172Y-99351159D01*
X175502079Y-99120618D01*
X175540000Y-98881200D01*
X175540000Y-98250000D01*
X174654121Y-98250000D01*
X174673099Y-98204182D01*
X174700000Y-98068944D01*
X174700000Y-97931056D01*
X174673099Y-97795818D01*
X174654121Y-97750000D01*
X175540000Y-97750000D01*
X175540000Y-97118799D01*
X175539993Y-97118754D01*
X177539500Y-97118754D01*
X177539500Y-98881245D01*
X177577432Y-99120736D01*
X177652360Y-99351344D01*
X177652362Y-99351347D01*
X177748674Y-99540370D01*
X177762448Y-99567401D01*
X177904966Y-99763562D01*
X177904970Y-99763567D01*
X178076432Y-99935029D01*
X178076437Y-99935033D01*
X178191537Y-100018657D01*
X178272602Y-100077554D01*
X178449568Y-100167723D01*
X178488655Y-100187639D01*
X178562087Y-100211498D01*
X178719265Y-100262568D01*
X178822767Y-100278961D01*
X178958755Y-100300500D01*
X178958760Y-100300500D01*
X179201245Y-100300500D01*
X179333198Y-100279600D01*
X179440735Y-100262568D01*
X179671347Y-100187638D01*
X179887398Y-100077554D01*
X180083569Y-99935028D01*
X180255028Y-99763569D01*
X180397554Y-99567398D01*
X180507638Y-99351347D01*
X180582568Y-99120735D01*
X180606235Y-98971306D01*
X180620500Y-98881245D01*
X180620500Y-97118754D01*
X180592830Y-96944059D01*
X180582568Y-96879265D01*
X180514793Y-96670673D01*
X180507639Y-96648655D01*
X180505480Y-96644418D01*
X180397554Y-96432602D01*
X180397553Y-96432600D01*
X180373855Y-96399982D01*
X182619500Y-96399982D01*
X182619500Y-99600017D01*
X182630000Y-99702796D01*
X182680944Y-99856533D01*
X182685186Y-99869335D01*
X182777288Y-100018656D01*
X182901344Y-100142712D01*
X183050665Y-100234814D01*
X183217202Y-100289999D01*
X183319990Y-100300500D01*
X183319995Y-100300500D01*
X185000005Y-100300500D01*
X185000010Y-100300500D01*
X185102798Y-100289999D01*
X185269335Y-100234814D01*
X185418656Y-100142712D01*
X185542712Y-100018656D01*
X185634814Y-99869335D01*
X185689999Y-99702798D01*
X185700500Y-99600010D01*
X185700500Y-97118799D01*
X191460000Y-97118799D01*
X191460000Y-97750000D01*
X192345879Y-97750000D01*
X192326901Y-97795818D01*
X192300000Y-97931056D01*
X192300000Y-98068944D01*
X192326901Y-98204182D01*
X192345879Y-98250000D01*
X191460000Y-98250000D01*
X191460000Y-98881200D01*
X191497920Y-99120618D01*
X191572827Y-99351159D01*
X191682874Y-99567136D01*
X191825356Y-99763245D01*
X191996754Y-99934643D01*
X192192863Y-100077125D01*
X192408840Y-100187172D01*
X192639381Y-100262080D01*
X192750000Y-100279600D01*
X192750000Y-98654120D01*
X192795818Y-98673099D01*
X192931056Y-98700000D01*
X193068944Y-98700000D01*
X193204182Y-98673099D01*
X193250000Y-98654120D01*
X193250000Y-100279599D01*
X193360618Y-100262080D01*
X193591159Y-100187172D01*
X193807136Y-100077125D01*
X194003245Y-99934643D01*
X194174643Y-99763245D01*
X194317125Y-99567136D01*
X194427172Y-99351159D01*
X194502079Y-99120618D01*
X194540000Y-98881200D01*
X194540000Y-98250000D01*
X193654121Y-98250000D01*
X193673099Y-98204182D01*
X193700000Y-98068944D01*
X193700000Y-97931056D01*
X193673099Y-97795818D01*
X193654121Y-97750000D01*
X194540000Y-97750000D01*
X194540000Y-97118799D01*
X194539993Y-97118754D01*
X196539500Y-97118754D01*
X196539500Y-98881245D01*
X196577432Y-99120736D01*
X196652360Y-99351344D01*
X196652362Y-99351347D01*
X196748674Y-99540370D01*
X196762448Y-99567401D01*
X196904966Y-99763562D01*
X196904970Y-99763567D01*
X197076432Y-99935029D01*
X197076437Y-99935033D01*
X197191537Y-100018657D01*
X197272602Y-100077554D01*
X197449568Y-100167723D01*
X197488655Y-100187639D01*
X197562087Y-100211498D01*
X197719265Y-100262568D01*
X197822767Y-100278961D01*
X197958755Y-100300500D01*
X197958760Y-100300500D01*
X198201245Y-100300500D01*
X198333198Y-100279600D01*
X198440735Y-100262568D01*
X198671347Y-100187638D01*
X198887398Y-100077554D01*
X199083569Y-99935028D01*
X199255028Y-99763569D01*
X199397554Y-99567398D01*
X199507638Y-99351347D01*
X199582568Y-99120735D01*
X199606235Y-98971306D01*
X199620500Y-98881245D01*
X199620500Y-97118754D01*
X199592830Y-96944059D01*
X199582568Y-96879265D01*
X199514793Y-96670673D01*
X199507639Y-96648655D01*
X199505480Y-96644418D01*
X199397554Y-96432602D01*
X199397553Y-96432600D01*
X199373855Y-96399982D01*
X201619500Y-96399982D01*
X201619500Y-99600017D01*
X201630000Y-99702796D01*
X201680944Y-99856533D01*
X201685186Y-99869335D01*
X201777288Y-100018656D01*
X201901344Y-100142712D01*
X202050665Y-100234814D01*
X202217202Y-100289999D01*
X202319990Y-100300500D01*
X202319995Y-100300500D01*
X204000005Y-100300500D01*
X204000010Y-100300500D01*
X204102798Y-100289999D01*
X204249750Y-100241304D01*
X221349500Y-100241304D01*
X221349500Y-100418695D01*
X221384103Y-100592658D01*
X221384106Y-100592667D01*
X221451983Y-100756540D01*
X221451990Y-100756553D01*
X221550535Y-100904034D01*
X221550538Y-100904038D01*
X221588180Y-100941679D01*
X221621666Y-101003001D01*
X221624500Y-101029361D01*
X221624500Y-116140638D01*
X221604815Y-116207677D01*
X221588181Y-116228319D01*
X221550538Y-116265961D01*
X221550535Y-116265965D01*
X221451990Y-116413446D01*
X221451983Y-116413459D01*
X221384106Y-116577332D01*
X221384103Y-116577341D01*
X221349500Y-116751304D01*
X221349500Y-116928695D01*
X221384103Y-117102658D01*
X221384106Y-117102667D01*
X221451983Y-117266540D01*
X221451990Y-117266553D01*
X221550535Y-117414034D01*
X221550538Y-117414038D01*
X221675961Y-117539461D01*
X221675965Y-117539464D01*
X221823446Y-117638009D01*
X221823459Y-117638016D01*
X221933697Y-117683677D01*
X221987334Y-117705894D01*
X221987336Y-117705894D01*
X221987341Y-117705896D01*
X222161304Y-117740499D01*
X222161307Y-117740500D01*
X222161309Y-117740500D01*
X222338693Y-117740500D01*
X222338694Y-117740499D01*
X222409968Y-117726322D01*
X222512658Y-117705896D01*
X222512661Y-117705894D01*
X222512666Y-117705894D01*
X222676547Y-117638013D01*
X222824035Y-117539464D01*
X222949464Y-117414035D01*
X223048013Y-117266547D01*
X223048767Y-117264728D01*
X223060385Y-117236677D01*
X223115894Y-117102666D01*
X223150500Y-116928691D01*
X223150500Y-116751309D01*
X223150500Y-116751306D01*
X223150499Y-116751304D01*
X223115896Y-116577341D01*
X223115893Y-116577332D01*
X223048016Y-116413459D01*
X223048009Y-116413446D01*
X222949464Y-116265965D01*
X222949461Y-116265961D01*
X222911819Y-116228319D01*
X222878334Y-116166996D01*
X222875500Y-116140638D01*
X222875500Y-101029361D01*
X222895185Y-100962322D01*
X222911820Y-100941679D01*
X222949461Y-100904038D01*
X222949464Y-100904035D01*
X223048013Y-100756547D01*
X223115894Y-100592666D01*
X223150500Y-100418691D01*
X223150500Y-100241309D01*
X223150500Y-100241306D01*
X223150499Y-100241304D01*
X223115896Y-100067341D01*
X223115893Y-100067332D01*
X223048016Y-99903459D01*
X223048009Y-99903446D01*
X222949464Y-99755965D01*
X222949461Y-99755961D01*
X222824038Y-99630538D01*
X222824034Y-99630535D01*
X222676553Y-99531990D01*
X222676540Y-99531983D01*
X222512667Y-99464106D01*
X222512658Y-99464103D01*
X222338694Y-99429500D01*
X222338691Y-99429500D01*
X222161309Y-99429500D01*
X222161306Y-99429500D01*
X221987341Y-99464103D01*
X221987332Y-99464106D01*
X221823459Y-99531983D01*
X221823446Y-99531990D01*
X221675965Y-99630535D01*
X221675961Y-99630538D01*
X221550538Y-99755961D01*
X221550535Y-99755965D01*
X221451990Y-99903446D01*
X221451983Y-99903459D01*
X221384106Y-100067332D01*
X221384103Y-100067341D01*
X221349500Y-100241304D01*
X204249750Y-100241304D01*
X204269335Y-100234814D01*
X204418656Y-100142712D01*
X204542712Y-100018656D01*
X204634814Y-99869335D01*
X204689999Y-99702798D01*
X204700500Y-99600010D01*
X204700500Y-96399990D01*
X204689999Y-96297202D01*
X204634814Y-96130665D01*
X204542712Y-95981344D01*
X204418656Y-95857288D01*
X204291389Y-95778789D01*
X204269337Y-95765187D01*
X204269332Y-95765185D01*
X204267863Y-95764698D01*
X204102798Y-95710001D01*
X204102796Y-95710000D01*
X204000017Y-95699500D01*
X204000010Y-95699500D01*
X202319990Y-95699500D01*
X202319982Y-95699500D01*
X202217203Y-95710000D01*
X202217202Y-95710001D01*
X202143791Y-95734327D01*
X202050667Y-95765185D01*
X202050662Y-95765187D01*
X201901342Y-95857289D01*
X201777289Y-95981342D01*
X201685187Y-96130662D01*
X201685185Y-96130667D01*
X201676149Y-96157937D01*
X201630001Y-96297202D01*
X201630001Y-96297203D01*
X201630000Y-96297203D01*
X201619500Y-96399982D01*
X199373855Y-96399982D01*
X199255033Y-96236437D01*
X199255029Y-96236432D01*
X199083567Y-96064970D01*
X199083562Y-96064966D01*
X198887401Y-95922448D01*
X198887400Y-95922447D01*
X198887398Y-95922446D01*
X198733334Y-95843946D01*
X198671344Y-95812360D01*
X198440736Y-95737432D01*
X198201245Y-95699500D01*
X198201240Y-95699500D01*
X197958760Y-95699500D01*
X197958755Y-95699500D01*
X197719263Y-95737432D01*
X197488655Y-95812360D01*
X197272598Y-95922448D01*
X197076437Y-96064966D01*
X197076432Y-96064970D01*
X196904970Y-96236432D01*
X196904966Y-96236437D01*
X196762448Y-96432598D01*
X196652360Y-96648655D01*
X196577432Y-96879263D01*
X196539500Y-97118754D01*
X194539993Y-97118754D01*
X194502079Y-96879381D01*
X194427172Y-96648840D01*
X194317125Y-96432863D01*
X194174643Y-96236754D01*
X194003245Y-96065356D01*
X193807136Y-95922874D01*
X193591157Y-95812827D01*
X193360614Y-95737919D01*
X193250000Y-95720399D01*
X193250000Y-97345879D01*
X193204182Y-97326901D01*
X193068944Y-97300000D01*
X192931056Y-97300000D01*
X192795818Y-97326901D01*
X192750000Y-97345879D01*
X192750000Y-95720399D01*
X192749999Y-95720399D01*
X192639385Y-95737919D01*
X192408842Y-95812827D01*
X192192863Y-95922874D01*
X191996754Y-96065356D01*
X191825356Y-96236754D01*
X191682874Y-96432863D01*
X191572827Y-96648840D01*
X191497920Y-96879381D01*
X191460000Y-97118799D01*
X185700500Y-97118799D01*
X185700500Y-96399990D01*
X185689999Y-96297202D01*
X185634814Y-96130665D01*
X185542712Y-95981344D01*
X185418656Y-95857288D01*
X185291389Y-95778789D01*
X185269337Y-95765187D01*
X185269332Y-95765185D01*
X185267863Y-95764698D01*
X185102798Y-95710001D01*
X185102796Y-95710000D01*
X185000017Y-95699500D01*
X185000010Y-95699500D01*
X183319990Y-95699500D01*
X183319982Y-95699500D01*
X183217203Y-95710000D01*
X183217202Y-95710001D01*
X183143791Y-95734327D01*
X183050667Y-95765185D01*
X183050662Y-95765187D01*
X182901342Y-95857289D01*
X182777289Y-95981342D01*
X182685187Y-96130662D01*
X182685185Y-96130667D01*
X182676149Y-96157937D01*
X182630001Y-96297202D01*
X182630001Y-96297203D01*
X182630000Y-96297203D01*
X182619500Y-96399982D01*
X180373855Y-96399982D01*
X180255033Y-96236437D01*
X180255029Y-96236432D01*
X180083567Y-96064970D01*
X180083562Y-96064966D01*
X179887401Y-95922448D01*
X179887400Y-95922447D01*
X179887398Y-95922446D01*
X179733334Y-95843946D01*
X179671344Y-95812360D01*
X179440736Y-95737432D01*
X179201245Y-95699500D01*
X179201240Y-95699500D01*
X178958760Y-95699500D01*
X178958755Y-95699500D01*
X178719263Y-95737432D01*
X178488655Y-95812360D01*
X178272598Y-95922448D01*
X178076437Y-96064966D01*
X178076432Y-96064970D01*
X177904970Y-96236432D01*
X177904966Y-96236437D01*
X177762448Y-96432598D01*
X177652360Y-96648655D01*
X177577432Y-96879263D01*
X177539500Y-97118754D01*
X175539993Y-97118754D01*
X175502079Y-96879381D01*
X175427172Y-96648840D01*
X175317125Y-96432863D01*
X175174643Y-96236754D01*
X175003245Y-96065356D01*
X174807136Y-95922874D01*
X174591157Y-95812827D01*
X174360614Y-95737919D01*
X174250000Y-95720399D01*
X174250000Y-97345879D01*
X174204182Y-97326901D01*
X174068944Y-97300000D01*
X173931056Y-97300000D01*
X173795818Y-97326901D01*
X173750000Y-97345879D01*
X173750000Y-95720399D01*
X173749999Y-95720399D01*
X173639385Y-95737919D01*
X173408842Y-95812827D01*
X173192863Y-95922874D01*
X172996754Y-96065356D01*
X172825356Y-96236754D01*
X172682874Y-96432863D01*
X172572827Y-96648840D01*
X172497920Y-96879381D01*
X172460000Y-97118799D01*
X146675500Y-97118799D01*
X146675500Y-94679361D01*
X146695185Y-94612322D01*
X146711820Y-94591679D01*
X146749461Y-94554038D01*
X146749464Y-94554035D01*
X146848013Y-94406547D01*
X146915894Y-94242666D01*
X146923992Y-94201958D01*
X146943953Y-94101605D01*
X146950500Y-94068691D01*
X146950500Y-93891309D01*
X146950500Y-93891306D01*
X146950499Y-93891304D01*
X146915896Y-93717341D01*
X146915893Y-93717332D01*
X146848016Y-93553459D01*
X146848009Y-93553446D01*
X146749464Y-93405965D01*
X146749461Y-93405961D01*
X146624038Y-93280538D01*
X146624034Y-93280535D01*
X146476553Y-93181990D01*
X146476540Y-93181983D01*
X146312667Y-93114106D01*
X146312658Y-93114103D01*
X146138694Y-93079500D01*
X146138691Y-93079500D01*
X145961309Y-93079500D01*
X145961306Y-93079500D01*
X145787341Y-93114103D01*
X145787332Y-93114106D01*
X145623459Y-93181983D01*
X145623446Y-93181990D01*
X145475965Y-93280535D01*
X145475961Y-93280538D01*
X145350538Y-93405961D01*
X145350535Y-93405965D01*
X145251990Y-93553446D01*
X145251983Y-93553459D01*
X145184106Y-93717332D01*
X145184103Y-93717341D01*
X145149500Y-93891304D01*
X144435136Y-93891304D01*
X144449564Y-93846899D01*
X144464721Y-93800249D01*
X144464721Y-93800248D01*
X144464722Y-93800245D01*
X144500500Y-93574354D01*
X144500500Y-93345646D01*
X144464722Y-93119755D01*
X144464721Y-93119751D01*
X144464721Y-93119750D01*
X144394049Y-92902244D01*
X144290216Y-92698461D01*
X144272337Y-92673853D01*
X144155786Y-92513434D01*
X143994066Y-92351714D01*
X143809038Y-92217283D01*
X143605255Y-92113450D01*
X143387748Y-92042778D01*
X143218326Y-92015944D01*
X143161854Y-92007000D01*
X142838146Y-92007000D01*
X142762849Y-92018926D01*
X142612253Y-92042778D01*
X142612250Y-92042778D01*
X142394744Y-92113450D01*
X142190961Y-92217283D01*
X142085396Y-92293980D01*
X142005934Y-92351714D01*
X142005932Y-92351716D01*
X142005931Y-92351716D01*
X141844216Y-92513431D01*
X141844216Y-92513432D01*
X141844214Y-92513434D01*
X141786480Y-92592896D01*
X141709783Y-92698461D01*
X141605950Y-92902244D01*
X141535278Y-93119750D01*
X141535278Y-93119753D01*
X141499500Y-93345646D01*
X109002731Y-93345646D01*
X109114914Y-93037427D01*
X109212334Y-92673852D01*
X109277695Y-92303169D01*
X109310500Y-91928201D01*
X109310500Y-91551799D01*
X109310500Y-91551795D01*
X155689500Y-91551795D01*
X155689500Y-91928204D01*
X155722305Y-92303171D01*
X155722305Y-92303175D01*
X155759380Y-92513434D01*
X155787666Y-92673852D01*
X155885086Y-93037427D01*
X156013823Y-93391129D01*
X156013824Y-93391131D01*
X156013827Y-93391138D01*
X156013830Y-93391146D01*
X156172892Y-93732254D01*
X156172900Y-93732270D01*
X156361092Y-94058228D01*
X156361101Y-94058243D01*
X156576996Y-94366572D01*
X156734296Y-94554034D01*
X156818938Y-94654906D01*
X157085094Y-94921062D01*
X157187700Y-95007159D01*
X157373427Y-95163003D01*
X157373433Y-95163007D01*
X157373434Y-95163008D01*
X157681763Y-95378903D01*
X158007736Y-95567103D01*
X158007745Y-95567107D01*
X158348853Y-95726169D01*
X158348857Y-95726170D01*
X158348871Y-95726177D01*
X158702573Y-95854914D01*
X159066148Y-95952334D01*
X159436831Y-96017695D01*
X159811797Y-96050499D01*
X159811798Y-96050500D01*
X159811799Y-96050500D01*
X160188202Y-96050500D01*
X160188202Y-96050499D01*
X160563169Y-96017695D01*
X160933852Y-95952334D01*
X161297427Y-95854914D01*
X161651129Y-95726177D01*
X161992264Y-95567103D01*
X162318237Y-95378903D01*
X162626566Y-95163008D01*
X162914906Y-94921062D01*
X163181062Y-94654906D01*
X163423008Y-94366566D01*
X163638903Y-94058237D01*
X163827103Y-93732264D01*
X163986177Y-93391129D01*
X164114914Y-93037427D01*
X164212334Y-92673852D01*
X164277695Y-92303169D01*
X164310500Y-91928201D01*
X164310500Y-91551799D01*
X164310500Y-91551795D01*
X210689500Y-91551795D01*
X210689500Y-91928204D01*
X210722305Y-92303171D01*
X210722305Y-92303175D01*
X210759380Y-92513434D01*
X210787666Y-92673852D01*
X210885086Y-93037427D01*
X211013823Y-93391129D01*
X211013824Y-93391131D01*
X211013827Y-93391138D01*
X211013830Y-93391146D01*
X211172892Y-93732254D01*
X211172900Y-93732270D01*
X211361092Y-94058228D01*
X211361101Y-94058243D01*
X211576996Y-94366572D01*
X211734296Y-94554034D01*
X211818938Y-94654906D01*
X212085094Y-94921062D01*
X212187700Y-95007159D01*
X212373427Y-95163003D01*
X212373433Y-95163007D01*
X212373434Y-95163008D01*
X212681763Y-95378903D01*
X213007736Y-95567103D01*
X213007745Y-95567107D01*
X213348853Y-95726169D01*
X213348857Y-95726170D01*
X213348871Y-95726177D01*
X213702573Y-95854914D01*
X214066148Y-95952334D01*
X214436831Y-96017695D01*
X214811797Y-96050499D01*
X214811798Y-96050500D01*
X214811799Y-96050500D01*
X215188202Y-96050500D01*
X215188202Y-96050499D01*
X215563169Y-96017695D01*
X215933852Y-95952334D01*
X216297427Y-95854914D01*
X216651129Y-95726177D01*
X216992264Y-95567103D01*
X217318237Y-95378903D01*
X217626566Y-95163008D01*
X217914906Y-94921062D01*
X218181062Y-94654906D01*
X218423008Y-94366566D01*
X218638903Y-94058237D01*
X218827103Y-93732264D01*
X218986177Y-93391129D01*
X219114914Y-93037427D01*
X219212334Y-92673852D01*
X219277695Y-92303169D01*
X219310500Y-91928201D01*
X219310500Y-91551799D01*
X219277695Y-91176831D01*
X219212334Y-90806148D01*
X219114914Y-90442573D01*
X218986177Y-90088871D01*
X218827103Y-89747736D01*
X218638903Y-89421763D01*
X218423008Y-89113434D01*
X218423007Y-89113433D01*
X218423003Y-89113427D01*
X218181059Y-88825091D01*
X217914908Y-88558940D01*
X217626572Y-88316996D01*
X217318243Y-88101101D01*
X217318240Y-88101099D01*
X217318237Y-88101097D01*
X217221394Y-88045185D01*
X216992270Y-87912900D01*
X216992254Y-87912892D01*
X216651146Y-87753830D01*
X216651138Y-87753827D01*
X216651136Y-87753826D01*
X216651129Y-87753823D01*
X216297427Y-87625086D01*
X216066931Y-87563324D01*
X215933853Y-87527666D01*
X215933842Y-87527664D01*
X215563173Y-87462305D01*
X215188204Y-87429500D01*
X215188201Y-87429500D01*
X214811799Y-87429500D01*
X214811795Y-87429500D01*
X214436828Y-87462305D01*
X214436824Y-87462305D01*
X214066157Y-87527664D01*
X214066146Y-87527666D01*
X213871306Y-87579873D01*
X213702573Y-87625086D01*
X213702570Y-87625087D01*
X213702569Y-87625087D01*
X213505003Y-87696995D01*
X213348871Y-87753823D01*
X213348867Y-87753824D01*
X213348861Y-87753827D01*
X213348853Y-87753830D01*
X213007745Y-87912892D01*
X213007729Y-87912900D01*
X212681771Y-88101092D01*
X212681756Y-88101101D01*
X212373427Y-88316996D01*
X212085091Y-88558940D01*
X211818940Y-88825091D01*
X211576996Y-89113427D01*
X211361101Y-89421756D01*
X211361092Y-89421771D01*
X211172900Y-89747729D01*
X211172892Y-89747745D01*
X211013830Y-90088853D01*
X211013827Y-90088861D01*
X210885087Y-90442569D01*
X210885087Y-90442571D01*
X210787666Y-90806146D01*
X210787664Y-90806157D01*
X210722305Y-91176824D01*
X210722305Y-91176828D01*
X210689500Y-91551795D01*
X164310500Y-91551795D01*
X164277695Y-91176831D01*
X164212334Y-90806148D01*
X164114914Y-90442573D01*
X163986177Y-90088871D01*
X163827103Y-89747736D01*
X163638903Y-89421763D01*
X163423008Y-89113434D01*
X163423007Y-89113433D01*
X163423003Y-89113427D01*
X163181059Y-88825091D01*
X162914908Y-88558940D01*
X162626572Y-88316996D01*
X162318243Y-88101101D01*
X162318240Y-88101099D01*
X162318237Y-88101097D01*
X162221394Y-88045185D01*
X161992270Y-87912900D01*
X161992254Y-87912892D01*
X161651146Y-87753830D01*
X161651138Y-87753827D01*
X161651136Y-87753826D01*
X161651129Y-87753823D01*
X161297427Y-87625086D01*
X161066931Y-87563324D01*
X160933853Y-87527666D01*
X160933842Y-87527664D01*
X160563173Y-87462305D01*
X160188204Y-87429500D01*
X160188201Y-87429500D01*
X159811799Y-87429500D01*
X159811795Y-87429500D01*
X159436828Y-87462305D01*
X159436824Y-87462305D01*
X159066157Y-87527664D01*
X159066146Y-87527666D01*
X158871306Y-87579873D01*
X158702573Y-87625086D01*
X158702570Y-87625087D01*
X158702569Y-87625087D01*
X158505003Y-87696995D01*
X158348871Y-87753823D01*
X158348867Y-87753824D01*
X158348861Y-87753827D01*
X158348853Y-87753830D01*
X158007745Y-87912892D01*
X158007729Y-87912900D01*
X157681771Y-88101092D01*
X157681756Y-88101101D01*
X157373427Y-88316996D01*
X157085091Y-88558940D01*
X156818940Y-88825091D01*
X156576996Y-89113427D01*
X156361101Y-89421756D01*
X156361092Y-89421771D01*
X156172900Y-89747729D01*
X156172892Y-89747745D01*
X156013830Y-90088853D01*
X156013827Y-90088861D01*
X155885087Y-90442569D01*
X155885087Y-90442571D01*
X155787666Y-90806146D01*
X155787664Y-90806157D01*
X155722305Y-91176824D01*
X155722305Y-91176828D01*
X155689500Y-91551795D01*
X109310500Y-91551795D01*
X109277695Y-91176831D01*
X109212334Y-90806148D01*
X109114914Y-90442573D01*
X108986177Y-90088871D01*
X108827103Y-89747736D01*
X108638903Y-89421763D01*
X108423008Y-89113434D01*
X108423007Y-89113433D01*
X108423003Y-89113427D01*
X108181059Y-88825091D01*
X107914908Y-88558940D01*
X107626572Y-88316996D01*
X107318243Y-88101101D01*
X107318240Y-88101099D01*
X107318237Y-88101097D01*
X107221394Y-88045185D01*
X106992270Y-87912900D01*
X106992254Y-87912892D01*
X106651146Y-87753830D01*
X106651138Y-87753827D01*
X106651136Y-87753826D01*
X106651129Y-87753823D01*
X106297427Y-87625086D01*
X106066931Y-87563324D01*
X105933853Y-87527666D01*
X105933842Y-87527664D01*
X105563173Y-87462305D01*
X105188204Y-87429500D01*
X105188201Y-87429500D01*
X104811799Y-87429500D01*
X104811795Y-87429500D01*
X104436828Y-87462305D01*
X104436824Y-87462305D01*
X104066157Y-87527664D01*
X104066146Y-87527666D01*
X103871306Y-87579873D01*
X103702573Y-87625086D01*
X103702570Y-87625087D01*
X103702569Y-87625087D01*
X103505003Y-87696995D01*
X103348871Y-87753823D01*
X103348867Y-87753824D01*
X103348861Y-87753827D01*
X103348853Y-87753830D01*
X103007745Y-87912892D01*
X103007729Y-87912900D01*
X102681771Y-88101092D01*
X102681756Y-88101101D01*
X102373427Y-88316996D01*
X102085091Y-88558940D01*
X101818940Y-88825091D01*
X101576996Y-89113427D01*
X101361101Y-89421756D01*
X101361092Y-89421771D01*
X101172900Y-89747729D01*
X101172892Y-89747745D01*
X101013830Y-90088853D01*
X101013827Y-90088861D01*
X100885087Y-90442569D01*
X100885087Y-90442571D01*
X100787666Y-90806146D01*
X100787664Y-90806157D01*
X100722305Y-91176824D01*
X100722305Y-91176828D01*
X100689500Y-91551795D01*
X54310500Y-91551795D01*
X54277695Y-91176831D01*
X54212334Y-90806148D01*
X54114914Y-90442573D01*
X53986177Y-90088871D01*
X53827103Y-89747736D01*
X53638903Y-89421763D01*
X53423008Y-89113434D01*
X53423007Y-89113433D01*
X53423003Y-89113427D01*
X53181059Y-88825091D01*
X52914908Y-88558940D01*
X52626572Y-88316996D01*
X52318243Y-88101101D01*
X52318240Y-88101099D01*
X52318237Y-88101097D01*
X52221394Y-88045185D01*
X51992270Y-87912900D01*
X51992254Y-87912892D01*
X51651146Y-87753830D01*
X51651138Y-87753827D01*
X51651136Y-87753826D01*
X51651129Y-87753823D01*
X51297427Y-87625086D01*
X51066931Y-87563324D01*
X50933853Y-87527666D01*
X50933842Y-87527664D01*
X50563173Y-87462305D01*
X50188204Y-87429500D01*
X50188201Y-87429500D01*
X49811799Y-87429500D01*
X49811795Y-87429500D01*
X49436828Y-87462305D01*
X49436824Y-87462305D01*
X49066157Y-87527664D01*
X49066146Y-87527666D01*
X48871306Y-87579873D01*
X48702573Y-87625086D01*
X48702570Y-87625087D01*
X48702569Y-87625087D01*
X48505003Y-87696995D01*
X48348871Y-87753823D01*
X48348867Y-87753824D01*
X48348861Y-87753827D01*
X48348853Y-87753830D01*
X48007745Y-87912892D01*
X48007729Y-87912900D01*
X47681771Y-88101092D01*
X47681756Y-88101101D01*
X47373427Y-88316996D01*
X47085091Y-88558940D01*
X46818940Y-88825091D01*
X46576996Y-89113427D01*
X46361101Y-89421756D01*
X46361092Y-89421771D01*
X46172900Y-89747729D01*
X46172892Y-89747745D01*
X46013830Y-90088853D01*
X46013827Y-90088861D01*
X45885087Y-90442569D01*
X45885087Y-90442571D01*
X45787666Y-90806146D01*
X45787664Y-90806157D01*
X45722305Y-91176824D01*
X45722305Y-91176828D01*
X45689500Y-91551795D01*
X35000500Y-91551795D01*
X35000500Y-87124500D01*
X35020185Y-87057461D01*
X35072989Y-87011706D01*
X35124500Y-87000500D01*
X233875500Y-87000500D01*
X233942539Y-87020185D01*
G37*
%TD.AperFunction*%
%TD*%
M02*
