%TF.GenerationSoftware,KiCad,Pcbnew,9.0.4-9.0.4-0~ubuntu22.04.1*%
%TF.CreationDate,2025-10-10T14:12:55+02:00*%
%TF.ProjectId,splitflap-backplane,73706c69-7466-46c6-9170-2d6261636b70,rev?*%
%TF.SameCoordinates,Original*%
%TF.FileFunction,Legend,Top*%
%TF.FilePolarity,Positive*%
%FSLAX46Y46*%
G04 Gerber Fmt 4.6, Leading zero omitted, Abs format (unit mm)*
G04 Created by KiCad (PCBNEW 9.0.4-9.0.4-0~ubuntu22.04.1) date 2025-10-10 14:12:55*
%MOMM*%
%LPD*%
G01*
G04 APERTURE LIST*
%ADD10C,0.150000*%
%ADD11C,0.187500*%
%ADD12C,0.300000*%
%ADD13C,0.120000*%
G04 APERTURE END LIST*
D10*
X56515000Y-106680000D02*
X56515000Y-101600000D01*
X75565000Y-101600000D02*
X75565000Y-103505000D01*
X93345000Y-106680000D02*
X56515000Y-106680000D01*
X93345000Y-101600000D02*
X93345000Y-106680000D01*
X188445000Y-101600000D02*
X188445000Y-103505000D01*
X169395000Y-106680000D02*
X169395000Y-101600000D01*
X207495000Y-106680000D02*
X169395000Y-106680000D01*
X207495000Y-101600000D02*
X207495000Y-106680000D01*
D11*
X187445000Y-104277869D02*
X187635476Y-104277869D01*
X187635476Y-104277869D02*
X187730714Y-104325488D01*
X187730714Y-104325488D02*
X187825952Y-104420726D01*
X187825952Y-104420726D02*
X187873571Y-104611202D01*
X187873571Y-104611202D02*
X187873571Y-104944535D01*
X187873571Y-104944535D02*
X187825952Y-105135011D01*
X187825952Y-105135011D02*
X187730714Y-105230250D01*
X187730714Y-105230250D02*
X187635476Y-105277869D01*
X187635476Y-105277869D02*
X187445000Y-105277869D01*
X187445000Y-105277869D02*
X187349762Y-105230250D01*
X187349762Y-105230250D02*
X187254524Y-105135011D01*
X187254524Y-105135011D02*
X187206905Y-104944535D01*
X187206905Y-104944535D02*
X187206905Y-104611202D01*
X187206905Y-104611202D02*
X187254524Y-104420726D01*
X187254524Y-104420726D02*
X187349762Y-104325488D01*
X187349762Y-104325488D02*
X187445000Y-104277869D01*
X188302143Y-104277869D02*
X188302143Y-105087392D01*
X188302143Y-105087392D02*
X188349762Y-105182630D01*
X188349762Y-105182630D02*
X188397381Y-105230250D01*
X188397381Y-105230250D02*
X188492619Y-105277869D01*
X188492619Y-105277869D02*
X188683095Y-105277869D01*
X188683095Y-105277869D02*
X188778333Y-105230250D01*
X188778333Y-105230250D02*
X188825952Y-105182630D01*
X188825952Y-105182630D02*
X188873571Y-105087392D01*
X188873571Y-105087392D02*
X188873571Y-104277869D01*
X189206905Y-104277869D02*
X189778333Y-104277869D01*
X189492619Y-105277869D02*
X189492619Y-104277869D01*
X75041191Y-105277869D02*
X75041191Y-104277869D01*
X75517381Y-105277869D02*
X75517381Y-104277869D01*
X75517381Y-104277869D02*
X76088809Y-105277869D01*
X76088809Y-105277869D02*
X76088809Y-104277869D01*
X177324761Y-105277869D02*
X176991428Y-104801678D01*
X176753333Y-105277869D02*
X176753333Y-104277869D01*
X176753333Y-104277869D02*
X177134285Y-104277869D01*
X177134285Y-104277869D02*
X177229523Y-104325488D01*
X177229523Y-104325488D02*
X177277142Y-104373107D01*
X177277142Y-104373107D02*
X177324761Y-104468345D01*
X177324761Y-104468345D02*
X177324761Y-104611202D01*
X177324761Y-104611202D02*
X177277142Y-104706440D01*
X177277142Y-104706440D02*
X177229523Y-104754059D01*
X177229523Y-104754059D02*
X177134285Y-104801678D01*
X177134285Y-104801678D02*
X176753333Y-104801678D01*
X177705714Y-105230250D02*
X177848571Y-105277869D01*
X177848571Y-105277869D02*
X178086666Y-105277869D01*
X178086666Y-105277869D02*
X178181904Y-105230250D01*
X178181904Y-105230250D02*
X178229523Y-105182630D01*
X178229523Y-105182630D02*
X178277142Y-105087392D01*
X178277142Y-105087392D02*
X178277142Y-104992154D01*
X178277142Y-104992154D02*
X178229523Y-104896916D01*
X178229523Y-104896916D02*
X178181904Y-104849297D01*
X178181904Y-104849297D02*
X178086666Y-104801678D01*
X178086666Y-104801678D02*
X177896190Y-104754059D01*
X177896190Y-104754059D02*
X177800952Y-104706440D01*
X177800952Y-104706440D02*
X177753333Y-104658821D01*
X177753333Y-104658821D02*
X177705714Y-104563583D01*
X177705714Y-104563583D02*
X177705714Y-104468345D01*
X177705714Y-104468345D02*
X177753333Y-104373107D01*
X177753333Y-104373107D02*
X177800952Y-104325488D01*
X177800952Y-104325488D02*
X177896190Y-104277869D01*
X177896190Y-104277869D02*
X178134285Y-104277869D01*
X178134285Y-104277869D02*
X178277142Y-104325488D01*
X179134285Y-104611202D02*
X179134285Y-105277869D01*
X178896190Y-104230250D02*
X178658095Y-104944535D01*
X178658095Y-104944535D02*
X179277142Y-104944535D01*
X179800952Y-104706440D02*
X179705714Y-104658821D01*
X179705714Y-104658821D02*
X179658095Y-104611202D01*
X179658095Y-104611202D02*
X179610476Y-104515964D01*
X179610476Y-104515964D02*
X179610476Y-104468345D01*
X179610476Y-104468345D02*
X179658095Y-104373107D01*
X179658095Y-104373107D02*
X179705714Y-104325488D01*
X179705714Y-104325488D02*
X179800952Y-104277869D01*
X179800952Y-104277869D02*
X179991428Y-104277869D01*
X179991428Y-104277869D02*
X180086666Y-104325488D01*
X180086666Y-104325488D02*
X180134285Y-104373107D01*
X180134285Y-104373107D02*
X180181904Y-104468345D01*
X180181904Y-104468345D02*
X180181904Y-104515964D01*
X180181904Y-104515964D02*
X180134285Y-104611202D01*
X180134285Y-104611202D02*
X180086666Y-104658821D01*
X180086666Y-104658821D02*
X179991428Y-104706440D01*
X179991428Y-104706440D02*
X179800952Y-104706440D01*
X179800952Y-104706440D02*
X179705714Y-104754059D01*
X179705714Y-104754059D02*
X179658095Y-104801678D01*
X179658095Y-104801678D02*
X179610476Y-104896916D01*
X179610476Y-104896916D02*
X179610476Y-105087392D01*
X179610476Y-105087392D02*
X179658095Y-105182630D01*
X179658095Y-105182630D02*
X179705714Y-105230250D01*
X179705714Y-105230250D02*
X179800952Y-105277869D01*
X179800952Y-105277869D02*
X179991428Y-105277869D01*
X179991428Y-105277869D02*
X180086666Y-105230250D01*
X180086666Y-105230250D02*
X180134285Y-105182630D01*
X180134285Y-105182630D02*
X180181904Y-105087392D01*
X180181904Y-105087392D02*
X180181904Y-104896916D01*
X180181904Y-104896916D02*
X180134285Y-104801678D01*
X180134285Y-104801678D02*
X180086666Y-104754059D01*
X180086666Y-104754059D02*
X179991428Y-104706440D01*
X181086666Y-104277869D02*
X180610476Y-104277869D01*
X180610476Y-104277869D02*
X180562857Y-104754059D01*
X180562857Y-104754059D02*
X180610476Y-104706440D01*
X180610476Y-104706440D02*
X180705714Y-104658821D01*
X180705714Y-104658821D02*
X180943809Y-104658821D01*
X180943809Y-104658821D02*
X181039047Y-104706440D01*
X181039047Y-104706440D02*
X181086666Y-104754059D01*
X181086666Y-104754059D02*
X181134285Y-104849297D01*
X181134285Y-104849297D02*
X181134285Y-105087392D01*
X181134285Y-105087392D02*
X181086666Y-105182630D01*
X181086666Y-105182630D02*
X181039047Y-105230250D01*
X181039047Y-105230250D02*
X180943809Y-105277869D01*
X180943809Y-105277869D02*
X180705714Y-105277869D01*
X180705714Y-105277869D02*
X180610476Y-105230250D01*
X180610476Y-105230250D02*
X180562857Y-105182630D01*
X178089048Y-102729817D02*
X178089048Y-101729817D01*
X178089048Y-101729817D02*
X178327143Y-101729817D01*
X178327143Y-101729817D02*
X178470000Y-101777436D01*
X178470000Y-101777436D02*
X178565238Y-101872674D01*
X178565238Y-101872674D02*
X178612857Y-101967912D01*
X178612857Y-101967912D02*
X178660476Y-102158388D01*
X178660476Y-102158388D02*
X178660476Y-102301245D01*
X178660476Y-102301245D02*
X178612857Y-102491721D01*
X178612857Y-102491721D02*
X178565238Y-102586959D01*
X178565238Y-102586959D02*
X178470000Y-102682198D01*
X178470000Y-102682198D02*
X178327143Y-102729817D01*
X178327143Y-102729817D02*
X178089048Y-102729817D01*
X179089048Y-102348864D02*
X179850953Y-102348864D01*
X192128095Y-101785488D02*
X192032857Y-101737869D01*
X192032857Y-101737869D02*
X191890000Y-101737869D01*
X191890000Y-101737869D02*
X191747143Y-101785488D01*
X191747143Y-101785488D02*
X191651905Y-101880726D01*
X191651905Y-101880726D02*
X191604286Y-101975964D01*
X191604286Y-101975964D02*
X191556667Y-102166440D01*
X191556667Y-102166440D02*
X191556667Y-102309297D01*
X191556667Y-102309297D02*
X191604286Y-102499773D01*
X191604286Y-102499773D02*
X191651905Y-102595011D01*
X191651905Y-102595011D02*
X191747143Y-102690250D01*
X191747143Y-102690250D02*
X191890000Y-102737869D01*
X191890000Y-102737869D02*
X191985238Y-102737869D01*
X191985238Y-102737869D02*
X192128095Y-102690250D01*
X192128095Y-102690250D02*
X192175714Y-102642630D01*
X192175714Y-102642630D02*
X192175714Y-102309297D01*
X192175714Y-102309297D02*
X191985238Y-102309297D01*
X192604286Y-102737869D02*
X192604286Y-101737869D01*
X192604286Y-101737869D02*
X193175714Y-102737869D01*
X193175714Y-102737869D02*
X193175714Y-101737869D01*
X193651905Y-102737869D02*
X193651905Y-101737869D01*
X193651905Y-101737869D02*
X193890000Y-101737869D01*
X193890000Y-101737869D02*
X194032857Y-101785488D01*
X194032857Y-101785488D02*
X194128095Y-101880726D01*
X194128095Y-101880726D02*
X194175714Y-101975964D01*
X194175714Y-101975964D02*
X194223333Y-102166440D01*
X194223333Y-102166440D02*
X194223333Y-102309297D01*
X194223333Y-102309297D02*
X194175714Y-102499773D01*
X194175714Y-102499773D02*
X194128095Y-102595011D01*
X194128095Y-102595011D02*
X194032857Y-102690250D01*
X194032857Y-102690250D02*
X193890000Y-102737869D01*
X193890000Y-102737869D02*
X193651905Y-102737869D01*
X201954762Y-102737869D02*
X201954762Y-101737869D01*
X201954762Y-101737869D02*
X202192857Y-101737869D01*
X202192857Y-101737869D02*
X202335714Y-101785488D01*
X202335714Y-101785488D02*
X202430952Y-101880726D01*
X202430952Y-101880726D02*
X202478571Y-101975964D01*
X202478571Y-101975964D02*
X202526190Y-102166440D01*
X202526190Y-102166440D02*
X202526190Y-102309297D01*
X202526190Y-102309297D02*
X202478571Y-102499773D01*
X202478571Y-102499773D02*
X202430952Y-102595011D01*
X202430952Y-102595011D02*
X202335714Y-102690250D01*
X202335714Y-102690250D02*
X202192857Y-102737869D01*
X202192857Y-102737869D02*
X201954762Y-102737869D01*
X202954762Y-102214059D02*
X203288095Y-102214059D01*
X203430952Y-102737869D02*
X202954762Y-102737869D01*
X202954762Y-102737869D02*
X202954762Y-101737869D01*
X202954762Y-101737869D02*
X203430952Y-101737869D01*
X203716667Y-101737869D02*
X204288095Y-101737869D01*
X204002381Y-102737869D02*
X204002381Y-101737869D01*
X183119048Y-102737869D02*
X183119048Y-101737869D01*
X183119048Y-101737869D02*
X183357143Y-101737869D01*
X183357143Y-101737869D02*
X183500000Y-101785488D01*
X183500000Y-101785488D02*
X183595238Y-101880726D01*
X183595238Y-101880726D02*
X183642857Y-101975964D01*
X183642857Y-101975964D02*
X183690476Y-102166440D01*
X183690476Y-102166440D02*
X183690476Y-102309297D01*
X183690476Y-102309297D02*
X183642857Y-102499773D01*
X183642857Y-102499773D02*
X183595238Y-102595011D01*
X183595238Y-102595011D02*
X183500000Y-102690250D01*
X183500000Y-102690250D02*
X183357143Y-102737869D01*
X183357143Y-102737869D02*
X183119048Y-102737869D01*
X184119048Y-102356916D02*
X184880953Y-102356916D01*
X184500000Y-102737869D02*
X184500000Y-101975964D01*
X173078095Y-101785488D02*
X172982857Y-101737869D01*
X172982857Y-101737869D02*
X172840000Y-101737869D01*
X172840000Y-101737869D02*
X172697143Y-101785488D01*
X172697143Y-101785488D02*
X172601905Y-101880726D01*
X172601905Y-101880726D02*
X172554286Y-101975964D01*
X172554286Y-101975964D02*
X172506667Y-102166440D01*
X172506667Y-102166440D02*
X172506667Y-102309297D01*
X172506667Y-102309297D02*
X172554286Y-102499773D01*
X172554286Y-102499773D02*
X172601905Y-102595011D01*
X172601905Y-102595011D02*
X172697143Y-102690250D01*
X172697143Y-102690250D02*
X172840000Y-102737869D01*
X172840000Y-102737869D02*
X172935238Y-102737869D01*
X172935238Y-102737869D02*
X173078095Y-102690250D01*
X173078095Y-102690250D02*
X173125714Y-102642630D01*
X173125714Y-102642630D02*
X173125714Y-102309297D01*
X173125714Y-102309297D02*
X172935238Y-102309297D01*
X173554286Y-102737869D02*
X173554286Y-101737869D01*
X173554286Y-101737869D02*
X174125714Y-102737869D01*
X174125714Y-102737869D02*
X174125714Y-101737869D01*
X174601905Y-102737869D02*
X174601905Y-101737869D01*
X174601905Y-101737869D02*
X174840000Y-101737869D01*
X174840000Y-101737869D02*
X174982857Y-101785488D01*
X174982857Y-101785488D02*
X175078095Y-101880726D01*
X175078095Y-101880726D02*
X175125714Y-101975964D01*
X175125714Y-101975964D02*
X175173333Y-102166440D01*
X175173333Y-102166440D02*
X175173333Y-102309297D01*
X175173333Y-102309297D02*
X175125714Y-102499773D01*
X175125714Y-102499773D02*
X175078095Y-102595011D01*
X175078095Y-102595011D02*
X174982857Y-102690250D01*
X174982857Y-102690250D02*
X174840000Y-102737869D01*
X174840000Y-102737869D02*
X174601905Y-102737869D01*
X197422380Y-102737869D02*
X197089047Y-102261678D01*
X196850952Y-102737869D02*
X196850952Y-101737869D01*
X196850952Y-101737869D02*
X197231904Y-101737869D01*
X197231904Y-101737869D02*
X197327142Y-101785488D01*
X197327142Y-101785488D02*
X197374761Y-101833107D01*
X197374761Y-101833107D02*
X197422380Y-101928345D01*
X197422380Y-101928345D02*
X197422380Y-102071202D01*
X197422380Y-102071202D02*
X197374761Y-102166440D01*
X197374761Y-102166440D02*
X197327142Y-102214059D01*
X197327142Y-102214059D02*
X197231904Y-102261678D01*
X197231904Y-102261678D02*
X196850952Y-102261678D01*
X197803333Y-102690250D02*
X197946190Y-102737869D01*
X197946190Y-102737869D02*
X198184285Y-102737869D01*
X198184285Y-102737869D02*
X198279523Y-102690250D01*
X198279523Y-102690250D02*
X198327142Y-102642630D01*
X198327142Y-102642630D02*
X198374761Y-102547392D01*
X198374761Y-102547392D02*
X198374761Y-102452154D01*
X198374761Y-102452154D02*
X198327142Y-102356916D01*
X198327142Y-102356916D02*
X198279523Y-102309297D01*
X198279523Y-102309297D02*
X198184285Y-102261678D01*
X198184285Y-102261678D02*
X197993809Y-102214059D01*
X197993809Y-102214059D02*
X197898571Y-102166440D01*
X197898571Y-102166440D02*
X197850952Y-102118821D01*
X197850952Y-102118821D02*
X197803333Y-102023583D01*
X197803333Y-102023583D02*
X197803333Y-101928345D01*
X197803333Y-101928345D02*
X197850952Y-101833107D01*
X197850952Y-101833107D02*
X197898571Y-101785488D01*
X197898571Y-101785488D02*
X197993809Y-101737869D01*
X197993809Y-101737869D02*
X198231904Y-101737869D01*
X198231904Y-101737869D02*
X198374761Y-101785488D01*
X198660476Y-101737869D02*
X199231904Y-101737869D01*
X198946190Y-102737869D02*
X198946190Y-101737869D01*
X195803332Y-105182630D02*
X195755713Y-105230250D01*
X195755713Y-105230250D02*
X195612856Y-105277869D01*
X195612856Y-105277869D02*
X195517618Y-105277869D01*
X195517618Y-105277869D02*
X195374761Y-105230250D01*
X195374761Y-105230250D02*
X195279523Y-105135011D01*
X195279523Y-105135011D02*
X195231904Y-105039773D01*
X195231904Y-105039773D02*
X195184285Y-104849297D01*
X195184285Y-104849297D02*
X195184285Y-104706440D01*
X195184285Y-104706440D02*
X195231904Y-104515964D01*
X195231904Y-104515964D02*
X195279523Y-104420726D01*
X195279523Y-104420726D02*
X195374761Y-104325488D01*
X195374761Y-104325488D02*
X195517618Y-104277869D01*
X195517618Y-104277869D02*
X195612856Y-104277869D01*
X195612856Y-104277869D02*
X195755713Y-104325488D01*
X195755713Y-104325488D02*
X195803332Y-104373107D01*
X196374761Y-105277869D02*
X196279523Y-105230250D01*
X196279523Y-105230250D02*
X196231904Y-105182630D01*
X196231904Y-105182630D02*
X196184285Y-105087392D01*
X196184285Y-105087392D02*
X196184285Y-104801678D01*
X196184285Y-104801678D02*
X196231904Y-104706440D01*
X196231904Y-104706440D02*
X196279523Y-104658821D01*
X196279523Y-104658821D02*
X196374761Y-104611202D01*
X196374761Y-104611202D02*
X196517618Y-104611202D01*
X196517618Y-104611202D02*
X196612856Y-104658821D01*
X196612856Y-104658821D02*
X196660475Y-104706440D01*
X196660475Y-104706440D02*
X196708094Y-104801678D01*
X196708094Y-104801678D02*
X196708094Y-105087392D01*
X196708094Y-105087392D02*
X196660475Y-105182630D01*
X196660475Y-105182630D02*
X196612856Y-105230250D01*
X196612856Y-105230250D02*
X196517618Y-105277869D01*
X196517618Y-105277869D02*
X196374761Y-105277869D01*
X197136666Y-104611202D02*
X197136666Y-105277869D01*
X197136666Y-104706440D02*
X197184285Y-104658821D01*
X197184285Y-104658821D02*
X197279523Y-104611202D01*
X197279523Y-104611202D02*
X197422380Y-104611202D01*
X197422380Y-104611202D02*
X197517618Y-104658821D01*
X197517618Y-104658821D02*
X197565237Y-104754059D01*
X197565237Y-104754059D02*
X197565237Y-105277869D01*
X197898571Y-104611202D02*
X198279523Y-104611202D01*
X198041428Y-104277869D02*
X198041428Y-105135011D01*
X198041428Y-105135011D02*
X198089047Y-105230250D01*
X198089047Y-105230250D02*
X198184285Y-105277869D01*
X198184285Y-105277869D02*
X198279523Y-105277869D01*
X198612857Y-105277869D02*
X198612857Y-104611202D01*
X198612857Y-104801678D02*
X198660476Y-104706440D01*
X198660476Y-104706440D02*
X198708095Y-104658821D01*
X198708095Y-104658821D02*
X198803333Y-104611202D01*
X198803333Y-104611202D02*
X198898571Y-104611202D01*
X199374762Y-105277869D02*
X199279524Y-105230250D01*
X199279524Y-105230250D02*
X199231905Y-105182630D01*
X199231905Y-105182630D02*
X199184286Y-105087392D01*
X199184286Y-105087392D02*
X199184286Y-104801678D01*
X199184286Y-104801678D02*
X199231905Y-104706440D01*
X199231905Y-104706440D02*
X199279524Y-104658821D01*
X199279524Y-104658821D02*
X199374762Y-104611202D01*
X199374762Y-104611202D02*
X199517619Y-104611202D01*
X199517619Y-104611202D02*
X199612857Y-104658821D01*
X199612857Y-104658821D02*
X199660476Y-104706440D01*
X199660476Y-104706440D02*
X199708095Y-104801678D01*
X199708095Y-104801678D02*
X199708095Y-105087392D01*
X199708095Y-105087392D02*
X199660476Y-105182630D01*
X199660476Y-105182630D02*
X199612857Y-105230250D01*
X199612857Y-105230250D02*
X199517619Y-105277869D01*
X199517619Y-105277869D02*
X199374762Y-105277869D01*
X200279524Y-105277869D02*
X200184286Y-105230250D01*
X200184286Y-105230250D02*
X200136667Y-105135011D01*
X200136667Y-105135011D02*
X200136667Y-104277869D01*
X200803334Y-105277869D02*
X200708096Y-105230250D01*
X200708096Y-105230250D02*
X200660477Y-105135011D01*
X200660477Y-105135011D02*
X200660477Y-104277869D01*
X89074762Y-102737869D02*
X89074762Y-101737869D01*
X89074762Y-101737869D02*
X89312857Y-101737869D01*
X89312857Y-101737869D02*
X89455714Y-101785488D01*
X89455714Y-101785488D02*
X89550952Y-101880726D01*
X89550952Y-101880726D02*
X89598571Y-101975964D01*
X89598571Y-101975964D02*
X89646190Y-102166440D01*
X89646190Y-102166440D02*
X89646190Y-102309297D01*
X89646190Y-102309297D02*
X89598571Y-102499773D01*
X89598571Y-102499773D02*
X89550952Y-102595011D01*
X89550952Y-102595011D02*
X89455714Y-102690250D01*
X89455714Y-102690250D02*
X89312857Y-102737869D01*
X89312857Y-102737869D02*
X89074762Y-102737869D01*
X90074762Y-102214059D02*
X90408095Y-102214059D01*
X90550952Y-102737869D02*
X90074762Y-102737869D01*
X90074762Y-102737869D02*
X90074762Y-101737869D01*
X90074762Y-101737869D02*
X90550952Y-101737869D01*
X90836667Y-101737869D02*
X91408095Y-101737869D01*
X91122381Y-102737869D02*
X91122381Y-101737869D01*
X84542380Y-102737869D02*
X84209047Y-102261678D01*
X83970952Y-102737869D02*
X83970952Y-101737869D01*
X83970952Y-101737869D02*
X84351904Y-101737869D01*
X84351904Y-101737869D02*
X84447142Y-101785488D01*
X84447142Y-101785488D02*
X84494761Y-101833107D01*
X84494761Y-101833107D02*
X84542380Y-101928345D01*
X84542380Y-101928345D02*
X84542380Y-102071202D01*
X84542380Y-102071202D02*
X84494761Y-102166440D01*
X84494761Y-102166440D02*
X84447142Y-102214059D01*
X84447142Y-102214059D02*
X84351904Y-102261678D01*
X84351904Y-102261678D02*
X83970952Y-102261678D01*
X84923333Y-102690250D02*
X85066190Y-102737869D01*
X85066190Y-102737869D02*
X85304285Y-102737869D01*
X85304285Y-102737869D02*
X85399523Y-102690250D01*
X85399523Y-102690250D02*
X85447142Y-102642630D01*
X85447142Y-102642630D02*
X85494761Y-102547392D01*
X85494761Y-102547392D02*
X85494761Y-102452154D01*
X85494761Y-102452154D02*
X85447142Y-102356916D01*
X85447142Y-102356916D02*
X85399523Y-102309297D01*
X85399523Y-102309297D02*
X85304285Y-102261678D01*
X85304285Y-102261678D02*
X85113809Y-102214059D01*
X85113809Y-102214059D02*
X85018571Y-102166440D01*
X85018571Y-102166440D02*
X84970952Y-102118821D01*
X84970952Y-102118821D02*
X84923333Y-102023583D01*
X84923333Y-102023583D02*
X84923333Y-101928345D01*
X84923333Y-101928345D02*
X84970952Y-101833107D01*
X84970952Y-101833107D02*
X85018571Y-101785488D01*
X85018571Y-101785488D02*
X85113809Y-101737869D01*
X85113809Y-101737869D02*
X85351904Y-101737869D01*
X85351904Y-101737869D02*
X85494761Y-101785488D01*
X85780476Y-101737869D02*
X86351904Y-101737869D01*
X86066190Y-102737869D02*
X86066190Y-101737869D01*
X79248095Y-101785488D02*
X79152857Y-101737869D01*
X79152857Y-101737869D02*
X79010000Y-101737869D01*
X79010000Y-101737869D02*
X78867143Y-101785488D01*
X78867143Y-101785488D02*
X78771905Y-101880726D01*
X78771905Y-101880726D02*
X78724286Y-101975964D01*
X78724286Y-101975964D02*
X78676667Y-102166440D01*
X78676667Y-102166440D02*
X78676667Y-102309297D01*
X78676667Y-102309297D02*
X78724286Y-102499773D01*
X78724286Y-102499773D02*
X78771905Y-102595011D01*
X78771905Y-102595011D02*
X78867143Y-102690250D01*
X78867143Y-102690250D02*
X79010000Y-102737869D01*
X79010000Y-102737869D02*
X79105238Y-102737869D01*
X79105238Y-102737869D02*
X79248095Y-102690250D01*
X79248095Y-102690250D02*
X79295714Y-102642630D01*
X79295714Y-102642630D02*
X79295714Y-102309297D01*
X79295714Y-102309297D02*
X79105238Y-102309297D01*
X79724286Y-102737869D02*
X79724286Y-101737869D01*
X79724286Y-101737869D02*
X80295714Y-102737869D01*
X80295714Y-102737869D02*
X80295714Y-101737869D01*
X80771905Y-102737869D02*
X80771905Y-101737869D01*
X80771905Y-101737869D02*
X81010000Y-101737869D01*
X81010000Y-101737869D02*
X81152857Y-101785488D01*
X81152857Y-101785488D02*
X81248095Y-101880726D01*
X81248095Y-101880726D02*
X81295714Y-101975964D01*
X81295714Y-101975964D02*
X81343333Y-102166440D01*
X81343333Y-102166440D02*
X81343333Y-102309297D01*
X81343333Y-102309297D02*
X81295714Y-102499773D01*
X81295714Y-102499773D02*
X81248095Y-102595011D01*
X81248095Y-102595011D02*
X81152857Y-102690250D01*
X81152857Y-102690250D02*
X81010000Y-102737869D01*
X81010000Y-102737869D02*
X80771905Y-102737869D01*
X70239048Y-102737869D02*
X70239048Y-101737869D01*
X70239048Y-101737869D02*
X70477143Y-101737869D01*
X70477143Y-101737869D02*
X70620000Y-101785488D01*
X70620000Y-101785488D02*
X70715238Y-101880726D01*
X70715238Y-101880726D02*
X70762857Y-101975964D01*
X70762857Y-101975964D02*
X70810476Y-102166440D01*
X70810476Y-102166440D02*
X70810476Y-102309297D01*
X70810476Y-102309297D02*
X70762857Y-102499773D01*
X70762857Y-102499773D02*
X70715238Y-102595011D01*
X70715238Y-102595011D02*
X70620000Y-102690250D01*
X70620000Y-102690250D02*
X70477143Y-102737869D01*
X70477143Y-102737869D02*
X70239048Y-102737869D01*
X71239048Y-102356916D02*
X72000953Y-102356916D01*
X71620000Y-102737869D02*
X71620000Y-101975964D01*
X65209048Y-102729817D02*
X65209048Y-101729817D01*
X65209048Y-101729817D02*
X65447143Y-101729817D01*
X65447143Y-101729817D02*
X65590000Y-101777436D01*
X65590000Y-101777436D02*
X65685238Y-101872674D01*
X65685238Y-101872674D02*
X65732857Y-101967912D01*
X65732857Y-101967912D02*
X65780476Y-102158388D01*
X65780476Y-102158388D02*
X65780476Y-102301245D01*
X65780476Y-102301245D02*
X65732857Y-102491721D01*
X65732857Y-102491721D02*
X65685238Y-102586959D01*
X65685238Y-102586959D02*
X65590000Y-102682198D01*
X65590000Y-102682198D02*
X65447143Y-102729817D01*
X65447143Y-102729817D02*
X65209048Y-102729817D01*
X66209048Y-102348864D02*
X66970953Y-102348864D01*
X60198095Y-101785488D02*
X60102857Y-101737869D01*
X60102857Y-101737869D02*
X59960000Y-101737869D01*
X59960000Y-101737869D02*
X59817143Y-101785488D01*
X59817143Y-101785488D02*
X59721905Y-101880726D01*
X59721905Y-101880726D02*
X59674286Y-101975964D01*
X59674286Y-101975964D02*
X59626667Y-102166440D01*
X59626667Y-102166440D02*
X59626667Y-102309297D01*
X59626667Y-102309297D02*
X59674286Y-102499773D01*
X59674286Y-102499773D02*
X59721905Y-102595011D01*
X59721905Y-102595011D02*
X59817143Y-102690250D01*
X59817143Y-102690250D02*
X59960000Y-102737869D01*
X59960000Y-102737869D02*
X60055238Y-102737869D01*
X60055238Y-102737869D02*
X60198095Y-102690250D01*
X60198095Y-102690250D02*
X60245714Y-102642630D01*
X60245714Y-102642630D02*
X60245714Y-102309297D01*
X60245714Y-102309297D02*
X60055238Y-102309297D01*
X60674286Y-102737869D02*
X60674286Y-101737869D01*
X60674286Y-101737869D02*
X61245714Y-102737869D01*
X61245714Y-102737869D02*
X61245714Y-101737869D01*
X61721905Y-102737869D02*
X61721905Y-101737869D01*
X61721905Y-101737869D02*
X61960000Y-101737869D01*
X61960000Y-101737869D02*
X62102857Y-101785488D01*
X62102857Y-101785488D02*
X62198095Y-101880726D01*
X62198095Y-101880726D02*
X62245714Y-101975964D01*
X62245714Y-101975964D02*
X62293333Y-102166440D01*
X62293333Y-102166440D02*
X62293333Y-102309297D01*
X62293333Y-102309297D02*
X62245714Y-102499773D01*
X62245714Y-102499773D02*
X62198095Y-102595011D01*
X62198095Y-102595011D02*
X62102857Y-102690250D01*
X62102857Y-102690250D02*
X61960000Y-102737869D01*
X61960000Y-102737869D02*
X61721905Y-102737869D01*
X82923332Y-105182630D02*
X82875713Y-105230250D01*
X82875713Y-105230250D02*
X82732856Y-105277869D01*
X82732856Y-105277869D02*
X82637618Y-105277869D01*
X82637618Y-105277869D02*
X82494761Y-105230250D01*
X82494761Y-105230250D02*
X82399523Y-105135011D01*
X82399523Y-105135011D02*
X82351904Y-105039773D01*
X82351904Y-105039773D02*
X82304285Y-104849297D01*
X82304285Y-104849297D02*
X82304285Y-104706440D01*
X82304285Y-104706440D02*
X82351904Y-104515964D01*
X82351904Y-104515964D02*
X82399523Y-104420726D01*
X82399523Y-104420726D02*
X82494761Y-104325488D01*
X82494761Y-104325488D02*
X82637618Y-104277869D01*
X82637618Y-104277869D02*
X82732856Y-104277869D01*
X82732856Y-104277869D02*
X82875713Y-104325488D01*
X82875713Y-104325488D02*
X82923332Y-104373107D01*
X83494761Y-105277869D02*
X83399523Y-105230250D01*
X83399523Y-105230250D02*
X83351904Y-105182630D01*
X83351904Y-105182630D02*
X83304285Y-105087392D01*
X83304285Y-105087392D02*
X83304285Y-104801678D01*
X83304285Y-104801678D02*
X83351904Y-104706440D01*
X83351904Y-104706440D02*
X83399523Y-104658821D01*
X83399523Y-104658821D02*
X83494761Y-104611202D01*
X83494761Y-104611202D02*
X83637618Y-104611202D01*
X83637618Y-104611202D02*
X83732856Y-104658821D01*
X83732856Y-104658821D02*
X83780475Y-104706440D01*
X83780475Y-104706440D02*
X83828094Y-104801678D01*
X83828094Y-104801678D02*
X83828094Y-105087392D01*
X83828094Y-105087392D02*
X83780475Y-105182630D01*
X83780475Y-105182630D02*
X83732856Y-105230250D01*
X83732856Y-105230250D02*
X83637618Y-105277869D01*
X83637618Y-105277869D02*
X83494761Y-105277869D01*
X84256666Y-104611202D02*
X84256666Y-105277869D01*
X84256666Y-104706440D02*
X84304285Y-104658821D01*
X84304285Y-104658821D02*
X84399523Y-104611202D01*
X84399523Y-104611202D02*
X84542380Y-104611202D01*
X84542380Y-104611202D02*
X84637618Y-104658821D01*
X84637618Y-104658821D02*
X84685237Y-104754059D01*
X84685237Y-104754059D02*
X84685237Y-105277869D01*
X85018571Y-104611202D02*
X85399523Y-104611202D01*
X85161428Y-104277869D02*
X85161428Y-105135011D01*
X85161428Y-105135011D02*
X85209047Y-105230250D01*
X85209047Y-105230250D02*
X85304285Y-105277869D01*
X85304285Y-105277869D02*
X85399523Y-105277869D01*
X85732857Y-105277869D02*
X85732857Y-104611202D01*
X85732857Y-104801678D02*
X85780476Y-104706440D01*
X85780476Y-104706440D02*
X85828095Y-104658821D01*
X85828095Y-104658821D02*
X85923333Y-104611202D01*
X85923333Y-104611202D02*
X86018571Y-104611202D01*
X86494762Y-105277869D02*
X86399524Y-105230250D01*
X86399524Y-105230250D02*
X86351905Y-105182630D01*
X86351905Y-105182630D02*
X86304286Y-105087392D01*
X86304286Y-105087392D02*
X86304286Y-104801678D01*
X86304286Y-104801678D02*
X86351905Y-104706440D01*
X86351905Y-104706440D02*
X86399524Y-104658821D01*
X86399524Y-104658821D02*
X86494762Y-104611202D01*
X86494762Y-104611202D02*
X86637619Y-104611202D01*
X86637619Y-104611202D02*
X86732857Y-104658821D01*
X86732857Y-104658821D02*
X86780476Y-104706440D01*
X86780476Y-104706440D02*
X86828095Y-104801678D01*
X86828095Y-104801678D02*
X86828095Y-105087392D01*
X86828095Y-105087392D02*
X86780476Y-105182630D01*
X86780476Y-105182630D02*
X86732857Y-105230250D01*
X86732857Y-105230250D02*
X86637619Y-105277869D01*
X86637619Y-105277869D02*
X86494762Y-105277869D01*
X87399524Y-105277869D02*
X87304286Y-105230250D01*
X87304286Y-105230250D02*
X87256667Y-105135011D01*
X87256667Y-105135011D02*
X87256667Y-104277869D01*
X87923334Y-105277869D02*
X87828096Y-105230250D01*
X87828096Y-105230250D02*
X87780477Y-105135011D01*
X87780477Y-105135011D02*
X87780477Y-104277869D01*
X64444761Y-105277869D02*
X64111428Y-104801678D01*
X63873333Y-105277869D02*
X63873333Y-104277869D01*
X63873333Y-104277869D02*
X64254285Y-104277869D01*
X64254285Y-104277869D02*
X64349523Y-104325488D01*
X64349523Y-104325488D02*
X64397142Y-104373107D01*
X64397142Y-104373107D02*
X64444761Y-104468345D01*
X64444761Y-104468345D02*
X64444761Y-104611202D01*
X64444761Y-104611202D02*
X64397142Y-104706440D01*
X64397142Y-104706440D02*
X64349523Y-104754059D01*
X64349523Y-104754059D02*
X64254285Y-104801678D01*
X64254285Y-104801678D02*
X63873333Y-104801678D01*
X64825714Y-105230250D02*
X64968571Y-105277869D01*
X64968571Y-105277869D02*
X65206666Y-105277869D01*
X65206666Y-105277869D02*
X65301904Y-105230250D01*
X65301904Y-105230250D02*
X65349523Y-105182630D01*
X65349523Y-105182630D02*
X65397142Y-105087392D01*
X65397142Y-105087392D02*
X65397142Y-104992154D01*
X65397142Y-104992154D02*
X65349523Y-104896916D01*
X65349523Y-104896916D02*
X65301904Y-104849297D01*
X65301904Y-104849297D02*
X65206666Y-104801678D01*
X65206666Y-104801678D02*
X65016190Y-104754059D01*
X65016190Y-104754059D02*
X64920952Y-104706440D01*
X64920952Y-104706440D02*
X64873333Y-104658821D01*
X64873333Y-104658821D02*
X64825714Y-104563583D01*
X64825714Y-104563583D02*
X64825714Y-104468345D01*
X64825714Y-104468345D02*
X64873333Y-104373107D01*
X64873333Y-104373107D02*
X64920952Y-104325488D01*
X64920952Y-104325488D02*
X65016190Y-104277869D01*
X65016190Y-104277869D02*
X65254285Y-104277869D01*
X65254285Y-104277869D02*
X65397142Y-104325488D01*
X66254285Y-104611202D02*
X66254285Y-105277869D01*
X66016190Y-104230250D02*
X65778095Y-104944535D01*
X65778095Y-104944535D02*
X66397142Y-104944535D01*
X66920952Y-104706440D02*
X66825714Y-104658821D01*
X66825714Y-104658821D02*
X66778095Y-104611202D01*
X66778095Y-104611202D02*
X66730476Y-104515964D01*
X66730476Y-104515964D02*
X66730476Y-104468345D01*
X66730476Y-104468345D02*
X66778095Y-104373107D01*
X66778095Y-104373107D02*
X66825714Y-104325488D01*
X66825714Y-104325488D02*
X66920952Y-104277869D01*
X66920952Y-104277869D02*
X67111428Y-104277869D01*
X67111428Y-104277869D02*
X67206666Y-104325488D01*
X67206666Y-104325488D02*
X67254285Y-104373107D01*
X67254285Y-104373107D02*
X67301904Y-104468345D01*
X67301904Y-104468345D02*
X67301904Y-104515964D01*
X67301904Y-104515964D02*
X67254285Y-104611202D01*
X67254285Y-104611202D02*
X67206666Y-104658821D01*
X67206666Y-104658821D02*
X67111428Y-104706440D01*
X67111428Y-104706440D02*
X66920952Y-104706440D01*
X66920952Y-104706440D02*
X66825714Y-104754059D01*
X66825714Y-104754059D02*
X66778095Y-104801678D01*
X66778095Y-104801678D02*
X66730476Y-104896916D01*
X66730476Y-104896916D02*
X66730476Y-105087392D01*
X66730476Y-105087392D02*
X66778095Y-105182630D01*
X66778095Y-105182630D02*
X66825714Y-105230250D01*
X66825714Y-105230250D02*
X66920952Y-105277869D01*
X66920952Y-105277869D02*
X67111428Y-105277869D01*
X67111428Y-105277869D02*
X67206666Y-105230250D01*
X67206666Y-105230250D02*
X67254285Y-105182630D01*
X67254285Y-105182630D02*
X67301904Y-105087392D01*
X67301904Y-105087392D02*
X67301904Y-104896916D01*
X67301904Y-104896916D02*
X67254285Y-104801678D01*
X67254285Y-104801678D02*
X67206666Y-104754059D01*
X67206666Y-104754059D02*
X67111428Y-104706440D01*
X68206666Y-104277869D02*
X67730476Y-104277869D01*
X67730476Y-104277869D02*
X67682857Y-104754059D01*
X67682857Y-104754059D02*
X67730476Y-104706440D01*
X67730476Y-104706440D02*
X67825714Y-104658821D01*
X67825714Y-104658821D02*
X68063809Y-104658821D01*
X68063809Y-104658821D02*
X68159047Y-104706440D01*
X68159047Y-104706440D02*
X68206666Y-104754059D01*
X68206666Y-104754059D02*
X68254285Y-104849297D01*
X68254285Y-104849297D02*
X68254285Y-105087392D01*
X68254285Y-105087392D02*
X68206666Y-105182630D01*
X68206666Y-105182630D02*
X68159047Y-105230250D01*
X68159047Y-105230250D02*
X68063809Y-105277869D01*
X68063809Y-105277869D02*
X67825714Y-105277869D01*
X67825714Y-105277869D02*
X67730476Y-105230250D01*
X67730476Y-105230250D02*
X67682857Y-105182630D01*
X77394740Y-130296916D02*
X78156645Y-130296916D01*
X77775692Y-130677869D02*
X77775692Y-129915964D01*
X79156644Y-130677869D02*
X78585216Y-130677869D01*
X78870930Y-130677869D02*
X78870930Y-129677869D01*
X78870930Y-129677869D02*
X78775692Y-129820726D01*
X78775692Y-129820726D02*
X78680454Y-129915964D01*
X78680454Y-129915964D02*
X78585216Y-129963583D01*
X79537597Y-129773107D02*
X79585216Y-129725488D01*
X79585216Y-129725488D02*
X79680454Y-129677869D01*
X79680454Y-129677869D02*
X79918549Y-129677869D01*
X79918549Y-129677869D02*
X80013787Y-129725488D01*
X80013787Y-129725488D02*
X80061406Y-129773107D01*
X80061406Y-129773107D02*
X80109025Y-129868345D01*
X80109025Y-129868345D02*
X80109025Y-129963583D01*
X80109025Y-129963583D02*
X80061406Y-130106440D01*
X80061406Y-130106440D02*
X79489978Y-130677869D01*
X79489978Y-130677869D02*
X80109025Y-130677869D01*
X80394740Y-129677869D02*
X80728073Y-130677869D01*
X80728073Y-130677869D02*
X81061406Y-129677869D01*
X78870930Y-141155488D02*
X78775692Y-141107869D01*
X78775692Y-141107869D02*
X78632835Y-141107869D01*
X78632835Y-141107869D02*
X78489978Y-141155488D01*
X78489978Y-141155488D02*
X78394740Y-141250726D01*
X78394740Y-141250726D02*
X78347121Y-141345964D01*
X78347121Y-141345964D02*
X78299502Y-141536440D01*
X78299502Y-141536440D02*
X78299502Y-141679297D01*
X78299502Y-141679297D02*
X78347121Y-141869773D01*
X78347121Y-141869773D02*
X78394740Y-141965011D01*
X78394740Y-141965011D02*
X78489978Y-142060250D01*
X78489978Y-142060250D02*
X78632835Y-142107869D01*
X78632835Y-142107869D02*
X78728073Y-142107869D01*
X78728073Y-142107869D02*
X78870930Y-142060250D01*
X78870930Y-142060250D02*
X78918549Y-142012630D01*
X78918549Y-142012630D02*
X78918549Y-141679297D01*
X78918549Y-141679297D02*
X78728073Y-141679297D01*
X79347121Y-142107869D02*
X79347121Y-141107869D01*
X79347121Y-141107869D02*
X79918549Y-142107869D01*
X79918549Y-142107869D02*
X79918549Y-141107869D01*
X80394740Y-142107869D02*
X80394740Y-141107869D01*
X80394740Y-141107869D02*
X80632835Y-141107869D01*
X80632835Y-141107869D02*
X80775692Y-141155488D01*
X80775692Y-141155488D02*
X80870930Y-141250726D01*
X80870930Y-141250726D02*
X80918549Y-141345964D01*
X80918549Y-141345964D02*
X80966168Y-141536440D01*
X80966168Y-141536440D02*
X80966168Y-141679297D01*
X80966168Y-141679297D02*
X80918549Y-141869773D01*
X80918549Y-141869773D02*
X80870930Y-141965011D01*
X80870930Y-141965011D02*
X80775692Y-142060250D01*
X80775692Y-142060250D02*
X80632835Y-142107869D01*
X80632835Y-142107869D02*
X80394740Y-142107869D01*
X185035259Y-129725488D02*
X184940021Y-129677869D01*
X184940021Y-129677869D02*
X184797164Y-129677869D01*
X184797164Y-129677869D02*
X184654307Y-129725488D01*
X184654307Y-129725488D02*
X184559069Y-129820726D01*
X184559069Y-129820726D02*
X184511450Y-129915964D01*
X184511450Y-129915964D02*
X184463831Y-130106440D01*
X184463831Y-130106440D02*
X184463831Y-130249297D01*
X184463831Y-130249297D02*
X184511450Y-130439773D01*
X184511450Y-130439773D02*
X184559069Y-130535011D01*
X184559069Y-130535011D02*
X184654307Y-130630250D01*
X184654307Y-130630250D02*
X184797164Y-130677869D01*
X184797164Y-130677869D02*
X184892402Y-130677869D01*
X184892402Y-130677869D02*
X185035259Y-130630250D01*
X185035259Y-130630250D02*
X185082878Y-130582630D01*
X185082878Y-130582630D02*
X185082878Y-130249297D01*
X185082878Y-130249297D02*
X184892402Y-130249297D01*
X185511450Y-130677869D02*
X185511450Y-129677869D01*
X185511450Y-129677869D02*
X186082878Y-130677869D01*
X186082878Y-130677869D02*
X186082878Y-129677869D01*
X186559069Y-130677869D02*
X186559069Y-129677869D01*
X186559069Y-129677869D02*
X186797164Y-129677869D01*
X186797164Y-129677869D02*
X186940021Y-129725488D01*
X186940021Y-129725488D02*
X187035259Y-129820726D01*
X187035259Y-129820726D02*
X187082878Y-129915964D01*
X187082878Y-129915964D02*
X187130497Y-130106440D01*
X187130497Y-130106440D02*
X187130497Y-130249297D01*
X187130497Y-130249297D02*
X187082878Y-130439773D01*
X187082878Y-130439773D02*
X187035259Y-130535011D01*
X187035259Y-130535011D02*
X186940021Y-130630250D01*
X186940021Y-130630250D02*
X186797164Y-130677869D01*
X186797164Y-130677869D02*
X186559069Y-130677869D01*
X184511450Y-141726916D02*
X185273355Y-141726916D01*
X184892402Y-142107869D02*
X184892402Y-141345964D01*
X186273354Y-142107869D02*
X185701926Y-142107869D01*
X185987640Y-142107869D02*
X185987640Y-141107869D01*
X185987640Y-141107869D02*
X185892402Y-141250726D01*
X185892402Y-141250726D02*
X185797164Y-141345964D01*
X185797164Y-141345964D02*
X185701926Y-141393583D01*
X186654307Y-141203107D02*
X186701926Y-141155488D01*
X186701926Y-141155488D02*
X186797164Y-141107869D01*
X186797164Y-141107869D02*
X187035259Y-141107869D01*
X187035259Y-141107869D02*
X187130497Y-141155488D01*
X187130497Y-141155488D02*
X187178116Y-141203107D01*
X187178116Y-141203107D02*
X187225735Y-141298345D01*
X187225735Y-141298345D02*
X187225735Y-141393583D01*
X187225735Y-141393583D02*
X187178116Y-141536440D01*
X187178116Y-141536440D02*
X186606688Y-142107869D01*
X186606688Y-142107869D02*
X187225735Y-142107869D01*
X187511450Y-141107869D02*
X187844783Y-142107869D01*
X187844783Y-142107869D02*
X188178116Y-141107869D01*
X170541450Y-128137869D02*
X170541450Y-127137869D01*
X170541450Y-127137869D02*
X170922402Y-127137869D01*
X170922402Y-127137869D02*
X171017640Y-127185488D01*
X171017640Y-127185488D02*
X171065259Y-127233107D01*
X171065259Y-127233107D02*
X171112878Y-127328345D01*
X171112878Y-127328345D02*
X171112878Y-127471202D01*
X171112878Y-127471202D02*
X171065259Y-127566440D01*
X171065259Y-127566440D02*
X171017640Y-127614059D01*
X171017640Y-127614059D02*
X170922402Y-127661678D01*
X170922402Y-127661678D02*
X170541450Y-127661678D01*
X171684307Y-128137869D02*
X171589069Y-128090250D01*
X171589069Y-128090250D02*
X171541450Y-128042630D01*
X171541450Y-128042630D02*
X171493831Y-127947392D01*
X171493831Y-127947392D02*
X171493831Y-127661678D01*
X171493831Y-127661678D02*
X171541450Y-127566440D01*
X171541450Y-127566440D02*
X171589069Y-127518821D01*
X171589069Y-127518821D02*
X171684307Y-127471202D01*
X171684307Y-127471202D02*
X171827164Y-127471202D01*
X171827164Y-127471202D02*
X171922402Y-127518821D01*
X171922402Y-127518821D02*
X171970021Y-127566440D01*
X171970021Y-127566440D02*
X172017640Y-127661678D01*
X172017640Y-127661678D02*
X172017640Y-127947392D01*
X172017640Y-127947392D02*
X171970021Y-128042630D01*
X171970021Y-128042630D02*
X171922402Y-128090250D01*
X171922402Y-128090250D02*
X171827164Y-128137869D01*
X171827164Y-128137869D02*
X171684307Y-128137869D01*
X172350974Y-127471202D02*
X172541450Y-128137869D01*
X172541450Y-128137869D02*
X172731926Y-127661678D01*
X172731926Y-127661678D02*
X172922402Y-128137869D01*
X172922402Y-128137869D02*
X173112878Y-127471202D01*
X173874783Y-128090250D02*
X173779545Y-128137869D01*
X173779545Y-128137869D02*
X173589069Y-128137869D01*
X173589069Y-128137869D02*
X173493831Y-128090250D01*
X173493831Y-128090250D02*
X173446212Y-127995011D01*
X173446212Y-127995011D02*
X173446212Y-127614059D01*
X173446212Y-127614059D02*
X173493831Y-127518821D01*
X173493831Y-127518821D02*
X173589069Y-127471202D01*
X173589069Y-127471202D02*
X173779545Y-127471202D01*
X173779545Y-127471202D02*
X173874783Y-127518821D01*
X173874783Y-127518821D02*
X173922402Y-127614059D01*
X173922402Y-127614059D02*
X173922402Y-127709297D01*
X173922402Y-127709297D02*
X173446212Y-127804535D01*
X174350974Y-128137869D02*
X174350974Y-127471202D01*
X174350974Y-127661678D02*
X174398593Y-127566440D01*
X174398593Y-127566440D02*
X174446212Y-127518821D01*
X174446212Y-127518821D02*
X174541450Y-127471202D01*
X174541450Y-127471202D02*
X174636688Y-127471202D01*
X175922403Y-127137869D02*
X176112879Y-127137869D01*
X176112879Y-127137869D02*
X176208117Y-127185488D01*
X176208117Y-127185488D02*
X176303355Y-127280726D01*
X176303355Y-127280726D02*
X176350974Y-127471202D01*
X176350974Y-127471202D02*
X176350974Y-127804535D01*
X176350974Y-127804535D02*
X176303355Y-127995011D01*
X176303355Y-127995011D02*
X176208117Y-128090250D01*
X176208117Y-128090250D02*
X176112879Y-128137869D01*
X176112879Y-128137869D02*
X175922403Y-128137869D01*
X175922403Y-128137869D02*
X175827165Y-128090250D01*
X175827165Y-128090250D02*
X175731927Y-127995011D01*
X175731927Y-127995011D02*
X175684308Y-127804535D01*
X175684308Y-127804535D02*
X175684308Y-127471202D01*
X175684308Y-127471202D02*
X175731927Y-127280726D01*
X175731927Y-127280726D02*
X175827165Y-127185488D01*
X175827165Y-127185488D02*
X175922403Y-127137869D01*
X176779546Y-127137869D02*
X176779546Y-127947392D01*
X176779546Y-127947392D02*
X176827165Y-128042630D01*
X176827165Y-128042630D02*
X176874784Y-128090250D01*
X176874784Y-128090250D02*
X176970022Y-128137869D01*
X176970022Y-128137869D02*
X177160498Y-128137869D01*
X177160498Y-128137869D02*
X177255736Y-128090250D01*
X177255736Y-128090250D02*
X177303355Y-128042630D01*
X177303355Y-128042630D02*
X177350974Y-127947392D01*
X177350974Y-127947392D02*
X177350974Y-127137869D01*
X177684308Y-127137869D02*
X178255736Y-127137869D01*
X177970022Y-128137869D02*
X177970022Y-127137869D01*
X82911450Y-128137869D02*
X82911450Y-127137869D01*
X82911450Y-127137869D02*
X83292402Y-127137869D01*
X83292402Y-127137869D02*
X83387640Y-127185488D01*
X83387640Y-127185488D02*
X83435259Y-127233107D01*
X83435259Y-127233107D02*
X83482878Y-127328345D01*
X83482878Y-127328345D02*
X83482878Y-127471202D01*
X83482878Y-127471202D02*
X83435259Y-127566440D01*
X83435259Y-127566440D02*
X83387640Y-127614059D01*
X83387640Y-127614059D02*
X83292402Y-127661678D01*
X83292402Y-127661678D02*
X82911450Y-127661678D01*
X84054307Y-128137869D02*
X83959069Y-128090250D01*
X83959069Y-128090250D02*
X83911450Y-128042630D01*
X83911450Y-128042630D02*
X83863831Y-127947392D01*
X83863831Y-127947392D02*
X83863831Y-127661678D01*
X83863831Y-127661678D02*
X83911450Y-127566440D01*
X83911450Y-127566440D02*
X83959069Y-127518821D01*
X83959069Y-127518821D02*
X84054307Y-127471202D01*
X84054307Y-127471202D02*
X84197164Y-127471202D01*
X84197164Y-127471202D02*
X84292402Y-127518821D01*
X84292402Y-127518821D02*
X84340021Y-127566440D01*
X84340021Y-127566440D02*
X84387640Y-127661678D01*
X84387640Y-127661678D02*
X84387640Y-127947392D01*
X84387640Y-127947392D02*
X84340021Y-128042630D01*
X84340021Y-128042630D02*
X84292402Y-128090250D01*
X84292402Y-128090250D02*
X84197164Y-128137869D01*
X84197164Y-128137869D02*
X84054307Y-128137869D01*
X84720974Y-127471202D02*
X84911450Y-128137869D01*
X84911450Y-128137869D02*
X85101926Y-127661678D01*
X85101926Y-127661678D02*
X85292402Y-128137869D01*
X85292402Y-128137869D02*
X85482878Y-127471202D01*
X86244783Y-128090250D02*
X86149545Y-128137869D01*
X86149545Y-128137869D02*
X85959069Y-128137869D01*
X85959069Y-128137869D02*
X85863831Y-128090250D01*
X85863831Y-128090250D02*
X85816212Y-127995011D01*
X85816212Y-127995011D02*
X85816212Y-127614059D01*
X85816212Y-127614059D02*
X85863831Y-127518821D01*
X85863831Y-127518821D02*
X85959069Y-127471202D01*
X85959069Y-127471202D02*
X86149545Y-127471202D01*
X86149545Y-127471202D02*
X86244783Y-127518821D01*
X86244783Y-127518821D02*
X86292402Y-127614059D01*
X86292402Y-127614059D02*
X86292402Y-127709297D01*
X86292402Y-127709297D02*
X85816212Y-127804535D01*
X86720974Y-128137869D02*
X86720974Y-127471202D01*
X86720974Y-127661678D02*
X86768593Y-127566440D01*
X86768593Y-127566440D02*
X86816212Y-127518821D01*
X86816212Y-127518821D02*
X86911450Y-127471202D01*
X86911450Y-127471202D02*
X87006688Y-127471202D01*
X88101927Y-128137869D02*
X88101927Y-127137869D01*
X88578117Y-128137869D02*
X88578117Y-127137869D01*
X88578117Y-127137869D02*
X89149545Y-128137869D01*
X89149545Y-128137869D02*
X89149545Y-127137869D01*
X123437381Y-136996202D02*
X123627857Y-137662869D01*
X123627857Y-137662869D02*
X123818333Y-137186678D01*
X123818333Y-137186678D02*
X124008809Y-137662869D01*
X124008809Y-137662869D02*
X124199285Y-136996202D01*
X124485000Y-136996202D02*
X124675476Y-137662869D01*
X124675476Y-137662869D02*
X124865952Y-137186678D01*
X124865952Y-137186678D02*
X125056428Y-137662869D01*
X125056428Y-137662869D02*
X125246904Y-136996202D01*
X125532619Y-136996202D02*
X125723095Y-137662869D01*
X125723095Y-137662869D02*
X125913571Y-137186678D01*
X125913571Y-137186678D02*
X126104047Y-137662869D01*
X126104047Y-137662869D02*
X126294523Y-136996202D01*
X126675476Y-137567630D02*
X126723095Y-137615250D01*
X126723095Y-137615250D02*
X126675476Y-137662869D01*
X126675476Y-137662869D02*
X126627857Y-137615250D01*
X126627857Y-137615250D02*
X126675476Y-137567630D01*
X126675476Y-137567630D02*
X126675476Y-137662869D01*
X127580237Y-137662869D02*
X127580237Y-136662869D01*
X127580237Y-137615250D02*
X127484999Y-137662869D01*
X127484999Y-137662869D02*
X127294523Y-137662869D01*
X127294523Y-137662869D02*
X127199285Y-137615250D01*
X127199285Y-137615250D02*
X127151666Y-137567630D01*
X127151666Y-137567630D02*
X127104047Y-137472392D01*
X127104047Y-137472392D02*
X127104047Y-137186678D01*
X127104047Y-137186678D02*
X127151666Y-137091440D01*
X127151666Y-137091440D02*
X127199285Y-137043821D01*
X127199285Y-137043821D02*
X127294523Y-136996202D01*
X127294523Y-136996202D02*
X127484999Y-136996202D01*
X127484999Y-136996202D02*
X127580237Y-137043821D01*
X128437380Y-137615250D02*
X128342142Y-137662869D01*
X128342142Y-137662869D02*
X128151666Y-137662869D01*
X128151666Y-137662869D02*
X128056428Y-137615250D01*
X128056428Y-137615250D02*
X128008809Y-137520011D01*
X128008809Y-137520011D02*
X128008809Y-137139059D01*
X128008809Y-137139059D02*
X128056428Y-137043821D01*
X128056428Y-137043821D02*
X128151666Y-136996202D01*
X128151666Y-136996202D02*
X128342142Y-136996202D01*
X128342142Y-136996202D02*
X128437380Y-137043821D01*
X128437380Y-137043821D02*
X128484999Y-137139059D01*
X128484999Y-137139059D02*
X128484999Y-137234297D01*
X128484999Y-137234297D02*
X128008809Y-137329535D01*
X128913571Y-136996202D02*
X128913571Y-137662869D01*
X128913571Y-137091440D02*
X128961190Y-137043821D01*
X128961190Y-137043821D02*
X129056428Y-136996202D01*
X129056428Y-136996202D02*
X129199285Y-136996202D01*
X129199285Y-136996202D02*
X129294523Y-137043821D01*
X129294523Y-137043821D02*
X129342142Y-137139059D01*
X129342142Y-137139059D02*
X129342142Y-137662869D01*
X129818333Y-136996202D02*
X129818333Y-137662869D01*
X129818333Y-137091440D02*
X129865952Y-137043821D01*
X129865952Y-137043821D02*
X129961190Y-136996202D01*
X129961190Y-136996202D02*
X130104047Y-136996202D01*
X130104047Y-136996202D02*
X130199285Y-137043821D01*
X130199285Y-137043821D02*
X130246904Y-137139059D01*
X130246904Y-137139059D02*
X130246904Y-137662869D01*
X130723095Y-137662869D02*
X130723095Y-136996202D01*
X130723095Y-136662869D02*
X130675476Y-136710488D01*
X130675476Y-136710488D02*
X130723095Y-136758107D01*
X130723095Y-136758107D02*
X130770714Y-136710488D01*
X130770714Y-136710488D02*
X130723095Y-136662869D01*
X130723095Y-136662869D02*
X130723095Y-136758107D01*
X131151666Y-137615250D02*
X131246904Y-137662869D01*
X131246904Y-137662869D02*
X131437380Y-137662869D01*
X131437380Y-137662869D02*
X131532618Y-137615250D01*
X131532618Y-137615250D02*
X131580237Y-137520011D01*
X131580237Y-137520011D02*
X131580237Y-137472392D01*
X131580237Y-137472392D02*
X131532618Y-137377154D01*
X131532618Y-137377154D02*
X131437380Y-137329535D01*
X131437380Y-137329535D02*
X131294523Y-137329535D01*
X131294523Y-137329535D02*
X131199285Y-137281916D01*
X131199285Y-137281916D02*
X131151666Y-137186678D01*
X131151666Y-137186678D02*
X131151666Y-137139059D01*
X131151666Y-137139059D02*
X131199285Y-137043821D01*
X131199285Y-137043821D02*
X131294523Y-136996202D01*
X131294523Y-136996202D02*
X131437380Y-136996202D01*
X131437380Y-136996202D02*
X131532618Y-137043821D01*
X132437380Y-136996202D02*
X132437380Y-137805726D01*
X132437380Y-137805726D02*
X132389761Y-137900964D01*
X132389761Y-137900964D02*
X132342142Y-137948583D01*
X132342142Y-137948583D02*
X132246904Y-137996202D01*
X132246904Y-137996202D02*
X132104047Y-137996202D01*
X132104047Y-137996202D02*
X132008809Y-137948583D01*
X132437380Y-137615250D02*
X132342142Y-137662869D01*
X132342142Y-137662869D02*
X132151666Y-137662869D01*
X132151666Y-137662869D02*
X132056428Y-137615250D01*
X132056428Y-137615250D02*
X132008809Y-137567630D01*
X132008809Y-137567630D02*
X131961190Y-137472392D01*
X131961190Y-137472392D02*
X131961190Y-137186678D01*
X131961190Y-137186678D02*
X132008809Y-137091440D01*
X132008809Y-137091440D02*
X132056428Y-137043821D01*
X132056428Y-137043821D02*
X132151666Y-136996202D01*
X132151666Y-136996202D02*
X132342142Y-136996202D01*
X132342142Y-136996202D02*
X132437380Y-137043821D01*
X133342142Y-136996202D02*
X133342142Y-137662869D01*
X132913571Y-136996202D02*
X132913571Y-137520011D01*
X132913571Y-137520011D02*
X132961190Y-137615250D01*
X132961190Y-137615250D02*
X133056428Y-137662869D01*
X133056428Y-137662869D02*
X133199285Y-137662869D01*
X133199285Y-137662869D02*
X133294523Y-137615250D01*
X133294523Y-137615250D02*
X133342142Y-137567630D01*
X133818333Y-136996202D02*
X133818333Y-137662869D01*
X133818333Y-137091440D02*
X133865952Y-137043821D01*
X133865952Y-137043821D02*
X133961190Y-136996202D01*
X133961190Y-136996202D02*
X134104047Y-136996202D01*
X134104047Y-136996202D02*
X134199285Y-137043821D01*
X134199285Y-137043821D02*
X134246904Y-137139059D01*
X134246904Y-137139059D02*
X134246904Y-137662869D01*
X134723095Y-137662869D02*
X134723095Y-136996202D01*
X134723095Y-136662869D02*
X134675476Y-136710488D01*
X134675476Y-136710488D02*
X134723095Y-136758107D01*
X134723095Y-136758107D02*
X134770714Y-136710488D01*
X134770714Y-136710488D02*
X134723095Y-136662869D01*
X134723095Y-136662869D02*
X134723095Y-136758107D01*
X135627856Y-137662869D02*
X135627856Y-137139059D01*
X135627856Y-137139059D02*
X135580237Y-137043821D01*
X135580237Y-137043821D02*
X135484999Y-136996202D01*
X135484999Y-136996202D02*
X135294523Y-136996202D01*
X135294523Y-136996202D02*
X135199285Y-137043821D01*
X135627856Y-137615250D02*
X135532618Y-137662869D01*
X135532618Y-137662869D02*
X135294523Y-137662869D01*
X135294523Y-137662869D02*
X135199285Y-137615250D01*
X135199285Y-137615250D02*
X135151666Y-137520011D01*
X135151666Y-137520011D02*
X135151666Y-137424773D01*
X135151666Y-137424773D02*
X135199285Y-137329535D01*
X135199285Y-137329535D02*
X135294523Y-137281916D01*
X135294523Y-137281916D02*
X135532618Y-137281916D01*
X135532618Y-137281916D02*
X135627856Y-137234297D01*
X136104047Y-137567630D02*
X136151666Y-137615250D01*
X136151666Y-137615250D02*
X136104047Y-137662869D01*
X136104047Y-137662869D02*
X136056428Y-137615250D01*
X136056428Y-137615250D02*
X136104047Y-137567630D01*
X136104047Y-137567630D02*
X136104047Y-137662869D01*
X137008808Y-137662869D02*
X137008808Y-136662869D01*
X137008808Y-137615250D02*
X136913570Y-137662869D01*
X136913570Y-137662869D02*
X136723094Y-137662869D01*
X136723094Y-137662869D02*
X136627856Y-137615250D01*
X136627856Y-137615250D02*
X136580237Y-137567630D01*
X136580237Y-137567630D02*
X136532618Y-137472392D01*
X136532618Y-137472392D02*
X136532618Y-137186678D01*
X136532618Y-137186678D02*
X136580237Y-137091440D01*
X136580237Y-137091440D02*
X136627856Y-137043821D01*
X136627856Y-137043821D02*
X136723094Y-136996202D01*
X136723094Y-136996202D02*
X136913570Y-136996202D01*
X136913570Y-136996202D02*
X137008808Y-137043821D01*
X137865951Y-137615250D02*
X137770713Y-137662869D01*
X137770713Y-137662869D02*
X137580237Y-137662869D01*
X137580237Y-137662869D02*
X137484999Y-137615250D01*
X137484999Y-137615250D02*
X137437380Y-137520011D01*
X137437380Y-137520011D02*
X137437380Y-137139059D01*
X137437380Y-137139059D02*
X137484999Y-137043821D01*
X137484999Y-137043821D02*
X137580237Y-136996202D01*
X137580237Y-136996202D02*
X137770713Y-136996202D01*
X137770713Y-136996202D02*
X137865951Y-137043821D01*
X137865951Y-137043821D02*
X137913570Y-137139059D01*
X137913570Y-137139059D02*
X137913570Y-137234297D01*
X137913570Y-137234297D02*
X137437380Y-137329535D01*
X139104047Y-137281916D02*
X139865952Y-137281916D01*
X141056428Y-136758107D02*
X141104047Y-136710488D01*
X141104047Y-136710488D02*
X141199285Y-136662869D01*
X141199285Y-136662869D02*
X141437380Y-136662869D01*
X141437380Y-136662869D02*
X141532618Y-136710488D01*
X141532618Y-136710488D02*
X141580237Y-136758107D01*
X141580237Y-136758107D02*
X141627856Y-136853345D01*
X141627856Y-136853345D02*
X141627856Y-136948583D01*
X141627856Y-136948583D02*
X141580237Y-137091440D01*
X141580237Y-137091440D02*
X141008809Y-137662869D01*
X141008809Y-137662869D02*
X141627856Y-137662869D01*
X142246904Y-136662869D02*
X142342142Y-136662869D01*
X142342142Y-136662869D02*
X142437380Y-136710488D01*
X142437380Y-136710488D02*
X142484999Y-136758107D01*
X142484999Y-136758107D02*
X142532618Y-136853345D01*
X142532618Y-136853345D02*
X142580237Y-137043821D01*
X142580237Y-137043821D02*
X142580237Y-137281916D01*
X142580237Y-137281916D02*
X142532618Y-137472392D01*
X142532618Y-137472392D02*
X142484999Y-137567630D01*
X142484999Y-137567630D02*
X142437380Y-137615250D01*
X142437380Y-137615250D02*
X142342142Y-137662869D01*
X142342142Y-137662869D02*
X142246904Y-137662869D01*
X142246904Y-137662869D02*
X142151666Y-137615250D01*
X142151666Y-137615250D02*
X142104047Y-137567630D01*
X142104047Y-137567630D02*
X142056428Y-137472392D01*
X142056428Y-137472392D02*
X142008809Y-137281916D01*
X142008809Y-137281916D02*
X142008809Y-137043821D01*
X142008809Y-137043821D02*
X142056428Y-136853345D01*
X142056428Y-136853345D02*
X142104047Y-136758107D01*
X142104047Y-136758107D02*
X142151666Y-136710488D01*
X142151666Y-136710488D02*
X142246904Y-136662869D01*
X142961190Y-136758107D02*
X143008809Y-136710488D01*
X143008809Y-136710488D02*
X143104047Y-136662869D01*
X143104047Y-136662869D02*
X143342142Y-136662869D01*
X143342142Y-136662869D02*
X143437380Y-136710488D01*
X143437380Y-136710488D02*
X143484999Y-136758107D01*
X143484999Y-136758107D02*
X143532618Y-136853345D01*
X143532618Y-136853345D02*
X143532618Y-136948583D01*
X143532618Y-136948583D02*
X143484999Y-137091440D01*
X143484999Y-137091440D02*
X142913571Y-137662869D01*
X142913571Y-137662869D02*
X143532618Y-137662869D01*
X144437380Y-136662869D02*
X143961190Y-136662869D01*
X143961190Y-136662869D02*
X143913571Y-137139059D01*
X143913571Y-137139059D02*
X143961190Y-137091440D01*
X143961190Y-137091440D02*
X144056428Y-137043821D01*
X144056428Y-137043821D02*
X144294523Y-137043821D01*
X144294523Y-137043821D02*
X144389761Y-137091440D01*
X144389761Y-137091440D02*
X144437380Y-137139059D01*
X144437380Y-137139059D02*
X144484999Y-137234297D01*
X144484999Y-137234297D02*
X144484999Y-137472392D01*
X144484999Y-137472392D02*
X144437380Y-137567630D01*
X144437380Y-137567630D02*
X144389761Y-137615250D01*
X144389761Y-137615250D02*
X144294523Y-137662869D01*
X144294523Y-137662869D02*
X144056428Y-137662869D01*
X144056428Y-137662869D02*
X143961190Y-137615250D01*
X143961190Y-137615250D02*
X143913571Y-137567630D01*
D12*
X119985001Y-135619400D02*
X120199287Y-135690828D01*
X120199287Y-135690828D02*
X120556429Y-135690828D01*
X120556429Y-135690828D02*
X120699287Y-135619400D01*
X120699287Y-135619400D02*
X120770715Y-135547971D01*
X120770715Y-135547971D02*
X120842144Y-135405114D01*
X120842144Y-135405114D02*
X120842144Y-135262257D01*
X120842144Y-135262257D02*
X120770715Y-135119400D01*
X120770715Y-135119400D02*
X120699287Y-135047971D01*
X120699287Y-135047971D02*
X120556429Y-134976542D01*
X120556429Y-134976542D02*
X120270715Y-134905114D01*
X120270715Y-134905114D02*
X120127858Y-134833685D01*
X120127858Y-134833685D02*
X120056429Y-134762257D01*
X120056429Y-134762257D02*
X119985001Y-134619400D01*
X119985001Y-134619400D02*
X119985001Y-134476542D01*
X119985001Y-134476542D02*
X120056429Y-134333685D01*
X120056429Y-134333685D02*
X120127858Y-134262257D01*
X120127858Y-134262257D02*
X120270715Y-134190828D01*
X120270715Y-134190828D02*
X120627858Y-134190828D01*
X120627858Y-134190828D02*
X120842144Y-134262257D01*
X121485000Y-134690828D02*
X121485000Y-136190828D01*
X121485000Y-134762257D02*
X121627858Y-134690828D01*
X121627858Y-134690828D02*
X121913572Y-134690828D01*
X121913572Y-134690828D02*
X122056429Y-134762257D01*
X122056429Y-134762257D02*
X122127858Y-134833685D01*
X122127858Y-134833685D02*
X122199286Y-134976542D01*
X122199286Y-134976542D02*
X122199286Y-135405114D01*
X122199286Y-135405114D02*
X122127858Y-135547971D01*
X122127858Y-135547971D02*
X122056429Y-135619400D01*
X122056429Y-135619400D02*
X121913572Y-135690828D01*
X121913572Y-135690828D02*
X121627858Y-135690828D01*
X121627858Y-135690828D02*
X121485000Y-135619400D01*
X123056429Y-135690828D02*
X122913572Y-135619400D01*
X122913572Y-135619400D02*
X122842143Y-135476542D01*
X122842143Y-135476542D02*
X122842143Y-134190828D01*
X123627857Y-135690828D02*
X123627857Y-134690828D01*
X123627857Y-134190828D02*
X123556429Y-134262257D01*
X123556429Y-134262257D02*
X123627857Y-134333685D01*
X123627857Y-134333685D02*
X123699286Y-134262257D01*
X123699286Y-134262257D02*
X123627857Y-134190828D01*
X123627857Y-134190828D02*
X123627857Y-134333685D01*
X124127858Y-134690828D02*
X124699286Y-134690828D01*
X124342143Y-134190828D02*
X124342143Y-135476542D01*
X124342143Y-135476542D02*
X124413572Y-135619400D01*
X124413572Y-135619400D02*
X124556429Y-135690828D01*
X124556429Y-135690828D02*
X124699286Y-135690828D01*
X125699286Y-134905114D02*
X125199286Y-134905114D01*
X125199286Y-135690828D02*
X125199286Y-134190828D01*
X125199286Y-134190828D02*
X125913572Y-134190828D01*
X126699286Y-135690828D02*
X126556429Y-135619400D01*
X126556429Y-135619400D02*
X126485000Y-135476542D01*
X126485000Y-135476542D02*
X126485000Y-134190828D01*
X127913572Y-135690828D02*
X127913572Y-134905114D01*
X127913572Y-134905114D02*
X127842143Y-134762257D01*
X127842143Y-134762257D02*
X127699286Y-134690828D01*
X127699286Y-134690828D02*
X127413572Y-134690828D01*
X127413572Y-134690828D02*
X127270714Y-134762257D01*
X127913572Y-135619400D02*
X127770714Y-135690828D01*
X127770714Y-135690828D02*
X127413572Y-135690828D01*
X127413572Y-135690828D02*
X127270714Y-135619400D01*
X127270714Y-135619400D02*
X127199286Y-135476542D01*
X127199286Y-135476542D02*
X127199286Y-135333685D01*
X127199286Y-135333685D02*
X127270714Y-135190828D01*
X127270714Y-135190828D02*
X127413572Y-135119400D01*
X127413572Y-135119400D02*
X127770714Y-135119400D01*
X127770714Y-135119400D02*
X127913572Y-135047971D01*
X128627857Y-134690828D02*
X128627857Y-136190828D01*
X128627857Y-134762257D02*
X128770715Y-134690828D01*
X128770715Y-134690828D02*
X129056429Y-134690828D01*
X129056429Y-134690828D02*
X129199286Y-134762257D01*
X129199286Y-134762257D02*
X129270715Y-134833685D01*
X129270715Y-134833685D02*
X129342143Y-134976542D01*
X129342143Y-134976542D02*
X129342143Y-135405114D01*
X129342143Y-135405114D02*
X129270715Y-135547971D01*
X129270715Y-135547971D02*
X129199286Y-135619400D01*
X129199286Y-135619400D02*
X129056429Y-135690828D01*
X129056429Y-135690828D02*
X128770715Y-135690828D01*
X128770715Y-135690828D02*
X128627857Y-135619400D01*
X131627857Y-134905114D02*
X131842143Y-134976542D01*
X131842143Y-134976542D02*
X131913572Y-135047971D01*
X131913572Y-135047971D02*
X131985000Y-135190828D01*
X131985000Y-135190828D02*
X131985000Y-135405114D01*
X131985000Y-135405114D02*
X131913572Y-135547971D01*
X131913572Y-135547971D02*
X131842143Y-135619400D01*
X131842143Y-135619400D02*
X131699286Y-135690828D01*
X131699286Y-135690828D02*
X131127857Y-135690828D01*
X131127857Y-135690828D02*
X131127857Y-134190828D01*
X131127857Y-134190828D02*
X131627857Y-134190828D01*
X131627857Y-134190828D02*
X131770715Y-134262257D01*
X131770715Y-134262257D02*
X131842143Y-134333685D01*
X131842143Y-134333685D02*
X131913572Y-134476542D01*
X131913572Y-134476542D02*
X131913572Y-134619400D01*
X131913572Y-134619400D02*
X131842143Y-134762257D01*
X131842143Y-134762257D02*
X131770715Y-134833685D01*
X131770715Y-134833685D02*
X131627857Y-134905114D01*
X131627857Y-134905114D02*
X131127857Y-134905114D01*
X133270715Y-135690828D02*
X133270715Y-134905114D01*
X133270715Y-134905114D02*
X133199286Y-134762257D01*
X133199286Y-134762257D02*
X133056429Y-134690828D01*
X133056429Y-134690828D02*
X132770715Y-134690828D01*
X132770715Y-134690828D02*
X132627857Y-134762257D01*
X133270715Y-135619400D02*
X133127857Y-135690828D01*
X133127857Y-135690828D02*
X132770715Y-135690828D01*
X132770715Y-135690828D02*
X132627857Y-135619400D01*
X132627857Y-135619400D02*
X132556429Y-135476542D01*
X132556429Y-135476542D02*
X132556429Y-135333685D01*
X132556429Y-135333685D02*
X132627857Y-135190828D01*
X132627857Y-135190828D02*
X132770715Y-135119400D01*
X132770715Y-135119400D02*
X133127857Y-135119400D01*
X133127857Y-135119400D02*
X133270715Y-135047971D01*
X134627858Y-135619400D02*
X134485000Y-135690828D01*
X134485000Y-135690828D02*
X134199286Y-135690828D01*
X134199286Y-135690828D02*
X134056429Y-135619400D01*
X134056429Y-135619400D02*
X133985000Y-135547971D01*
X133985000Y-135547971D02*
X133913572Y-135405114D01*
X133913572Y-135405114D02*
X133913572Y-134976542D01*
X133913572Y-134976542D02*
X133985000Y-134833685D01*
X133985000Y-134833685D02*
X134056429Y-134762257D01*
X134056429Y-134762257D02*
X134199286Y-134690828D01*
X134199286Y-134690828D02*
X134485000Y-134690828D01*
X134485000Y-134690828D02*
X134627858Y-134762257D01*
X135270714Y-135690828D02*
X135270714Y-134190828D01*
X135413572Y-135119400D02*
X135842143Y-135690828D01*
X135842143Y-134690828D02*
X135270714Y-135262257D01*
X136485000Y-134690828D02*
X136485000Y-136190828D01*
X136485000Y-134762257D02*
X136627858Y-134690828D01*
X136627858Y-134690828D02*
X136913572Y-134690828D01*
X136913572Y-134690828D02*
X137056429Y-134762257D01*
X137056429Y-134762257D02*
X137127858Y-134833685D01*
X137127858Y-134833685D02*
X137199286Y-134976542D01*
X137199286Y-134976542D02*
X137199286Y-135405114D01*
X137199286Y-135405114D02*
X137127858Y-135547971D01*
X137127858Y-135547971D02*
X137056429Y-135619400D01*
X137056429Y-135619400D02*
X136913572Y-135690828D01*
X136913572Y-135690828D02*
X136627858Y-135690828D01*
X136627858Y-135690828D02*
X136485000Y-135619400D01*
X138056429Y-135690828D02*
X137913572Y-135619400D01*
X137913572Y-135619400D02*
X137842143Y-135476542D01*
X137842143Y-135476542D02*
X137842143Y-134190828D01*
X139270715Y-135690828D02*
X139270715Y-134905114D01*
X139270715Y-134905114D02*
X139199286Y-134762257D01*
X139199286Y-134762257D02*
X139056429Y-134690828D01*
X139056429Y-134690828D02*
X138770715Y-134690828D01*
X138770715Y-134690828D02*
X138627857Y-134762257D01*
X139270715Y-135619400D02*
X139127857Y-135690828D01*
X139127857Y-135690828D02*
X138770715Y-135690828D01*
X138770715Y-135690828D02*
X138627857Y-135619400D01*
X138627857Y-135619400D02*
X138556429Y-135476542D01*
X138556429Y-135476542D02*
X138556429Y-135333685D01*
X138556429Y-135333685D02*
X138627857Y-135190828D01*
X138627857Y-135190828D02*
X138770715Y-135119400D01*
X138770715Y-135119400D02*
X139127857Y-135119400D01*
X139127857Y-135119400D02*
X139270715Y-135047971D01*
X139985000Y-134690828D02*
X139985000Y-135690828D01*
X139985000Y-134833685D02*
X140056429Y-134762257D01*
X140056429Y-134762257D02*
X140199286Y-134690828D01*
X140199286Y-134690828D02*
X140413572Y-134690828D01*
X140413572Y-134690828D02*
X140556429Y-134762257D01*
X140556429Y-134762257D02*
X140627858Y-134905114D01*
X140627858Y-134905114D02*
X140627858Y-135690828D01*
X141913572Y-135619400D02*
X141770715Y-135690828D01*
X141770715Y-135690828D02*
X141485001Y-135690828D01*
X141485001Y-135690828D02*
X141342143Y-135619400D01*
X141342143Y-135619400D02*
X141270715Y-135476542D01*
X141270715Y-135476542D02*
X141270715Y-134905114D01*
X141270715Y-134905114D02*
X141342143Y-134762257D01*
X141342143Y-134762257D02*
X141485001Y-134690828D01*
X141485001Y-134690828D02*
X141770715Y-134690828D01*
X141770715Y-134690828D02*
X141913572Y-134762257D01*
X141913572Y-134762257D02*
X141985001Y-134905114D01*
X141985001Y-134905114D02*
X141985001Y-135047971D01*
X141985001Y-135047971D02*
X141270715Y-135190828D01*
X143556429Y-134190828D02*
X144056429Y-135690828D01*
X144056429Y-135690828D02*
X144556429Y-134190828D01*
X145842143Y-135690828D02*
X144985000Y-135690828D01*
X145413571Y-135690828D02*
X145413571Y-134190828D01*
X145413571Y-134190828D02*
X145270714Y-134405114D01*
X145270714Y-134405114D02*
X145127857Y-134547971D01*
X145127857Y-134547971D02*
X144985000Y-134619400D01*
X146484999Y-135547971D02*
X146556428Y-135619400D01*
X146556428Y-135619400D02*
X146484999Y-135690828D01*
X146484999Y-135690828D02*
X146413571Y-135619400D01*
X146413571Y-135619400D02*
X146484999Y-135547971D01*
X146484999Y-135547971D02*
X146484999Y-135690828D01*
X147485000Y-134190828D02*
X147627857Y-134190828D01*
X147627857Y-134190828D02*
X147770714Y-134262257D01*
X147770714Y-134262257D02*
X147842143Y-134333685D01*
X147842143Y-134333685D02*
X147913571Y-134476542D01*
X147913571Y-134476542D02*
X147985000Y-134762257D01*
X147985000Y-134762257D02*
X147985000Y-135119400D01*
X147985000Y-135119400D02*
X147913571Y-135405114D01*
X147913571Y-135405114D02*
X147842143Y-135547971D01*
X147842143Y-135547971D02*
X147770714Y-135619400D01*
X147770714Y-135619400D02*
X147627857Y-135690828D01*
X147627857Y-135690828D02*
X147485000Y-135690828D01*
X147485000Y-135690828D02*
X147342143Y-135619400D01*
X147342143Y-135619400D02*
X147270714Y-135547971D01*
X147270714Y-135547971D02*
X147199285Y-135405114D01*
X147199285Y-135405114D02*
X147127857Y-135119400D01*
X147127857Y-135119400D02*
X147127857Y-134762257D01*
X147127857Y-134762257D02*
X147199285Y-134476542D01*
X147199285Y-134476542D02*
X147270714Y-134333685D01*
X147270714Y-134333685D02*
X147342143Y-134262257D01*
X147342143Y-134262257D02*
X147485000Y-134190828D01*
D10*
X94416666Y-111214819D02*
X94416666Y-111929104D01*
X94416666Y-111929104D02*
X94369047Y-112071961D01*
X94369047Y-112071961D02*
X94273809Y-112167200D01*
X94273809Y-112167200D02*
X94130952Y-112214819D01*
X94130952Y-112214819D02*
X94035714Y-112214819D01*
X94892857Y-112214819D02*
X94892857Y-111214819D01*
X94892857Y-111214819D02*
X95273809Y-111214819D01*
X95273809Y-111214819D02*
X95369047Y-111262438D01*
X95369047Y-111262438D02*
X95416666Y-111310057D01*
X95416666Y-111310057D02*
X95464285Y-111405295D01*
X95464285Y-111405295D02*
X95464285Y-111548152D01*
X95464285Y-111548152D02*
X95416666Y-111643390D01*
X95416666Y-111643390D02*
X95369047Y-111691009D01*
X95369047Y-111691009D02*
X95273809Y-111738628D01*
X95273809Y-111738628D02*
X94892857Y-111738628D01*
X96416666Y-112214819D02*
X95845238Y-112214819D01*
X96130952Y-112214819D02*
X96130952Y-111214819D01*
X96130952Y-111214819D02*
X96035714Y-111357676D01*
X96035714Y-111357676D02*
X95940476Y-111452914D01*
X95940476Y-111452914D02*
X95845238Y-111500533D01*
X94808095Y-101964819D02*
X94808095Y-102774342D01*
X94808095Y-102774342D02*
X94855714Y-102869580D01*
X94855714Y-102869580D02*
X94903333Y-102917200D01*
X94903333Y-102917200D02*
X94998571Y-102964819D01*
X94998571Y-102964819D02*
X95189047Y-102964819D01*
X95189047Y-102964819D02*
X95284285Y-102917200D01*
X95284285Y-102917200D02*
X95331904Y-102869580D01*
X95331904Y-102869580D02*
X95379523Y-102774342D01*
X95379523Y-102774342D02*
X95379523Y-101964819D01*
X95808095Y-102060057D02*
X95855714Y-102012438D01*
X95855714Y-102012438D02*
X95950952Y-101964819D01*
X95950952Y-101964819D02*
X96189047Y-101964819D01*
X96189047Y-101964819D02*
X96284285Y-102012438D01*
X96284285Y-102012438D02*
X96331904Y-102060057D01*
X96331904Y-102060057D02*
X96379523Y-102155295D01*
X96379523Y-102155295D02*
X96379523Y-102250533D01*
X96379523Y-102250533D02*
X96331904Y-102393390D01*
X96331904Y-102393390D02*
X95760476Y-102964819D01*
X95760476Y-102964819D02*
X96379523Y-102964819D01*
X49095238Y-100084819D02*
X49095238Y-100799104D01*
X49095238Y-100799104D02*
X49047619Y-100941961D01*
X49047619Y-100941961D02*
X48952381Y-101037200D01*
X48952381Y-101037200D02*
X48809524Y-101084819D01*
X48809524Y-101084819D02*
X48714286Y-101084819D01*
X49571429Y-101084819D02*
X49571429Y-100084819D01*
X49571429Y-100084819D02*
X49904762Y-100799104D01*
X49904762Y-100799104D02*
X50238095Y-100084819D01*
X50238095Y-100084819D02*
X50238095Y-101084819D01*
X51238095Y-101084819D02*
X50666667Y-101084819D01*
X50952381Y-101084819D02*
X50952381Y-100084819D01*
X50952381Y-100084819D02*
X50857143Y-100227676D01*
X50857143Y-100227676D02*
X50761905Y-100322914D01*
X50761905Y-100322914D02*
X50666667Y-100370533D01*
X104095238Y-100084819D02*
X104095238Y-100799104D01*
X104095238Y-100799104D02*
X104047619Y-100941961D01*
X104047619Y-100941961D02*
X103952381Y-101037200D01*
X103952381Y-101037200D02*
X103809524Y-101084819D01*
X103809524Y-101084819D02*
X103714286Y-101084819D01*
X104571429Y-101084819D02*
X104571429Y-100084819D01*
X104571429Y-100084819D02*
X104904762Y-100799104D01*
X104904762Y-100799104D02*
X105238095Y-100084819D01*
X105238095Y-100084819D02*
X105238095Y-101084819D01*
X105666667Y-100180057D02*
X105714286Y-100132438D01*
X105714286Y-100132438D02*
X105809524Y-100084819D01*
X105809524Y-100084819D02*
X106047619Y-100084819D01*
X106047619Y-100084819D02*
X106142857Y-100132438D01*
X106142857Y-100132438D02*
X106190476Y-100180057D01*
X106190476Y-100180057D02*
X106238095Y-100275295D01*
X106238095Y-100275295D02*
X106238095Y-100370533D01*
X106238095Y-100370533D02*
X106190476Y-100513390D01*
X106190476Y-100513390D02*
X105619048Y-101084819D01*
X105619048Y-101084819D02*
X106238095Y-101084819D01*
X214095238Y-100084819D02*
X214095238Y-100799104D01*
X214095238Y-100799104D02*
X214047619Y-100941961D01*
X214047619Y-100941961D02*
X213952381Y-101037200D01*
X213952381Y-101037200D02*
X213809524Y-101084819D01*
X213809524Y-101084819D02*
X213714286Y-101084819D01*
X214571429Y-101084819D02*
X214571429Y-100084819D01*
X214571429Y-100084819D02*
X214904762Y-100799104D01*
X214904762Y-100799104D02*
X215238095Y-100084819D01*
X215238095Y-100084819D02*
X215238095Y-101084819D01*
X216142857Y-100418152D02*
X216142857Y-101084819D01*
X215904762Y-100037200D02*
X215666667Y-100751485D01*
X215666667Y-100751485D02*
X216285714Y-100751485D01*
X159095238Y-100084819D02*
X159095238Y-100799104D01*
X159095238Y-100799104D02*
X159047619Y-100941961D01*
X159047619Y-100941961D02*
X158952381Y-101037200D01*
X158952381Y-101037200D02*
X158809524Y-101084819D01*
X158809524Y-101084819D02*
X158714286Y-101084819D01*
X159571429Y-101084819D02*
X159571429Y-100084819D01*
X159571429Y-100084819D02*
X159904762Y-100799104D01*
X159904762Y-100799104D02*
X160238095Y-100084819D01*
X160238095Y-100084819D02*
X160238095Y-101084819D01*
X160619048Y-100084819D02*
X161238095Y-100084819D01*
X161238095Y-100084819D02*
X160904762Y-100465771D01*
X160904762Y-100465771D02*
X161047619Y-100465771D01*
X161047619Y-100465771D02*
X161142857Y-100513390D01*
X161142857Y-100513390D02*
X161190476Y-100561009D01*
X161190476Y-100561009D02*
X161238095Y-100656247D01*
X161238095Y-100656247D02*
X161238095Y-100894342D01*
X161238095Y-100894342D02*
X161190476Y-100989580D01*
X161190476Y-100989580D02*
X161142857Y-101037200D01*
X161142857Y-101037200D02*
X161047619Y-101084819D01*
X161047619Y-101084819D02*
X160761905Y-101084819D01*
X160761905Y-101084819D02*
X160666667Y-101037200D01*
X160666667Y-101037200D02*
X160619048Y-100989580D01*
X168974819Y-136223333D02*
X169689104Y-136223333D01*
X169689104Y-136223333D02*
X169831961Y-136270952D01*
X169831961Y-136270952D02*
X169927200Y-136366190D01*
X169927200Y-136366190D02*
X169974819Y-136509047D01*
X169974819Y-136509047D02*
X169974819Y-136604285D01*
X169070057Y-135794761D02*
X169022438Y-135747142D01*
X169022438Y-135747142D02*
X168974819Y-135651904D01*
X168974819Y-135651904D02*
X168974819Y-135413809D01*
X168974819Y-135413809D02*
X169022438Y-135318571D01*
X169022438Y-135318571D02*
X169070057Y-135270952D01*
X169070057Y-135270952D02*
X169165295Y-135223333D01*
X169165295Y-135223333D02*
X169260533Y-135223333D01*
X169260533Y-135223333D02*
X169403390Y-135270952D01*
X169403390Y-135270952D02*
X169974819Y-135842380D01*
X169974819Y-135842380D02*
X169974819Y-135223333D01*
X95364819Y-136223333D02*
X96079104Y-136223333D01*
X96079104Y-136223333D02*
X96221961Y-136270952D01*
X96221961Y-136270952D02*
X96317200Y-136366190D01*
X96317200Y-136366190D02*
X96364819Y-136509047D01*
X96364819Y-136509047D02*
X96364819Y-136604285D01*
X96364819Y-135223333D02*
X96364819Y-135794761D01*
X96364819Y-135509047D02*
X95364819Y-135509047D01*
X95364819Y-135509047D02*
X95507676Y-135604285D01*
X95507676Y-135604285D02*
X95602914Y-135699523D01*
X95602914Y-135699523D02*
X95650533Y-135794761D01*
X224238095Y-137154819D02*
X224238095Y-136154819D01*
X224238095Y-136631009D02*
X224809523Y-136631009D01*
X224809523Y-137154819D02*
X224809523Y-136154819D01*
X225428571Y-136583390D02*
X225333333Y-136535771D01*
X225333333Y-136535771D02*
X225285714Y-136488152D01*
X225285714Y-136488152D02*
X225238095Y-136392914D01*
X225238095Y-136392914D02*
X225238095Y-136345295D01*
X225238095Y-136345295D02*
X225285714Y-136250057D01*
X225285714Y-136250057D02*
X225333333Y-136202438D01*
X225333333Y-136202438D02*
X225428571Y-136154819D01*
X225428571Y-136154819D02*
X225619047Y-136154819D01*
X225619047Y-136154819D02*
X225714285Y-136202438D01*
X225714285Y-136202438D02*
X225761904Y-136250057D01*
X225761904Y-136250057D02*
X225809523Y-136345295D01*
X225809523Y-136345295D02*
X225809523Y-136392914D01*
X225809523Y-136392914D02*
X225761904Y-136488152D01*
X225761904Y-136488152D02*
X225714285Y-136535771D01*
X225714285Y-136535771D02*
X225619047Y-136583390D01*
X225619047Y-136583390D02*
X225428571Y-136583390D01*
X225428571Y-136583390D02*
X225333333Y-136631009D01*
X225333333Y-136631009D02*
X225285714Y-136678628D01*
X225285714Y-136678628D02*
X225238095Y-136773866D01*
X225238095Y-136773866D02*
X225238095Y-136964342D01*
X225238095Y-136964342D02*
X225285714Y-137059580D01*
X225285714Y-137059580D02*
X225333333Y-137107200D01*
X225333333Y-137107200D02*
X225428571Y-137154819D01*
X225428571Y-137154819D02*
X225619047Y-137154819D01*
X225619047Y-137154819D02*
X225714285Y-137107200D01*
X225714285Y-137107200D02*
X225761904Y-137059580D01*
X225761904Y-137059580D02*
X225809523Y-136964342D01*
X225809523Y-136964342D02*
X225809523Y-136773866D01*
X225809523Y-136773866D02*
X225761904Y-136678628D01*
X225761904Y-136678628D02*
X225714285Y-136631009D01*
X225714285Y-136631009D02*
X225619047Y-136583390D01*
X115238095Y-89154819D02*
X115238095Y-88154819D01*
X115238095Y-88631009D02*
X115809523Y-88631009D01*
X115809523Y-89154819D02*
X115809523Y-88154819D01*
X116190476Y-88154819D02*
X116809523Y-88154819D01*
X116809523Y-88154819D02*
X116476190Y-88535771D01*
X116476190Y-88535771D02*
X116619047Y-88535771D01*
X116619047Y-88535771D02*
X116714285Y-88583390D01*
X116714285Y-88583390D02*
X116761904Y-88631009D01*
X116761904Y-88631009D02*
X116809523Y-88726247D01*
X116809523Y-88726247D02*
X116809523Y-88964342D01*
X116809523Y-88964342D02*
X116761904Y-89059580D01*
X116761904Y-89059580D02*
X116714285Y-89107200D01*
X116714285Y-89107200D02*
X116619047Y-89154819D01*
X116619047Y-89154819D02*
X116333333Y-89154819D01*
X116333333Y-89154819D02*
X116238095Y-89107200D01*
X116238095Y-89107200D02*
X116190476Y-89059580D01*
X209026666Y-88354819D02*
X209026666Y-89069104D01*
X209026666Y-89069104D02*
X208979047Y-89211961D01*
X208979047Y-89211961D02*
X208883809Y-89307200D01*
X208883809Y-89307200D02*
X208740952Y-89354819D01*
X208740952Y-89354819D02*
X208645714Y-89354819D01*
X209645714Y-88783390D02*
X209550476Y-88735771D01*
X209550476Y-88735771D02*
X209502857Y-88688152D01*
X209502857Y-88688152D02*
X209455238Y-88592914D01*
X209455238Y-88592914D02*
X209455238Y-88545295D01*
X209455238Y-88545295D02*
X209502857Y-88450057D01*
X209502857Y-88450057D02*
X209550476Y-88402438D01*
X209550476Y-88402438D02*
X209645714Y-88354819D01*
X209645714Y-88354819D02*
X209836190Y-88354819D01*
X209836190Y-88354819D02*
X209931428Y-88402438D01*
X209931428Y-88402438D02*
X209979047Y-88450057D01*
X209979047Y-88450057D02*
X210026666Y-88545295D01*
X210026666Y-88545295D02*
X210026666Y-88592914D01*
X210026666Y-88592914D02*
X209979047Y-88688152D01*
X209979047Y-88688152D02*
X209931428Y-88735771D01*
X209931428Y-88735771D02*
X209836190Y-88783390D01*
X209836190Y-88783390D02*
X209645714Y-88783390D01*
X209645714Y-88783390D02*
X209550476Y-88831009D01*
X209550476Y-88831009D02*
X209502857Y-88878628D01*
X209502857Y-88878628D02*
X209455238Y-88973866D01*
X209455238Y-88973866D02*
X209455238Y-89164342D01*
X209455238Y-89164342D02*
X209502857Y-89259580D01*
X209502857Y-89259580D02*
X209550476Y-89307200D01*
X209550476Y-89307200D02*
X209645714Y-89354819D01*
X209645714Y-89354819D02*
X209836190Y-89354819D01*
X209836190Y-89354819D02*
X209931428Y-89307200D01*
X209931428Y-89307200D02*
X209979047Y-89259580D01*
X209979047Y-89259580D02*
X210026666Y-89164342D01*
X210026666Y-89164342D02*
X210026666Y-88973866D01*
X210026666Y-88973866D02*
X209979047Y-88878628D01*
X209979047Y-88878628D02*
X209931428Y-88831009D01*
X209931428Y-88831009D02*
X209836190Y-88783390D01*
X54276666Y-88354819D02*
X54276666Y-89069104D01*
X54276666Y-89069104D02*
X54229047Y-89211961D01*
X54229047Y-89211961D02*
X54133809Y-89307200D01*
X54133809Y-89307200D02*
X53990952Y-89354819D01*
X53990952Y-89354819D02*
X53895714Y-89354819D01*
X55229047Y-88354819D02*
X54752857Y-88354819D01*
X54752857Y-88354819D02*
X54705238Y-88831009D01*
X54705238Y-88831009D02*
X54752857Y-88783390D01*
X54752857Y-88783390D02*
X54848095Y-88735771D01*
X54848095Y-88735771D02*
X55086190Y-88735771D01*
X55086190Y-88735771D02*
X55181428Y-88783390D01*
X55181428Y-88783390D02*
X55229047Y-88831009D01*
X55229047Y-88831009D02*
X55276666Y-88926247D01*
X55276666Y-88926247D02*
X55276666Y-89164342D01*
X55276666Y-89164342D02*
X55229047Y-89259580D01*
X55229047Y-89259580D02*
X55181428Y-89307200D01*
X55181428Y-89307200D02*
X55086190Y-89354819D01*
X55086190Y-89354819D02*
X54848095Y-89354819D01*
X54848095Y-89354819D02*
X54752857Y-89307200D01*
X54752857Y-89307200D02*
X54705238Y-89259580D01*
X149098095Y-89102819D02*
X149098095Y-88102819D01*
X149098095Y-88579009D02*
X149669523Y-88579009D01*
X149669523Y-89102819D02*
X149669523Y-88102819D01*
X150621904Y-88102819D02*
X150145714Y-88102819D01*
X150145714Y-88102819D02*
X150098095Y-88579009D01*
X150098095Y-88579009D02*
X150145714Y-88531390D01*
X150145714Y-88531390D02*
X150240952Y-88483771D01*
X150240952Y-88483771D02*
X150479047Y-88483771D01*
X150479047Y-88483771D02*
X150574285Y-88531390D01*
X150574285Y-88531390D02*
X150621904Y-88579009D01*
X150621904Y-88579009D02*
X150669523Y-88674247D01*
X150669523Y-88674247D02*
X150669523Y-88912342D01*
X150669523Y-88912342D02*
X150621904Y-89007580D01*
X150621904Y-89007580D02*
X150574285Y-89055200D01*
X150574285Y-89055200D02*
X150479047Y-89102819D01*
X150479047Y-89102819D02*
X150240952Y-89102819D01*
X150240952Y-89102819D02*
X150145714Y-89055200D01*
X150145714Y-89055200D02*
X150098095Y-89007580D01*
X167116666Y-88354819D02*
X167116666Y-89069104D01*
X167116666Y-89069104D02*
X167069047Y-89211961D01*
X167069047Y-89211961D02*
X166973809Y-89307200D01*
X166973809Y-89307200D02*
X166830952Y-89354819D01*
X166830952Y-89354819D02*
X166735714Y-89354819D01*
X168021428Y-88354819D02*
X167830952Y-88354819D01*
X167830952Y-88354819D02*
X167735714Y-88402438D01*
X167735714Y-88402438D02*
X167688095Y-88450057D01*
X167688095Y-88450057D02*
X167592857Y-88592914D01*
X167592857Y-88592914D02*
X167545238Y-88783390D01*
X167545238Y-88783390D02*
X167545238Y-89164342D01*
X167545238Y-89164342D02*
X167592857Y-89259580D01*
X167592857Y-89259580D02*
X167640476Y-89307200D01*
X167640476Y-89307200D02*
X167735714Y-89354819D01*
X167735714Y-89354819D02*
X167926190Y-89354819D01*
X167926190Y-89354819D02*
X168021428Y-89307200D01*
X168021428Y-89307200D02*
X168069047Y-89259580D01*
X168069047Y-89259580D02*
X168116666Y-89164342D01*
X168116666Y-89164342D02*
X168116666Y-88926247D01*
X168116666Y-88926247D02*
X168069047Y-88831009D01*
X168069047Y-88831009D02*
X168021428Y-88783390D01*
X168021428Y-88783390D02*
X167926190Y-88735771D01*
X167926190Y-88735771D02*
X167735714Y-88735771D01*
X167735714Y-88735771D02*
X167640476Y-88783390D01*
X167640476Y-88783390D02*
X167592857Y-88831009D01*
X167592857Y-88831009D02*
X167545238Y-88926247D01*
X96186666Y-88354819D02*
X96186666Y-89069104D01*
X96186666Y-89069104D02*
X96139047Y-89211961D01*
X96139047Y-89211961D02*
X96043809Y-89307200D01*
X96043809Y-89307200D02*
X95900952Y-89354819D01*
X95900952Y-89354819D02*
X95805714Y-89354819D01*
X96567619Y-88354819D02*
X97234285Y-88354819D01*
X97234285Y-88354819D02*
X96805714Y-89354819D01*
X224238095Y-89154819D02*
X224238095Y-88154819D01*
X224238095Y-88631009D02*
X224809523Y-88631009D01*
X224809523Y-89154819D02*
X224809523Y-88154819D01*
X225190476Y-88154819D02*
X225857142Y-88154819D01*
X225857142Y-88154819D02*
X225428571Y-89154819D01*
X122044819Y-96761904D02*
X122854342Y-96761904D01*
X122854342Y-96761904D02*
X122949580Y-96714285D01*
X122949580Y-96714285D02*
X122997200Y-96666666D01*
X122997200Y-96666666D02*
X123044819Y-96571428D01*
X123044819Y-96571428D02*
X123044819Y-96380952D01*
X123044819Y-96380952D02*
X122997200Y-96285714D01*
X122997200Y-96285714D02*
X122949580Y-96238095D01*
X122949580Y-96238095D02*
X122854342Y-96190476D01*
X122854342Y-96190476D02*
X122044819Y-96190476D01*
X123044819Y-95190476D02*
X123044819Y-95761904D01*
X123044819Y-95476190D02*
X122044819Y-95476190D01*
X122044819Y-95476190D02*
X122187676Y-95571428D01*
X122187676Y-95571428D02*
X122282914Y-95666666D01*
X122282914Y-95666666D02*
X122330533Y-95761904D01*
X39238095Y-137154819D02*
X39238095Y-136154819D01*
X39238095Y-136631009D02*
X39809523Y-136631009D01*
X39809523Y-137154819D02*
X39809523Y-136154819D01*
X40809523Y-137154819D02*
X40238095Y-137154819D01*
X40523809Y-137154819D02*
X40523809Y-136154819D01*
X40523809Y-136154819D02*
X40428571Y-136297676D01*
X40428571Y-136297676D02*
X40333333Y-136392914D01*
X40333333Y-136392914D02*
X40238095Y-136440533D01*
X39238095Y-89154819D02*
X39238095Y-88154819D01*
X39238095Y-88631009D02*
X39809523Y-88631009D01*
X39809523Y-89154819D02*
X39809523Y-88154819D01*
X40238095Y-88250057D02*
X40285714Y-88202438D01*
X40285714Y-88202438D02*
X40380952Y-88154819D01*
X40380952Y-88154819D02*
X40619047Y-88154819D01*
X40619047Y-88154819D02*
X40714285Y-88202438D01*
X40714285Y-88202438D02*
X40761904Y-88250057D01*
X40761904Y-88250057D02*
X40809523Y-88345295D01*
X40809523Y-88345295D02*
X40809523Y-88440533D01*
X40809523Y-88440533D02*
X40761904Y-88583390D01*
X40761904Y-88583390D02*
X40190476Y-89154819D01*
X40190476Y-89154819D02*
X40809523Y-89154819D01*
X115238095Y-137154819D02*
X115238095Y-136154819D01*
X115238095Y-136631009D02*
X115809523Y-136631009D01*
X115809523Y-137154819D02*
X115809523Y-136154819D01*
X116714285Y-136488152D02*
X116714285Y-137154819D01*
X116476190Y-136107200D02*
X116238095Y-136821485D01*
X116238095Y-136821485D02*
X116857142Y-136821485D01*
X149098095Y-137870819D02*
X149098095Y-136870819D01*
X149098095Y-137347009D02*
X149669523Y-137347009D01*
X149669523Y-137870819D02*
X149669523Y-136870819D01*
X150574285Y-136870819D02*
X150383809Y-136870819D01*
X150383809Y-136870819D02*
X150288571Y-136918438D01*
X150288571Y-136918438D02*
X150240952Y-136966057D01*
X150240952Y-136966057D02*
X150145714Y-137108914D01*
X150145714Y-137108914D02*
X150098095Y-137299390D01*
X150098095Y-137299390D02*
X150098095Y-137680342D01*
X150098095Y-137680342D02*
X150145714Y-137775580D01*
X150145714Y-137775580D02*
X150193333Y-137823200D01*
X150193333Y-137823200D02*
X150288571Y-137870819D01*
X150288571Y-137870819D02*
X150479047Y-137870819D01*
X150479047Y-137870819D02*
X150574285Y-137823200D01*
X150574285Y-137823200D02*
X150621904Y-137775580D01*
X150621904Y-137775580D02*
X150669523Y-137680342D01*
X150669523Y-137680342D02*
X150669523Y-137442247D01*
X150669523Y-137442247D02*
X150621904Y-137347009D01*
X150621904Y-137347009D02*
X150574285Y-137299390D01*
X150574285Y-137299390D02*
X150479047Y-137251771D01*
X150479047Y-137251771D02*
X150288571Y-137251771D01*
X150288571Y-137251771D02*
X150193333Y-137299390D01*
X150193333Y-137299390D02*
X150145714Y-137347009D01*
X150145714Y-137347009D02*
X150098095Y-137442247D01*
D13*
%TO.C,JP1*%
X93850000Y-108220000D02*
X96650000Y-108220000D01*
X93850000Y-110220000D02*
X93850000Y-108220000D01*
X96650000Y-108220000D02*
X96650000Y-110220000D01*
X96650000Y-110220000D02*
X93850000Y-110220000D01*
%TO.C,U2*%
X94860000Y-103600000D02*
X96270000Y-103600000D01*
X94870000Y-105920000D02*
X96270000Y-105920000D01*
X94490000Y-103650000D02*
X94250000Y-103320000D01*
X94730000Y-103320000D01*
X94490000Y-103650000D01*
G36*
X94490000Y-103650000D02*
G01*
X94250000Y-103320000D01*
X94730000Y-103320000D01*
X94490000Y-103650000D01*
G37*
%TO.C,JM1*%
X44920000Y-101900000D02*
X55080000Y-101900000D01*
X55080000Y-129840000D01*
X44920000Y-129840000D01*
X44920000Y-101900000D01*
%TO.C,JM2*%
X99920000Y-101900000D02*
X110080000Y-101900000D01*
X110080000Y-129840000D01*
X99920000Y-129840000D01*
X99920000Y-101900000D01*
%TO.C,JM4*%
X209920000Y-101900000D02*
X220080000Y-101900000D01*
X220080000Y-129840000D01*
X209920000Y-129840000D01*
X209920000Y-101900000D01*
%TO.C,JM3*%
X154920000Y-101900000D02*
X165080000Y-101900000D01*
X165080000Y-129840000D01*
X154920000Y-129840000D01*
X154920000Y-101900000D01*
%TO.C,J2*%
X170610000Y-142080000D02*
X182830000Y-142080000D01*
X179530000Y-142080000D02*
X179530000Y-129700000D01*
X181330000Y-142080000D02*
X179530000Y-142080000D01*
X182830000Y-142080000D02*
X182830000Y-129700000D01*
X182830000Y-139430000D02*
X182830000Y-137430000D01*
X181330000Y-139180000D02*
X182830000Y-139430000D01*
X169810000Y-138730000D02*
X169810000Y-138130000D01*
X170410000Y-138430000D02*
X169810000Y-138730000D01*
X169810000Y-138130000D02*
X170410000Y-138430000D01*
X181330000Y-137680000D02*
X181330000Y-139180000D01*
X182830000Y-137430000D02*
X181330000Y-137680000D01*
X182830000Y-134350000D02*
X182830000Y-132350000D01*
X181330000Y-134100000D02*
X182830000Y-134350000D01*
X181330000Y-132600000D02*
X181330000Y-134100000D01*
X182830000Y-132350000D02*
X181330000Y-132600000D01*
X170610000Y-129700000D02*
X170610000Y-142080000D01*
X179530000Y-129700000D02*
X181330000Y-129700000D01*
X181330000Y-129700000D02*
X181330000Y-142080000D01*
X182830000Y-129700000D02*
X170610000Y-129700000D01*
%TO.C,J1*%
X94820000Y-129700000D02*
X82600000Y-129700000D01*
X85900000Y-129700000D02*
X85900000Y-142080000D01*
X84100000Y-129700000D02*
X85900000Y-129700000D01*
X82600000Y-129700000D02*
X82600000Y-142080000D01*
X82600000Y-132350000D02*
X82600000Y-134350000D01*
X84100000Y-132600000D02*
X82600000Y-132350000D01*
X95620000Y-133050000D02*
X95620000Y-133650000D01*
X95020000Y-133350000D02*
X95620000Y-133050000D01*
X95620000Y-133650000D02*
X95020000Y-133350000D01*
X84100000Y-134100000D02*
X84100000Y-132600000D01*
X82600000Y-134350000D02*
X84100000Y-134100000D01*
X82600000Y-137430000D02*
X82600000Y-139430000D01*
X84100000Y-137680000D02*
X82600000Y-137430000D01*
X84100000Y-139180000D02*
X84100000Y-137680000D01*
X82600000Y-139430000D02*
X84100000Y-139180000D01*
X94820000Y-142080000D02*
X94820000Y-129700000D01*
X85900000Y-142080000D02*
X84100000Y-142080000D01*
X84100000Y-142080000D02*
X84100000Y-129700000D01*
X82600000Y-142080000D02*
X94820000Y-142080000D01*
%TO.C,J8*%
X206810000Y-100110000D02*
X206810000Y-87890000D01*
X206810000Y-91190000D02*
X189350000Y-91190000D01*
X206810000Y-89390000D02*
X206810000Y-91190000D01*
X206810000Y-87890000D02*
X189350000Y-87890000D01*
X204160000Y-87890000D02*
X202160000Y-87890000D01*
X203910000Y-89390000D02*
X204160000Y-87890000D01*
X203460000Y-100910000D02*
X202860000Y-100910000D01*
X203160000Y-100310000D02*
X203460000Y-100910000D01*
X202860000Y-100910000D02*
X203160000Y-100310000D01*
X202410000Y-89390000D02*
X203910000Y-89390000D01*
X202160000Y-87890000D02*
X202410000Y-89390000D01*
X199080000Y-87890000D02*
X197080000Y-87890000D01*
X198830000Y-89390000D02*
X199080000Y-87890000D01*
X197330000Y-89390000D02*
X198830000Y-89390000D01*
X197080000Y-87890000D02*
X197330000Y-89390000D01*
X194000000Y-87890000D02*
X192000000Y-87890000D01*
X193750000Y-89390000D02*
X194000000Y-87890000D01*
X192250000Y-89390000D02*
X193750000Y-89390000D01*
X192000000Y-87890000D02*
X192250000Y-89390000D01*
X189350000Y-100110000D02*
X206810000Y-100110000D01*
X189350000Y-91190000D02*
X189350000Y-89390000D01*
X189350000Y-89390000D02*
X206810000Y-89390000D01*
X189350000Y-87890000D02*
X189350000Y-100110000D01*
%TO.C,J5*%
X57360000Y-87811500D02*
X57360000Y-100031500D01*
X57360000Y-89311500D02*
X74820000Y-89311500D01*
X57360000Y-91111500D02*
X57360000Y-89311500D01*
X57360000Y-100031500D02*
X74820000Y-100031500D01*
X60010000Y-87811500D02*
X60260000Y-89311500D01*
X60260000Y-89311500D02*
X61760000Y-89311500D01*
X61760000Y-89311500D02*
X62010000Y-87811500D01*
X62010000Y-87811500D02*
X60010000Y-87811500D01*
X65090000Y-87811500D02*
X65340000Y-89311500D01*
X65340000Y-89311500D02*
X66840000Y-89311500D01*
X66840000Y-89311500D02*
X67090000Y-87811500D01*
X67090000Y-87811500D02*
X65090000Y-87811500D01*
X70170000Y-87811500D02*
X70420000Y-89311500D01*
X70420000Y-89311500D02*
X71920000Y-89311500D01*
X70870000Y-100831500D02*
X71170000Y-100231500D01*
X71170000Y-100231500D02*
X71470000Y-100831500D01*
X71470000Y-100831500D02*
X70870000Y-100831500D01*
X71920000Y-89311500D02*
X72170000Y-87811500D01*
X72170000Y-87811500D02*
X70170000Y-87811500D01*
X74820000Y-87811500D02*
X57360000Y-87811500D01*
X74820000Y-89311500D02*
X74820000Y-91111500D01*
X74820000Y-91111500D02*
X57360000Y-91111500D01*
X74820000Y-100031500D02*
X74820000Y-87811500D01*
%TO.C,J6*%
X170350000Y-87890000D02*
X170350000Y-100110000D01*
X170350000Y-89390000D02*
X187810000Y-89390000D01*
X170350000Y-91190000D02*
X170350000Y-89390000D01*
X170350000Y-100110000D02*
X187810000Y-100110000D01*
X173000000Y-87890000D02*
X173250000Y-89390000D01*
X173250000Y-89390000D02*
X174750000Y-89390000D01*
X174750000Y-89390000D02*
X175000000Y-87890000D01*
X175000000Y-87890000D02*
X173000000Y-87890000D01*
X178080000Y-87890000D02*
X178330000Y-89390000D01*
X178330000Y-89390000D02*
X179830000Y-89390000D01*
X179830000Y-89390000D02*
X180080000Y-87890000D01*
X180080000Y-87890000D02*
X178080000Y-87890000D01*
X183160000Y-87890000D02*
X183410000Y-89390000D01*
X183410000Y-89390000D02*
X184910000Y-89390000D01*
X183860000Y-100910000D02*
X184160000Y-100310000D01*
X184160000Y-100310000D02*
X184460000Y-100910000D01*
X184460000Y-100910000D02*
X183860000Y-100910000D01*
X184910000Y-89390000D02*
X185160000Y-87890000D01*
X185160000Y-87890000D02*
X183160000Y-87890000D01*
X187810000Y-87890000D02*
X170350000Y-87890000D01*
X187810000Y-89390000D02*
X187810000Y-91190000D01*
X187810000Y-91190000D02*
X170350000Y-91190000D01*
X187810000Y-100110000D02*
X187810000Y-87890000D01*
%TO.C,J7*%
X93810000Y-100110000D02*
X93810000Y-87890000D01*
X93810000Y-91190000D02*
X76350000Y-91190000D01*
X93810000Y-89390000D02*
X93810000Y-91190000D01*
X93810000Y-87890000D02*
X76350000Y-87890000D01*
X91160000Y-87890000D02*
X89160000Y-87890000D01*
X90910000Y-89390000D02*
X91160000Y-87890000D01*
X90460000Y-100910000D02*
X89860000Y-100910000D01*
X90160000Y-100310000D02*
X90460000Y-100910000D01*
X89860000Y-100910000D02*
X90160000Y-100310000D01*
X89410000Y-89390000D02*
X90910000Y-89390000D01*
X89160000Y-87890000D02*
X89410000Y-89390000D01*
X86080000Y-87890000D02*
X84080000Y-87890000D01*
X85830000Y-89390000D02*
X86080000Y-87890000D01*
X84330000Y-89390000D02*
X85830000Y-89390000D01*
X84080000Y-87890000D02*
X84330000Y-89390000D01*
X81000000Y-87890000D02*
X79000000Y-87890000D01*
X80750000Y-89390000D02*
X81000000Y-87890000D01*
X79250000Y-89390000D02*
X80750000Y-89390000D01*
X79000000Y-87890000D02*
X79250000Y-89390000D01*
X76350000Y-100110000D02*
X93810000Y-100110000D01*
X76350000Y-91190000D02*
X76350000Y-89390000D01*
X76350000Y-89390000D02*
X93810000Y-89390000D01*
X76350000Y-87890000D02*
X76350000Y-100110000D01*
%TO.C,U1*%
X123430000Y-101110000D02*
X123430000Y-90890000D01*
X139300000Y-101110000D02*
X123430000Y-101110000D01*
X139300000Y-101110000D02*
X139300000Y-90890000D01*
X139300000Y-99025000D02*
X141740000Y-99025000D01*
X139300000Y-98055000D02*
X141740000Y-98055000D01*
X139300000Y-96485000D02*
X141740000Y-96485000D01*
X139300000Y-95515000D02*
X141740000Y-95515000D01*
X139300000Y-93945000D02*
X141740000Y-93945000D01*
X139300000Y-92975000D02*
X141740000Y-92975000D01*
X139300000Y-90890000D02*
X123430000Y-90890000D01*
%TD*%
M02*
