%TF.GenerationSoftware,KiCad,Pcbnew,9.0.4-9.0.4-0~ubuntu22.04.1*%
%TF.CreationDate,2025-10-10T14:12:55+02:00*%
%TF.ProjectId,splitflap-backplane,73706c69-7466-46c6-9170-2d6261636b70,rev?*%
%TF.SameCoordinates,Original*%
%TF.FileFunction,Soldermask,Top*%
%TF.FilePolarity,Negative*%
%FSLAX46Y46*%
G04 Gerber Fmt 4.6, Leading zero omitted, Abs format (unit mm)*
G04 Created by KiCad (PCBNEW 9.0.4-9.0.4-0~ubuntu22.04.1) date 2025-10-10 14:12:55*
%MOMM*%
%LPD*%
G01*
G04 APERTURE LIST*
G04 Aperture macros list*
%AMRoundRect*
0 Rectangle with rounded corners*
0 $1 Rounding radius*
0 $2 $3 $4 $5 $6 $7 $8 $9 X,Y pos of 4 corners*
0 Add a 4 corners polygon primitive as box body*
4,1,4,$2,$3,$4,$5,$6,$7,$8,$9,$2,$3,0*
0 Add four circle primitives for the rounded corners*
1,1,$1+$1,$2,$3*
1,1,$1+$1,$4,$5*
1,1,$1+$1,$6,$7*
1,1,$1+$1,$8,$9*
0 Add four rect primitives between the rounded corners*
20,1,$1+$1,$2,$3,$4,$5,0*
20,1,$1+$1,$4,$5,$6,$7,0*
20,1,$1+$1,$6,$7,$8,$9,0*
20,1,$1+$1,$8,$9,$2,$3,0*%
G04 Aperture macros list end*
%ADD10R,1.000000X1.500000*%
%ADD11RoundRect,0.100000X-0.225000X-0.100000X0.225000X-0.100000X0.225000X0.100000X-0.225000X0.100000X0*%
%ADD12C,7.620000*%
%ADD13O,1.950000X1.700000*%
%ADD14RoundRect,0.249999X1.550001X-0.790001X1.550001X0.790001X-1.550001X0.790001X-1.550001X-0.790001X0*%
%ADD15O,3.600000X2.080000*%
%ADD16RoundRect,0.249999X-1.550001X0.790001X-1.550001X-0.790001X1.550001X-0.790001X1.550001X0.790001X0*%
%ADD17C,4.700000*%
%ADD18RoundRect,0.249999X0.790001X1.550001X-0.790001X1.550001X-0.790001X-1.550001X0.790001X-1.550001X0*%
%ADD19O,2.080000X3.600000*%
%ADD20C,3.500000*%
%ADD21R,2.000000X1.905000*%
%ADD22O,2.000000X1.905000*%
G04 APERTURE END LIST*
%TO.C,JP1*%
G36*
X95100000Y-108470000D02*
G01*
X95400000Y-108470000D01*
X95400000Y-109970000D01*
X95100000Y-109970000D01*
X95100000Y-108470000D01*
G37*
%TD*%
D10*
%TO.C,JP1*%
X94600000Y-109220000D03*
X95900000Y-109220000D03*
%TD*%
D11*
%TO.C,U2*%
X94620000Y-104110000D03*
X94620000Y-104760000D03*
X94620000Y-105410000D03*
X96520000Y-105410000D03*
X96520000Y-104110000D03*
%TD*%
D12*
%TO.C,JM1*%
X50000000Y-91740000D03*
X50000000Y-140000000D03*
D13*
X52540000Y-124760000D03*
X52540000Y-122220000D03*
X52540000Y-119680000D03*
X52540000Y-117140000D03*
X52540000Y-114600000D03*
X52540000Y-112060000D03*
X52540000Y-106980000D03*
X52540000Y-109520000D03*
X47460000Y-124760000D03*
X47460000Y-122220000D03*
X47460000Y-119680000D03*
X47460000Y-117140000D03*
X47460000Y-114600000D03*
X47460000Y-112060000D03*
X47460000Y-106980000D03*
X47460000Y-109520000D03*
%TD*%
D12*
%TO.C,JM2*%
X105000000Y-91740000D03*
X105000000Y-140000000D03*
D13*
X107540000Y-124760000D03*
X107540000Y-122220000D03*
X107540000Y-119680000D03*
X107540000Y-117140000D03*
X107540000Y-114600000D03*
X107540000Y-112060000D03*
X107540000Y-106980000D03*
X107540000Y-109520000D03*
X102460000Y-124760000D03*
X102460000Y-122220000D03*
X102460000Y-119680000D03*
X102460000Y-117140000D03*
X102460000Y-114600000D03*
X102460000Y-112060000D03*
X102460000Y-106980000D03*
X102460000Y-109520000D03*
%TD*%
D12*
%TO.C,JM4*%
X215000000Y-91740000D03*
X215000000Y-140000000D03*
D13*
X217540000Y-124760000D03*
X217540000Y-122220000D03*
X217540000Y-119680000D03*
X217540000Y-117140000D03*
X217540000Y-114600000D03*
X217540000Y-112060000D03*
X217540000Y-106980000D03*
X217540000Y-109520000D03*
X212460000Y-124760000D03*
X212460000Y-122220000D03*
X212460000Y-119680000D03*
X212460000Y-117140000D03*
X212460000Y-114600000D03*
X212460000Y-112060000D03*
X212460000Y-106980000D03*
X212460000Y-109520000D03*
%TD*%
D12*
%TO.C,JM3*%
X160000000Y-91740000D03*
X160000000Y-140000000D03*
D13*
X162540000Y-124760000D03*
X162540000Y-122220000D03*
X162540000Y-119680000D03*
X162540000Y-117140000D03*
X162540000Y-114600000D03*
X162540000Y-112060000D03*
X162540000Y-106980000D03*
X162540000Y-109520000D03*
X157460000Y-124760000D03*
X157460000Y-122220000D03*
X157460000Y-119680000D03*
X157460000Y-117140000D03*
X157460000Y-114600000D03*
X157460000Y-112060000D03*
X157460000Y-106980000D03*
X157460000Y-109520000D03*
%TD*%
D14*
%TO.C,J2*%
X172720000Y-138430000D03*
D15*
X172720000Y-133350000D03*
%TD*%
D16*
%TO.C,J1*%
X92710000Y-133350000D03*
D15*
X92710000Y-138430000D03*
%TD*%
D17*
%TO.C,H8*%
X225000000Y-140000000D03*
%TD*%
%TO.C,H3*%
X116000000Y-92000000D03*
%TD*%
D18*
%TO.C,J8*%
X203160000Y-98000000D03*
D19*
X198080000Y-98000000D03*
X193000000Y-98000000D03*
%TD*%
D18*
%TO.C,J5*%
X71170000Y-97921500D03*
D19*
X66090000Y-97921500D03*
X61010000Y-97921500D03*
%TD*%
D17*
%TO.C,H5*%
X149860000Y-91948000D03*
%TD*%
D18*
%TO.C,J6*%
X184160000Y-98000000D03*
D19*
X179080000Y-98000000D03*
X174000000Y-98000000D03*
%TD*%
D18*
%TO.C,J7*%
X90160000Y-98000000D03*
D19*
X85080000Y-98000000D03*
X80000000Y-98000000D03*
%TD*%
D17*
%TO.C,H7*%
X225000000Y-92000000D03*
%TD*%
D20*
%TO.C,U1*%
X126340000Y-96000000D03*
D21*
X143000000Y-98540000D03*
D22*
X143000000Y-96000000D03*
X143000000Y-93460000D03*
%TD*%
D17*
%TO.C,H1*%
X40000000Y-140000000D03*
%TD*%
%TO.C,H2*%
X40000000Y-92000000D03*
%TD*%
%TO.C,H4*%
X116000000Y-140000000D03*
%TD*%
%TO.C,H6*%
X149860000Y-140716000D03*
%TD*%
M02*
