%TF.GenerationSoftware,KiCad,Pcbnew,9.0.4-9.0.4-0~ubuntu22.04.1*%
%TF.CreationDate,2025-10-10T14:21:56+02:00*%
%TF.ProjectId,ModuleController,4d6f6475-6c65-4436-9f6e-74726f6c6c65,rev?*%
%TF.SameCoordinates,Original*%
%TF.FileFunction,Legend,Top*%
%TF.FilePolarity,Positive*%
%FSLAX46Y46*%
G04 Gerber Fmt 4.6, Leading zero omitted, Abs format (unit mm)*
G04 Created by KiCad (PCBNEW 9.0.4-9.0.4-0~ubuntu22.04.1) date 2025-10-10 14:21:56*
%MOMM*%
%LPD*%
G01*
G04 APERTURE LIST*
%ADD10C,0.300000*%
%ADD11C,0.125000*%
%ADD12C,0.187500*%
%ADD13C,0.150000*%
%ADD14C,0.120000*%
%ADD15C,0.010000*%
G04 APERTURE END LIST*
D10*
X125967400Y-94766917D02*
X126038828Y-94552632D01*
X126038828Y-94552632D02*
X126038828Y-94195489D01*
X126038828Y-94195489D02*
X125967400Y-94052632D01*
X125967400Y-94052632D02*
X125895971Y-93981203D01*
X125895971Y-93981203D02*
X125753114Y-93909774D01*
X125753114Y-93909774D02*
X125610257Y-93909774D01*
X125610257Y-93909774D02*
X125467400Y-93981203D01*
X125467400Y-93981203D02*
X125395971Y-94052632D01*
X125395971Y-94052632D02*
X125324542Y-94195489D01*
X125324542Y-94195489D02*
X125253114Y-94481203D01*
X125253114Y-94481203D02*
X125181685Y-94624060D01*
X125181685Y-94624060D02*
X125110257Y-94695489D01*
X125110257Y-94695489D02*
X124967400Y-94766917D01*
X124967400Y-94766917D02*
X124824542Y-94766917D01*
X124824542Y-94766917D02*
X124681685Y-94695489D01*
X124681685Y-94695489D02*
X124610257Y-94624060D01*
X124610257Y-94624060D02*
X124538828Y-94481203D01*
X124538828Y-94481203D02*
X124538828Y-94124060D01*
X124538828Y-94124060D02*
X124610257Y-93909774D01*
X125038828Y-93266918D02*
X126538828Y-93266918D01*
X125110257Y-93266918D02*
X125038828Y-93124061D01*
X125038828Y-93124061D02*
X125038828Y-92838346D01*
X125038828Y-92838346D02*
X125110257Y-92695489D01*
X125110257Y-92695489D02*
X125181685Y-92624061D01*
X125181685Y-92624061D02*
X125324542Y-92552632D01*
X125324542Y-92552632D02*
X125753114Y-92552632D01*
X125753114Y-92552632D02*
X125895971Y-92624061D01*
X125895971Y-92624061D02*
X125967400Y-92695489D01*
X125967400Y-92695489D02*
X126038828Y-92838346D01*
X126038828Y-92838346D02*
X126038828Y-93124061D01*
X126038828Y-93124061D02*
X125967400Y-93266918D01*
X126038828Y-91695489D02*
X125967400Y-91838346D01*
X125967400Y-91838346D02*
X125824542Y-91909775D01*
X125824542Y-91909775D02*
X124538828Y-91909775D01*
X126038828Y-91124061D02*
X125038828Y-91124061D01*
X124538828Y-91124061D02*
X124610257Y-91195489D01*
X124610257Y-91195489D02*
X124681685Y-91124061D01*
X124681685Y-91124061D02*
X124610257Y-91052632D01*
X124610257Y-91052632D02*
X124538828Y-91124061D01*
X124538828Y-91124061D02*
X124681685Y-91124061D01*
X125038828Y-90624060D02*
X125038828Y-90052632D01*
X124538828Y-90409775D02*
X125824542Y-90409775D01*
X125824542Y-90409775D02*
X125967400Y-90338346D01*
X125967400Y-90338346D02*
X126038828Y-90195489D01*
X126038828Y-90195489D02*
X126038828Y-90052632D01*
X125253114Y-89052632D02*
X125253114Y-89552632D01*
X126038828Y-89552632D02*
X124538828Y-89552632D01*
X124538828Y-89552632D02*
X124538828Y-88838346D01*
X126038828Y-88052632D02*
X125967400Y-88195489D01*
X125967400Y-88195489D02*
X125824542Y-88266918D01*
X125824542Y-88266918D02*
X124538828Y-88266918D01*
X126038828Y-86838347D02*
X125253114Y-86838347D01*
X125253114Y-86838347D02*
X125110257Y-86909775D01*
X125110257Y-86909775D02*
X125038828Y-87052632D01*
X125038828Y-87052632D02*
X125038828Y-87338347D01*
X125038828Y-87338347D02*
X125110257Y-87481204D01*
X125967400Y-86838347D02*
X126038828Y-86981204D01*
X126038828Y-86981204D02*
X126038828Y-87338347D01*
X126038828Y-87338347D02*
X125967400Y-87481204D01*
X125967400Y-87481204D02*
X125824542Y-87552632D01*
X125824542Y-87552632D02*
X125681685Y-87552632D01*
X125681685Y-87552632D02*
X125538828Y-87481204D01*
X125538828Y-87481204D02*
X125467400Y-87338347D01*
X125467400Y-87338347D02*
X125467400Y-86981204D01*
X125467400Y-86981204D02*
X125395971Y-86838347D01*
X125038828Y-86124061D02*
X126538828Y-86124061D01*
X125110257Y-86124061D02*
X125038828Y-85981204D01*
X125038828Y-85981204D02*
X125038828Y-85695489D01*
X125038828Y-85695489D02*
X125110257Y-85552632D01*
X125110257Y-85552632D02*
X125181685Y-85481204D01*
X125181685Y-85481204D02*
X125324542Y-85409775D01*
X125324542Y-85409775D02*
X125753114Y-85409775D01*
X125753114Y-85409775D02*
X125895971Y-85481204D01*
X125895971Y-85481204D02*
X125967400Y-85552632D01*
X125967400Y-85552632D02*
X126038828Y-85695489D01*
X126038828Y-85695489D02*
X126038828Y-85981204D01*
X126038828Y-85981204D02*
X125967400Y-86124061D01*
X125895971Y-82766918D02*
X125967400Y-82838346D01*
X125967400Y-82838346D02*
X126038828Y-83052632D01*
X126038828Y-83052632D02*
X126038828Y-83195489D01*
X126038828Y-83195489D02*
X125967400Y-83409775D01*
X125967400Y-83409775D02*
X125824542Y-83552632D01*
X125824542Y-83552632D02*
X125681685Y-83624061D01*
X125681685Y-83624061D02*
X125395971Y-83695489D01*
X125395971Y-83695489D02*
X125181685Y-83695489D01*
X125181685Y-83695489D02*
X124895971Y-83624061D01*
X124895971Y-83624061D02*
X124753114Y-83552632D01*
X124753114Y-83552632D02*
X124610257Y-83409775D01*
X124610257Y-83409775D02*
X124538828Y-83195489D01*
X124538828Y-83195489D02*
X124538828Y-83052632D01*
X124538828Y-83052632D02*
X124610257Y-82838346D01*
X124610257Y-82838346D02*
X124681685Y-82766918D01*
X126038828Y-81909775D02*
X125967400Y-82052632D01*
X125967400Y-82052632D02*
X125895971Y-82124061D01*
X125895971Y-82124061D02*
X125753114Y-82195489D01*
X125753114Y-82195489D02*
X125324542Y-82195489D01*
X125324542Y-82195489D02*
X125181685Y-82124061D01*
X125181685Y-82124061D02*
X125110257Y-82052632D01*
X125110257Y-82052632D02*
X125038828Y-81909775D01*
X125038828Y-81909775D02*
X125038828Y-81695489D01*
X125038828Y-81695489D02*
X125110257Y-81552632D01*
X125110257Y-81552632D02*
X125181685Y-81481204D01*
X125181685Y-81481204D02*
X125324542Y-81409775D01*
X125324542Y-81409775D02*
X125753114Y-81409775D01*
X125753114Y-81409775D02*
X125895971Y-81481204D01*
X125895971Y-81481204D02*
X125967400Y-81552632D01*
X125967400Y-81552632D02*
X126038828Y-81695489D01*
X126038828Y-81695489D02*
X126038828Y-81909775D01*
X125038828Y-80766918D02*
X126038828Y-80766918D01*
X125181685Y-80766918D02*
X125110257Y-80695489D01*
X125110257Y-80695489D02*
X125038828Y-80552632D01*
X125038828Y-80552632D02*
X125038828Y-80338346D01*
X125038828Y-80338346D02*
X125110257Y-80195489D01*
X125110257Y-80195489D02*
X125253114Y-80124061D01*
X125253114Y-80124061D02*
X126038828Y-80124061D01*
X125038828Y-79624060D02*
X125038828Y-79052632D01*
X124538828Y-79409775D02*
X125824542Y-79409775D01*
X125824542Y-79409775D02*
X125967400Y-79338346D01*
X125967400Y-79338346D02*
X126038828Y-79195489D01*
X126038828Y-79195489D02*
X126038828Y-79052632D01*
X126038828Y-78552632D02*
X125038828Y-78552632D01*
X125324542Y-78552632D02*
X125181685Y-78481203D01*
X125181685Y-78481203D02*
X125110257Y-78409775D01*
X125110257Y-78409775D02*
X125038828Y-78266917D01*
X125038828Y-78266917D02*
X125038828Y-78124060D01*
X126038828Y-77409775D02*
X125967400Y-77552632D01*
X125967400Y-77552632D02*
X125895971Y-77624061D01*
X125895971Y-77624061D02*
X125753114Y-77695489D01*
X125753114Y-77695489D02*
X125324542Y-77695489D01*
X125324542Y-77695489D02*
X125181685Y-77624061D01*
X125181685Y-77624061D02*
X125110257Y-77552632D01*
X125110257Y-77552632D02*
X125038828Y-77409775D01*
X125038828Y-77409775D02*
X125038828Y-77195489D01*
X125038828Y-77195489D02*
X125110257Y-77052632D01*
X125110257Y-77052632D02*
X125181685Y-76981204D01*
X125181685Y-76981204D02*
X125324542Y-76909775D01*
X125324542Y-76909775D02*
X125753114Y-76909775D01*
X125753114Y-76909775D02*
X125895971Y-76981204D01*
X125895971Y-76981204D02*
X125967400Y-77052632D01*
X125967400Y-77052632D02*
X126038828Y-77195489D01*
X126038828Y-77195489D02*
X126038828Y-77409775D01*
X126038828Y-76052632D02*
X125967400Y-76195489D01*
X125967400Y-76195489D02*
X125824542Y-76266918D01*
X125824542Y-76266918D02*
X124538828Y-76266918D01*
X126038828Y-75266918D02*
X125967400Y-75409775D01*
X125967400Y-75409775D02*
X125824542Y-75481204D01*
X125824542Y-75481204D02*
X124538828Y-75481204D01*
X125967400Y-74124061D02*
X126038828Y-74266918D01*
X126038828Y-74266918D02*
X126038828Y-74552633D01*
X126038828Y-74552633D02*
X125967400Y-74695490D01*
X125967400Y-74695490D02*
X125824542Y-74766918D01*
X125824542Y-74766918D02*
X125253114Y-74766918D01*
X125253114Y-74766918D02*
X125110257Y-74695490D01*
X125110257Y-74695490D02*
X125038828Y-74552633D01*
X125038828Y-74552633D02*
X125038828Y-74266918D01*
X125038828Y-74266918D02*
X125110257Y-74124061D01*
X125110257Y-74124061D02*
X125253114Y-74052633D01*
X125253114Y-74052633D02*
X125395971Y-74052633D01*
X125395971Y-74052633D02*
X125538828Y-74766918D01*
X126038828Y-73409776D02*
X125038828Y-73409776D01*
X125324542Y-73409776D02*
X125181685Y-73338347D01*
X125181685Y-73338347D02*
X125110257Y-73266919D01*
X125110257Y-73266919D02*
X125038828Y-73124061D01*
X125038828Y-73124061D02*
X125038828Y-72981204D01*
X124538828Y-71552633D02*
X126038828Y-71052633D01*
X126038828Y-71052633D02*
X124538828Y-70552633D01*
X126038828Y-69266919D02*
X126038828Y-70124062D01*
X126038828Y-69695491D02*
X124538828Y-69695491D01*
X124538828Y-69695491D02*
X124753114Y-69838348D01*
X124753114Y-69838348D02*
X124895971Y-69981205D01*
X124895971Y-69981205D02*
X124967400Y-70124062D01*
X125895971Y-68624063D02*
X125967400Y-68552634D01*
X125967400Y-68552634D02*
X126038828Y-68624063D01*
X126038828Y-68624063D02*
X125967400Y-68695491D01*
X125967400Y-68695491D02*
X125895971Y-68624063D01*
X125895971Y-68624063D02*
X126038828Y-68624063D01*
X126038828Y-67124062D02*
X126038828Y-67981205D01*
X126038828Y-67552634D02*
X124538828Y-67552634D01*
X124538828Y-67552634D02*
X124753114Y-67695491D01*
X124753114Y-67695491D02*
X124895971Y-67838348D01*
X124895971Y-67838348D02*
X124967400Y-67981205D01*
D11*
G36*
X125800402Y-123973126D02*
G01*
X125800402Y-124295872D01*
X125781481Y-124305333D01*
X125677657Y-124305333D01*
X125633257Y-124283133D01*
X125614269Y-124264145D01*
X125592069Y-124219745D01*
X125592069Y-124049254D01*
X125614267Y-124004857D01*
X125633259Y-123985864D01*
X125677656Y-123963666D01*
X125781482Y-123963666D01*
X125800402Y-123973126D01*
G37*
G36*
X126433735Y-123973126D02*
G01*
X126433735Y-124295872D01*
X126414814Y-124305333D01*
X126310990Y-124305333D01*
X126266590Y-124283133D01*
X126247602Y-124264145D01*
X126225402Y-124219745D01*
X126225402Y-124049254D01*
X126247600Y-124004857D01*
X126266592Y-123985864D01*
X126310989Y-123963666D01*
X126414815Y-123963666D01*
X126433735Y-123973126D01*
G37*
G36*
X129049648Y-123981083D02*
G01*
X129067067Y-124015921D01*
X129067067Y-124016595D01*
X128858734Y-124058262D01*
X128858734Y-124015921D01*
X128876152Y-123981084D01*
X128910989Y-123963666D01*
X129014812Y-123963666D01*
X129049648Y-123981083D01*
G37*
G36*
X130216315Y-123981083D02*
G01*
X130233734Y-124015921D01*
X130233734Y-124016595D01*
X130025401Y-124058262D01*
X130025401Y-124015921D01*
X130042819Y-123981084D01*
X130077656Y-123963666D01*
X130181479Y-123963666D01*
X130216315Y-123981083D01*
G37*
G36*
X125176188Y-124105333D02*
G01*
X125016283Y-124105333D01*
X125096235Y-123865475D01*
X125176188Y-124105333D01*
G37*
G36*
X128425876Y-123752531D02*
G01*
X128444867Y-123771522D01*
X128467067Y-123815921D01*
X128467067Y-123886411D01*
X128444866Y-123930812D01*
X128425878Y-123949800D01*
X128381479Y-123972000D01*
X128192067Y-123972000D01*
X128192067Y-123730333D01*
X128381479Y-123730333D01*
X128425876Y-123752531D01*
G37*
G36*
X130898421Y-124508111D02*
G01*
X124722782Y-124508111D01*
X124722782Y-124372264D01*
X124800560Y-124372264D01*
X124821952Y-124415048D01*
X124867333Y-124430175D01*
X124910117Y-124408783D01*
X124922195Y-124387597D01*
X124974616Y-124230333D01*
X125217854Y-124230333D01*
X125270276Y-124387598D01*
X125282354Y-124408784D01*
X125325138Y-124430176D01*
X125370519Y-124415049D01*
X125391912Y-124372264D01*
X125388862Y-124348069D01*
X125284339Y-124034500D01*
X125467069Y-124034500D01*
X125467069Y-124234500D01*
X125467679Y-124237571D01*
X125467227Y-124238930D01*
X125469872Y-124248590D01*
X125471827Y-124258418D01*
X125472840Y-124259431D01*
X125473667Y-124262451D01*
X125507000Y-124329117D01*
X125513145Y-124337034D01*
X125518708Y-124345360D01*
X125552042Y-124378694D01*
X125560363Y-124384254D01*
X125568285Y-124390402D01*
X125634951Y-124423735D01*
X125637970Y-124424561D01*
X125638984Y-124425575D01*
X125648803Y-124427528D01*
X125658472Y-124430176D01*
X125659832Y-124429722D01*
X125662902Y-124430333D01*
X125796236Y-124430333D01*
X125799307Y-124429722D01*
X125800666Y-124430175D01*
X125810326Y-124427529D01*
X125820154Y-124425575D01*
X125821167Y-124424561D01*
X125824187Y-124423735D01*
X125832825Y-124419416D01*
X125838984Y-124425575D01*
X125886820Y-124425575D01*
X125920644Y-124391751D01*
X125925402Y-124367833D01*
X125925402Y-124034500D01*
X126100402Y-124034500D01*
X126100402Y-124234500D01*
X126101012Y-124237571D01*
X126100560Y-124238930D01*
X126103205Y-124248590D01*
X126105160Y-124258418D01*
X126106173Y-124259431D01*
X126107000Y-124262451D01*
X126140333Y-124329117D01*
X126146478Y-124337034D01*
X126152041Y-124345360D01*
X126185375Y-124378694D01*
X126193696Y-124384254D01*
X126201618Y-124390402D01*
X126268284Y-124423735D01*
X126271303Y-124424561D01*
X126272317Y-124425575D01*
X126282136Y-124427528D01*
X126291805Y-124430176D01*
X126293165Y-124429722D01*
X126296235Y-124430333D01*
X126429569Y-124430333D01*
X126432640Y-124429722D01*
X126433999Y-124430175D01*
X126443659Y-124427529D01*
X126453487Y-124425575D01*
X126454500Y-124424561D01*
X126457520Y-124423735D01*
X126466158Y-124419416D01*
X126472317Y-124425575D01*
X126520153Y-124425575D01*
X126553977Y-124391751D01*
X126558735Y-124367833D01*
X126558735Y-123901166D01*
X126767068Y-123901166D01*
X126767068Y-124367833D01*
X126771826Y-124391751D01*
X126805650Y-124425575D01*
X126853486Y-124425575D01*
X126887310Y-124391751D01*
X126892068Y-124367833D01*
X126892068Y-124310584D01*
X127171825Y-124310584D01*
X127171826Y-124358418D01*
X127171828Y-124358420D01*
X127185374Y-124378694D01*
X127218707Y-124412027D01*
X127238980Y-124425572D01*
X127238983Y-124425575D01*
X127286817Y-124425576D01*
X127286818Y-124425575D01*
X127286819Y-124425575D01*
X127286820Y-124425573D01*
X127307095Y-124412028D01*
X127340429Y-124378695D01*
X127353977Y-124358418D01*
X127353978Y-124310583D01*
X127353974Y-124310579D01*
X127340429Y-124290306D01*
X127307095Y-124256972D01*
X127286821Y-124243426D01*
X127286819Y-124243424D01*
X127286818Y-124243423D01*
X127238983Y-124243424D01*
X127218706Y-124256972D01*
X127185373Y-124290306D01*
X127171825Y-124310584D01*
X126892068Y-124310584D01*
X126892068Y-124049254D01*
X126914267Y-124004855D01*
X126933256Y-123985866D01*
X126977657Y-123963666D01*
X127029568Y-123963666D01*
X127053486Y-123958908D01*
X127087310Y-123925084D01*
X127087310Y-123877248D01*
X127053486Y-123843424D01*
X127029568Y-123838666D01*
X126962902Y-123838666D01*
X126959830Y-123839277D01*
X126958471Y-123838824D01*
X126948814Y-123841468D01*
X126938984Y-123843424D01*
X126937969Y-123844438D01*
X126934951Y-123845265D01*
X126881868Y-123871806D01*
X126853486Y-123843424D01*
X126805650Y-123843424D01*
X126771826Y-123877248D01*
X126767068Y-123901166D01*
X126558735Y-123901166D01*
X126558735Y-123667833D01*
X128067067Y-123667833D01*
X128067067Y-124367833D01*
X128071825Y-124391751D01*
X128105649Y-124425575D01*
X128153485Y-124425575D01*
X128187309Y-124391751D01*
X128192067Y-124367833D01*
X128192067Y-124097000D01*
X128263693Y-124097000D01*
X128478365Y-124403675D01*
X128495979Y-124420540D01*
X128543086Y-124428853D01*
X128582274Y-124401421D01*
X128590587Y-124354315D01*
X128580769Y-124331992D01*
X128413825Y-124093500D01*
X128420152Y-124092242D01*
X128421165Y-124091228D01*
X128424185Y-124090402D01*
X128490852Y-124057068D01*
X128498769Y-124050922D01*
X128507095Y-124045360D01*
X128540428Y-124012027D01*
X128545988Y-124003705D01*
X128547959Y-124001166D01*
X128733734Y-124001166D01*
X128733734Y-124267833D01*
X128734344Y-124270904D01*
X128733892Y-124272263D01*
X128736537Y-124281923D01*
X128738492Y-124291751D01*
X128739505Y-124292764D01*
X128740332Y-124295784D01*
X128773665Y-124362451D01*
X128781295Y-124372281D01*
X128782351Y-124375450D01*
X128785878Y-124378188D01*
X128788617Y-124381716D01*
X128791785Y-124382772D01*
X128801616Y-124390402D01*
X128868284Y-124423735D01*
X128871302Y-124424561D01*
X128872316Y-124425575D01*
X128882139Y-124427529D01*
X128891805Y-124430176D01*
X128893165Y-124429722D01*
X128896234Y-124430333D01*
X129029567Y-124430333D01*
X129032638Y-124429722D01*
X129033997Y-124430175D01*
X129043657Y-124427529D01*
X129053485Y-124425575D01*
X129054498Y-124424561D01*
X129057518Y-124423735D01*
X129124185Y-124390402D01*
X129143450Y-124375450D01*
X129158577Y-124330070D01*
X129137184Y-124287284D01*
X129091805Y-124272157D01*
X129068284Y-124278598D01*
X129014812Y-124305333D01*
X128910989Y-124305333D01*
X128876151Y-124287914D01*
X128858734Y-124253078D01*
X128858734Y-124185737D01*
X129141824Y-124129119D01*
X129150354Y-124125575D01*
X129153485Y-124125575D01*
X129155709Y-124123350D01*
X129164344Y-124119763D01*
X129174438Y-124104622D01*
X129187309Y-124091751D01*
X129189133Y-124082578D01*
X129190878Y-124079962D01*
X129190264Y-124076894D01*
X129192067Y-124067833D01*
X129192067Y-124001166D01*
X129333734Y-124001166D01*
X129333734Y-124034500D01*
X129334344Y-124037571D01*
X129333892Y-124038930D01*
X129336537Y-124048590D01*
X129338492Y-124058418D01*
X129339505Y-124059431D01*
X129340332Y-124062451D01*
X129373665Y-124129117D01*
X129381295Y-124138947D01*
X129382351Y-124142115D01*
X129385879Y-124144853D01*
X129388618Y-124148382D01*
X129391785Y-124149437D01*
X129401616Y-124157068D01*
X129468283Y-124190401D01*
X129471301Y-124191227D01*
X129472316Y-124192242D01*
X129482146Y-124194197D01*
X129491803Y-124196842D01*
X129493162Y-124196388D01*
X129496234Y-124197000D01*
X129581479Y-124197000D01*
X129616315Y-124214417D01*
X129633734Y-124249254D01*
X129633734Y-124253078D01*
X129616315Y-124287915D01*
X129581479Y-124305333D01*
X129477656Y-124305333D01*
X129424185Y-124278598D01*
X129400664Y-124272158D01*
X129355284Y-124287284D01*
X129333892Y-124330070D01*
X129349018Y-124375450D01*
X129368283Y-124390402D01*
X129434951Y-124423735D01*
X129437969Y-124424561D01*
X129438983Y-124425575D01*
X129448806Y-124427529D01*
X129458472Y-124430176D01*
X129459832Y-124429722D01*
X129462901Y-124430333D01*
X129596234Y-124430333D01*
X129599305Y-124429722D01*
X129600664Y-124430175D01*
X129610324Y-124427529D01*
X129620152Y-124425575D01*
X129621165Y-124424561D01*
X129624185Y-124423735D01*
X129690852Y-124390402D01*
X129700682Y-124382771D01*
X129703851Y-124381716D01*
X129706589Y-124378188D01*
X129710117Y-124375450D01*
X129711173Y-124372281D01*
X129718803Y-124362451D01*
X129752136Y-124295783D01*
X129752962Y-124292764D01*
X129753976Y-124291751D01*
X129755930Y-124281927D01*
X129758577Y-124272262D01*
X129758123Y-124270901D01*
X129758734Y-124267833D01*
X129758734Y-124234500D01*
X129758123Y-124231431D01*
X129758577Y-124230071D01*
X129755930Y-124220405D01*
X129753976Y-124210582D01*
X129752962Y-124209568D01*
X129752136Y-124206550D01*
X129718803Y-124139882D01*
X129711173Y-124130051D01*
X129710117Y-124126883D01*
X129706589Y-124124144D01*
X129703851Y-124120617D01*
X129700682Y-124119561D01*
X129690852Y-124111931D01*
X129624185Y-124078598D01*
X129621165Y-124077771D01*
X129620152Y-124076758D01*
X129610324Y-124074803D01*
X129600664Y-124072158D01*
X129599305Y-124072610D01*
X129596234Y-124072000D01*
X129510989Y-124072000D01*
X129476152Y-124054581D01*
X129458734Y-124019745D01*
X129458734Y-124015921D01*
X129466111Y-124001166D01*
X129900401Y-124001166D01*
X129900401Y-124267833D01*
X129901011Y-124270904D01*
X129900559Y-124272263D01*
X129903204Y-124281923D01*
X129905159Y-124291751D01*
X129906172Y-124292764D01*
X129906999Y-124295784D01*
X129940332Y-124362451D01*
X129947962Y-124372281D01*
X129949018Y-124375450D01*
X129952545Y-124378188D01*
X129955284Y-124381716D01*
X129958452Y-124382772D01*
X129968283Y-124390402D01*
X130034951Y-124423735D01*
X130037969Y-124424561D01*
X130038983Y-124425575D01*
X130048806Y-124427529D01*
X130058472Y-124430176D01*
X130059832Y-124429722D01*
X130062901Y-124430333D01*
X130196234Y-124430333D01*
X130199305Y-124429722D01*
X130200664Y-124430175D01*
X130210324Y-124427529D01*
X130220152Y-124425575D01*
X130221165Y-124424561D01*
X130224185Y-124423735D01*
X130290852Y-124390402D01*
X130310117Y-124375450D01*
X130325244Y-124330070D01*
X130303851Y-124287284D01*
X130258472Y-124272157D01*
X130234951Y-124278598D01*
X130181479Y-124305333D01*
X130077656Y-124305333D01*
X130042818Y-124287914D01*
X130025401Y-124253078D01*
X130025401Y-124185737D01*
X130308491Y-124129119D01*
X130317021Y-124125575D01*
X130320152Y-124125575D01*
X130322376Y-124123350D01*
X130331011Y-124119763D01*
X130341105Y-124104622D01*
X130353976Y-124091751D01*
X130355800Y-124082578D01*
X130357545Y-124079962D01*
X130356931Y-124076894D01*
X130358734Y-124067833D01*
X130358734Y-124001166D01*
X130358123Y-123998096D01*
X130358577Y-123996736D01*
X130355929Y-123987067D01*
X130353976Y-123977248D01*
X130352962Y-123976234D01*
X130352136Y-123973215D01*
X130318803Y-123906549D01*
X130311172Y-123896717D01*
X130310117Y-123893551D01*
X130306590Y-123890813D01*
X130303851Y-123887284D01*
X130300681Y-123886227D01*
X130290852Y-123878598D01*
X130288152Y-123877248D01*
X130438492Y-123877248D01*
X130438492Y-123925084D01*
X130472316Y-123958908D01*
X130496234Y-123963666D01*
X130533734Y-123963666D01*
X130533734Y-124267833D01*
X130534344Y-124270904D01*
X130533892Y-124272263D01*
X130536537Y-124281923D01*
X130538492Y-124291751D01*
X130539505Y-124292764D01*
X130540332Y-124295784D01*
X130573666Y-124362451D01*
X130581295Y-124372280D01*
X130582352Y-124375450D01*
X130585881Y-124378189D01*
X130588619Y-124381716D01*
X130591785Y-124382771D01*
X130601617Y-124390402D01*
X130668283Y-124423735D01*
X130671302Y-124424561D01*
X130672316Y-124425575D01*
X130682135Y-124427528D01*
X130691804Y-124430176D01*
X130693164Y-124429722D01*
X130696234Y-124430333D01*
X130762901Y-124430333D01*
X130786819Y-124425575D01*
X130820643Y-124391751D01*
X130820643Y-124343915D01*
X130786819Y-124310091D01*
X130762901Y-124305333D01*
X130710989Y-124305333D01*
X130676151Y-124287914D01*
X130658734Y-124253078D01*
X130658734Y-123963666D01*
X130762901Y-123963666D01*
X130786819Y-123958908D01*
X130820643Y-123925084D01*
X130820643Y-123877248D01*
X130786819Y-123843424D01*
X130762901Y-123838666D01*
X130658734Y-123838666D01*
X130658734Y-123667833D01*
X130653976Y-123643915D01*
X130620152Y-123610091D01*
X130572316Y-123610091D01*
X130538492Y-123643915D01*
X130533734Y-123667833D01*
X130533734Y-123838666D01*
X130496234Y-123838666D01*
X130472316Y-123843424D01*
X130438492Y-123877248D01*
X130288152Y-123877248D01*
X130224185Y-123845264D01*
X130221165Y-123844437D01*
X130220152Y-123843424D01*
X130210324Y-123841469D01*
X130200664Y-123838824D01*
X130199305Y-123839276D01*
X130196234Y-123838666D01*
X130062901Y-123838666D01*
X130059829Y-123839277D01*
X130058470Y-123838824D01*
X130048813Y-123841468D01*
X130038983Y-123843424D01*
X130037968Y-123844438D01*
X130034950Y-123845265D01*
X129968283Y-123878598D01*
X129958452Y-123886228D01*
X129955285Y-123887284D01*
X129952546Y-123890812D01*
X129949018Y-123893551D01*
X129947962Y-123896718D01*
X129940332Y-123906549D01*
X129906999Y-123973215D01*
X129906172Y-123976234D01*
X129905159Y-123977248D01*
X129903204Y-123987075D01*
X129900559Y-123996736D01*
X129901011Y-123998094D01*
X129900401Y-124001166D01*
X129466111Y-124001166D01*
X129476152Y-123981084D01*
X129510989Y-123963666D01*
X129581479Y-123963666D01*
X129634950Y-123990401D01*
X129658470Y-123996842D01*
X129703850Y-123981716D01*
X129725243Y-123938930D01*
X129710117Y-123893551D01*
X129690852Y-123878598D01*
X129624185Y-123845264D01*
X129621165Y-123844437D01*
X129620152Y-123843424D01*
X129610324Y-123841469D01*
X129600664Y-123838824D01*
X129599305Y-123839276D01*
X129596234Y-123838666D01*
X129496234Y-123838666D01*
X129493162Y-123839277D01*
X129491803Y-123838824D01*
X129482146Y-123841468D01*
X129472316Y-123843424D01*
X129471301Y-123844438D01*
X129468283Y-123845265D01*
X129401616Y-123878598D01*
X129391785Y-123886228D01*
X129388618Y-123887284D01*
X129385879Y-123890812D01*
X129382351Y-123893551D01*
X129381295Y-123896718D01*
X129373665Y-123906549D01*
X129340332Y-123973215D01*
X129339505Y-123976234D01*
X129338492Y-123977248D01*
X129336537Y-123987075D01*
X129333892Y-123996736D01*
X129334344Y-123998094D01*
X129333734Y-124001166D01*
X129192067Y-124001166D01*
X129191456Y-123998096D01*
X129191910Y-123996736D01*
X129189262Y-123987067D01*
X129187309Y-123977248D01*
X129186295Y-123976234D01*
X129185469Y-123973215D01*
X129152136Y-123906549D01*
X129144505Y-123896717D01*
X129143450Y-123893551D01*
X129139923Y-123890813D01*
X129137184Y-123887284D01*
X129134014Y-123886227D01*
X129124185Y-123878598D01*
X129057518Y-123845264D01*
X129054498Y-123844437D01*
X129053485Y-123843424D01*
X129043657Y-123841469D01*
X129033997Y-123838824D01*
X129032638Y-123839276D01*
X129029567Y-123838666D01*
X128896234Y-123838666D01*
X128893162Y-123839277D01*
X128891803Y-123838824D01*
X128882146Y-123841468D01*
X128872316Y-123843424D01*
X128871301Y-123844438D01*
X128868283Y-123845265D01*
X128801616Y-123878598D01*
X128791785Y-123886228D01*
X128788618Y-123887284D01*
X128785879Y-123890812D01*
X128782351Y-123893551D01*
X128781295Y-123896718D01*
X128773665Y-123906549D01*
X128740332Y-123973215D01*
X128739505Y-123976234D01*
X128738492Y-123977248D01*
X128736537Y-123987075D01*
X128733892Y-123996736D01*
X128734344Y-123998094D01*
X128733734Y-124001166D01*
X128547959Y-124001166D01*
X128552136Y-123995784D01*
X128585469Y-123929116D01*
X128586295Y-123926097D01*
X128587309Y-123925084D01*
X128589263Y-123915260D01*
X128591910Y-123905595D01*
X128591456Y-123904234D01*
X128592067Y-123901166D01*
X128592067Y-123801166D01*
X128591456Y-123798096D01*
X128591910Y-123796736D01*
X128589262Y-123787067D01*
X128587309Y-123777248D01*
X128586295Y-123776234D01*
X128585469Y-123773215D01*
X128552136Y-123706549D01*
X128545990Y-123698630D01*
X128540429Y-123690307D01*
X128507096Y-123656972D01*
X128498767Y-123651407D01*
X128490852Y-123645264D01*
X128424185Y-123611931D01*
X128421165Y-123611104D01*
X128420152Y-123610091D01*
X128410324Y-123608136D01*
X128400664Y-123605491D01*
X128399305Y-123605943D01*
X128396234Y-123605333D01*
X128129567Y-123605333D01*
X128105649Y-123610091D01*
X128071825Y-123643915D01*
X128067067Y-123667833D01*
X126558735Y-123667833D01*
X126553977Y-123643915D01*
X126520153Y-123610091D01*
X126472317Y-123610091D01*
X126438493Y-123643915D01*
X126433735Y-123667833D01*
X126433735Y-123838912D01*
X126432640Y-123839277D01*
X126429569Y-123838666D01*
X126296235Y-123838666D01*
X126293163Y-123839277D01*
X126291804Y-123838824D01*
X126282146Y-123841468D01*
X126272317Y-123843424D01*
X126271302Y-123844438D01*
X126268283Y-123845265D01*
X126201617Y-123878599D01*
X126193704Y-123884740D01*
X126185376Y-123890305D01*
X126152041Y-123923638D01*
X126146476Y-123931966D01*
X126140333Y-123939882D01*
X126107000Y-124006549D01*
X126106173Y-124009568D01*
X126105160Y-124010582D01*
X126103205Y-124020409D01*
X126100560Y-124030070D01*
X126101012Y-124031428D01*
X126100402Y-124034500D01*
X125925402Y-124034500D01*
X125925402Y-123667833D01*
X125920644Y-123643915D01*
X125886820Y-123610091D01*
X125838984Y-123610091D01*
X125805160Y-123643915D01*
X125800402Y-123667833D01*
X125800402Y-123838912D01*
X125799307Y-123839277D01*
X125796236Y-123838666D01*
X125662902Y-123838666D01*
X125659830Y-123839277D01*
X125658471Y-123838824D01*
X125648813Y-123841468D01*
X125638984Y-123843424D01*
X125637969Y-123844438D01*
X125634950Y-123845265D01*
X125568284Y-123878599D01*
X125560371Y-123884740D01*
X125552043Y-123890305D01*
X125518708Y-123923638D01*
X125513143Y-123931966D01*
X125507000Y-123939882D01*
X125473667Y-124006549D01*
X125472840Y-124009568D01*
X125471827Y-124010582D01*
X125469872Y-124020409D01*
X125467227Y-124030070D01*
X125467679Y-124031428D01*
X125467069Y-124034500D01*
X125284339Y-124034500D01*
X125155529Y-123648069D01*
X125143451Y-123626883D01*
X125139274Y-123624794D01*
X125137186Y-123620618D01*
X125118391Y-123614353D01*
X125100667Y-123605491D01*
X125096236Y-123606968D01*
X125091805Y-123605491D01*
X125074081Y-123614353D01*
X125055286Y-123620618D01*
X125053197Y-123624794D01*
X125049021Y-123626883D01*
X125036943Y-123648069D01*
X124803609Y-124348069D01*
X124800560Y-124372264D01*
X124722782Y-124372264D01*
X124722782Y-123527555D01*
X130898421Y-123527555D01*
X130898421Y-124508111D01*
G37*
D12*
X127217202Y-94983787D02*
X127883869Y-94793311D01*
X127883869Y-94793311D02*
X127407678Y-94602835D01*
X127407678Y-94602835D02*
X127883869Y-94412359D01*
X127883869Y-94412359D02*
X127217202Y-94221883D01*
X127217202Y-93936168D02*
X127883869Y-93745692D01*
X127883869Y-93745692D02*
X127407678Y-93555216D01*
X127407678Y-93555216D02*
X127883869Y-93364740D01*
X127883869Y-93364740D02*
X127217202Y-93174264D01*
X127217202Y-92888549D02*
X127883869Y-92698073D01*
X127883869Y-92698073D02*
X127407678Y-92507597D01*
X127407678Y-92507597D02*
X127883869Y-92317121D01*
X127883869Y-92317121D02*
X127217202Y-92126645D01*
X127788630Y-91745692D02*
X127836250Y-91698073D01*
X127836250Y-91698073D02*
X127883869Y-91745692D01*
X127883869Y-91745692D02*
X127836250Y-91793311D01*
X127836250Y-91793311D02*
X127788630Y-91745692D01*
X127788630Y-91745692D02*
X127883869Y-91745692D01*
X127883869Y-90840931D02*
X126883869Y-90840931D01*
X127836250Y-90840931D02*
X127883869Y-90936169D01*
X127883869Y-90936169D02*
X127883869Y-91126645D01*
X127883869Y-91126645D02*
X127836250Y-91221883D01*
X127836250Y-91221883D02*
X127788630Y-91269502D01*
X127788630Y-91269502D02*
X127693392Y-91317121D01*
X127693392Y-91317121D02*
X127407678Y-91317121D01*
X127407678Y-91317121D02*
X127312440Y-91269502D01*
X127312440Y-91269502D02*
X127264821Y-91221883D01*
X127264821Y-91221883D02*
X127217202Y-91126645D01*
X127217202Y-91126645D02*
X127217202Y-90936169D01*
X127217202Y-90936169D02*
X127264821Y-90840931D01*
X127836250Y-89983788D02*
X127883869Y-90079026D01*
X127883869Y-90079026D02*
X127883869Y-90269502D01*
X127883869Y-90269502D02*
X127836250Y-90364740D01*
X127836250Y-90364740D02*
X127741011Y-90412359D01*
X127741011Y-90412359D02*
X127360059Y-90412359D01*
X127360059Y-90412359D02*
X127264821Y-90364740D01*
X127264821Y-90364740D02*
X127217202Y-90269502D01*
X127217202Y-90269502D02*
X127217202Y-90079026D01*
X127217202Y-90079026D02*
X127264821Y-89983788D01*
X127264821Y-89983788D02*
X127360059Y-89936169D01*
X127360059Y-89936169D02*
X127455297Y-89936169D01*
X127455297Y-89936169D02*
X127550535Y-90412359D01*
X127217202Y-89507597D02*
X127883869Y-89507597D01*
X127312440Y-89507597D02*
X127264821Y-89459978D01*
X127264821Y-89459978D02*
X127217202Y-89364740D01*
X127217202Y-89364740D02*
X127217202Y-89221883D01*
X127217202Y-89221883D02*
X127264821Y-89126645D01*
X127264821Y-89126645D02*
X127360059Y-89079026D01*
X127360059Y-89079026D02*
X127883869Y-89079026D01*
X127217202Y-88602835D02*
X127883869Y-88602835D01*
X127312440Y-88602835D02*
X127264821Y-88555216D01*
X127264821Y-88555216D02*
X127217202Y-88459978D01*
X127217202Y-88459978D02*
X127217202Y-88317121D01*
X127217202Y-88317121D02*
X127264821Y-88221883D01*
X127264821Y-88221883D02*
X127360059Y-88174264D01*
X127360059Y-88174264D02*
X127883869Y-88174264D01*
X127883869Y-87698073D02*
X127217202Y-87698073D01*
X126883869Y-87698073D02*
X126931488Y-87745692D01*
X126931488Y-87745692D02*
X126979107Y-87698073D01*
X126979107Y-87698073D02*
X126931488Y-87650454D01*
X126931488Y-87650454D02*
X126883869Y-87698073D01*
X126883869Y-87698073D02*
X126979107Y-87698073D01*
X127836250Y-87269502D02*
X127883869Y-87174264D01*
X127883869Y-87174264D02*
X127883869Y-86983788D01*
X127883869Y-86983788D02*
X127836250Y-86888550D01*
X127836250Y-86888550D02*
X127741011Y-86840931D01*
X127741011Y-86840931D02*
X127693392Y-86840931D01*
X127693392Y-86840931D02*
X127598154Y-86888550D01*
X127598154Y-86888550D02*
X127550535Y-86983788D01*
X127550535Y-86983788D02*
X127550535Y-87126645D01*
X127550535Y-87126645D02*
X127502916Y-87221883D01*
X127502916Y-87221883D02*
X127407678Y-87269502D01*
X127407678Y-87269502D02*
X127360059Y-87269502D01*
X127360059Y-87269502D02*
X127264821Y-87221883D01*
X127264821Y-87221883D02*
X127217202Y-87126645D01*
X127217202Y-87126645D02*
X127217202Y-86983788D01*
X127217202Y-86983788D02*
X127264821Y-86888550D01*
X127217202Y-85983788D02*
X128026726Y-85983788D01*
X128026726Y-85983788D02*
X128121964Y-86031407D01*
X128121964Y-86031407D02*
X128169583Y-86079026D01*
X128169583Y-86079026D02*
X128217202Y-86174264D01*
X128217202Y-86174264D02*
X128217202Y-86317121D01*
X128217202Y-86317121D02*
X128169583Y-86412359D01*
X127836250Y-85983788D02*
X127883869Y-86079026D01*
X127883869Y-86079026D02*
X127883869Y-86269502D01*
X127883869Y-86269502D02*
X127836250Y-86364740D01*
X127836250Y-86364740D02*
X127788630Y-86412359D01*
X127788630Y-86412359D02*
X127693392Y-86459978D01*
X127693392Y-86459978D02*
X127407678Y-86459978D01*
X127407678Y-86459978D02*
X127312440Y-86412359D01*
X127312440Y-86412359D02*
X127264821Y-86364740D01*
X127264821Y-86364740D02*
X127217202Y-86269502D01*
X127217202Y-86269502D02*
X127217202Y-86079026D01*
X127217202Y-86079026D02*
X127264821Y-85983788D01*
X127217202Y-85079026D02*
X127883869Y-85079026D01*
X127217202Y-85507597D02*
X127741011Y-85507597D01*
X127741011Y-85507597D02*
X127836250Y-85459978D01*
X127836250Y-85459978D02*
X127883869Y-85364740D01*
X127883869Y-85364740D02*
X127883869Y-85221883D01*
X127883869Y-85221883D02*
X127836250Y-85126645D01*
X127836250Y-85126645D02*
X127788630Y-85079026D01*
X127217202Y-84602835D02*
X127883869Y-84602835D01*
X127312440Y-84602835D02*
X127264821Y-84555216D01*
X127264821Y-84555216D02*
X127217202Y-84459978D01*
X127217202Y-84459978D02*
X127217202Y-84317121D01*
X127217202Y-84317121D02*
X127264821Y-84221883D01*
X127264821Y-84221883D02*
X127360059Y-84174264D01*
X127360059Y-84174264D02*
X127883869Y-84174264D01*
X127883869Y-83698073D02*
X127217202Y-83698073D01*
X126883869Y-83698073D02*
X126931488Y-83745692D01*
X126931488Y-83745692D02*
X126979107Y-83698073D01*
X126979107Y-83698073D02*
X126931488Y-83650454D01*
X126931488Y-83650454D02*
X126883869Y-83698073D01*
X126883869Y-83698073D02*
X126979107Y-83698073D01*
X127883869Y-82793312D02*
X127360059Y-82793312D01*
X127360059Y-82793312D02*
X127264821Y-82840931D01*
X127264821Y-82840931D02*
X127217202Y-82936169D01*
X127217202Y-82936169D02*
X127217202Y-83126645D01*
X127217202Y-83126645D02*
X127264821Y-83221883D01*
X127836250Y-82793312D02*
X127883869Y-82888550D01*
X127883869Y-82888550D02*
X127883869Y-83126645D01*
X127883869Y-83126645D02*
X127836250Y-83221883D01*
X127836250Y-83221883D02*
X127741011Y-83269502D01*
X127741011Y-83269502D02*
X127645773Y-83269502D01*
X127645773Y-83269502D02*
X127550535Y-83221883D01*
X127550535Y-83221883D02*
X127502916Y-83126645D01*
X127502916Y-83126645D02*
X127502916Y-82888550D01*
X127502916Y-82888550D02*
X127455297Y-82793312D01*
X127788630Y-82317121D02*
X127836250Y-82269502D01*
X127836250Y-82269502D02*
X127883869Y-82317121D01*
X127883869Y-82317121D02*
X127836250Y-82364740D01*
X127836250Y-82364740D02*
X127788630Y-82317121D01*
X127788630Y-82317121D02*
X127883869Y-82317121D01*
X127883869Y-81412360D02*
X126883869Y-81412360D01*
X127836250Y-81412360D02*
X127883869Y-81507598D01*
X127883869Y-81507598D02*
X127883869Y-81698074D01*
X127883869Y-81698074D02*
X127836250Y-81793312D01*
X127836250Y-81793312D02*
X127788630Y-81840931D01*
X127788630Y-81840931D02*
X127693392Y-81888550D01*
X127693392Y-81888550D02*
X127407678Y-81888550D01*
X127407678Y-81888550D02*
X127312440Y-81840931D01*
X127312440Y-81840931D02*
X127264821Y-81793312D01*
X127264821Y-81793312D02*
X127217202Y-81698074D01*
X127217202Y-81698074D02*
X127217202Y-81507598D01*
X127217202Y-81507598D02*
X127264821Y-81412360D01*
X127836250Y-80555217D02*
X127883869Y-80650455D01*
X127883869Y-80650455D02*
X127883869Y-80840931D01*
X127883869Y-80840931D02*
X127836250Y-80936169D01*
X127836250Y-80936169D02*
X127741011Y-80983788D01*
X127741011Y-80983788D02*
X127360059Y-80983788D01*
X127360059Y-80983788D02*
X127264821Y-80936169D01*
X127264821Y-80936169D02*
X127217202Y-80840931D01*
X127217202Y-80840931D02*
X127217202Y-80650455D01*
X127217202Y-80650455D02*
X127264821Y-80555217D01*
X127264821Y-80555217D02*
X127360059Y-80507598D01*
X127360059Y-80507598D02*
X127455297Y-80507598D01*
X127455297Y-80507598D02*
X127550535Y-80983788D01*
X127502916Y-79317121D02*
X127502916Y-78555217D01*
X126979107Y-77364740D02*
X126931488Y-77317121D01*
X126931488Y-77317121D02*
X126883869Y-77221883D01*
X126883869Y-77221883D02*
X126883869Y-76983788D01*
X126883869Y-76983788D02*
X126931488Y-76888550D01*
X126931488Y-76888550D02*
X126979107Y-76840931D01*
X126979107Y-76840931D02*
X127074345Y-76793312D01*
X127074345Y-76793312D02*
X127169583Y-76793312D01*
X127169583Y-76793312D02*
X127312440Y-76840931D01*
X127312440Y-76840931D02*
X127883869Y-77412359D01*
X127883869Y-77412359D02*
X127883869Y-76793312D01*
X126883869Y-76174264D02*
X126883869Y-76079026D01*
X126883869Y-76079026D02*
X126931488Y-75983788D01*
X126931488Y-75983788D02*
X126979107Y-75936169D01*
X126979107Y-75936169D02*
X127074345Y-75888550D01*
X127074345Y-75888550D02*
X127264821Y-75840931D01*
X127264821Y-75840931D02*
X127502916Y-75840931D01*
X127502916Y-75840931D02*
X127693392Y-75888550D01*
X127693392Y-75888550D02*
X127788630Y-75936169D01*
X127788630Y-75936169D02*
X127836250Y-75983788D01*
X127836250Y-75983788D02*
X127883869Y-76079026D01*
X127883869Y-76079026D02*
X127883869Y-76174264D01*
X127883869Y-76174264D02*
X127836250Y-76269502D01*
X127836250Y-76269502D02*
X127788630Y-76317121D01*
X127788630Y-76317121D02*
X127693392Y-76364740D01*
X127693392Y-76364740D02*
X127502916Y-76412359D01*
X127502916Y-76412359D02*
X127264821Y-76412359D01*
X127264821Y-76412359D02*
X127074345Y-76364740D01*
X127074345Y-76364740D02*
X126979107Y-76317121D01*
X126979107Y-76317121D02*
X126931488Y-76269502D01*
X126931488Y-76269502D02*
X126883869Y-76174264D01*
X126979107Y-75459978D02*
X126931488Y-75412359D01*
X126931488Y-75412359D02*
X126883869Y-75317121D01*
X126883869Y-75317121D02*
X126883869Y-75079026D01*
X126883869Y-75079026D02*
X126931488Y-74983788D01*
X126931488Y-74983788D02*
X126979107Y-74936169D01*
X126979107Y-74936169D02*
X127074345Y-74888550D01*
X127074345Y-74888550D02*
X127169583Y-74888550D01*
X127169583Y-74888550D02*
X127312440Y-74936169D01*
X127312440Y-74936169D02*
X127883869Y-75507597D01*
X127883869Y-75507597D02*
X127883869Y-74888550D01*
X126883869Y-73983788D02*
X126883869Y-74459978D01*
X126883869Y-74459978D02*
X127360059Y-74507597D01*
X127360059Y-74507597D02*
X127312440Y-74459978D01*
X127312440Y-74459978D02*
X127264821Y-74364740D01*
X127264821Y-74364740D02*
X127264821Y-74126645D01*
X127264821Y-74126645D02*
X127312440Y-74031407D01*
X127312440Y-74031407D02*
X127360059Y-73983788D01*
X127360059Y-73983788D02*
X127455297Y-73936169D01*
X127455297Y-73936169D02*
X127693392Y-73936169D01*
X127693392Y-73936169D02*
X127788630Y-73983788D01*
X127788630Y-73983788D02*
X127836250Y-74031407D01*
X127836250Y-74031407D02*
X127883869Y-74126645D01*
X127883869Y-74126645D02*
X127883869Y-74364740D01*
X127883869Y-74364740D02*
X127836250Y-74459978D01*
X127836250Y-74459978D02*
X127788630Y-74507597D01*
D13*
X140567580Y-105830666D02*
X140615200Y-105878285D01*
X140615200Y-105878285D02*
X140662819Y-106021142D01*
X140662819Y-106021142D02*
X140662819Y-106116380D01*
X140662819Y-106116380D02*
X140615200Y-106259237D01*
X140615200Y-106259237D02*
X140519961Y-106354475D01*
X140519961Y-106354475D02*
X140424723Y-106402094D01*
X140424723Y-106402094D02*
X140234247Y-106449713D01*
X140234247Y-106449713D02*
X140091390Y-106449713D01*
X140091390Y-106449713D02*
X139900914Y-106402094D01*
X139900914Y-106402094D02*
X139805676Y-106354475D01*
X139805676Y-106354475D02*
X139710438Y-106259237D01*
X139710438Y-106259237D02*
X139662819Y-106116380D01*
X139662819Y-106116380D02*
X139662819Y-106021142D01*
X139662819Y-106021142D02*
X139710438Y-105878285D01*
X139710438Y-105878285D02*
X139758057Y-105830666D01*
X139758057Y-105449713D02*
X139710438Y-105402094D01*
X139710438Y-105402094D02*
X139662819Y-105306856D01*
X139662819Y-105306856D02*
X139662819Y-105068761D01*
X139662819Y-105068761D02*
X139710438Y-104973523D01*
X139710438Y-104973523D02*
X139758057Y-104925904D01*
X139758057Y-104925904D02*
X139853295Y-104878285D01*
X139853295Y-104878285D02*
X139948533Y-104878285D01*
X139948533Y-104878285D02*
X140091390Y-104925904D01*
X140091390Y-104925904D02*
X140662819Y-105497332D01*
X140662819Y-105497332D02*
X140662819Y-104878285D01*
X130389333Y-66399580D02*
X130341714Y-66447200D01*
X130341714Y-66447200D02*
X130198857Y-66494819D01*
X130198857Y-66494819D02*
X130103619Y-66494819D01*
X130103619Y-66494819D02*
X129960762Y-66447200D01*
X129960762Y-66447200D02*
X129865524Y-66351961D01*
X129865524Y-66351961D02*
X129817905Y-66256723D01*
X129817905Y-66256723D02*
X129770286Y-66066247D01*
X129770286Y-66066247D02*
X129770286Y-65923390D01*
X129770286Y-65923390D02*
X129817905Y-65732914D01*
X129817905Y-65732914D02*
X129865524Y-65637676D01*
X129865524Y-65637676D02*
X129960762Y-65542438D01*
X129960762Y-65542438D02*
X130103619Y-65494819D01*
X130103619Y-65494819D02*
X130198857Y-65494819D01*
X130198857Y-65494819D02*
X130341714Y-65542438D01*
X130341714Y-65542438D02*
X130389333Y-65590057D01*
X130960762Y-65923390D02*
X130865524Y-65875771D01*
X130865524Y-65875771D02*
X130817905Y-65828152D01*
X130817905Y-65828152D02*
X130770286Y-65732914D01*
X130770286Y-65732914D02*
X130770286Y-65685295D01*
X130770286Y-65685295D02*
X130817905Y-65590057D01*
X130817905Y-65590057D02*
X130865524Y-65542438D01*
X130865524Y-65542438D02*
X130960762Y-65494819D01*
X130960762Y-65494819D02*
X131151238Y-65494819D01*
X131151238Y-65494819D02*
X131246476Y-65542438D01*
X131246476Y-65542438D02*
X131294095Y-65590057D01*
X131294095Y-65590057D02*
X131341714Y-65685295D01*
X131341714Y-65685295D02*
X131341714Y-65732914D01*
X131341714Y-65732914D02*
X131294095Y-65828152D01*
X131294095Y-65828152D02*
X131246476Y-65875771D01*
X131246476Y-65875771D02*
X131151238Y-65923390D01*
X131151238Y-65923390D02*
X130960762Y-65923390D01*
X130960762Y-65923390D02*
X130865524Y-65971009D01*
X130865524Y-65971009D02*
X130817905Y-66018628D01*
X130817905Y-66018628D02*
X130770286Y-66113866D01*
X130770286Y-66113866D02*
X130770286Y-66304342D01*
X130770286Y-66304342D02*
X130817905Y-66399580D01*
X130817905Y-66399580D02*
X130865524Y-66447200D01*
X130865524Y-66447200D02*
X130960762Y-66494819D01*
X130960762Y-66494819D02*
X131151238Y-66494819D01*
X131151238Y-66494819D02*
X131246476Y-66447200D01*
X131246476Y-66447200D02*
X131294095Y-66399580D01*
X131294095Y-66399580D02*
X131341714Y-66304342D01*
X131341714Y-66304342D02*
X131341714Y-66113866D01*
X131341714Y-66113866D02*
X131294095Y-66018628D01*
X131294095Y-66018628D02*
X131246476Y-65971009D01*
X131246476Y-65971009D02*
X131151238Y-65923390D01*
X132675333Y-116691580D02*
X132627714Y-116739200D01*
X132627714Y-116739200D02*
X132484857Y-116786819D01*
X132484857Y-116786819D02*
X132389619Y-116786819D01*
X132389619Y-116786819D02*
X132246762Y-116739200D01*
X132246762Y-116739200D02*
X132151524Y-116643961D01*
X132151524Y-116643961D02*
X132103905Y-116548723D01*
X132103905Y-116548723D02*
X132056286Y-116358247D01*
X132056286Y-116358247D02*
X132056286Y-116215390D01*
X132056286Y-116215390D02*
X132103905Y-116024914D01*
X132103905Y-116024914D02*
X132151524Y-115929676D01*
X132151524Y-115929676D02*
X132246762Y-115834438D01*
X132246762Y-115834438D02*
X132389619Y-115786819D01*
X132389619Y-115786819D02*
X132484857Y-115786819D01*
X132484857Y-115786819D02*
X132627714Y-115834438D01*
X132627714Y-115834438D02*
X132675333Y-115882057D01*
X133008667Y-115786819D02*
X133627714Y-115786819D01*
X133627714Y-115786819D02*
X133294381Y-116167771D01*
X133294381Y-116167771D02*
X133437238Y-116167771D01*
X133437238Y-116167771D02*
X133532476Y-116215390D01*
X133532476Y-116215390D02*
X133580095Y-116263009D01*
X133580095Y-116263009D02*
X133627714Y-116358247D01*
X133627714Y-116358247D02*
X133627714Y-116596342D01*
X133627714Y-116596342D02*
X133580095Y-116691580D01*
X133580095Y-116691580D02*
X133532476Y-116739200D01*
X133532476Y-116739200D02*
X133437238Y-116786819D01*
X133437238Y-116786819D02*
X133151524Y-116786819D01*
X133151524Y-116786819D02*
X133056286Y-116739200D01*
X133056286Y-116739200D02*
X133008667Y-116691580D01*
X137802333Y-88494819D02*
X137469000Y-88018628D01*
X137230905Y-88494819D02*
X137230905Y-87494819D01*
X137230905Y-87494819D02*
X137611857Y-87494819D01*
X137611857Y-87494819D02*
X137707095Y-87542438D01*
X137707095Y-87542438D02*
X137754714Y-87590057D01*
X137754714Y-87590057D02*
X137802333Y-87685295D01*
X137802333Y-87685295D02*
X137802333Y-87828152D01*
X137802333Y-87828152D02*
X137754714Y-87923390D01*
X137754714Y-87923390D02*
X137707095Y-87971009D01*
X137707095Y-87971009D02*
X137611857Y-88018628D01*
X137611857Y-88018628D02*
X137230905Y-88018628D01*
X138183286Y-87590057D02*
X138230905Y-87542438D01*
X138230905Y-87542438D02*
X138326143Y-87494819D01*
X138326143Y-87494819D02*
X138564238Y-87494819D01*
X138564238Y-87494819D02*
X138659476Y-87542438D01*
X138659476Y-87542438D02*
X138707095Y-87590057D01*
X138707095Y-87590057D02*
X138754714Y-87685295D01*
X138754714Y-87685295D02*
X138754714Y-87780533D01*
X138754714Y-87780533D02*
X138707095Y-87923390D01*
X138707095Y-87923390D02*
X138135667Y-88494819D01*
X138135667Y-88494819D02*
X138754714Y-88494819D01*
X114839809Y-114278628D02*
X114839809Y-114754819D01*
X114506476Y-113754819D02*
X114839809Y-114278628D01*
X114839809Y-114278628D02*
X115173142Y-113754819D01*
X116030285Y-114754819D02*
X115458857Y-114754819D01*
X115744571Y-114754819D02*
X115744571Y-113754819D01*
X115744571Y-113754819D02*
X115649333Y-113897676D01*
X115649333Y-113897676D02*
X115554095Y-113992914D01*
X115554095Y-113992914D02*
X115458857Y-114040533D01*
X122682095Y-99390819D02*
X122682095Y-100200342D01*
X122682095Y-100200342D02*
X122729714Y-100295580D01*
X122729714Y-100295580D02*
X122777333Y-100343200D01*
X122777333Y-100343200D02*
X122872571Y-100390819D01*
X122872571Y-100390819D02*
X123063047Y-100390819D01*
X123063047Y-100390819D02*
X123158285Y-100343200D01*
X123158285Y-100343200D02*
X123205904Y-100295580D01*
X123205904Y-100295580D02*
X123253523Y-100200342D01*
X123253523Y-100200342D02*
X123253523Y-99390819D01*
X124158285Y-99724152D02*
X124158285Y-100390819D01*
X123920190Y-99343200D02*
X123682095Y-100057485D01*
X123682095Y-100057485D02*
X124301142Y-100057485D01*
X139787333Y-62501959D02*
X139739714Y-62549579D01*
X139739714Y-62549579D02*
X139596857Y-62597198D01*
X139596857Y-62597198D02*
X139501619Y-62597198D01*
X139501619Y-62597198D02*
X139358762Y-62549579D01*
X139358762Y-62549579D02*
X139263524Y-62454340D01*
X139263524Y-62454340D02*
X139215905Y-62359102D01*
X139215905Y-62359102D02*
X139168286Y-62168626D01*
X139168286Y-62168626D02*
X139168286Y-62025769D01*
X139168286Y-62025769D02*
X139215905Y-61835293D01*
X139215905Y-61835293D02*
X139263524Y-61740055D01*
X139263524Y-61740055D02*
X139358762Y-61644817D01*
X139358762Y-61644817D02*
X139501619Y-61597198D01*
X139501619Y-61597198D02*
X139596857Y-61597198D01*
X139596857Y-61597198D02*
X139739714Y-61644817D01*
X139739714Y-61644817D02*
X139787333Y-61692436D01*
X140739714Y-62597198D02*
X140168286Y-62597198D01*
X140454000Y-62597198D02*
X140454000Y-61597198D01*
X140454000Y-61597198D02*
X140358762Y-61740055D01*
X140358762Y-61740055D02*
X140263524Y-61835293D01*
X140263524Y-61835293D02*
X140168286Y-61882912D01*
X129580333Y-119580819D02*
X129247000Y-119104628D01*
X129008905Y-119580819D02*
X129008905Y-118580819D01*
X129008905Y-118580819D02*
X129389857Y-118580819D01*
X129389857Y-118580819D02*
X129485095Y-118628438D01*
X129485095Y-118628438D02*
X129532714Y-118676057D01*
X129532714Y-118676057D02*
X129580333Y-118771295D01*
X129580333Y-118771295D02*
X129580333Y-118914152D01*
X129580333Y-118914152D02*
X129532714Y-119009390D01*
X129532714Y-119009390D02*
X129485095Y-119057009D01*
X129485095Y-119057009D02*
X129389857Y-119104628D01*
X129389857Y-119104628D02*
X129008905Y-119104628D01*
X130532714Y-119580819D02*
X129961286Y-119580819D01*
X130247000Y-119580819D02*
X130247000Y-118580819D01*
X130247000Y-118580819D02*
X130151762Y-118723676D01*
X130151762Y-118723676D02*
X130056524Y-118818914D01*
X130056524Y-118818914D02*
X129961286Y-118866533D01*
X132675333Y-114405580D02*
X132627714Y-114453200D01*
X132627714Y-114453200D02*
X132484857Y-114500819D01*
X132484857Y-114500819D02*
X132389619Y-114500819D01*
X132389619Y-114500819D02*
X132246762Y-114453200D01*
X132246762Y-114453200D02*
X132151524Y-114357961D01*
X132151524Y-114357961D02*
X132103905Y-114262723D01*
X132103905Y-114262723D02*
X132056286Y-114072247D01*
X132056286Y-114072247D02*
X132056286Y-113929390D01*
X132056286Y-113929390D02*
X132103905Y-113738914D01*
X132103905Y-113738914D02*
X132151524Y-113643676D01*
X132151524Y-113643676D02*
X132246762Y-113548438D01*
X132246762Y-113548438D02*
X132389619Y-113500819D01*
X132389619Y-113500819D02*
X132484857Y-113500819D01*
X132484857Y-113500819D02*
X132627714Y-113548438D01*
X132627714Y-113548438D02*
X132675333Y-113596057D01*
X133532476Y-113834152D02*
X133532476Y-114500819D01*
X133294381Y-113453200D02*
X133056286Y-114167485D01*
X133056286Y-114167485D02*
X133675333Y-114167485D01*
X130048095Y-42844819D02*
X130048095Y-43654342D01*
X130048095Y-43654342D02*
X130095714Y-43749580D01*
X130095714Y-43749580D02*
X130143333Y-43797200D01*
X130143333Y-43797200D02*
X130238571Y-43844819D01*
X130238571Y-43844819D02*
X130429047Y-43844819D01*
X130429047Y-43844819D02*
X130524285Y-43797200D01*
X130524285Y-43797200D02*
X130571904Y-43749580D01*
X130571904Y-43749580D02*
X130619523Y-43654342D01*
X130619523Y-43654342D02*
X130619523Y-42844819D01*
X131619523Y-43844819D02*
X131048095Y-43844819D01*
X131333809Y-43844819D02*
X131333809Y-42844819D01*
X131333809Y-42844819D02*
X131238571Y-42987676D01*
X131238571Y-42987676D02*
X131143333Y-43082914D01*
X131143333Y-43082914D02*
X131048095Y-43130533D01*
X129627333Y-122120819D02*
X129294000Y-121644628D01*
X129055905Y-122120819D02*
X129055905Y-121120819D01*
X129055905Y-121120819D02*
X129436857Y-121120819D01*
X129436857Y-121120819D02*
X129532095Y-121168438D01*
X129532095Y-121168438D02*
X129579714Y-121216057D01*
X129579714Y-121216057D02*
X129627333Y-121311295D01*
X129627333Y-121311295D02*
X129627333Y-121454152D01*
X129627333Y-121454152D02*
X129579714Y-121549390D01*
X129579714Y-121549390D02*
X129532095Y-121597009D01*
X129532095Y-121597009D02*
X129436857Y-121644628D01*
X129436857Y-121644628D02*
X129055905Y-121644628D01*
X130484476Y-121454152D02*
X130484476Y-122120819D01*
X130246381Y-121073200D02*
X130008286Y-121787485D01*
X130008286Y-121787485D02*
X130627333Y-121787485D01*
X118263333Y-109325580D02*
X118215714Y-109373200D01*
X118215714Y-109373200D02*
X118072857Y-109420819D01*
X118072857Y-109420819D02*
X117977619Y-109420819D01*
X117977619Y-109420819D02*
X117834762Y-109373200D01*
X117834762Y-109373200D02*
X117739524Y-109277961D01*
X117739524Y-109277961D02*
X117691905Y-109182723D01*
X117691905Y-109182723D02*
X117644286Y-108992247D01*
X117644286Y-108992247D02*
X117644286Y-108849390D01*
X117644286Y-108849390D02*
X117691905Y-108658914D01*
X117691905Y-108658914D02*
X117739524Y-108563676D01*
X117739524Y-108563676D02*
X117834762Y-108468438D01*
X117834762Y-108468438D02*
X117977619Y-108420819D01*
X117977619Y-108420819D02*
X118072857Y-108420819D01*
X118072857Y-108420819D02*
X118215714Y-108468438D01*
X118215714Y-108468438D02*
X118263333Y-108516057D01*
X119120476Y-108420819D02*
X118930000Y-108420819D01*
X118930000Y-108420819D02*
X118834762Y-108468438D01*
X118834762Y-108468438D02*
X118787143Y-108516057D01*
X118787143Y-108516057D02*
X118691905Y-108658914D01*
X118691905Y-108658914D02*
X118644286Y-108849390D01*
X118644286Y-108849390D02*
X118644286Y-109230342D01*
X118644286Y-109230342D02*
X118691905Y-109325580D01*
X118691905Y-109325580D02*
X118739524Y-109373200D01*
X118739524Y-109373200D02*
X118834762Y-109420819D01*
X118834762Y-109420819D02*
X119025238Y-109420819D01*
X119025238Y-109420819D02*
X119120476Y-109373200D01*
X119120476Y-109373200D02*
X119168095Y-109325580D01*
X119168095Y-109325580D02*
X119215714Y-109230342D01*
X119215714Y-109230342D02*
X119215714Y-108992247D01*
X119215714Y-108992247D02*
X119168095Y-108897009D01*
X119168095Y-108897009D02*
X119120476Y-108849390D01*
X119120476Y-108849390D02*
X119025238Y-108801771D01*
X119025238Y-108801771D02*
X118834762Y-108801771D01*
X118834762Y-108801771D02*
X118739524Y-108849390D01*
X118739524Y-108849390D02*
X118691905Y-108897009D01*
X118691905Y-108897009D02*
X118644286Y-108992247D01*
X97536095Y-71336819D02*
X97536095Y-72146342D01*
X97536095Y-72146342D02*
X97583714Y-72241580D01*
X97583714Y-72241580D02*
X97631333Y-72289200D01*
X97631333Y-72289200D02*
X97726571Y-72336819D01*
X97726571Y-72336819D02*
X97917047Y-72336819D01*
X97917047Y-72336819D02*
X98012285Y-72289200D01*
X98012285Y-72289200D02*
X98059904Y-72241580D01*
X98059904Y-72241580D02*
X98107523Y-72146342D01*
X98107523Y-72146342D02*
X98107523Y-71336819D01*
X98536095Y-71432057D02*
X98583714Y-71384438D01*
X98583714Y-71384438D02*
X98678952Y-71336819D01*
X98678952Y-71336819D02*
X98917047Y-71336819D01*
X98917047Y-71336819D02*
X99012285Y-71384438D01*
X99012285Y-71384438D02*
X99059904Y-71432057D01*
X99059904Y-71432057D02*
X99107523Y-71527295D01*
X99107523Y-71527295D02*
X99107523Y-71622533D01*
X99107523Y-71622533D02*
X99059904Y-71765390D01*
X99059904Y-71765390D02*
X98488476Y-72336819D01*
X98488476Y-72336819D02*
X99107523Y-72336819D01*
X135723333Y-108309580D02*
X135675714Y-108357200D01*
X135675714Y-108357200D02*
X135532857Y-108404819D01*
X135532857Y-108404819D02*
X135437619Y-108404819D01*
X135437619Y-108404819D02*
X135294762Y-108357200D01*
X135294762Y-108357200D02*
X135199524Y-108261961D01*
X135199524Y-108261961D02*
X135151905Y-108166723D01*
X135151905Y-108166723D02*
X135104286Y-107976247D01*
X135104286Y-107976247D02*
X135104286Y-107833390D01*
X135104286Y-107833390D02*
X135151905Y-107642914D01*
X135151905Y-107642914D02*
X135199524Y-107547676D01*
X135199524Y-107547676D02*
X135294762Y-107452438D01*
X135294762Y-107452438D02*
X135437619Y-107404819D01*
X135437619Y-107404819D02*
X135532857Y-107404819D01*
X135532857Y-107404819D02*
X135675714Y-107452438D01*
X135675714Y-107452438D02*
X135723333Y-107500057D01*
X136628095Y-107404819D02*
X136151905Y-107404819D01*
X136151905Y-107404819D02*
X136104286Y-107881009D01*
X136104286Y-107881009D02*
X136151905Y-107833390D01*
X136151905Y-107833390D02*
X136247143Y-107785771D01*
X136247143Y-107785771D02*
X136485238Y-107785771D01*
X136485238Y-107785771D02*
X136580476Y-107833390D01*
X136580476Y-107833390D02*
X136628095Y-107881009D01*
X136628095Y-107881009D02*
X136675714Y-107976247D01*
X136675714Y-107976247D02*
X136675714Y-108214342D01*
X136675714Y-108214342D02*
X136628095Y-108309580D01*
X136628095Y-108309580D02*
X136580476Y-108357200D01*
X136580476Y-108357200D02*
X136485238Y-108404819D01*
X136485238Y-108404819D02*
X136247143Y-108404819D01*
X136247143Y-108404819D02*
X136151905Y-108357200D01*
X136151905Y-108357200D02*
X136104286Y-108309580D01*
X138694095Y-113720819D02*
X138694095Y-114530342D01*
X138694095Y-114530342D02*
X138741714Y-114625580D01*
X138741714Y-114625580D02*
X138789333Y-114673200D01*
X138789333Y-114673200D02*
X138884571Y-114720819D01*
X138884571Y-114720819D02*
X139075047Y-114720819D01*
X139075047Y-114720819D02*
X139170285Y-114673200D01*
X139170285Y-114673200D02*
X139217904Y-114625580D01*
X139217904Y-114625580D02*
X139265523Y-114530342D01*
X139265523Y-114530342D02*
X139265523Y-113720819D01*
X139646476Y-113720819D02*
X140265523Y-113720819D01*
X140265523Y-113720819D02*
X139932190Y-114101771D01*
X139932190Y-114101771D02*
X140075047Y-114101771D01*
X140075047Y-114101771D02*
X140170285Y-114149390D01*
X140170285Y-114149390D02*
X140217904Y-114197009D01*
X140217904Y-114197009D02*
X140265523Y-114292247D01*
X140265523Y-114292247D02*
X140265523Y-114530342D01*
X140265523Y-114530342D02*
X140217904Y-114625580D01*
X140217904Y-114625580D02*
X140170285Y-114673200D01*
X140170285Y-114673200D02*
X140075047Y-114720819D01*
X140075047Y-114720819D02*
X139789333Y-114720819D01*
X139789333Y-114720819D02*
X139694095Y-114673200D01*
X139694095Y-114673200D02*
X139646476Y-114625580D01*
X135723333Y-106277580D02*
X135675714Y-106325200D01*
X135675714Y-106325200D02*
X135532857Y-106372819D01*
X135532857Y-106372819D02*
X135437619Y-106372819D01*
X135437619Y-106372819D02*
X135294762Y-106325200D01*
X135294762Y-106325200D02*
X135199524Y-106229961D01*
X135199524Y-106229961D02*
X135151905Y-106134723D01*
X135151905Y-106134723D02*
X135104286Y-105944247D01*
X135104286Y-105944247D02*
X135104286Y-105801390D01*
X135104286Y-105801390D02*
X135151905Y-105610914D01*
X135151905Y-105610914D02*
X135199524Y-105515676D01*
X135199524Y-105515676D02*
X135294762Y-105420438D01*
X135294762Y-105420438D02*
X135437619Y-105372819D01*
X135437619Y-105372819D02*
X135532857Y-105372819D01*
X135532857Y-105372819D02*
X135675714Y-105420438D01*
X135675714Y-105420438D02*
X135723333Y-105468057D01*
X136056667Y-105372819D02*
X136723333Y-105372819D01*
X136723333Y-105372819D02*
X136294762Y-106372819D01*
X134836819Y-46561333D02*
X135551104Y-46561333D01*
X135551104Y-46561333D02*
X135693961Y-46608952D01*
X135693961Y-46608952D02*
X135789200Y-46704190D01*
X135789200Y-46704190D02*
X135836819Y-46847047D01*
X135836819Y-46847047D02*
X135836819Y-46942285D01*
X135836819Y-45561333D02*
X135836819Y-46132761D01*
X135836819Y-45847047D02*
X134836819Y-45847047D01*
X134836819Y-45847047D02*
X134979676Y-45942285D01*
X134979676Y-45942285D02*
X135074914Y-46037523D01*
X135074914Y-46037523D02*
X135122533Y-46132761D01*
X137802333Y-95196819D02*
X137469000Y-94720628D01*
X137230905Y-95196819D02*
X137230905Y-94196819D01*
X137230905Y-94196819D02*
X137611857Y-94196819D01*
X137611857Y-94196819D02*
X137707095Y-94244438D01*
X137707095Y-94244438D02*
X137754714Y-94292057D01*
X137754714Y-94292057D02*
X137802333Y-94387295D01*
X137802333Y-94387295D02*
X137802333Y-94530152D01*
X137802333Y-94530152D02*
X137754714Y-94625390D01*
X137754714Y-94625390D02*
X137707095Y-94673009D01*
X137707095Y-94673009D02*
X137611857Y-94720628D01*
X137611857Y-94720628D02*
X137230905Y-94720628D01*
X138135667Y-94196819D02*
X138754714Y-94196819D01*
X138754714Y-94196819D02*
X138421381Y-94577771D01*
X138421381Y-94577771D02*
X138564238Y-94577771D01*
X138564238Y-94577771D02*
X138659476Y-94625390D01*
X138659476Y-94625390D02*
X138707095Y-94673009D01*
X138707095Y-94673009D02*
X138754714Y-94768247D01*
X138754714Y-94768247D02*
X138754714Y-95006342D01*
X138754714Y-95006342D02*
X138707095Y-95101580D01*
X138707095Y-95101580D02*
X138659476Y-95149200D01*
X138659476Y-95149200D02*
X138564238Y-95196819D01*
X138564238Y-95196819D02*
X138278524Y-95196819D01*
X138278524Y-95196819D02*
X138183286Y-95149200D01*
X138183286Y-95149200D02*
X138135667Y-95101580D01*
X141029009Y-91350833D02*
X141029009Y-91684166D01*
X141552819Y-91684166D02*
X140552819Y-91684166D01*
X140552819Y-91684166D02*
X140552819Y-91207976D01*
X141552819Y-90303214D02*
X141552819Y-90874642D01*
X141552819Y-90588928D02*
X140552819Y-90588928D01*
X140552819Y-90588928D02*
X140695676Y-90684166D01*
X140695676Y-90684166D02*
X140790914Y-90779404D01*
X140790914Y-90779404D02*
X140838533Y-90874642D01*
X125404666Y-122136819D02*
X125404666Y-122851104D01*
X125404666Y-122851104D02*
X125357047Y-122993961D01*
X125357047Y-122993961D02*
X125261809Y-123089200D01*
X125261809Y-123089200D02*
X125118952Y-123136819D01*
X125118952Y-123136819D02*
X125023714Y-123136819D01*
X125880857Y-123136819D02*
X125880857Y-122136819D01*
X125880857Y-122136819D02*
X126261809Y-122136819D01*
X126261809Y-122136819D02*
X126357047Y-122184438D01*
X126357047Y-122184438D02*
X126404666Y-122232057D01*
X126404666Y-122232057D02*
X126452285Y-122327295D01*
X126452285Y-122327295D02*
X126452285Y-122470152D01*
X126452285Y-122470152D02*
X126404666Y-122565390D01*
X126404666Y-122565390D02*
X126357047Y-122613009D01*
X126357047Y-122613009D02*
X126261809Y-122660628D01*
X126261809Y-122660628D02*
X125880857Y-122660628D01*
X127404666Y-123136819D02*
X126833238Y-123136819D01*
X127118952Y-123136819D02*
X127118952Y-122136819D01*
X127118952Y-122136819D02*
X127023714Y-122279676D01*
X127023714Y-122279676D02*
X126928476Y-122374914D01*
X126928476Y-122374914D02*
X126833238Y-122422533D01*
D14*
%TO.C,C2*%
X137266000Y-106170252D02*
X137266000Y-104747748D01*
X139086000Y-106170252D02*
X139086000Y-104747748D01*
%TO.C,C8*%
X133799252Y-65305000D02*
X133276748Y-65305000D01*
X133799252Y-66775000D02*
X133276748Y-66775000D01*
%TO.C,C3*%
X130309252Y-115597000D02*
X129786748Y-115597000D01*
X130309252Y-117067000D02*
X129786748Y-117067000D01*
%TO.C,R2*%
X137591436Y-89181000D02*
X138045564Y-89181000D01*
X137591436Y-90651000D02*
X138045564Y-90651000D01*
%TO.C,Y1*%
X119039000Y-111775000D02*
X125289000Y-111775000D01*
X119039000Y-116825000D02*
X125289000Y-116825000D01*
X119039000Y-116825000D02*
G75*
G02*
X119039000Y-111775000I0J2525000D01*
G01*
X125289000Y-111775000D02*
G75*
G02*
X125289000Y-116825000I0J-2525000D01*
G01*
D13*
%TO.C,U4*%
X122213000Y-102361000D02*
X122213000Y-102586000D01*
X122213000Y-102361000D02*
X122538000Y-102361000D01*
X122213000Y-102586000D02*
X120788000Y-102586000D01*
X122213000Y-109611000D02*
X122213000Y-109286000D01*
X122213000Y-109611000D02*
X122538000Y-109611000D01*
X129463000Y-102361000D02*
X129138000Y-102361000D01*
X129463000Y-102361000D02*
X129463000Y-102686000D01*
X129463000Y-109611000D02*
X129138000Y-109611000D01*
X129463000Y-109611000D02*
X129463000Y-109286000D01*
D14*
%TO.C,C1*%
X138914000Y-66514000D02*
X136732000Y-66514000D01*
X138914000Y-66554000D02*
X136736000Y-66554000D01*
X138914000Y-66594000D02*
X136739000Y-66594000D01*
X138914000Y-66634000D02*
X136743000Y-66634000D01*
X138914000Y-66674000D02*
X136748000Y-66674000D01*
X138914000Y-66714000D02*
X136753000Y-66714000D01*
X138914000Y-66754000D02*
X136759000Y-66754000D01*
X138914000Y-66794000D02*
X136765000Y-66794000D01*
X138914000Y-66834000D02*
X136772000Y-66834000D01*
X138914000Y-66874000D02*
X136779000Y-66874000D01*
X138914000Y-66914000D02*
X136787000Y-66914000D01*
X138914000Y-66954000D02*
X136795000Y-66954000D01*
X138914000Y-66995000D02*
X136804000Y-66995000D01*
X138914000Y-67035000D02*
X136813000Y-67035000D01*
X138914000Y-67075000D02*
X136823000Y-67075000D01*
X138914000Y-67115000D02*
X136833000Y-67115000D01*
X138914000Y-67155000D02*
X136844000Y-67155000D01*
X138914000Y-67195000D02*
X136856000Y-67195000D01*
X138914000Y-67235000D02*
X136868000Y-67235000D01*
X138914000Y-67275000D02*
X136880000Y-67275000D01*
X138914000Y-67315000D02*
X136893000Y-67315000D01*
X138914000Y-67355000D02*
X136907000Y-67355000D01*
X138914000Y-67395000D02*
X136921000Y-67395000D01*
X138914000Y-67435000D02*
X136936000Y-67435000D01*
X138914000Y-67475000D02*
X136952000Y-67475000D01*
X138914000Y-67515000D02*
X136968000Y-67515000D01*
X138914000Y-67555000D02*
X136984000Y-67555000D01*
X138914000Y-67595000D02*
X137002000Y-67595000D01*
X138914000Y-67635000D02*
X137020000Y-67635000D01*
X138914000Y-67675000D02*
X137038000Y-67675000D01*
X138914000Y-67715000D02*
X137058000Y-67715000D01*
X138914000Y-67755000D02*
X137078000Y-67755000D01*
X138914000Y-67795000D02*
X137098000Y-67795000D01*
X138914000Y-67835000D02*
X137120000Y-67835000D01*
X138914000Y-67875000D02*
X137142000Y-67875000D01*
X138914000Y-67915000D02*
X137164000Y-67915000D01*
X138914000Y-67955000D02*
X137188000Y-67955000D01*
X138914000Y-67995000D02*
X137212000Y-67995000D01*
X138914000Y-68035000D02*
X137238000Y-68035000D01*
X138914000Y-68075000D02*
X137264000Y-68075000D01*
X138914000Y-68115000D02*
X137290000Y-68115000D01*
X138914000Y-68155000D02*
X137318000Y-68155000D01*
X138914000Y-68195000D02*
X137347000Y-68195000D01*
X138914000Y-68235000D02*
X137376000Y-68235000D01*
X138914000Y-68275000D02*
X137406000Y-68275000D01*
X138914000Y-68315000D02*
X137438000Y-68315000D01*
X138914000Y-68355000D02*
X137470000Y-68355000D01*
X138914000Y-68395000D02*
X137504000Y-68395000D01*
X138914000Y-68435000D02*
X137538000Y-68435000D01*
X138914000Y-68475000D02*
X137574000Y-68475000D01*
X138914000Y-68515000D02*
X137611000Y-68515000D01*
X138914000Y-68555000D02*
X137649000Y-68555000D01*
X140356000Y-69515000D02*
X139552000Y-69515000D01*
X140587000Y-69475000D02*
X139321000Y-69475000D01*
X140756000Y-69435000D02*
X139152000Y-69435000D01*
X140894000Y-69395000D02*
X139014000Y-69395000D01*
X141013000Y-69355000D02*
X138895000Y-69355000D01*
X141119000Y-69315000D02*
X138789000Y-69315000D01*
X141216000Y-69275000D02*
X138692000Y-69275000D01*
X141304000Y-69235000D02*
X138604000Y-69235000D01*
X141386000Y-69195000D02*
X138522000Y-69195000D01*
X141463000Y-69155000D02*
X138445000Y-69155000D01*
X141535000Y-69115000D02*
X138373000Y-69115000D01*
X141604000Y-69075000D02*
X138304000Y-69075000D01*
X141668000Y-69035000D02*
X138240000Y-69035000D01*
X141730000Y-68995000D02*
X138178000Y-68995000D01*
X141788000Y-68955000D02*
X138120000Y-68955000D01*
X141793000Y-62773759D02*
X141793000Y-63403759D01*
X141844000Y-68915000D02*
X138064000Y-68915000D01*
X141898000Y-68875000D02*
X138010000Y-68875000D01*
X141949000Y-68835000D02*
X137959000Y-68835000D01*
X141998000Y-68795000D02*
X137910000Y-68795000D01*
X142046000Y-68755000D02*
X137862000Y-68755000D01*
X142091000Y-68715000D02*
X137817000Y-68715000D01*
X142108000Y-63088759D02*
X141478000Y-63088759D01*
X142136000Y-68675000D02*
X137772000Y-68675000D01*
X142178000Y-68635000D02*
X137730000Y-68635000D01*
X142219000Y-68595000D02*
X137689000Y-68595000D01*
X142259000Y-68555000D02*
X140994000Y-68555000D01*
X142297000Y-68515000D02*
X140994000Y-68515000D01*
X142334000Y-68475000D02*
X140994000Y-68475000D01*
X142370000Y-68435000D02*
X140994000Y-68435000D01*
X142404000Y-68395000D02*
X140994000Y-68395000D01*
X142438000Y-68355000D02*
X140994000Y-68355000D01*
X142470000Y-68315000D02*
X140994000Y-68315000D01*
X142502000Y-68275000D02*
X140994000Y-68275000D01*
X142532000Y-68235000D02*
X140994000Y-68235000D01*
X142561000Y-68195000D02*
X140994000Y-68195000D01*
X142590000Y-68155000D02*
X140994000Y-68155000D01*
X142618000Y-68115000D02*
X140994000Y-68115000D01*
X142644000Y-68075000D02*
X140994000Y-68075000D01*
X142670000Y-68035000D02*
X140994000Y-68035000D01*
X142696000Y-67995000D02*
X140994000Y-67995000D01*
X142720000Y-67955000D02*
X140994000Y-67955000D01*
X142744000Y-67915000D02*
X140994000Y-67915000D01*
X142766000Y-67875000D02*
X140994000Y-67875000D01*
X142788000Y-67835000D02*
X140994000Y-67835000D01*
X142810000Y-67795000D02*
X140994000Y-67795000D01*
X142830000Y-67755000D02*
X140994000Y-67755000D01*
X142850000Y-67715000D02*
X140994000Y-67715000D01*
X142870000Y-67675000D02*
X140994000Y-67675000D01*
X142888000Y-67635000D02*
X140994000Y-67635000D01*
X142906000Y-67595000D02*
X140994000Y-67595000D01*
X142924000Y-67555000D02*
X140994000Y-67555000D01*
X142940000Y-67515000D02*
X140994000Y-67515000D01*
X142956000Y-67475000D02*
X140994000Y-67475000D01*
X142972000Y-67435000D02*
X140994000Y-67435000D01*
X142987000Y-67395000D02*
X140994000Y-67395000D01*
X143001000Y-67355000D02*
X140994000Y-67355000D01*
X143015000Y-67315000D02*
X140994000Y-67315000D01*
X143028000Y-67275000D02*
X140994000Y-67275000D01*
X143040000Y-67235000D02*
X140994000Y-67235000D01*
X143052000Y-67195000D02*
X140994000Y-67195000D01*
X143064000Y-67155000D02*
X140994000Y-67155000D01*
X143075000Y-67115000D02*
X140994000Y-67115000D01*
X143085000Y-67075000D02*
X140994000Y-67075000D01*
X143095000Y-67035000D02*
X140994000Y-67035000D01*
X143104000Y-66995000D02*
X140994000Y-66995000D01*
X143113000Y-66954000D02*
X140994000Y-66954000D01*
X143121000Y-66914000D02*
X140994000Y-66914000D01*
X143129000Y-66874000D02*
X140994000Y-66874000D01*
X143136000Y-66834000D02*
X140994000Y-66834000D01*
X143143000Y-66794000D02*
X140994000Y-66794000D01*
X143149000Y-66754000D02*
X140994000Y-66754000D01*
X143155000Y-66714000D02*
X140994000Y-66714000D01*
X143160000Y-66674000D02*
X140994000Y-66674000D01*
X143165000Y-66634000D02*
X140994000Y-66634000D01*
X143169000Y-66594000D02*
X140994000Y-66594000D01*
X143172000Y-66554000D02*
X140994000Y-66554000D01*
X143176000Y-66514000D02*
X140994000Y-66514000D01*
X143178000Y-66474000D02*
X136730000Y-66474000D01*
X143181000Y-66434000D02*
X136727000Y-66434000D01*
X143182000Y-66394000D02*
X136726000Y-66394000D01*
X143184000Y-66274000D02*
X136724000Y-66274000D01*
X143184000Y-66314000D02*
X136724000Y-66314000D01*
X143184000Y-66354000D02*
X136724000Y-66354000D01*
X143224000Y-66274000D02*
G75*
G02*
X136684000Y-66274000I-3270000J0D01*
G01*
X136684000Y-66274000D02*
G75*
G02*
X143224000Y-66274000I3270000J0D01*
G01*
%TO.C,R1*%
X132664564Y-118391000D02*
X132210436Y-118391000D01*
X132664564Y-119861000D02*
X132210436Y-119861000D01*
%TO.C,C4*%
X130309252Y-113311000D02*
X129786748Y-113311000D01*
X130309252Y-114781000D02*
X129786748Y-114781000D01*
%TO.C,U1*%
X128160000Y-44390000D02*
X128160000Y-64830000D01*
X128160000Y-64830000D02*
X133460000Y-64830000D01*
X129810000Y-44390000D02*
X128160000Y-44390000D01*
X133460000Y-44390000D02*
X131810000Y-44390000D01*
X133460000Y-64830000D02*
X133460000Y-44390000D01*
X131810000Y-44390000D02*
G75*
G02*
X129810000Y-44390000I-1000000J0D01*
G01*
%TO.C,R4*%
X132664564Y-120931000D02*
X132210436Y-120931000D01*
X132664564Y-122401000D02*
X132210436Y-122401000D01*
%TO.C,C6*%
X118168748Y-106453000D02*
X118691252Y-106453000D01*
X118168748Y-107923000D02*
X118691252Y-107923000D01*
%TO.C,U2*%
X93500000Y-70200000D02*
X96075000Y-70200000D01*
X93925000Y-73420000D02*
X96075000Y-73420000D01*
X96075000Y-70200000D02*
X96075000Y-71110000D01*
X96075000Y-72510000D02*
X96075000Y-73420000D01*
%TO.C,C5*%
X133545252Y-107215000D02*
X133022748Y-107215000D01*
X133545252Y-108685000D02*
X133022748Y-108685000D01*
%TO.C,U3*%
X136806000Y-115266000D02*
X136806000Y-125546000D01*
X136806000Y-125546000D02*
X142106000Y-125546000D01*
X138456000Y-115266000D02*
X136806000Y-115266000D01*
X142106000Y-115266000D02*
X140456000Y-115266000D01*
X142106000Y-125546000D02*
X142106000Y-115266000D01*
X140456000Y-115266000D02*
G75*
G02*
X138456000Y-115266000I-1000000J0D01*
G01*
%TO.C,C7*%
X133545252Y-105183000D02*
X133022748Y-105183000D01*
X133545252Y-106653000D02*
X133022748Y-106653000D01*
%TO.C,J1*%
X136698000Y-46208000D02*
X136698000Y-61328000D01*
X136698000Y-61328000D02*
X142668000Y-61328000D01*
X137458000Y-46968000D02*
X137458000Y-53768000D01*
X137458000Y-60568000D02*
X137458000Y-53768000D01*
X140408000Y-46218000D02*
X140408000Y-46968000D01*
X140408000Y-46968000D02*
X137458000Y-46968000D01*
X140408000Y-60568000D02*
X137458000Y-60568000D01*
X140408000Y-61318000D02*
X140408000Y-60568000D01*
X141908000Y-46218000D02*
X141908000Y-48018000D01*
X141908000Y-48018000D02*
X142658000Y-48018000D01*
X141908000Y-49518000D02*
X141908000Y-58018000D01*
X141908000Y-58018000D02*
X142658000Y-58018000D01*
X141908000Y-59518000D02*
X141908000Y-61318000D01*
X141908000Y-61318000D02*
X142658000Y-61318000D01*
X142658000Y-46218000D02*
X141908000Y-46218000D01*
X142658000Y-48018000D02*
X142658000Y-46218000D01*
X142658000Y-49518000D02*
X141908000Y-49518000D01*
X142658000Y-58018000D02*
X142658000Y-49518000D01*
X142658000Y-59518000D02*
X141908000Y-59518000D01*
X142658000Y-61318000D02*
X142658000Y-59518000D01*
X142668000Y-46208000D02*
X136698000Y-46208000D01*
X142668000Y-61328000D02*
X142668000Y-46208000D01*
X142958000Y-45918000D02*
X141708000Y-45918000D01*
X142958000Y-47168000D02*
X142958000Y-45918000D01*
D15*
%TO.C,REF\u002A\u002A*%
X143616242Y-78059364D02*
X143594203Y-78098059D01*
X143558971Y-78159513D01*
X143511711Y-78241702D01*
X143453589Y-78342604D01*
X143385771Y-78460195D01*
X143309424Y-78592454D01*
X143225714Y-78737358D01*
X143135806Y-78892883D01*
X143040867Y-79057008D01*
X143004732Y-79119451D01*
X142908083Y-79286513D01*
X142815938Y-79445926D01*
X142729475Y-79595645D01*
X142649871Y-79733624D01*
X142578305Y-79857815D01*
X142515955Y-79966173D01*
X142463998Y-80056652D01*
X142423613Y-80127204D01*
X142395978Y-80175785D01*
X142382272Y-80200346D01*
X142380974Y-80202915D01*
X142369220Y-80195431D01*
X142337795Y-80169386D01*
X142289594Y-80127441D01*
X142227510Y-80072254D01*
X142154439Y-80006483D01*
X142073276Y-79932788D01*
X141986916Y-79853827D01*
X141898253Y-79772260D01*
X141810182Y-79690746D01*
X141725599Y-79611943D01*
X141647397Y-79538510D01*
X141578472Y-79473107D01*
X141521719Y-79418392D01*
X141480032Y-79377023D01*
X141466363Y-79362836D01*
X141422201Y-79315820D01*
X141458619Y-79292472D01*
X141477693Y-79281092D01*
X141521421Y-79255512D01*
X141587619Y-79216998D01*
X141674102Y-79166814D01*
X141778685Y-79106225D01*
X141899183Y-79036497D01*
X142033412Y-78958893D01*
X142179187Y-78874680D01*
X142334323Y-78785121D01*
X142494000Y-78693002D01*
X142657117Y-78598924D01*
X142813709Y-78508598D01*
X142961506Y-78423335D01*
X143098240Y-78344443D01*
X143221642Y-78273231D01*
X143329444Y-78211009D01*
X143419377Y-78159087D01*
X143489173Y-78118772D01*
X143536564Y-78091376D01*
X143558786Y-78078493D01*
X143596330Y-78057493D01*
X143619831Y-78046075D01*
X143623920Y-78045449D01*
X143616242Y-78059364D01*
G36*
X143616242Y-78059364D02*
G01*
X143594203Y-78098059D01*
X143558971Y-78159513D01*
X143511711Y-78241702D01*
X143453589Y-78342604D01*
X143385771Y-78460195D01*
X143309424Y-78592454D01*
X143225714Y-78737358D01*
X143135806Y-78892883D01*
X143040867Y-79057008D01*
X143004732Y-79119451D01*
X142908083Y-79286513D01*
X142815938Y-79445926D01*
X142729475Y-79595645D01*
X142649871Y-79733624D01*
X142578305Y-79857815D01*
X142515955Y-79966173D01*
X142463998Y-80056652D01*
X142423613Y-80127204D01*
X142395978Y-80175785D01*
X142382272Y-80200346D01*
X142380974Y-80202915D01*
X142369220Y-80195431D01*
X142337795Y-80169386D01*
X142289594Y-80127441D01*
X142227510Y-80072254D01*
X142154439Y-80006483D01*
X142073276Y-79932788D01*
X141986916Y-79853827D01*
X141898253Y-79772260D01*
X141810182Y-79690746D01*
X141725599Y-79611943D01*
X141647397Y-79538510D01*
X141578472Y-79473107D01*
X141521719Y-79418392D01*
X141480032Y-79377023D01*
X141466363Y-79362836D01*
X141422201Y-79315820D01*
X141458619Y-79292472D01*
X141477693Y-79281092D01*
X141521421Y-79255512D01*
X141587619Y-79216998D01*
X141674102Y-79166814D01*
X141778685Y-79106225D01*
X141899183Y-79036497D01*
X142033412Y-78958893D01*
X142179187Y-78874680D01*
X142334323Y-78785121D01*
X142494000Y-78693002D01*
X142657117Y-78598924D01*
X142813709Y-78508598D01*
X142961506Y-78423335D01*
X143098240Y-78344443D01*
X143221642Y-78273231D01*
X143329444Y-78211009D01*
X143419377Y-78159087D01*
X143489173Y-78118772D01*
X143536564Y-78091376D01*
X143558786Y-78078493D01*
X143596330Y-78057493D01*
X143619831Y-78046075D01*
X143623920Y-78045449D01*
X143616242Y-78059364D01*
G37*
X140355965Y-79961499D02*
X140383882Y-79998886D01*
X140418725Y-80055765D01*
X140457754Y-80127688D01*
X140494843Y-80202985D01*
X140539817Y-80305440D01*
X140580226Y-80413183D01*
X140616969Y-80529927D01*
X140650942Y-80659382D01*
X140683044Y-80805260D01*
X140714173Y-80971274D01*
X140745227Y-81161134D01*
X140774145Y-81357531D01*
X140799800Y-81528166D01*
X140825198Y-81671455D01*
X140851602Y-81790992D01*
X140880273Y-81890370D01*
X140912473Y-81973182D01*
X140949465Y-82043022D01*
X140992512Y-82103482D01*
X141042875Y-82158155D01*
X141061583Y-82175786D01*
X141105139Y-82214000D01*
X141140682Y-82242268D01*
X141161583Y-82255382D01*
X141163297Y-82255732D01*
X141173806Y-82260320D01*
X141173924Y-82276242D01*
X141162254Y-82306734D01*
X141137396Y-82355032D01*
X141097952Y-82424373D01*
X141069587Y-82472561D01*
X141025247Y-82544417D01*
X140987279Y-82600258D01*
X140958416Y-82636333D01*
X140941388Y-82648887D01*
X140941264Y-82648879D01*
X140925037Y-82641094D01*
X140884400Y-82619108D01*
X140821567Y-82584197D01*
X140738752Y-82537637D01*
X140638172Y-82480705D01*
X140522040Y-82414677D01*
X140392571Y-82340828D01*
X140251980Y-82260436D01*
X140102482Y-82174776D01*
X139946292Y-82085124D01*
X139785624Y-81992757D01*
X139622693Y-81898951D01*
X139459713Y-81804982D01*
X139298900Y-81712126D01*
X139142468Y-81621660D01*
X138992633Y-81534859D01*
X138851608Y-81453000D01*
X138721609Y-81377359D01*
X138604849Y-81309213D01*
X138503545Y-81249837D01*
X138419911Y-81200507D01*
X138356162Y-81162500D01*
X138314511Y-81137093D01*
X138297175Y-81125560D01*
X138296805Y-81125077D01*
X138309835Y-81115957D01*
X138347245Y-81092935D01*
X138406514Y-81057466D01*
X138485118Y-81011004D01*
X138580538Y-80955004D01*
X138690250Y-80890919D01*
X138811734Y-80820204D01*
X138942468Y-80744313D01*
X139079930Y-80664701D01*
X139221598Y-80582822D01*
X139364951Y-80500130D01*
X139507467Y-80418079D01*
X139646624Y-80338124D01*
X139779901Y-80261719D01*
X139904776Y-80190318D01*
X140018727Y-80125376D01*
X140119233Y-80068347D01*
X140203772Y-80020685D01*
X140269822Y-79983845D01*
X140314862Y-79959280D01*
X140336370Y-79948446D01*
X140337714Y-79948049D01*
X140355965Y-79961499D01*
G36*
X140355965Y-79961499D02*
G01*
X140383882Y-79998886D01*
X140418725Y-80055765D01*
X140457754Y-80127688D01*
X140494843Y-80202985D01*
X140539817Y-80305440D01*
X140580226Y-80413183D01*
X140616969Y-80529927D01*
X140650942Y-80659382D01*
X140683044Y-80805260D01*
X140714173Y-80971274D01*
X140745227Y-81161134D01*
X140774145Y-81357531D01*
X140799800Y-81528166D01*
X140825198Y-81671455D01*
X140851602Y-81790992D01*
X140880273Y-81890370D01*
X140912473Y-81973182D01*
X140949465Y-82043022D01*
X140992512Y-82103482D01*
X141042875Y-82158155D01*
X141061583Y-82175786D01*
X141105139Y-82214000D01*
X141140682Y-82242268D01*
X141161583Y-82255382D01*
X141163297Y-82255732D01*
X141173806Y-82260320D01*
X141173924Y-82276242D01*
X141162254Y-82306734D01*
X141137396Y-82355032D01*
X141097952Y-82424373D01*
X141069587Y-82472561D01*
X141025247Y-82544417D01*
X140987279Y-82600258D01*
X140958416Y-82636333D01*
X140941388Y-82648887D01*
X140941264Y-82648879D01*
X140925037Y-82641094D01*
X140884400Y-82619108D01*
X140821567Y-82584197D01*
X140738752Y-82537637D01*
X140638172Y-82480705D01*
X140522040Y-82414677D01*
X140392571Y-82340828D01*
X140251980Y-82260436D01*
X140102482Y-82174776D01*
X139946292Y-82085124D01*
X139785624Y-81992757D01*
X139622693Y-81898951D01*
X139459713Y-81804982D01*
X139298900Y-81712126D01*
X139142468Y-81621660D01*
X138992633Y-81534859D01*
X138851608Y-81453000D01*
X138721609Y-81377359D01*
X138604849Y-81309213D01*
X138503545Y-81249837D01*
X138419911Y-81200507D01*
X138356162Y-81162500D01*
X138314511Y-81137093D01*
X138297175Y-81125560D01*
X138296805Y-81125077D01*
X138309835Y-81115957D01*
X138347245Y-81092935D01*
X138406514Y-81057466D01*
X138485118Y-81011004D01*
X138580538Y-80955004D01*
X138690250Y-80890919D01*
X138811734Y-80820204D01*
X138942468Y-80744313D01*
X139079930Y-80664701D01*
X139221598Y-80582822D01*
X139364951Y-80500130D01*
X139507467Y-80418079D01*
X139646624Y-80338124D01*
X139779901Y-80261719D01*
X139904776Y-80190318D01*
X140018727Y-80125376D01*
X140119233Y-80068347D01*
X140203772Y-80020685D01*
X140269822Y-79983845D01*
X140314862Y-79959280D01*
X140336370Y-79948446D01*
X140337714Y-79948049D01*
X140355965Y-79961499D01*
G37*
X144170280Y-78359598D02*
X144171559Y-78402896D01*
X144172796Y-78474286D01*
X144173983Y-78572327D01*
X144175115Y-78695578D01*
X144176186Y-78842597D01*
X144177189Y-79011943D01*
X144178119Y-79202174D01*
X144178968Y-79411849D01*
X144179732Y-79639527D01*
X144180403Y-79883765D01*
X144180976Y-80143123D01*
X144181444Y-80416159D01*
X144181802Y-80701432D01*
X144182042Y-80997500D01*
X144182159Y-81302921D01*
X144182171Y-81431076D01*
X144182171Y-84531030D01*
X143798847Y-84309947D01*
X143717680Y-84263144D01*
X143613166Y-84202898D01*
X143488801Y-84131222D01*
X143348082Y-84050131D01*
X143194503Y-83961638D01*
X143031562Y-83867760D01*
X142862754Y-83770509D01*
X142691575Y-83671900D01*
X142521521Y-83573947D01*
X142478512Y-83549175D01*
X142321857Y-83458848D01*
X142172803Y-83372711D01*
X142033568Y-83292058D01*
X141906371Y-83218184D01*
X141793432Y-83152383D01*
X141696968Y-83095950D01*
X141619200Y-83050179D01*
X141562346Y-83016365D01*
X141528625Y-82995802D01*
X141520040Y-82990047D01*
X141513189Y-82977942D01*
X141515158Y-82957906D01*
X141527736Y-82925381D01*
X141552712Y-82875807D01*
X141591876Y-82804626D01*
X141594988Y-82799084D01*
X141632476Y-82733526D01*
X141665319Y-82678202D01*
X141690205Y-82638545D01*
X141703820Y-82619988D01*
X141704487Y-82619469D01*
X141723390Y-82623952D01*
X141765605Y-82644514D01*
X141828832Y-82679817D01*
X141910772Y-82728520D01*
X142009122Y-82789282D01*
X142121585Y-82860764D01*
X142149165Y-82878555D01*
X142225699Y-82924907D01*
X142291556Y-82958658D01*
X142340782Y-82976847D01*
X142350507Y-82978714D01*
X142393312Y-82977885D01*
X142461209Y-82968606D01*
X142549843Y-82952032D01*
X142654859Y-82929320D01*
X142771902Y-82901627D01*
X142896616Y-82870110D01*
X143024645Y-82835925D01*
X143151634Y-82800229D01*
X143273228Y-82764179D01*
X143385072Y-82728932D01*
X143482810Y-82695644D01*
X143562087Y-82665472D01*
X143609122Y-82644439D01*
X143659225Y-82619663D01*
X143707168Y-82596270D01*
X143709793Y-82595003D01*
X143758220Y-82556301D01*
X143790828Y-82499816D01*
X143806454Y-82434061D01*
X143803937Y-82367549D01*
X143782114Y-82308795D01*
X143753382Y-82275742D01*
X143674583Y-82228141D01*
X143576378Y-82193261D01*
X143468779Y-82174123D01*
X143407780Y-82171412D01*
X143293935Y-82182330D01*
X143199660Y-82214376D01*
X143120379Y-82269274D01*
X143102733Y-82286393D01*
X143053235Y-82337339D01*
X142703362Y-82340837D01*
X142353489Y-82344336D01*
X142218531Y-82255182D01*
X142157445Y-82213346D01*
X142102493Y-82173055D01*
X142061336Y-82140057D01*
X142046192Y-82125874D01*
X142008810Y-82085719D01*
X142038098Y-82031335D01*
X142059084Y-81996961D01*
X142075378Y-81978154D01*
X142078307Y-81976951D01*
X142090728Y-81964097D01*
X142099977Y-81942104D01*
X142108313Y-81920850D01*
X142124149Y-81888306D01*
X142149033Y-81841678D01*
X142184509Y-81778171D01*
X142232123Y-81694992D01*
X142293422Y-81589347D01*
X142326932Y-81531938D01*
X142367071Y-81464406D01*
X142395659Y-81420115D01*
X142416039Y-81395145D01*
X142431553Y-81385577D01*
X142445546Y-81387492D01*
X142448796Y-81389089D01*
X142469266Y-81404624D01*
X142507665Y-81437864D01*
X142559696Y-81484938D01*
X142621066Y-81541972D01*
X142673090Y-81591300D01*
X142796567Y-81704970D01*
X142903591Y-81793895D01*
X142995240Y-81858866D01*
X143072588Y-81900679D01*
X143111866Y-81914783D01*
X143146249Y-81920608D01*
X143204899Y-81926625D01*
X143281117Y-81932304D01*
X143368202Y-81937116D01*
X143423268Y-81939381D01*
X143518464Y-81942541D01*
X143588062Y-81943931D01*
X143637409Y-81943142D01*
X143671854Y-81939765D01*
X143696743Y-81933392D01*
X143717425Y-81923613D01*
X143730053Y-81915933D01*
X143778726Y-81871579D01*
X143812645Y-81814426D01*
X143827438Y-81754292D01*
X143822086Y-81709227D01*
X143798930Y-81668424D01*
X143757462Y-81617276D01*
X143704912Y-81562958D01*
X143648516Y-81512643D01*
X143595505Y-81473506D01*
X143569889Y-81459095D01*
X143534814Y-81437509D01*
X143481389Y-81398247D01*
X143413789Y-81344898D01*
X143336190Y-81281048D01*
X143252768Y-81210285D01*
X143167698Y-81136196D01*
X143085155Y-81062368D01*
X143009316Y-80992389D01*
X142944356Y-80929845D01*
X142896669Y-80880740D01*
X142849032Y-80826221D01*
X142813908Y-80780358D01*
X142794949Y-80748189D01*
X142792864Y-80737511D01*
X142801274Y-80721147D01*
X142823846Y-80680329D01*
X142859224Y-80617414D01*
X142906054Y-80534756D01*
X142962981Y-80434711D01*
X143028649Y-80319634D01*
X143101703Y-80191881D01*
X143180788Y-80053806D01*
X143264548Y-79907766D01*
X143351629Y-79756116D01*
X143440676Y-79601210D01*
X143530332Y-79445405D01*
X143619243Y-79291056D01*
X143706054Y-79140518D01*
X143789409Y-78996146D01*
X143867954Y-78860296D01*
X143940333Y-78735323D01*
X144005190Y-78623583D01*
X144061171Y-78527430D01*
X144106920Y-78449221D01*
X144141083Y-78391311D01*
X144162304Y-78356054D01*
X144168963Y-78345835D01*
X144170280Y-78359598D01*
G36*
X144170280Y-78359598D02*
G01*
X144171559Y-78402896D01*
X144172796Y-78474286D01*
X144173983Y-78572327D01*
X144175115Y-78695578D01*
X144176186Y-78842597D01*
X144177189Y-79011943D01*
X144178119Y-79202174D01*
X144178968Y-79411849D01*
X144179732Y-79639527D01*
X144180403Y-79883765D01*
X144180976Y-80143123D01*
X144181444Y-80416159D01*
X144181802Y-80701432D01*
X144182042Y-80997500D01*
X144182159Y-81302921D01*
X144182171Y-81431076D01*
X144182171Y-84531030D01*
X143798847Y-84309947D01*
X143717680Y-84263144D01*
X143613166Y-84202898D01*
X143488801Y-84131222D01*
X143348082Y-84050131D01*
X143194503Y-83961638D01*
X143031562Y-83867760D01*
X142862754Y-83770509D01*
X142691575Y-83671900D01*
X142521521Y-83573947D01*
X142478512Y-83549175D01*
X142321857Y-83458848D01*
X142172803Y-83372711D01*
X142033568Y-83292058D01*
X141906371Y-83218184D01*
X141793432Y-83152383D01*
X141696968Y-83095950D01*
X141619200Y-83050179D01*
X141562346Y-83016365D01*
X141528625Y-82995802D01*
X141520040Y-82990047D01*
X141513189Y-82977942D01*
X141515158Y-82957906D01*
X141527736Y-82925381D01*
X141552712Y-82875807D01*
X141591876Y-82804626D01*
X141594988Y-82799084D01*
X141632476Y-82733526D01*
X141665319Y-82678202D01*
X141690205Y-82638545D01*
X141703820Y-82619988D01*
X141704487Y-82619469D01*
X141723390Y-82623952D01*
X141765605Y-82644514D01*
X141828832Y-82679817D01*
X141910772Y-82728520D01*
X142009122Y-82789282D01*
X142121585Y-82860764D01*
X142149165Y-82878555D01*
X142225699Y-82924907D01*
X142291556Y-82958658D01*
X142340782Y-82976847D01*
X142350507Y-82978714D01*
X142393312Y-82977885D01*
X142461209Y-82968606D01*
X142549843Y-82952032D01*
X142654859Y-82929320D01*
X142771902Y-82901627D01*
X142896616Y-82870110D01*
X143024645Y-82835925D01*
X143151634Y-82800229D01*
X143273228Y-82764179D01*
X143385072Y-82728932D01*
X143482810Y-82695644D01*
X143562087Y-82665472D01*
X143609122Y-82644439D01*
X143659225Y-82619663D01*
X143707168Y-82596270D01*
X143709793Y-82595003D01*
X143758220Y-82556301D01*
X143790828Y-82499816D01*
X143806454Y-82434061D01*
X143803937Y-82367549D01*
X143782114Y-82308795D01*
X143753382Y-82275742D01*
X143674583Y-82228141D01*
X143576378Y-82193261D01*
X143468779Y-82174123D01*
X143407780Y-82171412D01*
X143293935Y-82182330D01*
X143199660Y-82214376D01*
X143120379Y-82269274D01*
X143102733Y-82286393D01*
X143053235Y-82337339D01*
X142703362Y-82340837D01*
X142353489Y-82344336D01*
X142218531Y-82255182D01*
X142157445Y-82213346D01*
X142102493Y-82173055D01*
X142061336Y-82140057D01*
X142046192Y-82125874D01*
X142008810Y-82085719D01*
X142038098Y-82031335D01*
X142059084Y-81996961D01*
X142075378Y-81978154D01*
X142078307Y-81976951D01*
X142090728Y-81964097D01*
X142099977Y-81942104D01*
X142108313Y-81920850D01*
X142124149Y-81888306D01*
X142149033Y-81841678D01*
X142184509Y-81778171D01*
X142232123Y-81694992D01*
X142293422Y-81589347D01*
X142326932Y-81531938D01*
X142367071Y-81464406D01*
X142395659Y-81420115D01*
X142416039Y-81395145D01*
X142431553Y-81385577D01*
X142445546Y-81387492D01*
X142448796Y-81389089D01*
X142469266Y-81404624D01*
X142507665Y-81437864D01*
X142559696Y-81484938D01*
X142621066Y-81541972D01*
X142673090Y-81591300D01*
X142796567Y-81704970D01*
X142903591Y-81793895D01*
X142995240Y-81858866D01*
X143072588Y-81900679D01*
X143111866Y-81914783D01*
X143146249Y-81920608D01*
X143204899Y-81926625D01*
X143281117Y-81932304D01*
X143368202Y-81937116D01*
X143423268Y-81939381D01*
X143518464Y-81942541D01*
X143588062Y-81943931D01*
X143637409Y-81943142D01*
X143671854Y-81939765D01*
X143696743Y-81933392D01*
X143717425Y-81923613D01*
X143730053Y-81915933D01*
X143778726Y-81871579D01*
X143812645Y-81814426D01*
X143827438Y-81754292D01*
X143822086Y-81709227D01*
X143798930Y-81668424D01*
X143757462Y-81617276D01*
X143704912Y-81562958D01*
X143648516Y-81512643D01*
X143595505Y-81473506D01*
X143569889Y-81459095D01*
X143534814Y-81437509D01*
X143481389Y-81398247D01*
X143413789Y-81344898D01*
X143336190Y-81281048D01*
X143252768Y-81210285D01*
X143167698Y-81136196D01*
X143085155Y-81062368D01*
X143009316Y-80992389D01*
X142944356Y-80929845D01*
X142896669Y-80880740D01*
X142849032Y-80826221D01*
X142813908Y-80780358D01*
X142794949Y-80748189D01*
X142792864Y-80737511D01*
X142801274Y-80721147D01*
X142823846Y-80680329D01*
X142859224Y-80617414D01*
X142906054Y-80534756D01*
X142962981Y-80434711D01*
X143028649Y-80319634D01*
X143101703Y-80191881D01*
X143180788Y-80053806D01*
X143264548Y-79907766D01*
X143351629Y-79756116D01*
X143440676Y-79601210D01*
X143530332Y-79445405D01*
X143619243Y-79291056D01*
X143706054Y-79140518D01*
X143789409Y-78996146D01*
X143867954Y-78860296D01*
X143940333Y-78735323D01*
X144005190Y-78623583D01*
X144061171Y-78527430D01*
X144106920Y-78449221D01*
X144141083Y-78391311D01*
X144162304Y-78356054D01*
X144168963Y-78345835D01*
X144170280Y-78359598D01*
G37*
D14*
%TO.C,R3*%
X137591436Y-91975000D02*
X138045564Y-91975000D01*
X137591436Y-93445000D02*
X138045564Y-93445000D01*
%TO.C,F1*%
X142038000Y-91276078D02*
X142038000Y-90758922D01*
X143458000Y-91276078D02*
X143458000Y-90758922D01*
%TO.C,JP1*%
X125238000Y-118884000D02*
X127238000Y-118884000D01*
X125238000Y-121684000D02*
X125238000Y-118884000D01*
X127238000Y-118884000D02*
X127238000Y-121684000D01*
X127238000Y-121684000D02*
X125238000Y-121684000D01*
%TD*%
M02*
