%TF.GenerationSoftware,KiCad,Pcbnew,9.0.4-9.0.4-0~ubuntu22.04.1*%
%TF.CreationDate,2025-10-10T14:21:56+02:00*%
%TF.ProjectId,ModuleController,4d6f6475-6c65-4436-9f6e-74726f6c6c65,rev?*%
%TF.SameCoordinates,Original*%
%TF.FileFunction,Paste,Top*%
%TF.FilePolarity,Positive*%
%FSLAX46Y46*%
G04 Gerber Fmt 4.6, Leading zero omitted, Abs format (unit mm)*
G04 Created by KiCad (PCBNEW 9.0.4-9.0.4-0~ubuntu22.04.1) date 2025-10-10 14:21:56*
%MOMM*%
%LPD*%
G01*
G04 APERTURE LIST*
G04 Aperture macros list*
%AMRoundRect*
0 Rectangle with rounded corners*
0 $1 Rounding radius*
0 $2 $3 $4 $5 $6 $7 $8 $9 X,Y pos of 4 corners*
0 Add a 4 corners polygon primitive as box body*
4,1,4,$2,$3,$4,$5,$6,$7,$8,$9,$2,$3,0*
0 Add four circle primitives for the rounded corners*
1,1,$1+$1,$2,$3*
1,1,$1+$1,$4,$5*
1,1,$1+$1,$6,$7*
1,1,$1+$1,$8,$9*
0 Add four rect primitives between the rounded corners*
20,1,$1+$1,$2,$3,$4,$5,0*
20,1,$1+$1,$4,$5,$6,$7,0*
20,1,$1+$1,$6,$7,$8,$9,0*
20,1,$1+$1,$8,$9,$2,$3,0*%
G04 Aperture macros list end*
%ADD10RoundRect,0.250000X0.650000X-0.325000X0.650000X0.325000X-0.650000X0.325000X-0.650000X-0.325000X0*%
%ADD11RoundRect,0.250000X0.250000X0.475000X-0.250000X0.475000X-0.250000X-0.475000X0.250000X-0.475000X0*%
%ADD12RoundRect,0.250000X-0.262500X-0.450000X0.262500X-0.450000X0.262500X0.450000X-0.262500X0.450000X0*%
%ADD13R,1.600000X0.550000*%
%ADD14R,0.550000X1.600000*%
%ADD15RoundRect,0.250000X0.262500X0.450000X-0.262500X0.450000X-0.262500X-0.450000X0.262500X-0.450000X0*%
%ADD16RoundRect,0.250000X-0.250000X-0.475000X0.250000X-0.475000X0.250000X0.475000X-0.250000X0.475000X0*%
%ADD17R,1.000000X0.700000*%
%ADD18RoundRect,0.243750X0.456250X-0.243750X0.456250X0.243750X-0.456250X0.243750X-0.456250X-0.243750X0*%
G04 APERTURE END LIST*
D10*
%TO.C,C2*%
X138176000Y-106934000D03*
X138176000Y-103984000D03*
%TD*%
D11*
%TO.C,C8*%
X134488000Y-66040000D03*
X132588000Y-66040000D03*
%TD*%
%TO.C,C3*%
X130998000Y-116332000D03*
X129098000Y-116332000D03*
%TD*%
D12*
%TO.C,R2*%
X136906000Y-89916000D03*
X138731000Y-89916000D03*
%TD*%
D13*
%TO.C,U4*%
X121588000Y-103186000D03*
X121588000Y-103986000D03*
X121588000Y-104786000D03*
X121588000Y-105586000D03*
X121588000Y-106386000D03*
X121588000Y-107186000D03*
X121588000Y-107986000D03*
X121588000Y-108786000D03*
D14*
X123038000Y-110236000D03*
X123838000Y-110236000D03*
X124638000Y-110236000D03*
X125438000Y-110236000D03*
X126238000Y-110236000D03*
X127038000Y-110236000D03*
X127838000Y-110236000D03*
X128638000Y-110236000D03*
D13*
X130088000Y-108786000D03*
X130088000Y-107986000D03*
X130088000Y-107186000D03*
X130088000Y-106386000D03*
X130088000Y-105586000D03*
X130088000Y-104786000D03*
X130088000Y-103986000D03*
X130088000Y-103186000D03*
D14*
X128638000Y-101736000D03*
X127838000Y-101736000D03*
X127038000Y-101736000D03*
X126238000Y-101736000D03*
X125438000Y-101736000D03*
X124638000Y-101736000D03*
X123838000Y-101736000D03*
X123038000Y-101736000D03*
%TD*%
D15*
%TO.C,R1*%
X133350000Y-119126000D03*
X131525000Y-119126000D03*
%TD*%
D11*
%TO.C,C4*%
X130998000Y-114046000D03*
X129098000Y-114046000D03*
%TD*%
D15*
%TO.C,R4*%
X133350000Y-121666000D03*
X131525000Y-121666000D03*
%TD*%
D16*
%TO.C,C6*%
X117480000Y-107188000D03*
X119380000Y-107188000D03*
%TD*%
D17*
%TO.C,U2*%
X93800000Y-70860000D03*
X93800000Y-72760000D03*
X96200000Y-71810000D03*
%TD*%
D11*
%TO.C,C5*%
X134234000Y-107950000D03*
X132334000Y-107950000D03*
%TD*%
%TO.C,C7*%
X134234000Y-105918000D03*
X132334000Y-105918000D03*
%TD*%
D12*
%TO.C,R3*%
X136906000Y-92710000D03*
X138731000Y-92710000D03*
%TD*%
D18*
%TO.C,F1*%
X142748000Y-91955000D03*
X142748000Y-90080000D03*
%TD*%
M02*
